<mxfile host="Electron" modified="2024-05-27T19:14:18.481Z" agent="Mozilla/5.0 (Macintosh; Intel Mac OS X 10_15_7) AppleWebKit/537.36 (KHTML, like Gecko) draw.io/24.4.8 Chrome/124.0.6367.207 Electron/30.0.6 Safari/537.36" etag="XNTsDNE3xrbDVSekpew_" version="24.4.8" type="device">
  <diagram name="Page-1" id="q3mRLjCT4t8pHXbemgJ7">
    <mxGraphModel dx="994" dy="726" grid="1" gridSize="10" guides="1" tooltips="1" connect="1" arrows="1" fold="1" page="1" pageScale="1" pageWidth="827" pageHeight="1169" math="0" shadow="0">
      <root>
        <mxCell id="0" />
        <mxCell id="1" parent="0" />
        <mxCell id="0TxaiJhhkCyc-LvePMhZ-4" value="" style="shape=image;aspect=fixed;image=data:image/png,iVBORw0KGgoAAAANSUhEUgAABLAAAAJoCAYAAAB2nBi3AAAAAXNSR0IArs4c6QAAIABJREFUeF7sXQVYlVnXXSZgK3Z3d7eO3WOMjd3d3d2t2Izd3d2tY8c4doOYKAKi8v9r810EJS5KXC77PI/PjN7znljn3Hv2u87ea0fw8PDwgBZFQBFQBBQBRUARUAQUAUVAEVAEFAFFQBFQBBQBRcBEEYigBJaJrowOSxFQBBQBRUARUAQUAUVAEVAEFAFFQBFQBBQBRUAQUAJLN4IioAgoAoqAIqAIKAKKgCKgCCgCioAioAgoAoqASSOgBJZJL48OThEIuwgwOvnt27d49OgR7O3t8fLlSzg7O8PV1RXu7u7Q6OWwu7aBHXnEiBFhYWEBKysrxI0bFwkTJkTSpEmRKlUqRI0aNbDNaf1gRODLly948eIFnj59CgcHB7x580a+t25ubuBnWsIPApEjR4alpSWiRYsGa2trJEqUCClSpEDixIkRKVKk8AOEzlQRUAQUAUVAEVAETAYBJbBMZil0IIqAeSDw7t07nDp1CufPn5eX4K9fv+Lbt29CWBn+mMdMdRaBQSBChAhSnf8locU/JLSyZs2KEiVKIHPmzIgSJUpgmtS6QYgAv6tHjhzBlStXhHjm99b7d1YJ5yAEOww1xe+r9z8krkhm5cmTB6VLlxYyS4sioAgoAoqAIqAIKAIhhYASWCGFtPajCJgxAh8/fhSy6vDhw7h06RK+enyBpVVUxIwbHYlTJ0D8JHEQN0EsRItlhagWURA5SiR5KdISPhAggenu9gWuLp/h9OYj3r50wssnr+Hw5DVcP32Gm8tnJEqYCKVKlUKBAgUQO3Zs9cwK5q1BgsrJyQk3b97EwYMHce/eXVhYRYVFtKiwThQHiVPFR9yEsREnfkxYRrdAVIvIiBRZvW6CeVlMqvkvX77C3c0dLh/d8O7VB7xxeA/7R47y/TV8b7NkyYIyZcogU6ZMiBUrlhDTWhQBRUARUAQUAUVAEQguBJTACi5ktV1FIBwg4OLigjt37uDkyZO4evUqIltFQMJk1kiWLhGSpUuI2NYx9IUmHOyDX50iX44dnrzB07v2sH/0Cg5PX8M6bnwUK1ZMiCx6d+gL8a+i6/dz79+/x+XLl3HixAk8evwQseJHl+9tigyJkSR1fFjFsFSCOehhN4sW6Ynn7OSCFw9f4emdF3j57A0+vHFB2jRpUbx4ceTKlQsxY8Y0i7nqJBQBRUARUAQUAUXA9BBQAsv01kRHpAiYPAJ8iXn+/LmEHJ07dw6fv7oiY57USJU5KRImi4eolhoKZvKLaEID5H768NYZzx864t61J7B/+BopkqVAyZIlhcxSvZ2gWSx6wl2/fl08Jf+9/S9ixLNEhlypkDx9YsRLpN4zQYNy+GmF++n1i3d4csced648wqf3n5EtazbxyGJIsJLP4Wcv6EwVAUVAEVAEFIGQQkAJrJBCWvtRBMwEAZINt2/fxvr16/Hw0UOkypIE+UpnRez4MSU8UIsi8DsI0Lvj0e3nuHj4Jr64eiBv3ryoX7++enX8DqiAJE8gcbV//368e/8WuUtmQeZ8aSTMN1IkDfv6TXjD9eNfv3yF01tn3Dx3D1dO3EbCBAlRsWJF0bbTJA3hemvo5BUBRUARUAQUgSBHQAmsIIdUG1QEzBuBa9euYcbMGYgQ0QNFKudG1gLpEFFfgM170UNhdh/efsT+Nafx/IGjeHO0adMGCRIkCIWRhP0uGeq7detW7N27F9FiWqBqi1KInyRu2J+YzsDkEHj59DV2LT0GV+fPqFHjT1SpUkVJLJNbJR2QIqAIKAKKgCIQdhFQAivsrp2OXBEIUQTc3Nwku+CyZcsQJ2FMFK6YE6kyJ0PEiCrGHqILEY46++L+Faf3XMa/Fx4gQ7qMaNCgAVKkSKH6TIHYA87Ozti0aROOHDuClBkTo3i1vOJ1pUURCC4EKPJ+cudFPLv3EhUrVEK1atUQLVq04OpO21UEFAFFQBFQBBSBcISAEljhaLF1qorAryJA8opC7QwbjBnfCkUq50KytIl+tTl9ThEwGoGvX7/hyvF/JTQpXeoMsLGxEXF3LQEj8OHDB2zcuBHHTxwTjbp8ZbIiVtwYAT+oNRSB30TgnaMTzh+8gbtXH6Nc2XL4888/ESOG7r3fhFUfVwQUAUVAEVAEwj0CSmCF+y2gACgC/iPw9etXXLhwAWvXrkXk6B4oXbsQ4ieJo7ApAiGGwGc3d9w4cxcXj95ChrQZ0a5dO9XECgB9al6RvNq3b59oXRWqmBMxYqsXTIhtWu1IEjOc3HUJj26+QOXKlVG9enVYWFgoMoqAIqAIKAKKgCKgCPwyAkpg/TJ0+qAiED4QYLbB2bNn45P7B5SrXxgJk1uHj4nrLE0KAffPX3DuwDVcPfEfihYpipYtW2p2Qj9WiNnhDh06JARWvKQxUbFxMVhGU+LApDZ0OBmMi7Mr9iw/gQ+vXNGwYUMULVpUQ4DDydrrNBUBRUARUAQUgeBAQAms4EBV21QEzAQBvgiTvLp28ypK1yyA9LlSmsXLB8PSvrh/AeDxw0pFEE2viJEihWhmtm9fv8Hd3V36jRw5kllgHBxfAWpibV98GK+evUejRo1QunRpxcoXoO/cuQM7Ozt8dH2P+t0qI6qleWQHdf/sDv4m/VgiRIiACBEjCqEZYpp8HsCXL19AD9XIUaKE6O9FcHy3grPNj+8/YaPtfljHToDWrVsjZcqUwdmdtq0IKAKKgCKgCCgCZoyAElhmvLg6NUXgdxE4ceIEFtstQvbCGVCoQk6zeRE+d+wS1tltg7ubuxdEESJGgKWVBWLFiYkMWdMiS+6MSJMxBaLHCP6wq4unr2LpzHXIWzQn6jSrihixVGTbr73r9OYjNi84iARxEsnLcPLkyX93m5vV858+fcKaNWtw9vxplK1XGKmzJDOb+c2fuAw3L/3nYz6RIkVEtBjRED9xPGTOmQGZc6ZHyjTJgj0zKj2Ltq3ei1MHz6NxhzooWDKP2eAc1BPx8PDAnSuPcGzLBZQuWQZ169ZFlCjmQaoGNVbaniKgCCgCioAioAj4j4ASWLpDFAFFwFcE7O3tMW7cOESyAso3KArrxLHNBqmd6w5gQv/Z4ItVttwZ5b8MUfvo5AyHF6/g5uKGJCkSoUbDiqjVtArixIsVrHPfv/UYhnWeiPI1SqLHyHaIY20+WAcHcP/+8wAnt19ChfIVUbVqVVhaWgZHN2GyzUuXLmHhooVImysZCpXPAQurqGFyHr4NukfjITh16ALiWsdG6gwpQE9KemW9e+OEV/avgQhAllwZ0aBNLZSpVixYvfM+vP8I27FLsHXVHgye2gNV6pY1G5yDYyIuH11xavdlPP3XEV26dEHmzJmDoxttUxFQBBQBRUARUATMHAElsMx8gXV6isCvIEBCZ/Xq1dizZw9K1SqA7IXTB+vL4K+M8XeeMRBYceLGwqx1Y4XA+vrlqxBXr16+xc61+3F0z2nxhGraua54WDA8KbiKo/1r3L52DwkSWyNtplSIEjVycHVlFu26fvqMQxvOwuX1F3Tu3BkpUqQwi3n97iS4j8eOHQvH9/YoU6cQEqeK/7tNmtTzBgKraNkC6D6iLTy+eUgY36ePLrh76yE2LduJOzfuI2GS+BgwuSuKlikQbOP/8uUrHt55DPunjsiYLS0SJjUvrIMDuKd3HXBo41kkT5QS/fr1M6szJTjw0jYVAUVAEVAEFAFF4GcEfBBYs2bNwn//+XTPV9AUgfCKQJo0adCzZ89wOf3Hjx/D1tYWH1yd0LhXVUSOEnzkTWgAbCCwEiSMh41n7HwMgSTAG8e3mD58AfZtPoqYsaJj9ZH5SJDEp3i9q4sb7t16CA94IHX6FD+F/Xl4ABEi+D27Hz/n31n8esbh+Su8fO4odTgWkl2+kWrPHtnD8cUrxEsQB0lTJkbkKOZHhnGN7t94ikPrz6JaleqS3SxixIihsZVMqk96X82cNRPZCqVH8ep5zA4TA4FV/s9SGD2vvw/sSUBfOnMNEwfMwaO7T5EhW1os3DoFVtG/e+dx37x++RbPHr1AtOhWSJ81jQ8SJaDvoG+f+/c9p4fY04fP8e71e0S1iIqkKRMhdtyfvTk/f3bHk3vP4PzBGcnSJIV1grgmta+CajDU+ju44SzuXH6Enj16ImfOnEHVdJhsZ8iQIXj37l2YHLsOWhEIagQKFy6Mxo0bB3Wz2p4ioAiYIQI+CCyGC928eRPW1sGv+WKGWOqUzAiB168/IUOGDBg6dKgZzcq4qfAlb9euXdiyZQtK1s6HTHlSG/dgGKrlH4FlmMb545cxvPMkvHr5Bu36NkXLHg3lI+cPn7Bu8TYsmbkG7hSC9wBixo6Otn2aoKZNZUSKHAnb1+zDjBELESNGdKw/tQhRfiCRtqzYjfF9Z6FR+9po08sGx/efxZAO41GhZmn0Gt3eK4SQ4VEch920Vbh+6TYiwFNkni/GJSoWxqS/Pfcnha3v3HiAmSMX4p+TV2UMHt++IWeBbOKJkiqd+elEfXjnjKObz8P17TeMGjUKFhbhO8se98D48ePx5PkjVG5aAolTmp9HkH8EFr8H/O2aMXwh1tttg1V0KwyZ3hOlKhWR78hrx7eYMWwBDu86CRIpX799Q9IUiTBgUjfkK5ZTyL4BbcbgyO5TqFqvnPw79bUMhc9P6j8HR/ecwvRVo5E1d0bMHm0HfpeHzuglzxgKfyO2r96LFbYb4OjwxotopuB7q56N5LeChYkkzhy5iGlD5+P5E3tPMs0D0laXIa0QK27MMPSratxQn91/iR1/H0H2rDnQrVs3syNZjUPBsxbn/+7dW8SNaxWYx7SuImB2CNDmLlmyJNq0aWN2c9MJKQKKQNAj4CuBtXy554uaFkUgvCLQpMnqcEtgvX//HkuXLsXtu7fQuHdVRDbDcDZjCKyXL15h8kBbCSXMXyI35qwbJyGGy23XY4XtRiRJmQh5C+eAm9tnUBT+zcu3mLhkGIqWyY97/z7EiC6Tcfv6PUxZNhzFyxfy+irRU6R97b54cv8ZBkzqipKVimDflqMY2nEC6FnSa0wH0fghSXV09ylMH7YAL+1fibB8hqxpED1mNLx2eIukqRKj8+CW0u69248wsd9s3L52FwVL5hVPD47h6vmbyJQjHWauGSsC9eZUSFZcPHwT5w5cR4/uPcK9N8ejR48wevRoJEoVD9ValAp2EfPQ2EsBEVgc05VzN9CzyTDRxmrerSFadm+A92+d0K/lKNy49B9yFsiK9FlSw/7ZS5zcf060tEba9pPQ3WN7z6Bvi5HImD0dhs/qLf8mxQM4d+ISxvScDstollhxYA5cP7li1qjF2LpyjxBl1eqXl6rUxlo4eQU2LdslhFT2fJmROr0ngezwzFF+C2o3qyp/P7zzJIZ2miBeWRSBp7fYxZNX8fj+M9RvUxMdBjT/ifwODdyDsk+ShxvnHoDre3f0798fyZKZT5KBwOJEAsvDwwUzZ9YM7KNaXxEwKwRocyuBZVZLqpNRBIIVASWwghVebTysIhCeCSyGES9atAgJ08dGiep5zVKnxBgCy8XZBdOHLxQPi+Spk2DjaTtc++cWxvaaISGGk5cOR478WTxJrbkbsHz2ehGQnrNhnHh4TOw/BzvX7UfJikUwdsFAL0Lhyvmb6Fi7n3h99J/UVbxA9m4+8hOB9cHJGb2aDJMX8jxFcqDr0NbIkiuDrIeb62e4fHIVcXmGMq6avwlLZqxBmWrF0XtsJ8SIGU3CqEZ1n4obl/7FxL+HoUSF7yRaWP1e/jju5w9e4sDaM8iULosIQ4fnsm3bNmzevBml/yqILPnSmCUUxhBY1JNrXLYjnJ2cUbtZNfFoXD1/M2aNWiTfzxFz+iB56qRwevcBg9uPF5K3da/GaNy+Dlxd3WBTtpMQXl2HtkL1hhW9vm/L5qwXT0h6YzbrUk8SPvhGYNFDa9JAWzi+eC1JIOi5yYQQLPTMohcWM50yzHdwhwny/SYRXbdlDUS1iILzxy6hu81QpMucWkg0/tfcyvUzd3Fqx2XUq1cPFSpUMLfpGT0fJbCMhkormjkCSmCZ+QLr9BSBIEZACawgBlSbMw8EwiuBRa+WU6dOwc5uMSrYFEOaLOZ5O24MgUUPDr6grl20FclSJsaG04uxffU+TOw/G0X+yI+JS76HlzJsb0jH8fj65RvWHpuPeAniSigSQxBjxo6B6atGeb2IMkzp5IHzaNK5rniHUMfKNwKL3lQtq/YQD4whM3qhTJViiBDxZ1EteoqRVDtz5AJmrR0nxBgL13Jcn5ngXBu2qYWuw1qbx5fT2yw+u7lj++LDeOfgDGo4Ro1qPhn3ArNYFDLn/K9cuYwWQ2r50H0KTDumXtcYAoskUZ0iLeH0/iNqN62CrkPboKfNUJw/cRktuzdEmz42XtOkl9SkAXNQs3EldB/ZDlbRLLFo6kosmrxSPKq6DG0l3lEMI+7VZLiEIU60GyLhg/S0+pHA4n4kybV01joJK155aK5o1flWTuw/i3G9Z+Lt63fYemEZrBN66l6R/K5VuAWordV7TAeUrlzU1Jcl0OOj6P6SMVtRtEhRtGrVKlgTZAR6cCH4gBJYIQi2dmXSCCiBZdLLo4NTBEwOASWwTG5JdECmgEB4JbDc3NzEi+PEmaOo2rwUrBPHMYXlCPIxGENg8QWV4Xs71u4Xz6f5WyZhycx18oJK0sl7psBv3zwkZClaDCvM3TQRmbKng5urG+qXbIe3r96hdS8bNOn0Fyiw3qBkWyG4xszvj+z5ssjcfCOwGFZIXaxU6ZNj9Nz+EtbkW3l876mER93/77EIRVMjy1Co0cWQxdJVimLC4iFBjqMpNEgdrGun72DQoEHIlCmTKQwpxMfw4sULSbrg6vERdTtXDPH+Q6pDYwispw9foEWVbnBxdhWNuTpNq6J38xH47/o9SWgQOfL3hBQM0+X3lp6LfcZ2lO/l88cOaFC6HRIlTYBRtv2QOWd6nDx4XrwhK9YqLUQXQ3x9I7Do1TVzxCLRwGNI4Ky1Y/2EZsPf2zF33BJ8/PAJFlYW8E5N08OSGVBJoP3ZqFJIwRui/aybuRtxoydE27ZtkSBBghDt21Q6UwLLVFZCxxHaCCiBFdoroP0rAmELASWwwtZ66WgDQIAvJI8fO2LDhhNYs+Yo/v33KSwtoyJ//gxo0aI8ypfPA2vrgIVxwyuB9fHjRyxevBgvnZ6hTN1CiBknulnuOWMIrOeP7TGh32ycOfIPajWpjC5DW2PeuKVYZ7dNxJUTJIr3EzaWVpboN6EzMuVIL59RC2fRlJUoVq6gCD1vXLpDvDsK/5EPk5cO8/I88I3A4kvw6B7T5AV6+Kw+SJMxpa9rce/fR+jWaDBe2b+WUEeGIf1YSJQNnNzNLNfyxrl7OLLxLJo0aYpy5b4LaZvlZP2Y1I0bN2BnZ4fkWeOjWNU8Zjt1Ywis04cuYFC7cZIdtMeIdqJBNbDtWDz477F4Q8WKE+MnfPIWyYkWPRpK9j+GDg/vOhlHd59G/4ldUL1BBfRvM0aSKfQc2dYrrNA3AovZBqcNW4A9Gw+Jnt2PmRK9d7xk5lrYTV8Ndzd30eH6MfuohZUlGrapiQq1Spvleh7dch5vHn1Cy5YtRW8yPBYlsMLjqpvXnHlJdu+ePVauPIwNG07i8eOXiBHDCkWLZkGbNpVQokQ2xIwZcJICJbDMa1/obBSB4EZACazgRljbD1EEzpy5jUGDluL69YfInj01kiWzlkxxd+++wJ07z1G7dlGMHGmD5Mn9z9AVXgkspvSeMmUKrBJEQvFqeWAZzbyEvw2bMSACixnd+AI7vt8sfHz/UfSu8hbNiWWz1wkhVa5GSYyZPyDAvU1vEJuynp4dbfvYYOPSnaK5M2b+QJSrUcLred8IrLNH/0HXBoPFE4QaWnwR961Q8Ll/q9F4ePcJ5m6ciFwFswY4LnOqwKxmWxYcRLmy5dCkiWd2t/BWGPa7cuVKFKqSDZnzpTXb6QdEYFFYferQ+eI1GT9hPAndpSdT72bDcfvaPXQc2BzNutT3Fx9eglC7jhp2+YvlQoeBzdCmei8JAR40pTvSZ/XUF/ONwPr08RNsxy3BervtQmIv2T3DTzF9/hbYjv1bPMC2/bNc9OzCU7l2+j9cOXwXzZs3R968ecPT1L3mqgRWuFx2s5m0u/tXHDhwCUOGLMfz52+QK1caJEgQG66un+Xy+MEDByGx+vX7C4kS+e/NrwSW2WwLnYgiECIIKIEVIjBrJyGBwMePLqhadTiePHmFbt1qoHr1QkiRIj4+f/6C//57jqVLD2D+/N1o2LAUbG07imeWXyW8ElivX7/GiBEjkDZ3UhQsnwORo3wPtwmJNQypPgIisJ4/ccD4vjNx9shFFCieW/SurKwssW/rEfHKsrCMinmbJiJV+hQBDrlP8xGgV0iGbGnx7LE9oseIJlnMmE3QUHwjsByevUTzyt3h9PaD6PbYdPzLR/iT4VmGKE4ZPA/7tx5FjUYVxdOKQu/hpTi9ccaKSduQO1cedO/ePbxM28c89+7di/Xr16NG29JInNJ/cj4sA+QfgfXly1cc33sG04cvgP3Tl6jXqga6j2gHj2/fMLTTRBzacQK5C2UT4tk64c/ek95xIdk1outkvHjigHzFcuH0ofOoaVMZ3Ya39fJw9I3AIvFN8ookFvudvGwECpbI7Svkl89ex7BOk+Dw3FGE5iniHp7K49svsG/laTRt2hTFixcPT1NXAitcrrb5Tfru3edo0GCC2Ni9etVCuXJ5kDBhbLi4fMbNm08wf/4urFhxGH371sHQoY1g4Yt3uAEVJbDMb3/ojBSB4ERACazgRFfbDlEEZs/ejsGDl6NPnzro2bMWrKx8ElTv3n1Es2bTcOLEDaxY0RuVK+dXAusHBBwdHUVLKFepjMhXOquf3gMhurDB0JmBwIobLxbsds2QHtzd3fHG8R2uXbiJHWsO4P5/j5AkeUIMmNRVvK9ICj17+ALj+82UcKJsebOg16h2yJrHU3fJ+eMnXDt/C1nzZJQsY4ZyfN8Z9Gk+UgTYPb55oMMAeoHU80lA+JKFkDo4tmOXYM3CzeKd0aJ7I9RsXFH0cjiO29fvoWz1EiL6vGfTIdHr4jONO9RB4w5/IXoMKxFyp0bWm1fvkKdwjmBAMvSbdHP5jMUjNyFD+gyyd8Nj2b59OzZt2oRGvasgthEh0mEVIwOBxYyaAyZ5hsS6urjC/qkjTh44h4M7juPl81fIVTAbxi8ahDjWsaXO2aMX0bvpMESMFAlV65dH8671kTCJJ9Fn/8wRbx3fIm3m1EJMszDD4MyRi7B15R7RzSLZzBDg4uUKekHnG4HFD+/deohRPabi1pU7EhpIEfmCpfIgUsSIuHHpNt69dUKJ8oXw2e0zRnWfhn1bjiB5mqToOKA5SlYsjChRo4hu3X837osQPDMmmmN5+fQ1NtkehI2NDcqUKWOOUwxwTuqBFSBEWsGEERg2bAUWLNiDsWObwcbmD0k44728euWEP/8ciTdvPsLOrhuKFPHU/PStKIFlwgutQ1METBABJbBMcFF0SL+GQJ48XcR1edu2YciQwXej/9SpWyhduj+6dq2OyZP9zsoWXj2wXr58ib59+6JI5VzIXTLLT7osv7YypveUgcByc3H7aXAkqkg2pcuUGr3GdEDuQtl94HDhxBWM7jlNvDwomB4/cXx58X3x1AEWUaPCdsN4ZPp/3SpDef3yDTrXHSAi61bRLbHjn+WIEdunDo9vHlh8/sn9ZxLGyCyHJKMoQG0ZzRLMtJY2UyqsOjxXumHo1NwJS7Fp6S55MWY2tUTJEsiLODOnlapUxGxF3On1Mm/QOqRMkRIjR440vc0WAiMiebVlyxa0HFYb0aJbhkCPodOFgcDyrXd+b/n9KFO9BPpN6CIErvdCz6hpQ+fj69evsLC0QNKUiYX8ogcUM/31HtPRKxMgn9uxZj9mjFgICrNnzJYWdrumC7lkKH4RWPz80M4TkhmUdViiRbcCPcT43axQszRGze0n//7ujRM61O4r+lwscePHQbz4sfFCflsimrWI+1tHJ6yctEMIrAoVKoTOhgrlXpXACuUF0O5/C4GsWduLHIedXXc/ZTl27bqA+vXHY+zYpujSxW8vUyWwfmsp9GFFINwhoARWuFty851wrFh1hbg6dWqyn67Kzs6uiBnzLzRqVFq8sPwq4ZXAcnBwQO/evVGiRj7kLuG75pI57CCG9K2YuwGfXT97TSdCpIjyopk4WULkKZIDxcoWEP0c38q9fx9i5bxNuHvzgWjY8GXTKroVsubOIBo71gnjej3m6uIGZhw7uvsUchfJgQ79m0l97+X8sUtYMGk5CpbMi4btavnolzpa6+22gSFHn93cxSsuVuwYyF8iN1r1aOTVDF+OSYTtXn8Q7986gZkRmSkxfiJrEZSu/Jf5ejnYDliDpEmSYuxYv7O+mcO+9WsOGzZswNatW9F2ZF1Y/OB5ak7zplfUtfM3fUwpUuTIiBknhng7FS1bANnzZPJBNHmvfOrgeWxevhsvntiDWlckvOJYxxE9OhJLJJgN5fG9Z5Jx9NmjF6jWsMJP2QA/Obtg45IdOLbnNFr2aIQiZXx69PL7umreJslq+PXbV0SOHBnWCeKgUp0y8sdQSEavnLsR545fEmKaRBwJ8XRZUqN206rImjujOS2h11zev/mIZeO2onHjxqhUyTwzLQa0cEpgBYSQfm7KCESPXgfVqxfE8uW9fvK+Mozb3v4NkidvhsGDG2D48Mb+2twlS5ZEmzZtTHnKOjZFQBEwEQSUwDKRhdBh/D4CKVM2R9y40XHgwFgRkvStPHzogPTpW6NlywpYsKCLv4cpMyMNHTr09wcWhloILwRWUC0Js459cHJG1KhRJFzJEIIUVO17b4dhgBSJjhI1qoQU+tXXF/cvcLR/LR4fMWJGQ5x4scWjzJyLEljhg8AKij1Mwvnt6/fkzjQhAAAgAElEQVQgsRw9uhViW8f2VVsuKPpieO+rl2+EeCY5Hjd+bF/16ehdye82x0Vym4RczFg/Z0sMijGZShtKYAFKYJnKbtRx/AoCSZLYoFChTFi6tCdix/b9su/q1QcoWLCHkFf9+9dVAutXgNZnFAFF4CcElMDSTWE2CLRuPQM7d56HrW0n1KpVxNd5jRq1BhMmrMfEiS3RsWNVJbB+QEAJLLP5OoSriSiBpQRWuNrwZjBZJbCUwDKDbRyup1C37jjcvPkY8+d3QfHivmc/7tZtPjZsOIGZM9ujTp1iSmCF6x2jk1cEgg4BJbCCDkttKZQRYEYU6mBRKHLWrPbIlCm5jxHt2fMPWracjmjRLHD8+CQkSfI9zOvHoWsIoXmHEIbyVtXugxgBJbCUwAriLaXNBTMCSmApgRXMW0ybD2YEDh26IiLtNWoUxtSpbZAoURwfPa5ZcxStW88UL6116/rD2jqWEljBvCbavCIQXhBQAiu8rHQ4meeMGdvQv//fooXFtL5lyuTChw8uWLv2uKT0dXZ2w+bNg1GunO+pzQ0wKYGlBFY4+cqYxTSVwFICyyw2cjiahBJYSmCFo+1ullOlpiyjGqZN24I8edJiwIB6yJs3HRwdnbB06QHY2e2XC+OtW4egcGH/NVVVxN0st4hOShEINgSUwAo2aLXh0EDg40cX/P33ASxZcgAPHtjj7duPom8SP34s8cjiAVuxYt4Ah6YElhJYAW4SrWAyCCiBpQSWyWxGHYhRCCiBpQSWURtFK5k0Ao6O72Fru1PCBB8/doST0ydEjRpZdGizZmVmYJsAyStOUAksk15mHZwiYHIIKIFlckuiA/pdBChezbj88+fvgLpYmTMnx/DhNihWLAuSJbP2VUT3xz6VwFIC63f3oT4fcggogaUEVsjtNu0pKBBQAksJrKDYR9pG6CPw+fMXXL58H//8cxcdO85ByZLZ0b17TZQokU0uj40pSmAZg5LWUQQUAQMCSmDpXjBrBCJEqCrhgvv3jwnUPJXAUgIrUBtGK4cqAkpgKYEVqhtQOw80AkpgKYEV6E2jD5g8ArS5mSBpzpyOgRqrEliBgksrKwLhHgElsML9FjBvAJTACtz6ahbCwOGltU0DASWwlMAyjZ2oozAWASWwlMAydq9ovbCDgBJYYWetdKSKQFhGQAmssLx6OnYvBF68eAM3N/efEEmTpiWKFcuKFSt6//RZ3LgxEDt2dF9RVA8s9cDSr1fYQUAJLCWwws5u1ZESASWwlMDSb0LYRYB6V9++ffPV5raxKYNRo2x++ixhwjgi6u5bUQ+ssLsXdOSKQGggoARWaKCufQY5AkWK9MKZM/8Gqt3x41ugX7+/lMDyhoB6YAVqC2llE0FACSwlsExkK+owjERACSwlsIzcKlrNBBGIF6++JEkKTGEG8Jo1iyiBFRjQtK4ioAj4ioASWLoxzAKBVauO4PnzNz/NpU+fxciQISnatq3802cUmixYMKMSWEpgmcV3IDxPQgksJbDC8/4Pi3NXAksJrLC4b3XMngjMnr0drq4/Rz3Q5i5aNAtq1Sr6E1Q1axZG+vRJlcDSTaQIKAK/jYASWL8NoTZgygioBlbgVkc9sAKHl9Y2DQSUwFICyzR2oo7CWASUwFICy9i9ovXCDgKqgRV21kpHqgiEZQSUwArLq6djDxABJbAChMhHBSWwAoeX1jYNBJTAUgLLNHaijsJYBJTAUgLL2L2i9cIOAkpghZ210pEqAmEZAZMgsFq2nO4jljpmTCukSJEAxYtnRaFCmUCx7QgRIgQrzocPX8XMmdtQpkwutGhRDjFiWAVrf6HZ+PPnrzFu3Ho8ffoKRYpkRq9etREpUsTQHFKw9P3tmwciRaqGsmVzY//+0YHaQyribpoi7oc2nMWNs3eDZb9oo7+OQIJk8dCg+89hur/eYuCeVALLtAmsOf1Wgb/HWkwLgVI18yNnsUyhMiglsEKHwHJ3/4LWrWfCyemT17ozmU3atIlBWYV8+dKDNnhwFg8PD2zadAorVhxGvXolUKdOMUSNGjk4uwzVtu/ft8fgwcvg7v4VVaoUQLNmZRAxojna3N8QKVJ1dOhQBXPmdAy0zV2yZEm0adMmVNdKO1cEFIGwgYBJEFiJEzfGq1dOSJbMGjFjRsPr106wt3+LGDEs0bRpWYwYYYP48WMFK6JLlx5E69Yz0LRpGUya1Arx4sUM1v5Cs3HOtXfvRYJ5pkzJsW3bUGTMmOy3hkT9KQo6WlvHROLEcX+rraB6+OjRayhduj9y506LNWv6yVyNLUpgmTaBla50aWOXUusFMwL3jx5F/KRxlcAKZpz9a37DBtMnsKJEi47k+fOHIkratQEB90+f8PjcOSiBFbp7olu3bvDwcMHMmTVDbCDM1pwsWVO8f++M1KkTImrUKHB0fC9/eFncuXN1DB7cIFgJJRJYEyasx5AhKzBwYH30718XVlZRQwyDkOzIwwMy1+HDV0qm7HLlcuPvv3sgefL4vzUMXkC/f/8JSZPGk3UzhbJr13lUrTocVasWwLx5nQM1R81CaAorqGNQBMIOAiZDYH386Iru3WuiSpX8QmBt23YGS5YchKVlFOzYMRylSuUIVlTv3n2OY8duiOA3hb0tLKIEa3+h1ThJpl69FmHZsoP4+vUbYsWKhjFjmorR8juFwo3nz98RArBlywq/01SQPHvlygO0bz8bV68+EEOsfv2SGDGiMRIlMo5cUwLLtAmshsuXB8k+0UZ+H4E1zZsjfuLYSmD9PpS/3EJYILBip0yFSqNG/fIc9cGgQ+CDvT129OmjBFbQQfpLLYUmgfXt2zeMGtVELvhevHiLNWuOYsuW0xJ9cPXqHKRMmeCX5mTMQyR1aJv9889d6T9XrjRmGQVALHgZb2MzGYcOXQGJuyRJ4sHWtqOf2fiMwY91Oneei1u3nqBPnzqoVCmfsY8FW71Tp26hSZPJMl+SkZ06VUOfPn+JI4IxRQksY1DSOoqAImBAwGQILBeXz5g8uTXatKkoY7tz5xnq1BmLa9ceym1F8+blvFaNh59vEYX8dxbfPiNB9ujRS7i4uIk3F28/IkeO5GMn+Neuoc3Pn7/g7t0XoPdvmjSJ/SS6SA69ePEGz569Rpw40cXDya8wSFfXzxLOR48oa2vPsfl2G8Wxcw68dUmQILZ4rAWWaDtz5l+0ajUDDx++hLV1DDx9+hp16xbH7NkdpE2/CtfHs29nRI9uiVSpEoi3HAtxK19+IE6evCU3d7xR82sdXr/+gEePHMR9mi7rJNB8K97Xgn3/998zwcQYTzHi3qvXYmzceAIzZrTDv/8+hZ3dfiGweKga46quBJYSWHpMGIeAEljG4RSctZTACk50za9tJbBMY01Dk8CKGDECVqzogwoV8gixcvTodbRuPR337tnj4MGxIqdhKIG1udke7dTHj1+CNjO98knc/ChVYYzN7ezsCobgWVpGRbp0if0Mvfvy5SseP3aEg8NbJEwYF2nTJvLT5v70ydOW/vCBtnQcsaV9swvZ98OHDmB9Xn7S2+nH94aAdhJJwc6d54ntHDOmJRwc3qNHj5oYPryRv1IlHz64CH58d4kdO5rIqtD2NtjcRYv2ws2bjzF3bic0bOjpkf7juw/X4eXLd3jy5JXML0OGZH56unlfC/bJS31GVLDfgArXh1Iwx4/fwJw5HXDs2HXs2XNRxla/fomAHpfPlcAyCiatpAgoAv9DwGQJLBI/NWqMxKVL98QDi55ZZPY7dJiNLVvO4MiRCShVKrvXQh45cg21ao0SQufkyclIly7J/37oPTBv3i4MH75KXKQ9f/w9UKxYFuzbNwbRolnIvzGsrnnzqUKUTZnSWkIIeXgNGbIc06ZtwcyZ7ZEjRyq0aTNTCCyWzJmTY/PmwcicOYWPDcV+eDvCg4sx7+yPWlMLFnRF9uypvOrywN258zz69LGTw8KzeKBQocxYvLgbsmZNKf/y+bM7Vq8+hkGDloKheoY50PAguZc0qbVRG5r9zZ+/G127zsNffxVHyZLZ5GAlVosWdUXp0jl/aofPTJy4EdOnbxH8PEk4D8SJEwNTp7aR27O//hqLe/c8MfFebt2aJ9jwYKQR0LevHTZvPvU/LRQPWFhEFY+tCRNaSHuGsnbtMTRoMEG0EcqXz4ORI1fJAVyzZhHB279CsmvKlE0YPXqNkFVcS/bdocMcHD9+E7t3j0CJEtkCxEsJLCWwAtwkWkEQUAIr9DeCElihvwZhaQRKYJnGapkKgUU0zp37Tzxo7tx5DtpulFwgQdK27SycPHkTT54s9REStm3bWfz550iJWNi0abCQQCwkeyZPps24Fe/eOXsBbWPzBxYu7Co2Om3i8ePXY+DApRgypCEGDKgnxArJp27dFoA2IG092p89ey7CkyeO0k6uXGmxadMgufz0aWs+Rbdu80AtW14ek5yrXr2Q2H/e6zKEb/nyQxg8eLkQOwZbmu8XS5b09LrE5WXx7Nk7MWrUKiGQDPXoyb98eS9EiWKcXhftUWpf8R2iTZtKSJIkLkaMWOWvrAX7Hjp0JRYv3iuyHAabO1WqREIIkcSqWHEw2Lb3wjnfubNI5kt8eenL95BDh67K32m3W1lZoFu3PzFgQF2vC2i2MXXqZonM6NWrFlKnToSBA5fh40cX8e6ife5fITHHd5glS/Zj5Egb9O9fT97buG9u336G8+enI1OmgCVKlMAyjd8kHYUiEFYQMCkCi9pTzZqVxZs3H8V7hoQHRdxJ0vBHlZ41JCK2bj2Dw4fH+SBcDh++gtq1x8jhePz4JAkFZNm9+x/UqDFCvK6KF8+GWLGs5OaFt0E8THmrw/L33/vlBqFZM08CizcPJLB4+PAgphD48ePXkSxZfGmLZBpJNhJSZ85MkYOBhQd21arDcOnSfeTJk1bIIRoEFy7cETJmwYIuXkYAvctq1RoNeiUVK5YVyZNbiycWyTMe6pwDz52DBy+jRYtpcmAxlJKeUyR0UqZMKAdGokRxjNpvJKAaN54ktyOrV/eTWPwMGVrD0dFJwgh5K+Tdo4uHJwnDtWuPi6gnyaj06ZOIgcJ5kiAigUWM9u69KLdZvK0xxPavXNkHqVIlhCGcjwYSD7KsWVPg61cP8a7jzU3p0jlkjVmXZfXqI2jUaJIYRDRGSDLSO4zrN3lyK3/nun79cXTpMh9FimTC/PldkDChJzY0bLp1my/CpTt2DEP27Kn9bUcJLCWwjPpSaSUlsExgDyiBZQKLEIaGoASWaSxWaBNYy5f3lotgB4d3WLBgtxAttFOpGUqb9saNR0JEMDzs0aO/xeY0FF7Q0n4tUIAE1iAvu8+gJ0s7kBfF1Nh68MAehQtnFj1begKRUBk7dp3YjgavfRJYtKtpp61bd1wuLPfsuSA2JTWeaLdznCSm1q3r72W7M/yxSpWhYktSgN7T5ryP69cfyYX0+PEtxKamLb1793m5hKZXGC9sGR1Bcixt2iQYPbrJ/+p5iHwJdWKjRImEUqVyInp0C/Huor07fnxzo72wOAa+V/C/fC+xtIyMkiX7iTcWvd9IiHn3mqKNzstbvs/EjRtTbG56ndEWpy3ct28dGWOPHgtx/vx/YovzHYP2MQksrhvfbUg4Nm06VeaWLVsqsbs/fXLF5csPBGN6RfE9xyCpwUvf3r0XyzsHx8B3Cl4qN278B7p08VtehITg3Lm7MGbMGlSrVlAu3g3i9OvXn0DPngslymLLliFe72R+ffOUwDKN3yQdhSIQVhAwGQKL7sYU/qPX0a1bj4VwIHnVs2dtOWDptvsrBBYPXzu7faLLxHAyHpJfv36VcD2SG4awvoAILNarUaOQkDw8xJhBhT/4PBTOnJkqN0Ms48Z5Hso0AmxtO8ltCA9YkmgM22OoXr16xaXfzZtPo3bt0XJQk0wjMcYbJ7oO85aFB73Ba4o3KST3Fi7sJocqD2DekPBwMNalmcRVlSrDkDNnajk8OTYaC8y+yOwzJLXoIm0oc+bsQL9+fwteHTpUlWyFhls2km50B6cBQMOgXLmBYuR4GiP1pAnOkXOhB9WMGduE7LOz6y74MSMVx0NC7d27j3LTM2hQfbnZMhBYnFflyvnRu3ct5MmTXowev0IO2d/Zs7fRtOkUMXboMVegQAav9eXhv3LlYbnN4zgWLuwi7tT+HaYZMmTA0KFDw8p3OUjG6eDggN69e6NEDSWwggTQcNCIemCF/iIrgRX6axCWRqAElmmsVmgSWG5un9GgQSkhKy5fvi96VCVKZEf//n8hT550Yjv9CoFVt+440bAdNqwx+vSpLTYdiQ7aq/HixRLCxhgCi/3Ta6tz52rIlCmFEGz9+y8RQodRGQY5CXoOzZq1HY0blxayivOh51i9euPg5OSCtWv7SwQEsy/OnLldiKlWrSqILc2xMMLBM0wvuti0Bq8peiX17FlLpE1Yj1Ifzs5uiBfPuKzotDlXrTqCdu1mycXzhg0DxW7v1MkWq1cfFSJuy5bBPkIiGfHB6AFeoPfoUUuy+ZGwor385s0HIe2oKUX8ihbtLfPke0ajRqW8bG5qCHfqNBcbNpyQS1+KqTNahJpnu3ZdQPPm0+Dh8Q0TJ7YSgo9zNhBYXKsGDUqie/c/kT59UvnMELbo2zeGXnh8h2D7fLcxRL6wLt9diDffh6pXLyiXz/6FIyqBZRq/SToKRSCsIGAyBNbLl+/lh5I/ejwo6AlUq1YR8UTKkiWFHKa/QmB16TIPtrY75JZo9OimQtT4FuseEIFFDyySLwZhy+vXH6JatRFym7Fr1wjRC+C48+btKiFrFMck2QUw5A6SgYQHEz2m+vb9S8awffs51Kw5Sg7k4cMbo27dEkJOeS/EY/HifejYcY6QezygK1bMazRp5b0t3jxxnnTXJsnEGzZm6vvzz1FysPKWhGGJLDzQmzadLOGaNBQOHRrrb6hiuXKD5NaHBBaJKEOhC3GrVtPlM7pe29iU8TG/AQOWiCs5RSjpncYDzkBg5c2bXg7FwoUzBZiOl+7S9eqNx6tX7zFrVge5DfoRSxomJOuGDl2BJk3+wJgxzfz0XlMPLCWwwsqPeGiPUwms0F4BQAms0F+DsDQCJbBMY7VCk8B6+/aDhJHRi4fkDi8H6XFD29DgRf8rBJaNzSSsWXNM7FTatfnzf79INKBuDIFVq1ZRETs3ZLXmBWXx4n1kbOvXD5B2OfYkSWzkYpqSFiTkWHixTB3UhQv3YMWK3vLvJHDmzNmJHj0WiBwIIz5ot/94AUw7ftiwlZg0aaN4dJHAYoRE5MgRA7VpGMHRrNlUIfMY+te8eXl5fsWKw0Ji8Z3mwgWG13lmx2ZUA7NmU9ye0RErV/ZFggR+Z18vUuS7BlajRt+zMp84cVNIM5Jbu3eP/EngnZf6xKVVq4qYONHTO81AYJUtm0sIL5JXARVGUNDm5rvMzJnthCz7UeOMGIwcuVq8tOjJRQ8yEoW+FSWwAkJcP1cEFAHvCJgMgcWbDZIfdeoUE0+asWPXiq4Sb4JIHJHE+hUC6/btpyhcuJeEt/HmpFixbEKw8PDzXgIisHiI9exZ04tIYVhgpUpDRAR9587hcuDcv/9CbkVIxtGbimF3hsLDiTco/BEnkUZjgS7PDA2k8CE9mXiQ9e5dB9WrFxC3a0PhzRjJJ96S8bChBxM9lnj4/kjS+LW9eSuTJk1LEYnnYWrIWkJNLbbN9Lf08KIOAAu9xaiHcOLEDTFqaAT4V/wisBg2yJswul/fv28naZu9F4YeEkeSVfRCy5s3nReBRZ2u2bPbB5g5kLi2aDFdDAUaMf4JtZPEogHDm7HBgxuia9fqXq7o3selBJYSWHpUGIeAEljG4RSctZTACk50za9tJbBMY01Dk8AiAjNmtEXBgplw4MBlITFoD9JbaePGgRJC9isEFj3rq1UbLhe6tDdpp/LS1Lv+qzEEFsPhGGJnKFevPkS+fF1FamPt2gGivUWSJlu2DkJC0eY2aNrSY4lhdwzVmzixpVwms86ZM7fRtu1MCemjlxPtTtrSlLEwEFmMKNiz5x906jRH7GBGajAUkrY5+/yRpPFrJ/Hdg+NNly4pli7tKXY7C+fBMfA9h55O06a1lX/nXCg/QnkQ9sVQRf+KXwTWxo0n0bGjrYQCfvy40QsTQ1tLlhyQ9w5GidDmZsilgcBiJnhesnt/d/FtDAzlZDQHQ0MZ2dKwYSk/L9UZYUHS7ODBK3K5zPBF3zBUAss0fpN0FIpAWEHAZAisH7MQMnabWQgZ521w97W3D7wGFhfi9Ol/JRabNxsG4cP+/eti8OD6iBbNM6tHQAQWQ9LoymwIOaToesWKPgksHkg8uBleRzdf3zIEkgxi9hGDaDkPUnoh8dCnizUPUdahJhVj2Q2F2QPpPv3PP3fk1okEF4kazsG7ALpfG2/ChA3o3/9vaZ9pkg3EF2+lGOZHDywe/k+eLBOij55TzZpNkUOWBzyNAP+KXwQWwwoZJklXbmoo/JjpkKRcnjxd/hfW11V0EgweWBRx54GXMKHf2RE5piNHrsqBTUPs77+7B+itRcKLOgM8pKdPb4cUKeL/NDUlsJTACis/4saM0/HxYzRP9T2BhDHP+FVnpyHd6/8qKIH1O2gGzbNKYAUNjqbWyuqRI7Fi2LDfHlbB6tUxbNs2r3aUwPptSIOkgdAksLxnIeRkaOuR2Lh16wn69ftLvP1/hcBi1AAvRIcMWSHZxGlzM4ve8OE2aN++CiwtPUXcA9LAoog75TUMhR4/jHDwTmBRH5a2JwkR73at98Wh9AX/GGxeXsr267dEdLIomE47ncQN3wm8S1SQxKIOLy/SScYxYoEeZRRBN+bimM/Si4thebQ1DaSNQSaE/+V7wtOnywUfXlRTU4wX9RROZ/iif8UvAouXs/TwYgIpElg/FiaO4nsKkxlRe5ZhfwYCizhxjhyXf4XJmNq3ny1eZSTa/MqwbmiD5Fzr1jOQI0dquWT2LSxRCawg+UnRRhSBcIOAyRJY/PGlBhO9ZdKkSYx79xb9Lwuhp4g7Q9r++ON7mt/t28/CxmayuBJ7F3E3rCRvY3bvviDuu/v3XxKPJ3pV0euIJSgILIaxlSzZV8LvZs1qjxYtPF2GAyrUB6Dm19KlB2Rs1AOjwCJ1p7wflDQE9u79B8uWHZT69FpjWJ73Wyrf+nJyckahQj0lPTJj1X/UkSJ5RUKOGDGsji7kvImjPhXJIbpyM36fBo9fxS8Ci+L19euPx4MHDrh9e8FPQo6GTDbUq2KWRt5SBZbA4piY9YRzM4jp+4c5jScaCdQo8CsmXwksJbAC+t6Gpc8NBFbyzJmROK3nTXBgy53z5/He0RFKYAUWueCvrwRW8GMcGj0YCKzcZcsisoVnopjAlgu7dkEJrMCiFjL1TYnA4sUoL0lnzdomttStW/N9EFgPH9qBmfAMhXYoQ+R+FHE3fE4vHdrqK1cewsmTt8TWokwEPX+CisCiN1OuXJ3kEpJaUJSOMKaQuOL7AAXnjx69LpfCFIb3TpixHYYiUu+W7w2cA23lI0fGoUiRLP52w0vSrFnby7sAhdF/JGxcXd1F65f9MtlQ27aVxD6vUGGQiNXzcnr69Lb+EkN+EVjU1qXkCPF/+3btTyF7CxbskRBD6ssyXJCyKIElsDh5yoLkz59esokHVHhRTmmVWLGii6ecb0UJrIBQ1M8VAUXAOwImS2DxB56peClqyMPp0aMl8oPMH2b+QFOv6c8/C8tcSEaw3rJlh8R7yDcC6/uh+hZVqw6XcDzeNhhuD4KCwOItDQmsixfviUstSSxjvKMMY+NhNmgQsx5uEXFF6j/5dlNB12AKyNOA8O6C7NfWZjaQ5s2nivcTBS0NOl4/9kvRR97GnD07VTzTeMPCPph5kaKZ1A3wq1SoMFj0tPr1qysuyIbC2yuGKJJwo4FBUUrvxRCPT8ODxg29zn6FwArqr7USWEpgBfWeCs32DARWywkTUKdv318ayrAqVXBh924lsH4JveB9SAms4MU3tFo3EFgrHRwQJ6HP8Htjx1Q1QgQlsIwFK4TrmRKBxXA72pWLFu2VBD/37i2WsDaSHdRVunx5lleyIl5Idu06Dzt2nPOTwDJAyczalSoNBUPqKF/RunXFICOwaDNnytRGoh7oRUV5EP9Ex39cXmrYMjqDour+RRrQjqUwOi+QGR0xcOB3nVfftsz8+bvFfi5aNAvmzOn4k9Yqs2G3ajVDSCASehs3DhJPrcqVh+Lo0asoXDgLmCGS+rh+lWLF+uDy5XtiVxsu4ln33LnbaNNmlkScrFs3AHXrFvfRBCU9aOu3b18V48Y1E4LrVwisoP6qKIEV1Ihqe4qAeSNgMgQWvYkYWkexRR6kTCM7Zcpm8dwhUbV58xBQdJIHLMkmuq7OmtVObi0ozM0fZB4KzEDincCieCBvQIoXzypaRyR/KJRI/SnvguNBQWBxq6xYcUjS11J8kQcqCRuSWLyB4M0KiTkKJNKziuF1z569lgOMHmEkwJhRxdaWQpM1xRuKwpHUyOJB/ccfTOdrKRkUaTzw0KWelnfR9B+3K/ujWzjTEjdvXla8nHyLP6f3F1Pzsh/qXVF/ii7UjRpNlBBDZogcNqwRcuZMA8AD587dEfFGilyysA/eZv31VzEh7gzpeek1RpH2CRPWi/jmsmW95FAnHrzZIoFFb7shQxoIocixKYEVej86moUw9LAPqp5dnZ0xrp5nJlBD+ezigquHD8M3D6zqnTsjf+XKAXavBFaAEIVaBSWwQg36IOv4zNat2L1ggY/2Xty5g2d37sA3D6whW7YgcpTvWpl+DUQJrCBboiBvKDQJLE5mzpwOIlBOm3LHjrOwtd0lF8JNm5bB0qW9RAOqQ4fZYgsypI02IEP5mKGPoWiMHvjRA4v2Kz3pqTNLG5Ht8WKX2rAksCg4HlQeWJwD7f/u3ReIlhO1tqiwakMAACAASURBVEjmMCyQIXrUquX/p0mTSITq6W1Fe5O2NKM1SGAx0RPfHyZMaCki4xQeP3ToioQkMsyOshtsp0OHOWDI4qJF3UTWxK9CG7ps2YG4ePGuXOgyJM+36AXaxAMHLpXkSEuW9AATRdGmZ+QDx8ZsgP3710P69EkE5/Pn78j7jSH7Yu3aY7B162kJaRwxorEI8rPQXmdmwOXLD4k0B8MEuR6MOOB7DqNaeEHNUL6GDUtKFkQlsIL8q60NKgKKQDAjYDIEFg83/mjzsKEAI1PbkvxIloyCjf3lkOUPMFPpksTiIRQrlhW+fPkmBxPT/x4/fl1izb0TWKVL9xOPqPjxYyNlyvgiJk4iiYLpq1b19RJWDCoCi+Ni2ljGvltYRJZ+eQC9efMRvImiZxWNAIbxTZ++VerGjRtdhB4ZwsdbKrrY8tChMDwJqDFj1mDGjK0i4E4yjuF9vBGiZxR1AnLlIqnke6GuQcuW0+Um7cyZqShUKJOvFV++fIcSJfrKQU0hfQpo0siYPHmTaHQZNAY4Nmp1UQaH3l80GFgOHLiEChWGCDFHwf24cWNg/fqBMhe6DjP+nV5YdCGmkDtxevz4pRy2Varkx4oVfeQZFiWwgvlb70/zSmCFHvZB1bPz+/eoFyeO0c11njcPldu1C7C+ElgBQhRqFZTACjXog6zjbTNmYH737ka3t8XVFVGMCCtUAstoSEO8YmgSWAxzo9YRCRpeKNLWJFFC76vDh8chZcqEEjI3ZAijArZKRm3Wp+329etXudSkd/+PBBaFy+/efSHZA2m/06YlUVS6dE7xsqeXf1ASWCSMeKFrZ7dfLqkpup42bULY278HdXN5Ud21aw2Z24gRqzB37k4RcM+QIZnY5LwEZ1QCowwYOkkyr2/fxdiw4aTYr5Qw4TsD/5A8On58otjifhUmJiIJRYyOHZsouk++FfadLl0rsaV5YU1vqK9fPTBw4BKxu2lLk0Rj5ASF0BmqxzrUyGXhOwu9uPjOlCtXaiGl6MlFO5r2fp06Y0TLlnPg/Gi3UyCe70uUN6GEikGsXQmsEP/qa4eKgCLwmwiYBIHFWG4SKIYSKVIkEWrkDU7LlhWQKVMyr1hwHi4UJGemDc8sJzHRrl1lIU1IbPHGh26zvI1h4cG7cuVhOUB5SLPtzJlTYOzYpj4yEdIbqE+fxULe0D2YHlGMk586dQvs7PbJLYqNzR9e43j0yFFEzh0c3sLOrodkbjEUHvr0xKL3F2+fSMjRSEiSJC46dqwmWTh40PI2Z8yYteINxkOFNyEkd3hrwxTEdCmmsbB9O7PrbQGF7fl3emVlyZISgwbVk6yK/mVF4dyJF0Pz9u4d5e92GTp0OVauPCLkHkXrSbyx8FZo6tRNePHirRgexJCuzbyRq169kNThv7Mfup+TeOQYz56d5pUCmTiMHr1WxD1JTtIY4uFJ92aKZ3p3+6ZbOm+QqlYtKF55/hkLv7n//XxcQwg1hDC49lZwt2sgsOoPGoSmo0f72d3Da9fQKWdOKIEV3CsS/O0rgRX8GAd3DwYCa9GdO0iS3tOz2beyqHdvbJ4yBUpgBfeKBH/7oUFg0T4tVqy3ZMU2FNqaJDmKF8+Gli3Li7e8oTBKgJ5C9EqiDU2Pod69a4vHT5cuc+UClWFsJKxYRo1aLd71tNVZn7Zv0aJZxcs+a9aUXvbivHm7RSakc+fqovdKcXc+M3LkauzceU60oXiJayjUmKX4OG1ZJvfJmfM7McQs37Q9KXnBjNskhfguwDnRvmTWbV52U3x8xoxtePaMRA5t6UjipcRkSIUKZRZbmh5YtJsXLtwr7w28OCeZRKKOl8/Zs6dGBL/lYDFx4gYh0/LkoZ5rP383kWd2vssoVSqHRFMkTRpP+mMIIv8QD0Y8cC7slxfGjGBgYaQKs7WTRHRz+yJ1zp+f7qUxxQvigQOXSSZxvl9QaJ0X5wzhJN50GDCUxYv3SVtt2lRE165//pS5MPi/CYCGEIYEytqHImA+CJgEgRVYOHkoUg+Lce+84TF47vjVDg8uB4c3+PDBVYgpuuEGlDUjsGPyrT5vhkjckNAhCcOblB+zl/Cw4oHLuTALIA9nHkQ/FrpDM/yRXlo8hDgHGh0hVTiH589fy0EYN25MyQz4I4Yk6mgUMdSTdXwTa+T4SfqRrOPaBUavIKTmyn6UwFICKyT3W1D2pQRWUKIZNtpSAitsrJN/o1QCK+yvYWBnEBoEVmDHyPq0U2n/kdyh3WYIV/OrLXo70c779Mnzkpm2YEjY3PToZ4QC7WX2GT9+TLlw9V5IXNGWplcTIwI8bWmfdViftq69/TvxXKIMCGVBSHiFVOFc6EFGu9ramnP5Wfyc68K5UD6FNvmPmru8WCYJxj+cI4X0fcuOHlJz8q8fJbBMYRV0DIpA2EEgTBJYYQdeHWlYRUAJLCWwwureNRBYGQsWRNZixfychtOrVzi0fLl6YIXVhfY2biWwwv4iGgis8i1aILo/IcDXjx3D3X/+UQ+ssL/kCCsElhlArVMwcQSUwDLxBdLhKQImhoASWCa2IDoc00BACSwlsExjJwZ+FKqBFXjMwvoTSmCF9RUEVAMr7K9hYGegBFZgEdP65oqAEljmurI6L0UgeBBQAit4cNVWwzgCSmApgRWWt/AXd+rMfS+vnjxBq3Tp0HzcONTq1cvHZwyxiBAxYoDTVRH3ACEKtQpKYIUa9EHWMaURvn396qO9tWPGYNWIEVj27BliJ0jg4zNjMhDyARVxD7IlCvKGlMAKcki1wTCKgBJYYXThdNiKQCghoARWKAGv3Zo2AkpgKYFlzA6lxgQ9nlycnCSlfdwknokPTK04Pn6M5qlSoeWECajTt+8vDU8JrF+CLUQeUgIrcDCTKHrn4ICvX77AMkYMxIwXL3ANhFDt1SNHYsWwYVjp4IA4CT0T0wS2KIEVWMRCrr4SWCGHtfZk2ggogWXa66OjUwRMDQElsExtRXQ8JoGAElhKYBmzEZ3fvcO2WbPwz549iGVtjX5r1sAiWjRjHg22Ol8+f8b+v//20f7Ht2+xZMAAFK1dG3krVPDxWfaSJZEii2dmI/+KElgBIRR6nyuBFTjsH9+8ieVDhgiJla14cdiMHInIUb9n5Qpca0FTm1lBb5065aOx8zt34uz27Wg1aRKsYsb08VnF1q0R8QeBat9GogRW0KxPcLSiBFZwoKpthkUElMAKi6umY1YEQg8BJbBCD3vt2YQRUAJLCSxjtuej69cxunZtPL9zR7IsDdq0CUVq1jTm0WCroxpYwQatyTasBJbxS0OvyS1Tp2Ll8OFw+fhRyNu+q1Yhbe7cxjcSDDVVAysYQDXxJpXAMvEF0uGFGAJKYIUY1NqRImAWCCiBZRbLqJMIagSUwFICK6A9xRfhXXPnYl7Xrl7aNbn++ANjDh4MkZThfo3PQGBVatMG1bt08XMaJN3G1KmjWQgDWugw8LkSWMYv0psXLzCnQwec3bYN/A5bxYghHlg1e/QwvpFgqGkgsIbv3IkEKVL42cOmyZNxcNkyzUIYDGsQ0k0qgRXSiGt/poqAElimujI6LkXANBEIFwQWjdRv3zwQKVLAQsXBtUzs3939CyJGjIjIkSMhQoTg6ink2vXwACg8yzmZw3y8I6cElhJYAX2TqJ/Tr1Qp3Lt4UbSvXj97hqiWlhh3+DDS583r43H+Bn39/FmIrsiWlvj25QteP3+OF3fvygt0mty5ESVqVB9i6qzDcMCIkSNLqJCrszMYZuTu6orkmTMjTqJEiBQ58k/DNBBY9QcNQtPRo/2cBtvqlDOnElgBLXQY+FwJLOMX6eLevZjZtq3o1sVOlAjPbt9GsTp10GH2bMRNnNjn9/bbN7i7ucm/McSQ///szh28fvoUiVKnRtIMGRApShQvwlq+5+7u8v2ObGEBj2/f8NbBAc/++09+G9LkygULKytfkyYYCKxFd+4gSfr0fk5oUe/e2DxlihJYxi+5ydZUAitwS/Ply1exn8NCCUtjNQU8lcAyhVXQMSgCYQcBsyewaFCeOnULN248RvPm5fD5szuePXvt5wpZWVkgceK4iBr15xfD31nW48dvoH372ahQIS8GD64Pa+tYfjbHMT9//gYfP7ogTpzoSJQo7s8vqc6usLd/i6hRoyBFivi/M7RffvbVKyds23YGefKkR548aX+5HVN8UAksJbAC2pf/nTuHXkWKIFPhwqjQsiWWDx0KJ0dHyfLXdMwYIXYN5dXTp7Dt2FH0bHotW4ZrR47g6Jo1cPv0SarwZbjlpEkoXKOGlxbPvsWLMaN1a5SoVw+psmfHjtmz8e7lS6kfPU4cVO3YEfUHDoRl9Og+hmogsMrY2KBC69Z+TsPh/n1Ma9lSCayAFjoMfK4ElnGL5ObigvXjxmHN6NGo1qmTfHenNG0qHk/dFy9GrjJl4P025ubJkxhaqZJ8xxoMGYJja9bg3zNnRPydhFa+ihVhM2oU0uTIIaTUe0dHLOzRA4dXrhRCjFpbB5cuFfKZxTpZMjQfPx4l6tZFFAsLH4M2EFh9Vq6Uen6Vnba2OL5unRJYxi25SddSAsu45eFl6ZMnjhg9eg2mTm0j9jntXxcXT3L5x8KzN2HC2Igd2+fZyHrv3zvD0fE9vn79hpQpE8LKynftO7bv5OR5PseKFU3eC/wq9+/bywW1pWVUsdctLaNg0KClqFevBLJnTx2ql+fGIRz6tZTACv010BEoAmEJAbMnsPbs+QcDBy5FyZLZMWlSK5w8eQN9+9r5uUY8bIYMaYg0aRIF6Tru2nUeVasOR506xTBnTgdfSSlDh7y54RhPnLiJP/8sjEGD6v80lpMnb2LMmLUyzjlzOgbpWI1t7O3bj+jRYwEePXLE1KmtkSdPOmMfNfl6SmApgeXvJvXwwNi6dYWQqtGlCxoOGYKJjRuDostZihYVTZ2EqVJ5NeH45IkQWOd27EDqnDnx/uVLUDw9WuzYIBH24MoV0eLpbmeHzIULy3N7Fy3CzDZtxCuEno5pc+USzwxmFLx54oS8FLefNQtV2rf3MVTVwDL5n5cgH6ASWMZB+vLRI4z96y/RrBuydSvS5c6Nrvnzw/7+fTQeNkwydNJTylBunDiBYZUr44u7O6yTJxdvyQz584tn1eUDB/Dq2TOUbdYMbaZMQYy4ceV7vaBHDxxZtQops2YV76ucpUtLlsN7ly7h7sWLQk71WroUOf/4w8egVQPLuDU0p1pKYBm3mrduPcGQIctx7tx/uH17Phwc3on9e+XKfV8bsLS0QK9etcR+9l54ji5evA/Llh2Em5s7RoywQeXK+X1tY+TIVdi164KEGZcunRPDhjVCtGg+SWc++P79J9SsOQrOzi7ImDEZBg9ugMyZU6BRo4l4+PAlJkxojmLFsiFiRDMIuzBuuX6plhJYvwSbPqQIhFsEzJrAunPnOapXHyEux8uW9UTevOmxadNJ1KkzFjFjWqFIkcyIEyeGj8XPkCEpOnSoimTJrIN0UwSGwHJ3/4patUZh587zaNWqAhYt6vbTWPhZmzYzkSVLChw8ODZIx2psYzQGDh68grZtZyFJkrjYsWM44sXzmSnJ2LZMrZ4SWEpg+bcnn96+ja5588qLaef581GgShWc2rRJNKWY7r7ttGko1aiRrwRW4jRp0Gb6dCGqLKNFw5N//8XQypXh8uED6vTpI2QYvTsMBFaMePFQ6/+9Oko1bCgvv8yctmLYMBxZuVLILdvr1xE9dmyvvviyfWbLFh/Dd3r1CnM6dsQfNjbi5eW9pM+XD4nTBuxBqVkITe1X6vt4lMAybm1ObtggRHOecuXQddEi+a4yG+G6cePA78GInTslNNdQDATWZzc3FKxWDX/17YtU2bLJS+3pzZsxt3NnCSEctXcvMhYo4IPAIoHdeupUZC1aVDIIPv/vP4z880+8sbcH9elaT5nigywjqXb/8mUfEzmxcSOOr12LbosWIVosn17bRevU8eHl6RcCmoXQuL0RGrWUwAoYdV6UDhu2EqtWHcG8eZ1Rp05R/PvvU7F/eZFbtGgWJE/uMwrBwiIKWrQojz/+yOmjA0ZfdOpki23bzsp3uH79klixorevYYnNm0/D8uWH5PIod+60WLy4m7xD/Fg2bjyJv/7ytMFz5UqDxYu7I1++9Dh//j80bTpFyKwZM9qKt5cWvxFQAkt3hyKgCAQGAbMlsHi70q7dbCxffhB2dt3RpElZuQExEFgkqvjvOXKk9oFXpEiREC1aVKMMw8AAbY4EFudPb7HRo1dj1Kg16Nu3LsaObRqqAtaBWRP/6iqBpQSWf/tj5bBhWDVypHhRUXSZnhnUx2mXOTNePn6MKu3aSaiQ4aXTuwdWv9WrJSyQIUeGMrdTJ+ywtUXpRo3QbsYMxIof34vAKtWgAdpMm+ZDn+fkxo3gM/TwmHXpUoAZ1Oi11TxVKrScMEG8TH6lKIH1K6iFzDNKYBmH88gaNXBhzx60njxZQnCpIXfr5Ekhlui5SK8sktE/EliWMWJgyJYtyFiwoNf5xu/01GbNcPXwYfRevlzIYe8eWF3mz5cQXu+hxHZ9+2LjpEnIX7kyui1ejHhJkvg78NUjRwpZvdLBQci2XylKYP0KaiHzjBJY/uNM7ditW8/IJWmDBiUkfDBKlMigR5aBwFq2rBdq1Cj0Q0MRJDTwRymQffsuomXL6V4yInwPWLu2v6/RA94JrBgxrDBlSmu0bVvJRz8kwerUGYPNm0//RGDRNl60aC969VqEceOao2PHqmFGvytkdr/PXpTACg3UtU9FIOwiYLYE1pEj19Cq1QyRs7h1az6iRPEUfjQQWJkyJceaNf3kZsWv8umTG5ycXMRt2Moqivz/tWsPwX/PlCmZaE9Rg8p7Yaw+4+YfPnTAgwf2iBs3BrJlSyU6XH/+OdKoEMLf8cDigers7CoH9L17L/D58xekSJEA6dMnRezY0XyMlf1QC+DWrcd4985Z6qRNmxg8rL2Lsru4fBY3aRJ7NB4cHN7i+vVHogmQP38G+XvatK2QKlVCbN48GMQ2rBclsJTA8msPO71+jUHlyuHB1aviLUUtHUNhhrANEydKmCDDhNLmzi0feSewRu/bhzzly/tofvf8+Zjdvj3yVaqETnPniiaWwQOL+lqtJk0CPbEMhTo8kxo1gv2DBxi6dSsK/eBV9ePYlcAK679I/o9fCayA1/flw4dolSEDkqRJI55RmQp5vvQyK6Fdnz64uG8fitSsiUGbNnmRVAYPLIb68nvLsEBDoVcj9a4OrViBJqNGocHgwT4IrAHr1qF43bo+BnZo+XLR3MparBi6LlwoYcP+FSWwAl7XsFxDCSz/V492aceOtti//yK2bx+OwoUzyQPeCawNGwaKXR1QoR07duxa0dEqUCAj/vnnjtj2Q4c2Qu/etX+6eDUQWNS1+vTJVTy6KENibf09yoDvAwwfdHB4LyGE3j2wOB5q77ZsOU3eGY4dmyjvA1p8R0AJLN0ZioAiEBgEzJLA4s3HhAkbJEZ+wIB6GDKkgRcmgSGwbG13irtx06ZlxSV4xoytoFgjS4IEsUWbqmvXGj4OvosX72Lw4OU4cOCyCDfS/Ziuw6VKZZfYe2M0sH6HwLp587G4W/NGiDdQJKJ4eLZrV9mHVtaHDy5YsuQAJk/eiJcv38tY6bVWqVI+TJ7cygcJtXDhXrRtO1PGTpKKt0p8vmXL8l7hjfXqjZM586aJt1QRwnhaQiWwlMDy64f06OrVmN+tmwg2W0SL5iW6zvqfXVzEE4thRZ3nzkW55s0lg2BABNY+OzvMaNVKvD862tqKfpZ/BNZ/589jQoMGot1DDzDvXiO+jVsJrMAci2GvrhJYAa8Zv7PbZs6U7yO/t/wvC/WsmEyBwuzUv5p7/ToSp/PUc/SPwPrw5g0W9eqFA0uWoNnYsag3YECABBZF4Cc0bIhsxYtLCGPyTJ4v5H4VJbACXtewXEMJLP9Xj6GCpUv3R/786SV80BAq+CsE1uPHjkI28WJ58+Yh6NNnES5cuCs6WXPndkKSJN8viDgqA4HFkMXt288hZcoEWLdugJBU8rvh4YEZM7Zh6NDlaNz4DyxYsAc5cqTyCiFkHdrJ/fv/jXnzdmH37pGSxEmL7wgogaU7QxFQBAKDgFkSWBR47NJlHtavP44TJyahWLHvt6YGAoueRhQ/z579u9AyvYvixYshXkYsc+bsQOfOc4W0YeYShhsWKpQJDx44gOLwzFh47dpsJE7sefAxawmJnNOn/0Xx4tlQvXpByXRy+vQt0bOiN1RwElgk7nr2XIh583aLLgAzoJCYojcWXaWbNCnjtTcWLtwjGHFuzZqVlSwrJL3ouca/z57dwUuwcsGC3RKOGT9+LNDDrESJrEJw5c6dDg0alJQ2eXh36DAbbdpUEjdv38QuA7MxQ7uuElhKYPm2Bz99+IBFPXti/99/I0epUj+9gJKwfnj1Km6dPo0CVaui3/+/sDK8MCACi2FCfFkt06QJ2k6fLtpa/hFY/+zZIxkKXz97JhpY1OXxrxgIrNxlyyJz0aK/9PUicffi7l3s5I+At7KmeXPETxwbDbpX/qV2g+Ih2wFrkDRJUowdGzp6gEExh99pQwks/9F7/fw5uuXNCxdnZ+QtX95HOC6fZEKEywcPyveJOlctJkyQBv0jsOi5NattW0nMwO95yfr1AySw1k+YgCX9+8tvAxM2BBQWaCCwavXsCYsfso0au1/WjBqFgtWrY9i2bV6PfLC3x44+fVCqZn7kLOY/iWZsP4Gt9/7NRywbtxWNGzdGpUo+Q7MC21ZYra8Elv8rx0vWFi2moUePmhg50kaiA1h+hcBav/6ECKtTtJ1kGBM61as3XiIUqDNboUIeH4MxEFi8qD548LIIyM+f30WymVOOhNELvODeseMcTp2agnz5uv1EYJHkmjp1swjQN2xYWnS0tPiOgBJYujMUAUUgMAiYJYF1+/ZTtGs3C8eOXYej42pYW38XPzUQWHQLJqkTPfr3rCLp0iWRDISGEDgDgUVvInob9elTRwgfhs916DAHFy7cwd69o7xuVWbN2o4BA5YgViwr7N07WkIH6Yj0/PkbzJ27UzzCgpPAev3aCTY2k4VcmzmzHbp08RRrZnpfenUZSCWGFjZqNAnnzt2Wg5vEFkm7a9ceoECB7kiTJjGWLOmBwoUzy/MGAoupgfv2/QutW1dEwoRxxMvKoDFw/PgNlCzZFzVrFoGtbcefbrMCsylNoa4SWEpg+bYP6fnEzIBPb93C9AsXfGQaZH0arBf37MH01q3/j72zAI/q+Nr4S0iCBEKCuyUQ3J0ixb0UpziUoqVAKe5SKA5FihbX4lq0uLtLcEgCJEiwkBC+7x26+09oQjbJyt3dM8/DQ5vcOzP3PbPcs7855wz/B2MPHlQnnYUFWAPWrEGpevX03Yd++IBuhQurPhv07avSElmbRwewvm7WTNXASpIihbqHY/z1229YPmIEErm5Yc6NGyqi5EtNB7CM8dkSgGUMFY3bhwCsL+u5efp0zO7eHRly5MDgjRuROFn4Q1pCgoIwu2dPENIy+nHCkSMKLukAFouwD9m8GZ6F/hdBcffiRXX4wrtXrzB6716VLhy2BhYBVeU2bcJ9znuXLatOHa3eoYP6TDs6hS9B8PlT6ABWbFeLAKzYKmia+wVgfVlXnsY9btwajBnTWvnfunpyYQEWsyPSpg3/eSbw+ryAe7Vqg7Fv3wWMGdNG1aOiX1ygQFeVVUFI1bdvQ7UprWs6gMVTBIOCQjBw4CJVa4spi/SX+f2CdbgYFbZlyzC4uNT7D8BiXzzxkHWw6FcfPz7JNAvJBnoVgGUDRpRHEAXMqIBNAiym8bVpMxk3bjzE06crwkUD6QAWTybkiXk8rUTXcuRIr6KHdFFZOoBVuXJBtWPDqC22R4/88f33U7Ft20lVAJKRTgRETZqMwdq1h1WuPHdawqbRMQKrVq2hJgVYzPFv0WK8mgPDnRkWXblyITg6/q9YNOfPopgEcL6+AUqfJElc9F+Mvbx+UDW0Jk/uECa66lMEVp06JfD77x1V3583hnrnzNlBOQ3UiscJW3MTgCUA6/P1S9C0ffZslT5Y4P9rWA3dvDnCVNmH168ryHVx/37U6dZNFWUPC7AYXdXx998/FXKPEwcrRo5UBeHTeHjg50WL1OmEbDqAFS9BAlT74QdVZ4fFpK8cPozpHTvizsWLql5WjY4do/yoMU2KRaqN0RK5u4frRiKwjKFq7PoQgBW5foyuYvH2c3v2qDS/VqNGIVyRx39v3b9ypapDF/L+vUrjrdSqlR5gBb19q9L+eHKgR6FCKt2QKbw8iVAXNcnPRViA5eLmpq6v2LKlOrBhw6RJWNi/v4Jnvyxdinxffx2l0d+/e6fSkmPbCMr4b4euSQRWbBU1zv0CsL6sI33qNWsOY9Kk9ujatbb+4rAAiz/8vGLFggU9VekPXbt69T7y5OmMXLkyYvbsbvpaWkOGLMHw4cvV6YIbNw4Od/q4DmBx7Ny5M6JFiwngiYje3nORIoWbytDo1Wuu6q9586+RIMG3EQIsnlLYrdsfKgODG+rSIlZAAJasDFFAFIiOAjYJsI4du4bWrSeqyCdf3yXhdlWiUwNLB7C4W/Prr630oIepgt9/P0WlBa5Y0ReNG5cB0xabNRunQo3Hjm2rdovCtpieQti2bZUIw445Nnd/cubMgN27/5c2w5937z5b7SoxfZDpk5xL2bJ5kChRfDUlRoP167dQpUVG1JhOqDs1hb/XRWAx8orPFlEhShatz5KlrUpd5AudL3xrbgKwBGB9vn755ZRg6sTWrfh58WLwdMCIGmtgMTqKUVL80vjnnTt48/IlZnTurNKNkqRMiXeBgYjv4qK+2LIYNItEE3Z9N3iw/nRCHcBiHwRd/GKdIkMGBcP4/3nKlVP1r3hyqiWbACxLqfKyAgAAIABJREFUqv9pbAFYkduAxdl/b98ez3x9Me38+UjrTr1+/hw/lyqFB9euodS336qTBW+cOoUh1auDAMslSRJVK4snBz5//BiESyzC3mHqVOQvX159iw4LsHiSaNDr16qullO8eHj+5In6zFdp1w7txo83+knH0VmFArCio5bprhWA9WVta9YcqnxqQqROnWrqLw4LsLhhWqtWsXAdMeuCGQNsjFhmIfhZs7aiRo2i+O23NvrvBGfP3kLz5uNU/dcNGwaH60cHsCZPbq82b5kuSP965MiWaNeuijok6tKlu9ixYyQyZ04VKcBav/6IKtfBlMN379abbjFZec8CsKzcgDJ9UcDMCtgkwOLJIIQ7PGUkIGAVEif+lDfPZiqA5e3ti5YtJ+Dw4cuqthahV9gWHYDFulnffjsSmzYdQ8OGX6nCkZ+39euPon37KShUyEOlK4ZtDJNmoXXm7LNeF09gZLH5IUO+A1MnJ0xYqwq9BwW9R8OGZeEQPkAL8eI5o0GDr1C9emHVrSEA68wZbxQq1E3dM3NmV5Vqac1NAJYArM/X73M/P6wcNUo5xA379kWydJFHGTJKiqeTEVw16ttXASodwOIX4wdXr8L77FlV8J2RGkWqVwdTBflFV9d0AIuRWozKunzoEPgl2yl+fJXKxKis5Oktf+KnACzL/0snACtyG5zctg2H/voLrilSoM2YMV801vY5c3Bh3z6kzpoVtTp1wiNvbwWwCJ5ajByJGydPqpM/mR7MVMOvmzdXkVm6gvBhAVbn6dPVQQ+8h7AroaurOn20cuvW6jNsySYAy5Lq/29sAVhftgNLgdCXHT/+e3Tv/o0+4jk6NbDu33+KokV/UpvMTP3jadq6Rl/71at36n9ZzJ3F3XXRXGEBFuEZS4CMHr1KZSCwFlb9+qNQr15pjBvXFi4u8SMFWCtW7FObyokTJ8SNG3O0sfA0OAsBWBo0ikxJFNCwAjYJsAhtmCL399+ncPPmXLC2la6ZCmAxKosRWHv2nMPAgU0wYkSLcGaPTgohb+Su0PLl+9RxvywQyaKRYduSJXvVyYC1axdXaYyfN6YBssbVihX71R+mF+7cORLlyuVVpw8y9PnFize4dWs+MmRI/sUlagjA4iktdeoMQ5Mm5TB9eieVnmnNTQCWACxjrt/Pi7jnr1ABr549U19sWccqbHrP5wCrStu2aDdunDrZ8NXz52BKIe9xcPx02ISlmwAsS1tAIrBMZYHPi7inyZoVPH2QEJsRVmGBM+cQFmD1W7UKpRs0UJ9zRm4xgou1tLTQBGBpwQqAAKwv2+HXX1dhwICFavO1f//G+pqr0QFYU6duxC+/zEPq1O6q3AcQ3pe+efMRdu48oyZy6tRUeHl92pgKC7BYT5bXcGP87t3HqFixgKqBO2VKB7Ro8TVCQkIjBVj0n1nLizVlt28foY2Fp8FZCMDSoFFkSqKAhhWwSYBFePPLL/PV0bWLF/+sjrjVNVMBLIYgszD6unWH1ZG/Bw6M09fXIjxq2XI8/vrrkEE1sDjXYcOWqd0egqDNm4eqSCtd4/Mxb5/FLQnLeDpLZI1HBjdp8puKxtJFhp0+7a3qdd248ShC2PZ5X4YArP79F2DixPUqXXHo0GYqfdGamwAsAVjGXL9RnUIY0VhfOoXQmHOLbV8CsGKrYOzvlwis2GsYUQ9fOoUwous/B1hfNWxomonFslcBWLEU0Ei3C8D6spAslF6hQn80b15eRWHxJGw2QwEWa1bR/yV80hVq/3zEc+duo2vXGThz5hZ+/rkexo9vpy75HGBxw7du3eHqpG76tyweP2dON+TLl0XVt4qoBhZr49KXHzNmlSrL8XlpESMtI5voRgCWTZhRHkIUMJsCNgmwqN6iRXvUyR/VqhXC4sW99ILqABYLsv/+eyd9wXbdBQwfTpEiiUq1i04NLN7PUOcePebg/ftgfP99NfTsWVel8HEePOGPp88bcgoh++LuTpUqA/Hy5RuVt8+dnixZUqlpbtx4TO0EsYbVnj2jVd0pNhaXnzt3B4oWzaaOCuZ4fHF37DgNBFk7d45CpUoF1LWsCUDAx3pWw4Y1Vzn9CRI4IyTkAw4dugJ3dxf1YmYzBGDly9cFz5+/Vi/0qlX/d1KT2VaykQcSgCUAy5hLSgCWMdX8b18z+q1A2jRp8euv/6sHaNoRtdW7ACzT2EMAlml0Za8vAl5h0egNaNasGapVq2a6gTTcswCsLxvHz+8ZatcezkpWWLr0F2TL9ik6ylCAxYOWmI3BNMK7d/9UJwZ+3ngaIQ8pWrhwN5ImTaSyNniw0ecAi/cxImzw4MUqArNdu6oq24BpiZEBLGZm/PTTLFUO5Pr1ORGOr+HladapCcAyq9wymChg9QrYLMC6dctHnRpy6tRNnDs3DV5en2rF8IQ+5q5/qTElj7WnWOy8S5eZ6Ny5Fn79tWWERdx1pxAqh+zFGzRrNha7d5/Du3fv1RBM/WPoMsERoVqDBqUxbVonpEoV/iSviOYzatQKMPz56dOXKseedaUCA9/iwYOnqiA7C7wPGtRUX1Sdoc2sGbBz51lV9ytlyiTgC5RHD9esWRQLF/YET19kI2xq126y2k3if7u5uSBZssTw8XmmTm1k0XpCLbbZs7erfiMr4r59+ylUrz5YgauVK/shSZKEVv/BEIAlAMuYi5i1sE5s2YKH166pU8lSZc0aZfeskXVs/Xp16lnBKlVUMWgtNonAsrxVBGCZxgYEz3sXL1apghVbtVJpg19qTBU8tX077pw/jzKNG6si71psEoGlDasIwPqyHZi9MH78GowevRp//NEFLVpUUHWwwgKsNWsGoF69Uv/piFkRQ4cuxfjxa9XG8YoVfSIdbPXqg+jUaZqqh8XTu3mSeJs2k5TPPnnyD/jxx08nIF679kD16ezsqDI7qlT5tFmrA1j58mXG3Lk/qegsQq5du84qEFauXB71c/rW0iJWQACWrAxRQBSIjgI2C7AoAl8+jD5q3LgsJk36Hm5uiXDu3C3MmrXtixoR1BQs6IEDBy6BBRhZN4qnkDBCiY1RUaxBdfHiHRVpFTa9jycfzpmzHRcv3gV3dlKlclPFIQmfGNFVsKCnOrWQJ/1F1UJDQ7F69SHs2HEaDx/64+3bIHXiGMEUTxckZCMc07VXr96CO0779l3C48fPwPBlgqxixbzQrFn5/5weSOeAdbZYeJ6QjI4B55UjR3r1vLqTBA8duoylS/eidOnc+PbbkuFewpwXa3EdPnwVf/3VT9UGsIUmAEsAli2sY3M8gwAsc6j85TEEYFneBtY0AwFY2rCWAKyo7UBfmlFUzGxYvbq/KqLOjVn6pN7ePvjhh+ooUOC/G0LcUF61aj94wFDr1pVRrFj2SAej/zt58now5fCrr3KjadNyWLx4D44evYqGDcugfPm8X5woi8Ez0ipt2qRo3ryCmiP76tp1Jk6cuK5O5ibEoo8tTQCWrAFRQBSIvQI2DbDevAlCv34L1Ito1KiW6NChxn+Kocdewv/2EBr6Ub28QkJC4OrqogdfMR2LNa/4giVwcnR0gLt7YhXqHNnLkGmAhGwEWIzccnGJ98UXJ8EYX/aMFvt0vWGRHpwP63BNnboBffs2Qo8eda2+9pXORgKwBGDF9PNqb/cJwLK8xQVgWd4G1jQDAVjasJYArKjtQH+WEVIsxF6qVC4sW/aLPpMg6rstdwV944kT16F797ro2rWWwX615WZs2ZElAsuy+svoooC1KWDTAIvGYJ2osWPXwNc3ADNmdNEXVrc2Q2lxvtwFo1NRpEh2/PBDVSRIYDvh0QKwBGBp8TOnxTkJwLK8VQRgWd4G1jQDAVjasJYALMPswM3SDRuOqlIW9+8vNCiDwbCeTXdVxYr9VfbGTz99YxNlNUyn1KeeBWCZWmHpXxSwLQVsHmDRXHz5+fgEqDQ+az8dT0vLjxFu/v6BSJUqCZydnbQ0tVjPRQCWAKxYLyI76UAAluUNLQDL8jawphkIwNKGtQRgRc8OPEE7b95MqnC61hsPYipSJJvWp6mZ+QnA0owpZCKigFUoYBcAyyosIZPUlAICsARgaWpBangyArAsbxwBWJa3gTXNQACWNqwlAEsbdpBZWF4BAViWt4HMQBSwJgUEYFmTtWSuZlNAAJYALLMtNisfSACW5Q0oAMvyNrCmGQjA0oa1BGBpww4yC8srIADL8jaQGYgC1qSAACxrspbM1WwKCMASgGW2xWblAwnAsrwBBWBZ3gbWNAMBWNqwlgAsbdhBZmF5BQRgWd4GMgNRwJoUEIBlTdaSuZpNAQFYArDMttisfCABWJY3oAAsy9vAmmYgAEsb1hKApQ07yCwsr4AALMvbQGYgCliTAgKwrMlaMlezKSAASwCW2RablQ8kAMvyBhSAZXkbWNMMBGBpw1oCsLRhB5mF5RUQgGV5G8gMRAFrUkAAljVZS+ZqNgUEYAnAMttis/KBBGBZ3oACsCxvA2uagQAsbVhLAJY27CCzsLwCArAsbwOZgShgTQoIwLIma8lczaaAACwBWGZbbFY+kAAsyxtQAJblbWBNMxCApQ1rCcDShh1kFpZXQACW5W0gMxAFrEkBAVjWZC2Zq9kUEIAlAMtsi83KBxKAZXkDCsCyvA2saQYCsLRhLQFY2rCDzMLyCgjAsrwNZAaigDUpIADLmqwlczWbAgKwBGCZbbFZ+UACsCxvQAFYlreBNc1AAJY2rCUASxt2kFlYXgEBWJa3gcxAFLAmBQRgWZO1ZK5mU8BeAdbjx4/Ru3dvlKieHwXL5kCcOHHMprkhA+356xguHbuJmmPHGnK5Zq/5+PEjgoOD4ejoCAcHB83O05CJbe3bF8nTuKFJ9+qGXG70az58CMWsgauQKWMmDBs2zOj9W0OH69atA/+0HVQPCRPH19yUp/dZhsRp0uKrn37S3NyiM6EPHz6Af5ydnaNzm+auff30Kf4ZOxbl6hZBvtJeFplfwOMXWD5hK5o1a4YqVapYZA6WHlQAlqUtIONrRQEBWFqxhMxDFLAOBQRgWYedZJZmVsBeAdaTJ08wcOBA5CvjicJf54ZDXG3BFR3AMvNyMPpwr1+/xsWLF5ElSxakTJnS6P2bu8MU6ZJaDGC9e/Me80eshVd2L/Tr18/cj66J8TZv3ow1a9agac/qcEvhqok5hZ0EAVZo6EfNzSu6E7p79y58fX1RrFgxzcH96D4Lr7ckwPK77491M3ejRYsW+Prrr2Myfau/RwCW1ZtQHsBICgjAMpKQ0o0oYCcKCMCyE0PLY0ZPAXsFWP7+/hgxYgQy5U2FYpXzwsnZMXrCmfjqBzf9EOD3wiijbPtrNy6duYZeozobpb/odHLknxNYPGslqtSpgBr1KsE5nnVHdCRIFA/Z8meKjgRGu/aFfyCWjt+MQgULo1u3bkbr15o62rlzJ1atWoWabcsibZYUmpv6hcPX8dHK+VXgy1dYOX8dTh87hx6DOiNbrqwm1/nI3pM4tOs4OvdvjYQuCY0+XtqsKVX0pCXanSsPsXvFcbRs2RKlS5e2xBQsPqYALIubQCagEQUEYGnEEDINUcBKFBCAZSWGkmmaVwF7BVgvXrzApEmT4OQWiq9qF0YCl3jmFd6Mow3/aQK2rNqFYz7bzDjqp6F6Nh+MQ7tPIE/hHPh1dn+kSqs96GB2UWI44P0bvtg4by+qVa2Gpk2bxrAX677t6NGjWLJkCQpXyYHcxTyt+2E0OvvzJy5jZM/JuHvzPqrW+xrDp/c2+UznTVyG2eMWY/uF5XBPbhnQZKqHPHvgKi4fuoPWrVujQIECphpG0/0KwNK0eWRyZlRAAJYZxZahRAEbUEAAlg0YUR7B+ArYK8Biatv8+fPxKOAeKjUqgcTuLsYXVyM9Wgpg3blxH03KdQDrYLHG2Nj5g1C2WkmNqGJ907hw5Ab2rz+B1q3b2G0q0pUrVzBv3jykzuaGst8UsT4janzGwcEhWDlnPX4fMU/NlJ/btUfnI23G1CaduS0DLKaDv3wUhHbt2sHDw8OkOmq1cwFYWrWMzMvcCgjAMrfiMp4oYN0KCMCybvvJ7E2kgL0CrPfv32Pjxo3Ys28narUpj+Rp3U2ksOW7tQTACg0NxZCu47Bj3T96AUqUL4RJS0Zort6Y5S1kwAw+Anv+OorLJ26pAu6sKWaPjbXrpk2bhsB3z9C4e3WbqM+kJTs+8fVH33YjcPH0Nf20WnZpiE7928DBwXQHXdgqwCK8Xz5xK1InS4cffvgBSZMm1ZK5zTYXAVhmk1oG0rgCArA0biCZniigMQUEYGnMIDIdbShgrwCLXyyOHTuGefPm4uuGxeCZL6M2DGKCWVgCYN26dhdta3RHwkQJ4f84AK7uifE+KBgzVo9G7kI5TPCUtt3lu9dB2PTnP3j7PPhT6quTk20/cCRPx5PxZsyYgVOnTqJF3zpI7Ga7kZOWMPCezQcx6ufJIIB+8+otUqVLgUSuLhi/YIhJo7BsFWC9DHiFpeM2o0yZsmjVqhXixo1rCbNafEwBWBY3gUxAIwoIwNKIIWQaooCVKCAAy0oMJdM0rwL2CrCosre3N+bOnQvXtPFRoYFtnLYV0eoxN8BiEevfR8zFsllr0fj7ulgxex0q1i6Ds8cuIk+hHPht/iCJnInmx/zedV8VgVUwb2G0b98+mnfb1uXbt2/HypUrUbp2QeQrld22Hs6CT0Oo37l+H7wOfIP4CePj3PFL6DKwLRZOWYlO/VqjfutaiGOiICxbBVin913B6d1X8N1336F8+fIWtK5lhxaAZVn9ZXTtKCAASzu2kJmIAtaggAAsa7CSzNHsCtgzwGIdrIULF+Ls+TNo1a8OnOLZZlSLuQHW/duP0P+HX/E84CVGzuyLH775Gb1+7Yx/th5WpyHOWjcOXnntsxZMTD7gH0M/4vjOCzi19xIGDhwET0/7Ll7u5+eHgQMHImlqV3zbsaKkpMZkUUVwz9ljl9CtSX/UbFxZ/Xbtwi3YdXU1GpftgLxFcqL36C5IltI0qda2CLBCQ0KxYso2hAbFwaBBg5Aihf0eYCEAy0gfUunG6hUQgGX1JpQHEAXMqoAALLPKLYNZiwL2DLBoo507d2L16tUoVi2PzUZzmBNgMYpjzYItmDlmAdr3ao5CpfKhRaUuGDCxO+LFj4ehP45Do7Z10H3YDxKFZeA/Ei/8A7F3zXHEDY6PIUOGwNHR0cA7bfeyCRMm4Lr3VVT5rjQyeJq2wLjtqvi/J+Pntneb4bhw8gqGTe+NQ7uOY+XcDTjyYAumj16Av9fuwYDx3VGygmkK59siwLpz9SG2Lz6IokWKoVOnTvawjCJ9RgFYdm1+efgwCgjAkuUgCogC0VEgQoDVt+/X0elDrhUFbE6BMWP2Ilu2bBg8eLDNPZshD+Tr64vp06fj6bPHaNKjBhK4xDPkNqu6xpwAy//xM4zrP11FWi3bMxM+Dx7rAVbVuuXxXYVOKj1p9JwByJg1nVXpaInJMvrq2pk7OLjxNOrXa4AqVaoI+ANw9epVjJ8wHp75M6BMncJwchaoF5v1efX8TXRu0Ac582dTBy1MGzlPD7CuXbiJHi2GoEbDigpKJ0gYPzZDRXivrQGs4KBg7F59DPeu+qBPn77qHWvPjQArOPg1unQpZc8yyLOLAqDPXbZsWbsvBSBLQRQQBQxTIEKAZditcpUoYNsK2DPAYuTBhg0bsHbtWhSvmh9FKuSyOUBgLoClCuP/c0oVga7eoCI69m2Fm1fu6AFWnaZVsXbRVkwfNR8d+7RUNXUcHBxs+8MVy6d78+oddiw7DMeQ+OjYsSPSpk0byx5t43autSlTpsD77g2Ur1f0UxSWieoz2YZikT8FC+P/PmIeVs/bhOEz+6Bira8wcdAfeoAV+OIVJg2ZpaD0hEXDTAKebQlgsQbg7csPsH/9SeTyyoMuXbrY3Dslup8JAqyAgIDo3ibXiwI2qYAALJs0qzyUKGASBcIBrOvXryMwMNAkA0mnhivA1K1ly5bhzz//hJubm+E3ypVGVSBRokTw8vIyap/W1Nnz588xatQoBIW+RaXGJZA6Y3Jrmn6UczUXwHr35h1mjV2MXRv3Y9SsfshXNBeuX7oVDmCxLtb3tXrCI2cm/DyyE1KmsS2tozRGNC84e+AqTu2+gjq166joK3s9fTAi2a5du4Zp035HmmzJUbpmQZuMnozmconR5bev31OpvcHvQzBvyyQVYRUWYBEMbl+zF1OGzkHbHk3UwQzGbrYEsF69eIMDm07D/95L9OrVCxkz2u4Jt4augwsXLuD9+/eGXi7XmUiByZMnY9++fVi3bp2JRpBuDVEgWbJkyJw5syGXyjWigChg5wqEA1h2roVmHn/kyJGquKmPjw9Sp5Y6JpoxjB1O5OLFixg3fhxyFMqCr2oXQrwEzjajgrkA1nP/F+jTbgTSZEiN7kPbwy1Zkv8ArNAPoZg7cRn2bjmAQZN/Rq4CcopcZAvt2eMXWD1tB7JkyooOHTogeXKBfWG1CgoKwvr16/H3jr9RsVFxZMufyWY+s+Z8kL1bDmHCwJlo36sFvmlWVQ0dFmA5xHUAD2ZgZGWixAkxfuFQo0/PVgAWU34vn/TG/g2nULdOXdSsWVNq1hl9tUiHMVWgZcuWWLx4MRjBKk0UEAVEAVFA+woIwNKgjQRgadAodjylefPm4eixIyhZPT9yFfOwmdPNzAWwuHQCX75GyPsQuCdPolbS5xFY/NmbV2/x5vVbJE+V1I5X25cf/e2rd9g4dy/evgxGq1atULx4cdEqAgXu3bunInh9nzxC/c6V4Zo0kegUAwUe3fNFyjQp4OgUN0KAxe+7fo+eIGlyNzib4LRWWwFYT32eY+PcPciUPgvatGkjG3MxWItyi+kUEIBlOm2lZ1FAFBAFTKGAACxTqBrLPgVgxVJAud2oCjx+/Bhz586Fz5MHKPNNYWTOYRtFxs0JsD43SEQAy6hGs8HO3gS+xdG/z+P6mbuoXq066tevL7XCIrEzIwmOHj2K5cuXI55rXFRuXBJuKVxtcFWY95E+j8Ay9ei2ALAC/F5g58ojQFBcNGvWDAULFrT72lemXjfSf/QUEIAVPb3kalFAFBAFLK2AACxLWyCC8QVgadAodjyl0NBQXLp0SdVlexMciLJ1WRw6ldUrIgDLekz47k0QTv9zBZeO3USJYiXRtGlTJEyY0HoewAIzZW2dnTt3gjUVM+VIg1I1CsI9pUCs2JhCAFb01PP3eY4Dm0/jyb1naNSoEcqXLy/16qInoVxtBgUEYJlBZBlCFBAFRAEjKiAAy4hiGqsrAVjGUlL6MZYCISEhOHPmDBYuXIg4TqEoVaMAPPJadxFeAVjGWh2m7Sck5AOObjuHKydvoXDBImjSpIkcbmGg5O/evcOOHTuwbv06ZPRKo9KAk6b8lMYqLfoKCMAyXLMnDwNwZNs5PPD2Q6OGjVCxYkXEixfP8A7kSlHATAoIwDKT0DKMKCAKiAJGUkAAlpGENGY3ArCMqab0ZSwFGIl1/vx5TJ06Fc4JHVGqegFkL5jZatO4BGAZa2WYrp/goBDsWnUEty89RJEiRVTkFU8qkma4Avzcbt68WZ2wlSK9OyoxnTB5YsM7kCv1CgjAMmwxPHn4DHvWHEOAzwv1ma1UqZLVvicMe2K5ypoVEIBlzdaTuYsCooA9KiAAS4NWF4ClQaPIlPQKXL9+XdXEev7yGfKVyoZcxT3h4poQceJYl0gCsLRrLxa8f/wwAAc2nsKLJ68VvGrcuDHc3d21O2kNz4wnE+7atQvbtm3DBwSj3LdFkS5rSps6VdQc8gvA+oLKH4F3b9/jwU1fHNhwCk5x46FOnTooV66cpA2aY3HKGDFWQABWjKWTG0UBUUAUsIgCArAsIvuXBxWApUGjyJT0CrBA9N27d7Fp0yZcvHgRydInQZ4SnkibOSUSJo5vNUoJwNKeqXiqm7/vc3hfvI8rJ7yR0DkRypQpg8qVK0vNq1iaizWxTp48qVIK7967C69CmeFVKAtSpk8KJ2fHWPZuH7cLwIrYzu+DgvH4foBK871x9i48PDxQrVo1FChQQOCVfXw0rPopBWBZtflk8qKAKGCHCgjA0qDRBWBp0CgypXAKEGIFBATgxIkT2LNnD569DECGbKmRJVd6ZMqeBvFdtF/rRACWdhb1x9CP8Pd7Du8L93Hvui8C/d8gT+48KFu2LPLkySPpR0YyFT+3d+7cweHDh3Hk6BE4OAMZsqeGR54MSJs5BRziOhhpJNvsRgBWeLuGfghVNa5uXXyAezd8EOdDXHxV+iuULFkSGTJkkNMGbfNjYHNPJQDL5kwqDyQKiAI2roAALA0aWACWBo0iU4pQgeDgYDx58gT//PMPDh06hOAPQXBNmggZc6SFR+4MSJY6iWa/FAvAsvyiDnr3Hvdv+MH7/D2VMhj47DUypM+AqlWrIm/evHB1dZUvwSYwE4u7e3t7q2isy1cuwyleXLilSAyPfBmR2SstErkxJdjKcoJNoNPnXQrAAghBXwa8xp2rj9Tn9oV/ID4Ef0S+vPlUpGTmzJmlWLsZ1qIMYTwFTAGwBg8ebLwJSk+igIkUGD58uIl6lm5FAdMqIADLtPrGqHcBWDGSTW6ysAL+/v7YunWrAllv3rxRs3FxjY/0nqmRKmNyJE/jhsTuLnCO7wQnZyeL18wa/tNEbF29C0cfbTW7cjcu3UKLyl0xYEJ31G5axezjm3vADx9CEfwuGG9fB+HZk5d4+ugZHt16DJ87T8DfEZYwYqNWrVooXry4RFyZyUCEEdeuXcPGjRtVOjAbuVWy1G7qc5s8nTuSpUqChIkTwDmBExwd45ppZtocZtLgWVg5dwMO399sFjA/f9JyzB63GNvOL4d7cvOfHhkS/AHv373H65fvVGovTxZkjatnj1+C6b5sBQsWRO3atVXaoEBPba5bmdWXFTAFwGrv4eh4AAAgAElEQVTRosW//57KRoCsP+0pwHc/2+LFi7U3OZmRKGCAAgKwDBDJ3JcIwDK34jKeMRUIDAzE2bNn1Rfihw8fKpjFItKswRMSEgKeisY/lm5Mo7p16xaaN29u9qk8e/YMW7ZsQYkSJeDp6Wn28c094KdgnjgqesPJyQkuLi5IkCCBirDKli0bChUqhCxZssDRUWoxmds2uvH8/PxUjayrV6+qqEpGaek+tx8+fFCfWZ3Ta6k5WnpcnT7NmjUzC6y5cOECzp07hwYNGiB+fPPXF9QBKdqdn9eECROqv1OmTIkcOXKgaNGiSJ48uaXNIuOLArFSwFQAK33GjKhctWqs5iY3iwKmUGD/3r3wvnlTAJYpxJU+zaKAACyzyBy9QQRgRU8vuVqbCvBLD2GWr6+vqpdFaPP8+XP1hezRo0dIkCge0mZNCQcHy+xQrl2xCWdPnMfwCQPMLqDvIz/MmDAXdRvXRKFiBcw+vrkHjOMQB44fnXH76gOVXsRUIxZ4Tp06tRR5NrcxohiPsIrRlI8fP1af25cvXyoQfebMGbx+/RpJU7kiWRo3swAcjUmDret34OiBExg6vj8czJBi+c/OA9izfT/6DOsOl0QuZpcjblxHvHkWhIf3fJEmdRrUrVtXgeakSZMiblz7jsYzuzFkQJMpIADLZNJKxxpVQACWRg0j0zJYAQFYBktlvgsFYJlPaxnJfAow+mrz5s2qXhacQpCruAfSZk0Bwg1LNKYD7d50AJvPLDH78Leu3UW3JgPQbUh7VKlbzuzjW2JAh1An3Lngi0snriFduvRgikX69OktMRUZ00AFCKEJm3niKKOPUmZ0R67iWeGWMrFdAiym821c9jc2nlpkljTX5bPXYenMNVi6ewaSJHU10GrGuywOHBD8KhQXD3vjzo37qjh7vXr14ObmZrxBpCdRwMIKCMCysAFkeLMrIADL7JLLgEZWQACWkQU1RncCsIyhovShJQVevXqF+fPngykxbqlckL+Ml8W/BAvAssAKCXXAg8tPcObQJSRO5IrOnTuriA5p2lTg7t27WLBgAe7duwvPghmQo0gWVcPOXpu9ASzaOQ7iIPR9HJzfdxM3Lt9SaYNNmjRRUVjSRAFbUEAAli1YUZ4hOgoIwIqOWnKtFhUQgKVBqwjA0qBRZEoxUkAXwTF37lzcuuWNdB6pULhiLsR3cY5Rf8a8SQCWMdU0vC+HOA64f+kpju0+g8SJXdGxY0dkz57dLBEths/Svq9kGiGLu0+bNg3vQ4KQp6QnsuZNj7iODnYtjD0CLJ3B4zo44tweb1w5dx1Fi3yCWMmSJbPr9SAPbxsKCMCyDTvKUxiugAAsw7WSK7WpgAAsDdpFAJYGjSJTirYCwcHBqpD7unXr4PvEB5lzpkWekh6I66SN2ikCsKJtUqPdwOLQj64F4PSBS3B1SYJGjRohX758UsTdaArHvCPWvDp48CDWrFmDhK7xkLNYVmTInhoOcS2T6hvzJzH+nfYMsKhmaMhHXDt+D9fO3kLePPnU55Z17KSJAtasgAAs81qPGyQPHjzAu7dvkSFjRnU4hDTzKiAAy7x6y2jGV0AAlvE1jXWPArBiLaF0YGEFeOIga13t2LEDQaFv4FU4MzLnSqupujkCsCy8SAD43XqG84evIb6jC+rUqYNSpUpZflJ2OgNGS7Jw+7Zt23DkyBGV6puzWBakSJeUeWTSANg7wOIiCH4XglvnH+HKKW94ZPFEw4YN4eHhIetDFLBaBSwBsK5dvaoOyUiWPLmKQLanxpIS4377Dbdv3UL/gQORI2dOe3p8TTyrACxNmEEmEQsFBGDFQjxT3SoAy1TKSr/mUODFixcqeuPEiRNI6Oas0o+Sp3ODQ1xtpR8JwDLHavjyGB9DP+LJg+c4f/A6Pr53QK1atVCxYkVNgU7Lq2SeGdy7dw8rVqzATe+byOCVUkFnlyQJzDO4lYwiAOuToYKDPuDeFR+c2X8FmTJmVhArV65c8rm1knUs0wyvgCUA1vjffsOpU6dQvEQJdO/Z065MwijfQf364fr16xg7YQLy5stnV8+vhYcVgKUFK8gcYqOAAKzYqGeiewVgmUhY6dbkCvj4+GDx4sW4fPkyUmVMhiKVciFB4nia/GIjAMvky8GgARj588wvEMf/vog3L9+pSKzatWtLTSyD1DPORZcuXcLs2bPx+s0r5CiaBZ75M8ApnqNxOrehXgRg/c+YoR8+4tGtJzi2/QJSpUyF5s2bC8SyobVuT49iCYBFgHP48GGUK1cOg4cPtye5IQDL8uYWgGV5G8gMYqeAAKzY6WeSuwVgmURW6dSECoSGhuLmzZtYunQp7j+4hyy506FAeS9NQwgBWCZcEDHoOjDgDQ5uPI33bz+gRvUaqFq1KhIkkAigGEhp8C1BQUE4cOAAVq5cCQcnIE+pbMiSW1upvgY/jBkuFID1X5EfeT/ByV2X4JooCdq2bYccOXJocsPCDMtDhrBSBawFYLF2FP84ODhEWS8y7LVx48aN8jPJjaSQkBDwb0dHR4N8N17LcfDxI+I6OkY6hq5vLg/2HRgYKBFYFv6sCMCysAFk+FgrIAAr1hIavwMBWMbXVHo0nQL8EsxQeBZrfx30EtkLZYZnvgyI46DtwjkCsEy3JmLaMyOwTuy8hED/t6hYoSKqVauGRIkSxbQ7ue8LCvj7+2Pnzp3Yt28f4rs6Im/pbCpqUlrkCgjA+q82oaEf8cj7MS4cugGnOPHRrFkzFChQIMov2LLORAGtKKB1gMUDcW5cv46bN26oulksep7dy0v9+bwAOuuP3r1zR50i6//0KVwSJYKnp6e67rGfn/q7UJEi4aTndZcvXcL9+/cVxEqdJg1y5syJ9Bky6KEUNynZ7/1795DVwwOJXV1x5fJl9TM2FmMvULDgf+bz4vlzdZgP72PfadKmVX/+mD5dPZOkEFrmUyAAyzK6y6jGU0AAlvG0NFpPArCMJqV0ZGIFnj9/rr4E79mzB/ESOyJX8axInSk54jpqq95VRDIIwDLx4ohh94HPXuPi4Zt4+uAlSpUshfr168PFxSWGvcltESnAE6DWr1+PCxcvIFVmd+QsmhWuyUTjqFaLAKyIFQr9EArfu/6qll1oUBzUq1cPX331FeLFixeVpPJ7UcDiCmgdYG3csAHr/vpLHbJBAMUUPHd3dzRq2hQ1a9XSf84Iug4eOIAVy5bhlrc34sePD0Zf8f3J++7evYvMmTNj9vz5es2fPH6MP2bMwMkTJ1TUFaOlXr9+jWLFi6NNu3bwzJZNXcu+F/75J5YvXYq69erh7du3OHzwoIqmYkucODG+rVcPLdu00UOvAH9/zJ41C0cOHQLBGv89ePfuHbJlzw4/Pz8EvnwpAMtCq18AloWEl2GNpoAALKNJabyOBGAZT0vpyXQKsN7V2rVrcfr0aSRP54p8ZbyQJFkizUde6RQRgGW6tRGbnj9+BN68fIuLR27i0c0nyJcvP/gFw83NLTbdyr3/KnD+/HmVMvj4iS888meAZ/6MSJBIQIMhC0QAVuQq8UCGAL+XOPb3BcQJiYsaNWqgQoUK6ku0NFFAywpoGWBdv3YNfXr1Uun0TZs1U1FXBFFTJk1C+nTp0KNXL/0pfoxyGjl8uIJX1WvUQNXq1cHIqWNHjmDL5s0KfDF6as6/AIuwauzo0di7Zw9KlCyJut9+CydnZyxdtEj5dfUbNkTL1q0VeAp+//4TwFq2DEnc3PD61SvVf+EiRXDy+HHs3rVLAbA/Fy1CipQplbnnzp6NlcuXI3369GjWsiXSpUunwNWSRYvUCYTOzs4CsCz0wRCAZSHhZVijKSAAy2hSGq8jAVjG01J6Mo0CDDWfP38+bt26pQo+FyjrBQcriLoKq4YALNOsDWP1GhL8ASd3XsK9a77Imzcv2rZti6RJkxqre7vrh19k9u/fj1WrVuHN2zcoXCGnqlWn9VRfLRlKAFbU1gh68x771p7C6+fvVCRW5cqV4eTkFPWNcoUoYCEFtAyw+v7yC06fOoXa33yDLj/+qI+SGjdmjIp+7/rjj6hTt65SbtmSJfhz3jyVytdv4EAkS/YpJZx1qhbMn49VK1YgY6ZMeoB1/tw59P75Z/VeHTxsmB6EMdKrRdOm8MqRAz179ULmLFnCASyCqp9791afbYe4cXHt6lWMGjECjx4+xPjJk1GwYEHcu3sX/Xr3xtOnT9G1WzfUqlNHRWYRmvFn/N3DBw8EYFlozQvAspDwMqzRFBCAZTQpjdeRACzjaSk9GVcBhpHz6GPCq8DXLz6dWFYgI+LG1X7K4OdKCMAy7towRW+M6ji99wruXvFB3jz50KhRI6RJkybKgrSmmIs198k0D6b5bt++HQ7OH1GkUm6kzCAwMLo2FYBlmGJMAz615woCfF7gmzp11RddOZDBMO3kKvMroFWA9SowEG1btcKrV69U9FXpr77Si7Nj+3asXrUKzVq0UH8YzTRk4EAcOngQHTp3Rr369cPVoWMkFCEW61rpIrBWr1yJ2X/8oWpSDRg0SA+aWatqQN++Ku2wd79+yJ0nTziARRhFmMYx2R4+fIhB/furelhjxo1D0WLFsHvnTvw+ZQqCQ0KwaMkSJEueXD93OYXQ/Gv88xEFYFneBjKD2CkgACt2+pnkbgFYJpFVOo2lAi9evFDHPrN2jrOLI3IWy4L0nqmsot5VRI8uACuWC8JMt3/4EIorx27B+8IDeHnmUDWxWMdDmmEK+Pr6YuvWrTh6/CiSpXFFnlKecEuR2LCb5apwCgjAMnxBvPB/pWrZ+dx+isqVKqsDGSSC0nD95ErzKaBVgMU0u5979AALoUfWGH31ffv2SOjigg7ff69S8/r0749KlSuHuyUigEXAtGHdOhUVFVHj57XfgAGq6HvYFMIfOnZEg0aNVH0tNp9HjzCwXz/cCQOwGO21cMECODs5Yc2GDeFONRSAZb61HdlIArAsbwOZQewUEIAVO/1McrcALJPIKp3GQgF+Cd62bRuOHDmCJKlckLuEB5KncbPq9CMBWLFYEGa+NTgoBLcuPsDVk7eRLnUGNG7cGDly5DDzLKxrOH4puXTpEjZu3Ajv297IkjstshfMBBfXBIC2DwjVrNACsKJnmsDnb3D5mDfuX/VDqVKlUKdOHaRKlSp6ncjVooCJFdAqwOIpfax/xYLpVapVQ7Z/C6qHlYMpgTlz5VLRVh3bt1f1rxg1RYDFlD1diwhgTZowAVs2bUKq1KnRpGnT/0Q2M8KqYKFCqqZVdAHW4oULVcF3Rl4SYIVtArBMvKAN6F4AlgEiySWaVkAAlgbNIwBLg0ax4ykxPHzJkiW4ceM6MuZMg1zFsyBBIusvzCsAy7oWNWti3bvqgzP/XEWK5Cnx3XffIX/+/Nb1EGaaLVNACJsJr1jPpNDXOdRn1zme1CKKjQkEYEVfvaC373Hl+C14n3uoauM0adIEKVKkiH5HcocoYCIFtAqwnj97hvbt2oGphDzdr+l330WqADcsdCmELLzOlENdih/fBzOmTcPmjRuRKXNmfQqhrmZWuvTpMXb8eKT8AlyOLsBav3Yt5s2Zo6K7lq1cCdckSfRzJ8BixBYB3dgJE5A3Xz4TWVa6jUwBAViyNqxdAQFYGrSgACwNGsUOp0TH4969e5gwYQJevQ5ErmJZkb1wJsR1/BQ2bu1NAJZ1WvCh9xMc3nwWSd2TqtMJCbHC7jRb51MZb9Y8rpz1rnhC6Mc4H1Dmm0JIllZOcDSGwgKwYqZi6IdQXDrqjSvHbyN37tzo3LkzEiVKFLPO5C5RwMgKWBJglS1XDkOGD4/0iQilDh44oOpQMZ2P9ap0TZf6p3v/rf3rLwWqWCdy2MiRCla9e/cOhEmMwHr9+jU8PD0xe9481QWLr//UtatKBWzeqhUaN2kSLtWP/ev6ji7AOnzwICaMG6fG7PHzzyqCjI19btu6FVMmTlTjCsAy8mI2sDsBWAYKJZdpVgEBWBo0jQAsDRrFzqZEp+P48eNYunQpnBM6IkeRLMicK63V1ruKyHwCsKx3UbOuDou7J3ROpNIJCxUqpK/HYb1PFfuZBwQEqELte/bshluqxChQzgvuKV1j37H0oBQQgBXzhcA04Gun7uD6mbvInDGLOlU0bdq0Ap9jLqncaSQFLAmwmP7XOILIKhcXF2TPnl1F0LKgeoC/vyqOXuebb1RBdB6ow5P+EidOjMJFi6poq0ePHmHMqFG4cvkyeH9WT0/4P3mCZ8+eIUmSJGApiOxeXpj+xx965aZOmqSAUmJXV3xbr546wdDJ2RkvX7zA/Xv3ULhIEVX4PboA682bNxjcvz/OnDmjgFq9Bg3g7u6u6qge2LdPf5qiACwjLeJodiMAK5qCyeWaU0AAluZMAgjA0qBR7GRK3B3z9/fHrl278M8//yChuzNyFfNA6szJbO6LhgAs613UPJ3Q964/Lhy+AYcQR9St+y1Kly4d7tQl63266M88NDQU3t7e2LRpEy5cuoCMXqkVdHZN6hL9zuSOSBUQgBW7xfE+KATe5++rlMIM6TIq+Ozl5RUu6iN2I8jdokD0FbAIwOrfH4cPHYp0spmzZFG1rPj5OHbkCFauWKEipj58+KBgFCOr+N8spt64aVNVa4r/f+7sWWzZvBl3bt9WkIvQqFjx4vB/+hRbt2xBnrx5MX7SJP24BE0L//wTB/bvx5PHj9XJg/Hix1dpi2nTpUOPXr1U1CT74nWsa/WfIu4+Pp+KuN++rT+FkAOcOX0as2bOhPfNm+A7io3zYdTZ5cuXFYD7bfx4SSGM/pKN9R0CsGItoXRgYQUEYFnYABENLwBLg0axkykx/ejvv/9WtXPeBb2DewpXm/0SvGnNVpw/cwkDRv5iduv6+TzG3OkLUfPbaihQOK/Zx7eFAUNDP+L5k0C8ev5G7Tb36NFD7VjbY3vy5AkWLFiACxcuwCFuHCRL44YELvHsUQqTPvOOLXtw4sgp9BveCw4Opq+Ef2DvYezffQjd+3WBi0tCkz6buTpnLbvH9wPwISRUpf8SHiRPntxcw8s4osB/FLAEwLpw/jz473ZkLZGLiyrOzsgowp+HDx7g+vXr6sS/oKAgBbFYXJ0pgYxkdHBwUF1xE5KRuIRRrH3FCC3WtmJq4fatW1GxUiX0HTAg3LCEWIRjPEXwWUAAnJyc1ImhrI3lmS2bSvflHG7fvo27d+7A09MTGTJm1G9qvnv7FufOnVPpgozg0p02yrncvHkT165cUc+aIGFCZM2aVT0X618Fvnyprk/iJinu5v5YCsAyt+IynrEVEIBlbEWN0J8ALCOIKF3ESAE6HAcOHMCcOXNidL813cRQ9lu3bqF58+ZmnzZD+rds2YISJUooZ1Ba7BWYO3cu4sWzT2jDLyrjxo1Tu9rSTKfAyZMncfXqVTRr1swsEakEkvxi2KBBA8SPb/0HZ3xumWLFiqFTp052GzlpupUqPUdHAUsArOjMT3ctIRL/raefxvpR/BO2/iN/zj86mKW7jxFQ48aMwY0bN/BTjx6oU7duhMMzgov9s0+eavh5PzGZM+9hvx/Yr4ODgmPSLK+AACzL20BmEDsFBGDFTj+T3C0AyySySqeiQDgFWrdujYULFyqHz9zt7Nmz6kQuQpd27dqZe3gZTxQQBWKgQPfu3TFlyhT1JY9fHk3dhg8fjiFDhsDPzw8pU6Y09XDSvyhglwpYC8CKyjg+Pj6YOX26StMrXLgwkqVIgdve3ur0QUZCMWJrzrx5SJQ4cVRdye9tXAEBWDZuYDt4PAFYGjSyACwNGkWmZHMKCMCyOZPKA4kCJlVAAJZJ5ZXORQGLKGArAMvXxwe/T5mC69euqRpZOtDOFEAWYm/Trp06zVCaKCAAS9aAtSsgAEuDFtQBLJ4owtM7pIkCooBxFWDUFQHWokWLJALLuNJKb6KAzSpgKYDF08NSpUpls7rKg4kCllKAvgAB1pIlS4zqC7Ro0QLpM2ZE5apVzfZoupMJ79+/r04RZK0snk6YPEUKeOXIgWTJbO8wHrOJa2MDCcCyMYPa4eMIwNKg0Zmi0LdvX/XlumHDhhqcoUxJFLBuBR48eKBS95jKx/QcczdJITS34jKeKBB7BcwNsCZNmoT+/furL9f169eP/QNID6KAKBBOAcKetm3b4vz580b1BSwBsMS0ooChCgjAMlQpuU6rCgjA0qBlTp8+jTZt2qjCh3ypGquQogYfVaYkCphdAe64rly5El26dMGPP/6IoUOHmn0OArDMLrkMKArEWgFzA6xTp04pX4DFm8UXiLX5pANRIJwC9AWWL1+Orl274qefflL15ozVBGAZS0npxxQKCMAyharSpzkVEIBlTrUNHIsv1V69euH333/HrFmz0KpVK4FYBmonl4kCUSnAQqd0Vnmi2M6dO+Hh4RHVLUb/vQAso0sqHYoCJlfA3ACLvkDPnj0xffp08QVMbl0ZwN4UYJmObt264cyZM9i1axeyZMliNAkIsKSJAqKAKCAKxF6BxYsX/6cTAVix19UkPVy8eBF16tRRx8LPmTMHJUuWNMupRyZ5GOlUFNCIAqwJQTD822+/qQis3r17I2HChGafnQAss0suA4oCsVbA3ACLE6YvUKtWLfXvFH2BEiVKiC8Qa0tKB/auAIuc63wBRmL/8ssvRvUFCLBU8fSMGe1danl+UUAUEAVipIDPo0d48fw5BGDFSD7L3MSdV9bAYi2szJkzY/To0ShTpow4rpYxh4xqAwq8ffsW48ePV05r8eLFMW7cOOTIkcMiTyYAyyKyy6CiQKwUsATAoi+wcOFC9OvXT0WI0Bf46quvxBeIlSXlZntW4M2bN8oXmDZtmtocHjt2LLy8vIwqCQGWh6cn6jdubNR+pTNRQBQQBexFga2bNuHi+fMCsKzN4DxRZN26dejRowfSpUunXrZFixZFnDhxrO1R7Hq+PMp47ty5qo5J7dq1kSFDBrvWwxIPT4d11KhR4AEJxYoVUyk5dFgtVV9OAJYlVoGMKQrETgFLACzOmL7A2rVrVTph+vTp1b9fRYoUid3DyN1mV4B2nDdvnvgCZlf+fwPSF+BJ31OnTlUbWfSrTeELCMCyoJFlaFFAFLAJBQRgWbEZCT9Wr16t8vTd3d2xZ88e5cBKsx4FGKqeJ08e0JbcSS9Xrpz1TN4GZkr9mTLIHddMmTKpz1DKlCkt+mQCsCwqvwwuCsRIAUsBLE6W749Vq1ap+n1JkybF3r17kTZt2hg9h9xkGQUIT/LmzasO6GFKBKPqpZlPAfoCY8aMUb4AMxtM6QsIwDKfXWUkUUAUsE0FBGBZuV3fv3+P+fPnY/jw4SpHf82aNcoJslT0iJXLafbp035NmjRRTitPvCtYsKDZ52CvA7569UoVP6bTmjt3bvXZSZYsmcXlEIBlcRPIBESBaCtgSYDFyfJdwgieESNGiC8QbetZ/gYClO+++075AsOGDUOBAgUsPyk7mQF9gT/++ENtZnFDkb4AQbCpmgAsUykr/YoCooC9KCAAywYszeLTdFwJQJiCNmnSJJQuXVrqYPxrW4bmv3jxQjn4hHyJEyeOVBteR2fGxcUFrq6ukYJA7njr+owfPz6SJEkS4bW6sfl3ggQJvthnZEuR9n3+/LlKLeA47MeQVNGXL1/i9evX6h5LFCPX8keLXxaYHsDdVqbb8G9L1bz6XCcBWFpeOTI3USBiBSwNsDgrviuYkk5fgBGlEydOFF8gjLks6QvQ/+A7WXwBbf0LoivYPmHCBFWGg76AsWteff7EArC0tQZkNqKAKGB9CgjAsj6bRThjOq4rV65Uhd0JsZhW+M0336iTTuy1cSfz2LFjKrXi3r17yrknmGJhznbt2imYpGuPHz/GkiVLcPToUQV9qFupUqXwww8/KGAUthEwMMT/zp07qk/+nqmbjOThyZC6dvjwYWUTjk2nlRCJu3u0kbOzs7qMPx8yZIjadeWcsmfPrr8/MDAQW7duxY4dO/DkyROwYC93BQkn6QCFndfly5cVuGToe6NGjbBv3z4VAk+HOU2aNGjYsCHKly+vH9de1wQ1vHLlikrXJPRlnQsWPqZdtBK1KADLXlenPLc1K6AFgKWDWDpfIGPGjOApauILfFDvdvoC9+/fD+cLfP/992pT60u+AN+59AW4WRW2nTlzRvkNYX0B+l98p4T1BQ4dOqT3Q3S+ACPl+/Tpo38nE3DRF+A7ir5AtmzZvugLMFqYPsrnvsClS5cwefJkVdSf7/3PfQH6ByxVoPNBrPkzF5u563yBBQsWqCwGnuD566+/msUXEIAVG8vJvaKAKCAKAAKwbGgVMCqIhd3pSNMZYgg6/7t69eqa+XJuTrlPnDihaoKcPHkSKVKkUHXCHjx4oAp1E0ClSpVKTYdwiFCJ9cQIkgh8fHx84OjoiM6dOytnVNdu3ryJGjVqKCjl5uamgBL7dHJyUk6szhEmJOHx5g8fPlRj8+d3796Fp6cnCLYI0ti4+5crVy5Vw4Rz0tXAIngikGJYu5+fn0pto/PM/+a9hFF0nHX9/P3336hWrRqyZs2KwoULY/fu3Xj27JlyhuPGjavSStk/QY29NtqUejI9wNvbW60DHj1Pm2gFXtE2ArDsdYXKc1uzAloBWNSQ7xP+O8fC7jpfgAe+8B2hpX/rzGXv48eP630B1jjU+QLcwOB7UVf3kL5A7969lXaMeE6dOrXeF+jSpYsCHBH5AuxP1yfB1a1bt8L5AjVr1sSjR4+UL8DNMfoCjPI5ePCg/h3OGlhMZacPwnd72bJl1VD0BRhJx3T3iHyBr7/+Wj2DzhfYvn278vk8PDxUSQJuZH3uC7B/jmWvjb7AzJkz9b4A4RV9AWpmjs+HACx7XXny3KKAKGAsBQRgGUtJjfRDYHHjxg1VE2vDhg0qmog/s5dG561q1arKCaRD0qlTJ7ULuWLFCuWYUI+nT58qSMUdSGSgR4kAACAASURBVGrD3bdevXohefLk+kL4BIGMYvP19VWwg+kYbDxSmbumPKqc+hJg8cvChQsXkD9/fr3zw2PNeW39+vVVSgejvbjzev36deTMmVN/HQEW/19XuJUAi3Ni5FWzZs0U4CLI4nPQof7rr7+UI855DRw4UNmZ6YQ6gMU5ErzxmZlGwjH53wRqnEebNm3COWh0cAlM7KUR5nGHnNq1bt1ak2m2ArDsZTXKc9qSAloCWNRV5wuwnhLfVQQk9uQL7Ny5E5UqVVLvVsIfAihGH9EX4DuTvgCBFU9x5gYUteE78pdfflGgSXcoDk94pC9AeBTWF2C9JG58ETTRX9D5AhcvXkS+fPn071n6C0xLa9CggfJJIvMFIgJYnNPmzZtVlBV9AUZWdezYUfkC3HCjL8Do8UGDBqm6WWw6gKXzBfjM9AV4f+PGjZUvQJ+H77+wpQjov5w/f96WPpJffBb6AoxQHDBggNl9AQFYdrPM5EFFAVHARAoIwDKRsJbulo4PI31Y54dRQPbS6CgysoapfXT2CJKaNm2KcePGqd3Uz3fXuCvKFAs6qUy7IOxh4/316tVTziAdVTq1bHRY+f88IWjRokUqdZDA6PPGtASGptetW1fNgydCRbSzFxHAomPN3XI6u0wl4LHoYdMR+Dv2SSeZoIsOuA5gMa2wQ4cOyqGlQ02nmGkJ1IVOLMENHTdda9u2LRhVZg+NEWz8QkPH3dInDX5JbwFY9rAa5RltTQGtASydvvbqCzBqifUN+S7nfxNU0Bfgu5DR15+/j+knde3aFevXr1fpfgROOl+A73Gm8nNTiptdbIzUol/BTSe+6yPzBfiOpa9Af4KbUdw8i8gXiAhgsR4n1xXT3elT0BcIm/pHgDV16lQVbb9lyxblZ+gAFn0Bwi6+83W+AP0CasGNL+oRdh7c3CKgs4dGX6By5crKFyCsNHcTgGVuxWU8UUAUsDUFBGDZmkXleZQCup1LwhxGXDGdj2H8dDaZZqdz3Fgvgs4Ea1nQIQ3rzHCn9vTp08oJnDFjhuqXoIiOKPtnX3RsCUUYeh62cUeWEVSEW/x97dq11d+M/gnbIgJYDPdnFBlTIJcvX652jcM6mtxZrlKlito9pOPMFAIdwGJaAJ3lQoUK6Z1vOt2DBw9WjiwhVliAJctFewoIwNKeTWRGokBUCmgVYEU1b1v/Pd/VmzZtUu9x+gJ8F7MMANPwWSdK925l5BR9Af77y6gpRmTrGt/D9BEYCU2IxEZQxAhr9s++6AtUrFjxP74AN8eaN2+ufAFCE50vQOAVtkUEsPz9/VXaJ8sg6DbYwkZNEarRV2CEOH0BzkMHsFgugL6A7mRj+hr0BbihRX+Af5sjXc7W11dMnk8AVkxUk3tEAVFAFPifAgKwZDXYrAI8uY/Funm6DAu3MnSfO7J0ZOvUqaOimgiJCKRYxyqyRieVqXts3M39888/1c4r61zwhD/Wl+JOXqtWrfTRWLqTbX7//Xc1NndAGaJPoMadXR1Eighg0clmbQ7exwgrgq+wjdCNzikjygjWvv32Wz3AYv0r7h4T0unmyx1nwisBWNax1AVgWYedZJaiQFgFBGBpdz1wU0jnC/Bdz/c235UEUvQFGNXEA1/4bv6SL8DfM3VP925lKh59gdu3b+t9AUYytWzZMpwvwCgp+gLsW+cL0A+hb6HzBSICWEwPZH0m3kcwVaFChXAiE7rR/2BUF30BQjQdwOKJeoRehHS6+eo2swRgWXatCsCyrP4yuiggCli/AgKwrN+G8gRfUICAiAXXuTvJlDzuaDJ9jDVBCIm4s0knkjWl9u7dqxzBzxtPD9QVfOfvWFeKDuuyZctUn7rirEzr++677/S3E3Zdu3ZN7YISegUEBKjd2SlTpqhoMLbIABZPPWItMwIs7sCGbZwznVOmC7AoOXd0dRFYArCs/+MgAMv6bShPYH8KCMDSts0j8wUYncX3KQu9s4QAfYF//vlHbRAZ4gtwI4u+AOtn0Regf0FfgOmKuhbWFyD0IlDj4SH0BRgNxhYRwGKNLtbbpC9AMMXI67CNG3AsmcAyAvQFGGkuAEvb65CzE4ClfRvJDEUBUUDbCgjA0rZ9ZHZGVIBOIHdHeaR1//79MWrUKAWY+LMjR44oJzSs02nI0KwZwV1PRkVxd5bRTxE1Fk5lqh+jq1gQlnUoIgNYL168UH3t2rVL7ary+O6waX9Lly5VKQmEYUxtoPMtAMsQa1nHNQKwrMNOMktRIKwCArCsZz3wMBW+91knlLWgRo4ciatXr4L1qugLsHwAC55Hp9EX+Oabb3D58mV9sfjIfAGm+nFDizWsGCEdGcAi6GIJAfoCBFSsgxXWF+BpgoQh2bJlU/4LI8wFYEXHapa5VgCWZXSXUUUBUcB2FBCAZTu2lCcJowBPHuJRyfybu5OsP8HjqFnElOH8rHExZswYBAYGqoKm/BlD7ZkekCNHDnUqERthEo8h19XGYsFz9qUr2MqdVaYFMsqKkVwEWKxRQWDF47IZJUWHk7u//D1BE4vGE2DxuogisDge0x5Zo4JRYoze4m4ta21wh5dONmtfMDKL8+U4ArBsZ/kLwLIdW8qT2I8CArC0aWudL8CT+/g+5vub73Wm1POQGx7MMnr0aOUf0Bdgqh9T8PkuD+sLsCQBo6+/5Au0b98ehEq6k4/5jifQSpw4cThfgGUL+A7XASxeF1EEFv0LAi6eMMhUQvoC3LjS+QKEcKyJySgupgvSFxCApc11GHZWArC0byOZoSggCmhbAQFY2raPzC6GCtAZpHO6f/9+VeuCEIs1pbhLSeeVUUwsfsp26tQpddIPd2NZ8JTpfUwDYB+M2qLDSODFxusYtcWoJ6YVMsR/9uzZqk+mA3CHlI0F3AnHODYdXp5wRMeY6Yicl+6Eo4gAFu9nbQse+83dYM6TO7YsuMroMTqoLi4uCprpnkEAVgwXigZvE4ClQaPIlESBKBQQgKXNJcJTffnOPXDggIpQIsRiWQH6AoRW/FuXmsf0fNqR710ehEIwpPMFGLXFSCce9sJG+MSf6XwB1quiL8A+uSHGE4TZWFaAc2B/9AVYz4rz4Tucf3Njiy0igMWfX7hwQfkCR48e1fsCBF70V7Zt26bgGH0B3TMIwNLmOjQVwOKG54mjR7X/0FYwQ69cucId3mAFU5YpigJ2q4AALLs1vW0/OMHQrFmzVGoAd07pLHI3k3Ut6KAyiomOHxt3aHnCEKOieHpgSEgIeMwyd1sJnJjyx9P72Ngfj8ImsOIx1bzG3d1dObMsCMvisGw9e/ZUu6U8BpvXcT50hLnby2LvurH5c54cyDHphPJkQzb2y/oWLBC7efNmtWtMp5Vz5U5sv379VHF3/pxNdxoRHXTuHIct3MpoLqZJsHAr/8gphNpe+wKwtG0fmZ0oEJECArC0uS74jmX6HUsGhPUFWO9S5wswcknnC/DkYfoC69ev/48vwPc8I6PZRowYoWpdhfUFWKCd17BAu84X6NGjh6rBGdYX4OYXfQEWe9f5AgRYLMhOX4BRXGXKlAnnC7AA+5YtW8L5AiVLllS+AE8/1PkCus0sgjX6ApkzZ1b90P+hP8EodN1JhHIKoWXWrDEjsF4FBmLG1KmWeRAbG/Wb+vXhlSOHjT2VPI4oYJsKCMCyTbva/VMxxJ47U3RY79y5owqzcveT0VR0MnUpgjqheP3bt29VXQpGP/FeOri8nhCLQIuNzjAdTaYSMvqKffEaQqywfbIvOqy8jn1ybKYB0lkNex3HpQPMv+lEh/0dUx7YD9MGudPLRjDF9EX2E/Y4bQIv7vzSieXvdI4p+9XNmSCNzyJN2woIwNK2fWR2ooAALOtZA2F9AR6+4ufnp38ff/7e5lPpfAEe+MLaluILWI+trWWmpgBYuevWhde/WQXWooNW5vn0xg3snzgRArC0YhGZhygQtQICsKLWSK4QBUQBUcBsCgjAMpvUMpAoYDQFJALLaFJKR6KATStgCoCVv1Ej5Kpd26Z1M9XDPb56FbtHjRKAZSqBpV9RwAQKCMAygajSpSggCogCMVVAAFZMlZP7RAHLKSAAy3Lay8iigDUpIABLW9YSgKUte8hsRAFDFBCAZYhKco0oIAqIAmZSQACWmYSWYUQBIyogAMuIYkpXooANKyAAS1vGFYClLXvIbEQBQxQQgGWISnKNKCAKiAJmUkAAlpmElmFEASMqIADLiGJKV6KADSsgAEtbxhWApS17yGxEAUMUEIBliEpyjSggCogCZlJAAJaZhJZhRAEjKiAAy4hiSleigA0rIABLW8YVgKUte8hsRAFDFBCAZYhKco0oIAqIAmZSQACWmYSWYUQBIyogAMuIYkpXooANKyAAS1vGFYClLXvIbEQBQxQQgGWISnKNKCAKiAJmUkAAlpmElmFEASMqIADLiGJKV6KADSsgACtmxr104ADuXb4cs5vD3JUhVy7kKVNG/xMBWLGWVDoQBcyugAAss0suA4oCooAoELkCArBkdYgC1qeAACzrs5nMWBSwhAICsGKm+vTOnbF15syY3RzmruodOqDrH38IwIq1ktKBKGA5BQRgWU57GVkUEAVEgf8oIABLFoUoYH0KCMCyPpvJjEUBSyggACtmqusA1owLF2LWAYDOefNCAFaM5ZMbRQHNKCAASzOmkImIAqKAKAAIwJJVIApYnwICsKzPZjJjUcASCgjAilr1kOBgfAgODnfhrO7d8fecOVj7+vV/OoiXMGHUnQKoGSeOTQGsjx8/Ijg4GHEAODo5IU4c/pc0UcD2FRCAZfs2licUBUQBK1JAAJYVGUumKgr8q4AALFkKooAoYIgCArCiVmlBv35YPWZM1Bf+e8WWjx8NutbWANaD+/cxZNAgJEiQAIOHDkXKVKmUDq8CA+EfEABnJyekSZvWIG1McVFQUBD8/PyAjx+RJk0aODk7m2IY6dMOFRCAZYdGl0cWBUQB7SogAEu7tpGZiQKRKSAAS9aGKCAKGKKAAKyoVdIBrLo9eiCuk1OkNxzftAn3r1yBvQKsW97eaN+2LVxcXDBzzhykS5dOafXP3r1YvGAB0qVPj+GjRkUtuImuuHnjBsb99hs+hIRgyPDhyJAxo4lGkm7tTQEBWPZmcXleUUAU0LQCArA0bR6ZnCgQoQICsGRhiAKigCEKCMCKWiUdwFrz6hXiu7hEesO4Zs3wz7JlArA+A1gb16/HhLFjkdXDA38uXhy14LG4wt/fH1cuX0ayZMmQLXt2ODo66nu7eOECevz4I0JCQjDnzz/hmS1bLEaSW21VgTt37uD+vXtqDeXKndugxxSAZZBMcpEoIAqIAuZRQACWeXSWUUQBYyogAMuYakpfooDtKiAAK2rbCsCKWiNeEVkE1tu3bxH48qWCSUmTJTOssxhetW3rVowaPhy169RB5x9/ROLEifU9sT7Xs2fPVAoh5xEWbsVwOLnNBhUYMWwYdv79N2rVro3e/foZ9IQCsAySSS4SBUQBUcA8CgjAMo/OMoooYEwFBGAZU03pSxSwXQUEYEVtWy3XwHr//j0IiAL8/fHo4UN8CA1VqXup06RRqXxhW0BAAFhonT//8OEDWLOKf5IkSYLMWbLAPWlSxI0bV3/L61evVN/O8eIhQfz4ePz4MW7fvo3g9+9V9FKKlCkRP358/fWRAax3797h1atXcHJ0RBI3t3Bz4jwCAwPh5+uLhw8eqPkRLmXKnBnu7u6qEHxoaCjevH6truMzPn/xAsmTJ0fGTJng6uqqnzPh1JZNmzB29GjUrFULP3TqpABWQhcXJEyYUEVevXjxQgEsNzc3xA0TncVx+bw+Pj64f/++uob9U0fe6+DgoJ+3bs4EYuyHKYmPfHxw984d9f9Zs2ZFYlfXcPd8aZXpno/RY3eob3Cw0onjp0iRQt8Px6WOPo8e4eHDhwrAeXh4KLtxjmGL5vPaF8+fq59xLu/evlVRRb5+fkidOrXSl/dw/fj6+Cj4GC9+fGXXpJ+tA64b6uGSKJGaG/WhHdzd3JCJ68bdPcJnffPmDZ4+eQJGNHHNsP5Z+gwZ1PoLu850dqHGXIuvX7/GgwcP1JrgXJnq+flapp6saabWpLe3eg4PT09lL9Zg0zXalfPgn0SJEinNngUE4ObNm0ob2ip5ihRqPjq7Dh88GHv27EGNmjXRo1cv1RXt6vSF9GEBWFH/OypXiAKigChgNgUEYJlNahlIFDCaAgKwjCaldCQK2LQCArCiNu/uRYtwaM2acBfeOX8efnfuoHidOv/pYPCGDVF3aqRTCFetWIHly5bh7u3biBcvngIM/CL+dcWK+KVvX1WsXNfq1KiB58+fo36DBgoq7N29W8EhfpH3yJYNXbt1Q4WKFfXXTxw/HksXLUKRokVRolQpLFm0CE8eP1a/J1Bo2KQJWrZurWASW2QAa93atRg3erQCDIuXL9f3T6iwa8cOLF28GNeuXlUQgZCAwCtnrlyqjhbBwa1btzBm5EhcOH9eP1+CtSxZs6L7zz+jbLlyCqA0adgQly9eDKc9f96+Qwd06dZN3f9jp04KZDGVkSmGunbs6FHMnzsXp0+eVH0RfFCbosWKoVXbtkoDXcQWIdOAvn1Vf6PHjVP3bNuyRcEltnz586vIHf4dVSOEOX70KBYtWICTJ06oy2lHAhm2bbt2IVWqVEoT1hL7c+5cXL92TRWgD/3wQV1T7uuv0aZdO5XupgNtBEytmjeHs7Ozen6CvRPHj6vnosZ16tZFp65dsWbVKqxYtgwKUgEKMPXt3x9lypXTA7Fa1aopuEd7X7p4EQf371f9cN145ciBn3r0QOkyZcI96tUrV5Se+/buVVA1roODgqGcY6s2bdScCdDYmNrZrXNnuCZJgu49e6r5HDt2TIFBh7hxUaVqVfQbOFCBMl17+fIlFsybh7Vr1uDtmzd6e31bvz6+79BBacZG3aZPnYqFf/6pnpfANew65nW9+vRB1erVcffuXQzq3x9nT5/+j9kWLVuGAgULRmpOAVhRrXT5vSggCogCZlRAAJYZxZahRAEjKSAAy0hCSjeigI0rIAArZgae3rkzts6caXC9q4hGMcYphGNGjVKRS3nz50dSd3cEPHumAMDzZ8/Q5ccf0e6HH/RDE2AxeocRSQRDRYoVU5FVZ06fVmCC8GLhkiVI9i+QmjhunIJLBAsEEIQPjNTy9fVV4ImRLt169FBAzNHJKXKAtWYNxo0ZgyweHli6YoWaD+HQ6pUrMXnCBBVJQzjwVdmyKkqGkVQEJC1btVJzJXiZNH48ChUurOZIcLJj+3YFfAivho0cqaK21v71Fw7s34/dO3equZb+6isFLAoWKqSe9fy5cwqUBBNgLVqE7F5eai5XL1/GLz//jMd+fuoewqo4Dg4KTBEaEZSN+PVXBWvYbt+6hYH9+imARdDG+wj4eOoiU8+oMUEKAWLYaKDP1wCf8dCBAypijPCENcKqVqumIqoIjBjpREDHKLO/t29XGtKuNWrVUs9HWElAdOrkSRQuUgR9BwzQQzlGaLVu3lxFM3EOCRMkQPn/h5rsd8/u3aqfylWqKG0LFy2qxv5nzx4FxwgxWWyfkVtsBFh8RvbD6KwixYuraLpTp07h2v+DKkaKLVi8WJ8eeu/OHfTv21etKdqVsIp28L5xAxs3blQg6pc+fVC+QgUFLQmwfuzcGSHBwZ+gVpw4KFO2rBqbtmRkGgFW02bN9BJOmzJFQancefKgYuXKan2uX7dORZl17NIF3zVv/gmGvn2LaVOnKkDIZ+Tvi5UogezZs6v5ce0TwK5cu1atK9p7yYIFuH79utL46woV1JjffPstUqVOLQArZv9cyl2igCggCphXAQFY5tVbRhMFjKGAACxjqCh9iAK2r4AArJjZWCsAiymAjAwiPGH0DaHGkIEDVcRN5apVMX7SpHAAi2luhB0/dOyIPPnyqXv5JX7i2LG4du0afuzeXUXssOkAFq/p+tNPqj/CB0YaESCsWb1agYbBw4apL/eRRmBFALA4j/59+igIRFDASKaMGTMqoEG4xWgdXVocUwcZ+cUUNB0QOn7sGL5v3VrdS4Clg0sb1q1TUTSEaj1++UXBH12LDGB179oVe/fsQYmSJTFo6FB1WiJhxr1795Qu/B3hCQHR5wCL/TOCp2z58gq+rVy+XIGmkqVKYejIkeEi4D5faQR11HjThg0qZXDGrFnqOag34darwECVtvfkyRNV14uwipFCumgkXkMg0+H771WqXodOnVS0GMGNDmAxDY+RYLyH6YHUcvCAASqKitcR9tStV0+Bqa2bN6vIMl4/cvRoBSt1AIvjUJ/2HTsqaEdgdPz4cVWcn0Dv5969VWQV29RJk7Bg/nyV/jhl+nQFCrk2detm+dKlqFCpktKa4+oAlv/Tpwoy8ec6ew7+/2iw3bt2hVvLV65cQbuWLZXeXHslS5dW64ZRdB2//15pP3DIEKRNly4cwNJF4xEuMm2Q1w8dNEilFC5YskQfMdevd29s37oV9erXx6Bhwwz6B0IisAySSS4SBUQBUcA8CgjAMo/OMoooYEwFBGAZU03pSxSwXQUEYEVt22XDhmH95MnhLnz/9i2Cg4Lg8llNJ160ioXCDWjGiMCKaBjCpdl//IGvypTBjNmz9ZcwAovQhNEvtb/5Rp8iRug1ks+4di2KlyiB2fPnq3t0AIsRK7/PmBGu6DlTxJo0aID06dNj8vTp8PT0jBbA2vH332D0GMHLqDFj1Hyi0wi0KpYrpyKOhgwfrocPG9avx6D/j46q37AhevbqpY8iYt8RAaynT5+ibs2aKq2QaYbNW7bU60JAtG7NGoweORJu7u7YuXevmmLYCCzWSGIapa6mE6Oh2rRooaK4ho4YoaKTImuM8hnQp49KnyQgJFSMqDHSbNjgwarG1l/r1+sjx3TXzp45U0UZVapSBf0GDFC1yXQAi7adMm0a8hcooC5neimjxwg4q9eogVG//aa36+VLl5RNGdXEiDPdKY2MwCJMGzBkCCpVrqzXh2mOnD9tyWgqjsPUvp7duoGAsVGTJhgweHC42lwcg+CRKZCLli5Vtbh0AOt9UBD+mDcPefLk0d8z/rffVBQg4RlTStkWL1qkUlIJL+ctXKiHmgRk9WrXVhGDXFMEbWEjsLjGBg8dqmp9sTEVtEvHjipijvCQUXRsArCi80mUa0UBUUAU0KACArA0aBSZkigQhQICsGSJiAKigCEKCMCKWiVdEfe0np4qtSyyFuDjg7eBgQanFRoDYLGOFItwM9WKIMQ/IEDVwyKYiQhgsbA3I4mq16wZ7jEYNcOULEZybdu5U/1OB7BKlSmD36dPD3c9v/QTdoR8+IA58+crmBCdCCxGKk2ZOFFF5WzculUf7RORtoQuTGE7feoUjh45oqKxCL4IgGILsC5duIB2BCpOThg8fLhKqwvbmG43YuhQMDro1LlzCryEBVif10Y6d/YsWjRtahDA4rU/d++unm3+v7XG/o+9swCP6tqi8IIEEkiAIMHdpbQU92ItUNy9uLvTYi3u7l7cixd3KcWhuDsESYIlIQHeWxsmTdKEZMJMMjPZ5/t4r83ce2Ttc6e5P3uvE9z6OQcai9O/7PiZM/85PZHlnN06d5bMOmajEZoZABY9sAgfmdnExuw2ZlkRYNE3y2BSzs8uXLiAujVqIEeOHBg8fHgggEUTfepTomTJQFOkN9mK5cvF34xw7c7t2+jdo4eU59EHjEAwYCOE69CmjZRMrlizRiCTAWAxC23e779LVpahjR87Fgvnzw8EsIYNHixlsiE17uFR48Yhd+7cgQAW58PSQoNPGDPs2rVqJYb0CrBC/x7UK1QBVUAVsBoFFGBZTah0oqqAvwIKsHQzqAKqQFgUUIAVukoGgLXm1Ss4BjnZL+Ddoxs0wN6lSyMMYPFEPb7cL1m8GHHjxEH2r76SU9sIDwhHjAFYkydOlLIvnmBIoMT2WYD18CHq1aolQGTmnDkCIowBWCwjIzSjR9P23bvl9LjgGrOgWMLHawl6CMp4Kh2BEyHGlwIs6tS6eXM5aZG+T0EBzb69ewVgcewjx4+Leb2pANbpU6fQvXNnKRFctnIlcuTMGawGO3fsEIDFssqjJ0/+58S//fv2CRTKlTu3rCFt2rQRBrBGDh+OFUuXSsnfslWrRBtmMDHTiqWAterUCbQmQqPO7dvj+rVrWLJiBXJ+/bXRAIulp5s2bBDPrUKFCgXK8OJgLLus17ChnDAYMANLAVbo33V6hSqgCqgCNqGAAiybCKMuIoopoAArigVcl6sKhFMBBVihC2epAGvrn39KGZ6PtzeGjBghJ+bRk4nlZCwrCyvAYobT8KFDsXrFCnxXooT4FoUGsAiralevjlSpUmHs/02yCQuMAVhbNm+WMjAadLPMkXMNrj1+/FjgDIEHfajqN2okvlLPnz1DqeLFQwZYYfTAYsZQnRo1JLOOpZX0RwrYNm/ahKGffJAOHj0q8MhUAItlmIQ9XBvLIFn2GFw7fPAgfhs4UErddu3fL95SARuz2eiRRT8yej/RKywiMrBYdkk/LUM54ogxYyQzjlll9FWjX1bHzp0DzfXa1ato2bQpmDm4dOVKydwyNgOLmXtzZ88WmMmywoCnEwbV70sAFvcCPbbC0tQDKywq6TWqgCqgCkSQAgqwIkhoHUYVMKECCrBMKKZ2pQrYsAIKsEIPrgFgZc6XD9Ht7EK84cG1a3jx9GmEZWBNnTwZ82bPRtZs2bBo2TL/zJwJ48bJzwsXLYoZn3yDOGl6YBH88HS8ylWr+meu0Ah+0MCBUp4X8LQ3QwYWT/+bOXduoMwf+hKNHDZMToD7pX9/gSrGACyedtenZ08QaJQsXRqjx40Dy92CNvo/9ezWDSxhm7NggWTssLFs8odSpaTMjfDH4PG0aeNG/NKrl5RI0g+K3lWGFpwHFk++q1W9uvgh1lIntwAAIABJREFU0cyc6zfMg9lh06dMweKFC8UY3ODBZCqAxcwrAkieXJgxc2Y5oTG4UwsJuOiBJRlbAczSDeui5xbLKwn4eCokze9NDbBeeHpKRhWN/A2NmhFgcV4EPTVr1xaPLZro0xCeXlqMWcA10fh/8G+/Scbe+IkTJfPOWIB1+NAhMWtnbHv06iV7OaQWHoBFj7CNGzaIR9iI0aND/4IAoAArTDLpRaqAKqAKRIwCCrAiRmcdRRUwpQIKsEyppvalCtiuAgqwQo+tAWCFfuXHKzZ/+BCmS7/UA2v+3LmYMXUqaKZNDyWWcfFEO2Zg0evq29y5MWnqVDnhjo0Ai9CBGTqEWKXLlJHsrfnz5mHurFmInyCB+F/xFDw2A8BiGV+VatXkhEI5Ne7sWbRu2RLv/PzQ+5dfBPzw1D5jABY+fMCoESPAUkIaoNNgu0OnTkiYKJFkGh06eFCMwQl5OrZpg+fPn6NR48Zyat7VK1fEdJ4ZTFxLvwEDUOy772TOJ44dQ9OffpIsLWaSEe4ZWkinELIcjWVpCRMmFE+oHytWFA0Iw+i35PXmDcZPmYISJUpIV6YCWOyLxvk8yY/loHny5RMPK2a1ETQSotA0nafpMeuIII1wbezEiShcpIjAIpZ+ElYmSZIEP/fvj1KlS8scTQ2wmKlGw37CyqLFi0vpJ7P8Fi9ahESJEmHL9u3+RvbMGKMnF+f3U9OmYk7v4OAgJvod27WTvdm+c2c0btJE1mMswOL6CO1omE8TeO7lIkWLyvgvX7yQky0JBBMnThyuEsJpkydjxrRpsndoBs8y1dCaAqzQFNLPVQFVQBWIQAUUYEWg2DqUKmAiBRRgmUhI7UYVsHEFFGCFL8BT27XDlunTwwyrghvlSwHWhX/+wZBBg8TzigCJ0MUxViw5ke/UiRNysh4zh7r27Il06dIJwLp75w7ixYsnJVz0CuJ97s+fC7zp1qsXfgxg7m4AWPSHcogZEz5v38LZ2VnKxPgzwpXO3boJKGAjwGrVrBliOzlJthL9tNh4kt/oESOQPmNGLF62zF8KZvUM7N8ff//1l5i5c/784+XtjWxZs4oRNwHVwH79QKNygjpCCl6TImVKODs54ezZs+KJRZDGMkQ3Nzc5GY8ZSYQmvK5OvXrixRQIYC1ahMwBwASzyZg1xFP06K1EwMbyRhcXFynta9aypfhfsREC0gidoCSoiTvHaFi3bphM3NkX4zB7xgwBWYR0LFEk1OFa6fPFU/aYdSbZWkOG4Mjhw/D29haQ6O3jI6cDMvutVt26YsrOe9hoTN64YUPRgBAzoIl7vz59BM4FNXG/eOGClFMGdwoh++O+YZzixI2LD+/fi6l8IldXyXQrVaZMoC0+Z9YsLFu8WE69dI4TBzFjxJA1cP98V7KkwEqCOTYCrE7t2glo5XpDM3HnPR7u7ujVvTvOnTsngJH3cN/R4J+nMA4bOVKeg4AZWNwjzFIzmLjzWWgbjIk79zEzvLiXuGaeajhl+nSBZSE1BVjh+x7Vu1QBVUAVMIsCCrDMIqt2qgqYVQEFWGaVVztXBWxGAQVY4QulJQAszvzY33+LBxFf6AlYcufNi7LlymHN6tVS2kVTdxpap06dWgAWs18aNGoki758+TJ8fX0lg6b4d9+hUJEiAjwMzQCw8hcsiCpVquDw4cNyP+FV9uzZ8WOlSpL5Y2g8+XDp4sUCYOrVr++f+UWjdJbJESw0bto0kODM5GEGFGEQYYydvb34eBHasFwtTpw4AsxWLl+OGzduCDghjKlYuTJevnyJJQsX4t379+JdVbBQITGVJ9D7c8sWKTPkXJjdRbhFCMMT894zM6hJE5mPodEgnSc5smSRYIZZZ4R69BVjxhHnYWgEWxvWrZP+mjRrJpDM0PgzZsalSZMGFSpVkqy20BqBFE8aJMjj2NGjRRPow9MEq9eo8RGofYI29A7j+l6/eiUghrErWKSI+F8Z4BWvZZwW/v67wD7CO17HxnUxS496M4uL5ZuG9vjRIxA8ERpSM4PXVsVy5aSEk5pRp6tXr0r2HeFVyVKlUKBQoUBjG8bZv3evZNIxfowR4RWhEmFXQB+vBw8eYBXLJ2PHRsNGjQREGdqeXbuktJUea3Xq1w8kJWHV9m3bxDCemVf2MWIIcMqcJYvsHa6Z+5vzYB8/lCsnYJHQlo1wbfmSJaI5wVbadOn8+2eZ4vatW0HI6uDoiC7duwfa60FjqgArtF2un6sCqoAqEIEKKMCKQLF1KFXARAoowDKRkNqNKmDjCijACl+ALQVgcfbM1uELPF+0CbH4gk6QQ6hFKGDwIDIArD59+6Jc+fJStsYsLWZiBee9FPAUwklTpkg2C4EToRCzUkzVCFUIRphJQ4BF0GEoYzSMwfVwjbyWGUDMxOI/MyOI2VJcgyGzhvf4+PjIXNkP+wv42efmTZjE+2QcZ2fRNKIa58z1EGAR4gSEiQHnQJ2YucU1UYugWpl6vgaANWDQIAGd3DcEWIRsjqHoQ4BEMEmA5cS9GDu2SafHOFELAjYCLPp/haSbsQNzL1BrAlv2awBfwfWjAMtYdfV6VUAVUAXMqIACLDOKq12rAmZSQAGWmYTVblUBG1NAAVb4AmpJACusKwgIsGhyHloLCLAmfzqZMLR79HPbUyAgwCpRsqTtLdAEK1KAZQIRtQtVQBVQBUylgAIsUymp/agCEaeAAqyI01pHUgWsWQEFWOGLngFghe/uf+8q37o1OsyY4f8Dt0uXsGvoUFSpUUNM2U3ZqlWqJNkzvX7+WTKwQmsTxo7F0iVLpNRswuTJoV2un9uoAlUqVJAsp34DB+K7T0b2NrrUcC9LAVa4pdMbVQFVQBUwvQIKsEyvqfaoCphbAQVY5lZY+1cFbEMBBVjhi+P6CRNwdOPG8N0c4K78FSuiateuEQKw1q5eLQbgBQsXFk+h0Nrxv/8Wv6WUqVPLiYXaoqYCa1atEi8pnvRHw3xt/1VAAZbuClXASAU2bdpk5B16uSoQdgVomtm5c2d06tQJ33//fdhv1CtVAVUg0hSYNWsWNm7ciHXr1vkfbR1pk9GBrV6BMmXKhOp1YvWLjKILUIBlWYE3ZwaWZa1UZ6MK2I4CCrBsJ5a6kghSgL98aFMFzKUAT+nYvHkzChYsiIwZM5prGO1XFVAFTKjA8ePHcenSJTRo0OCzxqMmHFK7smEFJk6cGOhocxteapRbmgIsywq5AizLiofORhUIiwIKsMKikl6jCgRQgL98JE6ZABWafKe6qAImV+D6xVtoVa07egxph/I1/z1u1+QDaYeqgCpgMgWmDpuHtQs3Y8f5VYhuF91k/WpHUUuBc4ev4Pju81CAZbtxV4BlWbFVgGVZ8dDZqAJhUUABVlhU0mtUgSAAK1laV9Rs/4PqogqYXIEr52+gUZn26DuuCyrXK2vy/rVDVUAVML0C4/rPwIo563Hk3mYFWKaXN8r0eGLPeRzecloBlg1HXAGWZQVXAZZlxUNnowqERQEFWGFRSa9RBRRg6R6IIAUUYEWQ0DqMKmBCBRRgmVDMKNyVAizbD74CLMuKsQIsy4qHzkYVCIsCCrDCopJeowoowNI9EEEKKMCKIKF1GFXAhAoowDKhmFG4KwVYth98BViWFWMFWJYVD52NKhAWBRRghUUlvUYVUICleyCCFFCAFUFC6zCqgAkVUIBlQjGjcFcKsGw/+AqwLCvGCrAsKx46G1UgLAoowAqLSnqNKqAAS/dABCmgACuChNZhVAETKqAAy4RiRuGuFGDZfvAVYFlWjBVgWVY8dDaqQFgUUIAVFpX0GlVAAZbugQhSQAFWBAmtw6gCJlRAAZYJxbTwrl56vsLahVtw5fz1L57ph/cfkCFrGjTv1kD6UoD1xZJafAcKsCwrRAqwLCseOhtVICwKKMAKi0p6jSqgAEv3QAQpoAArgoTWYVQBEyqgAMuEYlpoVx8+fMCje25YPG01tq7dg1TpUsDOPnq4ZvvS4xXu3LgP9sl29OGfCrDCpaT13aQAy7JipgDLsuKhs1EFwqKAAqywqKTXqAIKsHQPRJACCrAiSOgIGOb9+/fygmpnZxcBo+kQkamAAqzIVD9ixr578wFmjlyIYwdOoXTl4qjasDzs7Y1/tr1ee2PqsPm4cPoy3r//AB8vHwVYERNCixhFAZZFhMF/EgqwLCseOhtVICwKKMAKi0p6jSqgAEv3QAQpoADLvEKv+X0zLp29inxFc+GHaiXMMtirF6+xYu56nDh0Bt5eb+GaJAHK1SiFkhWKmGU87TTyFVCAFfkxMOcM7t16iN86jcHta/dQo3EF1G5RBfETxjN6yDevvDCk+3j8tecESlcqjqePnuHw7mMKsIxW0npvUIBlWbFTgGVZ8dDZqAJhUUABVlhU0mtUAQVYugciSAEFWMYL/ff+U9i16SD8fP3k5mjRoiFWbEekSJMURb/Pj5Rpk/t32qf5EOzdehg1m1RCj6FtjR8sDHcM7DAaW9fslnnwDzOx6rWqhi6/tQrD3XqJNSqgAMsaoxa2OV88ew1d6veFj9dbNOlUBw3a1kSMmPZhuznAVW9ee2NIt/HYtXE/SpQvjIETe2Bs/+nYtHyHAiyj1bTeGxRgWVbsFGBZVjx0NqpAWBRQgBUWlfQaVUABlu6BCFJAAZbxQi+f9YeU5Lx/9x7xE7ng3bv38H7jDa833tJZvVZV0bJnI8R2ioUvBVgc49XL1/DzfYd4CeL8pzzw4d3HqF6wGZKkcEW3wW1QuHRePLzrhnfv3iFtxlTGL07vsAoFFGBZRZjCNck21Xvh1JFz4bo3uJuYidl/fDc4xYmNwV3HKcAymbLW0ZE5AFamMmWQrlgx6xDAwmbpfusWjs2fjyo1aiBL1qwWNjudjiqgCgSngAIs3ReqgJEK8JePZGldUbP9D0beqZerAqEroAArdI2CXmEAWAlc46P3iA7w9vbB43tPcGDHUZw8fBYuCeKi14gOKFWx6BcDrGdu7lgyYw08nnmi3S9NkShJgkDTObLnOLrU749cBXLg1ym9kCxlYuMXpHdYnQIKsKwuZGGesAFg1WpaKcz3BHfh6b/P4+r5G9h1eTWc4zrJJQqwvkhSq7zZHADLKoWwsEkrwLKwgOh0VIHPKKAAS7eHKmCkAgqwjBRMLzdKAQVYRsklFxsAFksFl+2d4d/B1Qs30bR8Z/n3Bm1roG2fxp8FWCz1o3+V+zNPxIgRAwkTx4eDY8xAE7p9/T56Nv5VsrBmrhsj5YnRov17yba1ezGg/UjkKfINBk3thYSJEwT63HAls8OePHomJu+JEidAbOfYwV7HQ8oC9v/8iTtevniNxMkSSZnkp0PM5Br25en+Eu5PPQTaMRvN0Hx9fPHovhvsYtjBNUlCxIgZw3ih9Y4QFVCAZbubwwCwDCcFhnel4wfMxPLZ63Dk3mZEt/t4eqECrPCqab33mRJg+fn64vKlS9YrhgXNPFXq1Igbz3hfOwtagk5FFYgyCijAijKh1oWaSgEFWKZSUvsJTgEFWMbvi5AAFoHU99nq4M2rN2K83GNYuxAB1tY1e7Bj/T7cunYXvm99xbsqQSIX/NShFr4rXxjRo0fH0f0nMaLnZDx5+FROD2OZYIwY9siUIz1a9WqEBRNX4O/9J/H08XM4xnKQ7CyeQMjPylQuLgtj5tbKuRuwY8N++Hj7yM9iOcVCse8LoHnXevLPARuzuQjL6rSoiqsXbmDn+v2IE88JnQa0QHxXF4z5eRo8nr/AL2M648ThM9i6dg9ev3gDx9gOqN6oAmo2rYjjB89gztglAswIunLkzoqO/ZsjqWaHGb/ZQrhDAZbJpLS4jhRgWVxIrHpCpgRYVi2ETl4VUAVUgXAqoAArnMLpbVFXAQVYUTf2EbFyBVjGqxwSwLp78z7qlWgrMIogqmWPhiECrHol2oD+VYRCiZMmxJ0bDySTKUPWtAKHcuTOIiWJA9qOhLeXj2Q7xXJyRPRo0ZEtVybxu5o6dD6OHzwtnxNcEWJx7G5DWqNC7e/B8kNmYezedAD2MWMgaQpX2Nvby7jMyMqeKzMmLB2MuC5x/EWoVaQFnj/1kBPPCMbYX8IkCdBzWDvEix8HvZsNwZNHT1GwRB7QzN7B0UHuff3qjQC0IqXz4ej+U7IWZl0Rmr318VVTeeO32WfvUIBlYkEtqDsFWBYUDBuYigIsGwiiLkEVUAUiVQEFWJEqvw5ujQoowLLGqFnPnBVgGR8rA8BKkSYZluyaJjCI2UbMOtq18YBkSvUf3xV5i+YKEWAtm/WHQCpCJEKlZ27P0bR8F8l+6jG0HX6sVVomdvvaPfRs8puUGkoJYbpk8nOCJUKtbWv3gKcQ/ltCGF8+8/Pzw/rFWzFp0BwBVH3HdRHo9OH9B/y17wRG9p4imV31WleXUkc7ezvplwDrzo37iBPPGT/WLI06Laogbvy4iOkQAzev3BaAxdLAeAnionK9sqjdvLJkhfGl+9bVu7CPYY+v82VHy+4NZH2r5m/CjBG/I03GlFi8c6rMTduXK6AA68s1tNQeFGBZamSsc14KsKwzbjprVUAVsBwFFGBZTix0JlaigAIsKwmUlU5TAZbxgTMALCfn2Kj2UwV4PPPApbPXxDA5lnNs1G9dTTywYsaMYZSJO0HVoZ3H0G1IG9RsUlEmduf6ffRo8itevXiDWevpgfURYBkaS/gGth+FvPTAmtZbfLTYWDo4rOdE7PvziGSCtejeINB904bNx++TV0p539AZfZAsVRJ/gMUMrcoNyqFN758CZWddOntVAJbbo6do3LEOGrWvCWrANrznJKxb/CdyF8qJ7kPbSiYZYdXRvSfFd4dt48lFCrCM327B3qEAy0RCWmA3CrAsMChWPCUFWFYcPJ26KqAKWIQCCrAsIgw6CWtSQAGWNUXL+uaqAMv4mBkAFkvj2FgqlyhxfOQq+BXK1SiFr/NmR2znj95SfZoPwd6th1GzSSX0GNo20GA0bz9z9Dwe3n0E9+cvsHvTQdy79QDdB7dBrWaV5drwAqxH99zQpUF/3LxyB9PWjESewl8HGvvYgVPoUPsXpEqfAn3HdsG3Bb/yB1ge7i/QfXBblKtRMtA9BoD17Ik7Zv4xWjKsDM0AVBq1r4VWPRtJxhbbsYOnMaTrePi99cWm00sUYBm/3RRgmUgza+lGAZa1RMo65qkAyzripLNUBVQBy1VAAZblxkZnZqEKKMCy0MDYyLQUYBkfSAPAojfUqHkDEM8ljpweyD+OsWMFOsUvJIC1esEmLJ2xVjKlokX/aOD+/Kk7Xr/yMgnAun/7oZT1sf+5m8Yj81cZAi30xuXboA8XjdX7jOyIQqXy+gOsl56vpIyxTJWPRvCGFhBgzWOfOf/t0wCwmnSqi5Y9GkgpoQIs4/dWWO/QDKywKmV91ynAsr6YWfKMFWBZcnR0bqqAKmANCijAsoYo6RwtSgEFWBYVDpubjAIs40Makol7cD0FB7B4+mC/NiOQ0DU+6raqiqoNf0RcF2f0bT0cuzYdCAFgvcas9WPDXELIMsBOdfvi7s0HUnpIX6qA7dSRcwK4UqZNLqbxeYp8zNCiB5YCLOP3RETfoQArohWPuPEUYEWc1lFhJAVYUSHKukZVQBUwpwIKsMyprvZtkwoowLLJsFrMohRgGR+KLwVYnev3kxP8KtQugz6jOsH+k4H6zy2HYs+WQ3LCYG1DCeGN+2Li7v7UE3M3j0eqdMkDTTgkD6znTzwwqPNYHNlzHN2HtBWz9YCN/lf0wcr6TSYMntYbqdOnUIBl/FaItDsUYEWa9GYfWAGW2SWOUgMowIpS4dbFqgKqgBkUUIBlBlG1S9tWQAGWbcc3slenAMv4CHwpwGpXsw+YAVWqQlH0HNEODo4OOHHoDCb+Oht3bt5H2z5N0LBdTQFbD+48ksysK/9cx5CZP6Pkj0XCBLDoz7ViznrMGr1I4NSASd2R5asMcnLhhdNXxJeKJxxWaVBWgBl9vNg0A8v4/RAZdyjAigzVI2ZMBVgRo3NUGUUBVlSJtK5TFVAFzKWAAixzKav92qwCCrBsNrQWsTAFWMaH4UsB1qIpqzBl6Dw4xYmNjNnSIXr0aHhw5zHevXuHp4+fI1OO9HIKYZUG5fHqxStMGTJPTvjjCYR5iuRCyrRJUadFFQFfIWVgcVUsHxzbb7pkexFipc+aBtEQDdcv3RJz+LSZUmH47L5IkzGlvwgKsIzfD5FxhwKsyFA9YsZUgBUxOkeVURRgRZVI6zpVAVXAXAoowDKXstqvzSqgAMtmQ2sRC1OAZXwYVsxeh6nD5iNluhRYunvaZzv4ueUw7NlyELWbVka3IW3kWj9fP4zpOx3rl27F+3fv4ejogOpNKqBKvXLo03IIbl29K6brv2+bJMDpyvnrGN13Os4dvyD//nW+bBiz8FfEieuM7X/sRf92I5G36DcYPK0PEri6+M+H2VaPHzyVLKw/V+2S7Cu2GDHsUbJCEXQd1BrxE7oA0f5dQu1irfDC4yV6Dm2L0pUDm7hfPncNvZoNxjM3d8zfMkFAm6FNGDALy2b/gaZd6qJF94b+ZZHHD57BkG7jZc0bTy7SUwiN327B3qEAy0RCWmA3CrAsMChWPCUFWFYcPJ26KqAKWIQCCrAsIgw6CWtSQAGWNUXL+uaqACtyYkaY9PTRczx78hxJUyaBS/y4ApI8nnvKz5OnSYrYTrH8J+f71leytN76vEWyVEngHNfJqIkTSj24/QjRokdHspSuiOMSR2GSUQpa1sUKsCwrHqacjTkAFr9v/tp7AhN/mw0f77f44+h8RI8eHSf2nMfhLacxceJEJEiQwJTL0L4sRAEFWBYSCJ2GKqAKWK0CCrCsNnQ68chSQAFWZCkfNcZVgBU14qyrtC0FFGDZVjwDrsYcAIuHOUwbvkDKlDv2b44ipfPLkAqwbHcfGVamAMv2Y6wrVAVUAfMqoADLvPpq7zaogAIsGwyqBS1JAZYFBUOnogqEUQEFWGEUygovMzXAGj1/AKYNW4BodtHQtndjFC6dD/Yx7BVgWeHeCM+UFWCFRzW9RxVQBVSBfxVQgKW7QRUwUgEFWEYKppcbpYACLKPk0otVAYtQQAGWRYTBLJMwNcBKmDiB+N71HN4OBb7L7X/iKCevGVhmCaFFdaoAy6LCoZNRBVQBK1RAAZYVBk2nHLkKKMCKXP1tfXQFWLYeYV2fLSqgAMsWo/pxTQaAZaoVxohpjwlLBiNv0Vz/6VIBlqlUttx+FGBZbmx0ZqqAKmAdCijAso446SwtSAEFWBYUDBucigIsGwyqLsnmFVCAZbshHvXzVFw5d91kC2z7cxPkKfJ1sP0pwDKZzBbbkQIsiw2NTkwVUAWsRAEFWFYSKJ2m5SigAMtyYmGLM1GAZYtR1TXZugIKsGw9whGzPgVYEaNzZI5iqQCLJ2N6eXnh5YsX8v/84+vri/fv3slhA5HZeEKnnZ0d7GPEgKOjI2LFioU4ceIgtpOTnN6pTRVQBaKWAgqwola8dbUmUEABlglE1C5CVEABlm4OVcD6FFCAZX0xs8QZK8CyxKiYdk6WBrBeeHrizp07ePTgATw8PPDm1St4e3vDx8cHfn5+Aq/ev39vWhGM7I2Qin/s7e0R08FBIFbs2LERz8UFiZMkQZq0aZEgYUIje9XLVQFVwFoVUIBlrZHTeUeaAgqwIk36KDGwAqwoEWZdpI0poADLxgIaSctRgBVJwkfgsJYAsJht9cTNDSdPnMDd27fx5s0b+Pn6wjF+fCTKlAnxUqZE3KRJ4RgvHuwdHWEXMyaiRYsWgSoFHuqdry/8vL3h/eIFXj1+jBcPH+Lp1at45eYGu2jRBGglSZYM3+bJg1SpU0u2ljZVQBWwXQUUYNlubHVlZlJAAZaZhNVuRQEFWLoRVAHrU0ABlvXFzBJnrADLEqNi2jlFJsBiNpWnhwcO7NuHa1euAHZ2cEqUCKkLFECaQoUQJ2nSSAVVxir9+tkz3D9+HDcOHMDLR4/w3s8PqVKlQvESJeCaJIlkbGlTBVQB21NAAZbtxVRXZGYFFGCZWeAo3r0CrCi+AXT5VqmAAiyrDJvFTVoBlsWFxOQTigyAxRJAD3d3nD93DqdPnkS0WLGQMEMGgVbJcuaULCtrbh/ev8eTy5dx89AhPLl0CV7PniFHzpz45ttv4erqCjsFWdYcXp27KvAfBRRg6aZQBYxUQAGWkYLp5UYpoADLKLn0YlXAIhRQgGURYbD6SSjAsvoQhrqAiAZYLBe8cukSTp04ATd3dyTJkUMyrpLmyGH14Cqo2Cw1fHbtGu4cPYp7x4/D2cEBuXLnRrYcOaTMUJsqoArYhgIKsGwjjrqKCFRAAVYEih0Fh1KAFQWDrku2egUUYFl9CC1iAQqwLCIMZp1ERAIslgz+dfgwzp0+DTg5IUv58kiZO7d4W9ly8/XygtvFi7i4eTNe37+PrNmy4buSJREjZkxbXrauTRWIMgoowIoyodaFmkoBBVimUlL7CU4BBVi6L1QB61NAAZb1xcwSZ6wAyxKjYto5RRTA8n37Frt27JCyQZc0aZCvaVPES5UK0aOIwTkzz14/eYKzq1eLT1ay5MlRvWZNOGgmlmk3tPamCkSCAgqwIkF0HdK6FVCAZd3xs/TZK8Cy9Ajp/FSB/yqgAEt3hSkUUIBlChUtu4+IAFje3t44fOAAzpw5gwQZMqBwu3Y2n3UVUtTfvn6N0ytW4OaBA0ibJg3KVawIZ2dny94kOjtVQBX4rAIKsHSDqAJGKqAAy0jB9HKjFFCAZZRcerEqYBEKKMCyiDBY/SQUYFl9CENdgLkBlq+vL44fPYrjJ07ANUcO5G/eHDFixQp1XrZ8gZ+PD86sWIHbhw4hc8aMKF6yJJwUYtlyyHVtNq6AAiwbD7Auz/QKKMAyvaba478KKMDS3aAKWJ8CCrCsL2aWOGMFWJYYFdPOydyptEzdAAAgAElEQVQA68L589i7ezfiZ8mCb+vVg5Orq2kXYKW9EWKxnPDOgQPImzcv8ubPr55YVhpLnbYqoABL94AqYKQCCrCMFEwvN0oBBVhGyaUXqwIWoYACLIsIg9VPQgGW1Ycw1AWYE2B5eHhg+eLFiJEwIfI2boz46dIhWrRooc4pqlzw5vlznFqyBM/On0fFKlWQJl26qLJ0XacqYFMKKMCyqXDqYiJCAQVYEaFy1B1DAVbUjb2u3HoVUIBlvbGzpJkrwLKkaJhnLuYCWDQtX7FkCR49fYrcDRsiXZEigMKr/wTxyeXLODZ/PmL6+qJx8+aIHj26eQKtvaoCqoDZFFCAZTZptWNbVUABlq1G1jLWpQDLMuKgs1AFjFFAAZYxaum1ISmgAMv294a5ANa5s2exfcsWpMyXDwVbt0Z0e3vbFzMcK/zw/j0ubNiAC5s2oWDBgihUpIjVZqndu3cPgwYORKxYsdB3wAAkTpxYFPHy8sLLly9hb2+PBAkShEMl09xCPzZmBeLDB8RPkEDmoy1kBXhyqLu7u5wUGt/FBXaqV4hiKcDSJ0kVMFIBBVhGCqaXG6WAAiyj5NKLVQGLUEABlkWEweonoQDL6kMY6gLMAbBevXyJTevX4/Hz5yjTrx/iJk8e6jyi8gWvnz3DoUmT4PX4MRr89JPAFWtsN65fR8tmzeDk5ITps2cjRYoUsoz9+/Zh6eLF8u/9f/010pbG+Y0fMwZ+796hb//+SJkqVaTNxRoGvnzpEkaNGIH48eOje69eSJYsmTVMO1LmqAArUmTXQa1ZAQVY1hw9y5+7AizLj5HOUBUIqoACLN0TplBAAZYpVLTsPswBsP45dw57du5E+jJl8HWtWpYtgIXM7tru3Ti+YAEKFCokpxJaYwsJYK3/4w+MHT0a6dOnx4LFi826NGYMXbt6FS7x4yNdunSBsqy4L7t07Ag/X1/MWbAAGTNlMutcrL3zkydOoF2rVnBNnBiTp01DWvVoCzGkCrCsfbfr/CNcAQVYES55lBpQAVaUCrcu1kYUUIBlI4GM5GUowIrkAETA8KYGWN7e3tizaxeuXL+OckOHInb8+BGwCusfwtfbG5t79oRL7NioUqMG4saNa3WLCglgeXp64ombG2LGjInUadKYdV07tm/HqOHDUf7HH9GqbVs4Ozv7j8e9ef/ePdCfLVXq1HBwcDDrXKy9c683b3D37l2BgMxWY/y0Ba+AAizdGaqAkQoowDJSML3cKAUUYBkll16sCliEAgqwLCIMVj8JBVhWH8JQF2BqgPX40SNs2bABcbJlQ76mTdX7KtQI/HvBubVrcXP7dpT+4QdkzZ49THcSxrx//168ne7dvYt3794JnEmYMOF/DOGZecRGTyO2R48e4c7t2+JvlDptWjg6Ogby32Jf7JvG8vzz4sUL3LxxA/SSypQpE+LGixdojJAAFvtgX+zD7tPYhsVx/vyMgOvunTsClxK6uiJ16tSBgAmvMQAoZlkxKyhVqlQCVwwnW/r5+WHDunX4tX9/VKtRA527dkWcuHFlTI7NvnkNW8D7DHOReTx5IprQJytN2rRwdXX11yvonNkf++H/P3v2DLdu3pRyO94XI0aMMMWPF1Efanvn1i28fvMGSZMmRfIUKf4D2AxaXb92TcZLnjw5UqRM+Z+xDOukLlz3mzdvcOXyZdjb2SFbjhyiFzUJeiJowPsMcaJeIV1PvZ49fSpx8/bxQaJEiQR0xY4dO1DfXN+jhw9x48YNKS9l5hvBoi2dSKoAK8zbXS9UBT4qoABLd4I5FVCAZU51tW9VwDwKKMAyj65RrVcFWLYfcVMCLL4AX71yBZs3bEC+li2RukABm3pJNfduePnwIbb27Yt8+fOjSPHiYTqR8I81a7B0yRJcv3pVYIoBOpUrXx7de/cWqGBolX/8EZ4eHqjXoAFu3ryJ7Vu3yvUECVmyZUPX7t1RqHBh/+vHjRmDJQsXIl+BAihRqhTmzpoFAko2Agj6dTVo1AguLi7ys5AA1h9r12L08OHIkDEjFi1b5t8/gdThQ4cwd/ZsXPjnn4+gxN4eb318kOOrrzBt1izp+/atWxg9YgRY0kZ4xvb27VuBaD1695ayS95bt1Yt6SdgI8Bp2bo12nfqBB4s0LFtW4FY8xctQqbMmf0vPXv2LObMmIEjhw/jA3/6Qf4XRYsVQ5PmzZHz66/94RtBVd8+faS/sRMn4vSpU1i3di1evngh9+TOkwd9+vVD1qxZQ90yBHcL5s3DyuXL5VrCRa7/+7JlMXzUKP8xud4D+/Zh4vjxAioZa2qRv0AB/NK/v0AzQ9u7Zw86tWsn8yhSrBjWrFqFB/fvI168eGKiTwDIEsrMWbIEmh9j0bZlS+lzyIgRMk7r5s0FFk6fNcu/hJDPOWMxf84cHP3rL5lHTAcH0PSdfQ4ZPly05XUEnnNmzcKuHTskRrw2cZIkaNehA8qWL28zWV0KsELd6nqBKhBYAQVYuiPMqYACLHOqq32rAuZRQAGWeXSNar0qwLL9iJsSYBEMHDl0CGcvXULRTp2QQD1zjNpA7/38sG3AACRxckKZsmXhFKD8LaSOhg0eLOAoa7ZsknVFOLF+3TrQSL9jly5o0qyZ/60EWMyEIXxilkyOnDkly+fihQsCHulxtGDRIvGPYhs3ejSWLFr00VT+wwekTZ8eKVOmxNOnT3H44EHJpunSvTuqVKsmQCVEgLVmjQCodBkyYMknUMPTFzesX4+Rw4ZJZlW27NkFlMVxdsbz58+lv1Zt2ogGfx89Ktd9lTOnZBwRSrFMlZ5WJUuVwq+DB8ucFy5YIPMiiGGWDwGOg6MjChUqhKLFi+PsmTMCdnwJsBYu9Ac4N65dQ/euXaW8kPfkyp1bYMvZ06cF0FDb34YMEQDHRijT7+efBWB9kysXbt++jVzffouEiRLh0IEDePrkCWrUqiXG58xqC6kxM2nF0qWYNGECkiVPLmWPBEGEWvx3gkaule3g/v1ywqOXtzcqVa4ssT5+7JjMr2ChQgLSePojG7Xp3KGDZJ85OjggRapUAvsYr1evXmH1ypXo2LkzWrZp4z81gszunTvj4IEDaNqihQCmE8ePo02LFgKwps2ciXTp08v1Fy5cQJ8ePQQsElTlL1hQMtU83N0FuNWoXVsM+5lVxv25Z/duFClSRDR6+PAhdmzbJuscP2kSsoQB8hn1EEXSxQqwIkl4HdZ6FVCAZb2xs4aZK8CyhijpHFWBwAoowNIdYQoFFGCZQkXL7sOUAIuZI1s2bYKnnR3yN28OZ1dXy168hc3u/bt3ODZvHryvX0fZChUECoTWaFgeI2ZMAUuEBz4+Puj/yy/Y9uefkuEyauxY/y4IsJg99PU336BZixbInTevZMAcO3oUE8aNA0vTmNH0U5Mmco8BYLHfFq1aodyPPwrMYBYXM4E2b9womVn9Bg5E4sSJjQJYzO75pXdvyV4KmLXDsQhTXr9+jThx4ghIIhi5d++eABRCGAE6Bw6IwXj2HDkwaOhQfxhFw3iuv0bNmujas2cgL7GQAFbv7t2x9c8/kTdfPlkLs5kIjgjkxowaJVCqcdOm6Nazp4wdEGARBnbo3Bmlv/9essUW//67aFOoSBGBXiwHDKnRY4q6L1uyRLLECBzZCIKZcUXIyPb82TOMHD5cMuZat2uHps2aCZhj7AmYvLy8MHbCBBT8lD1nAFiEgOUqVEDjJk1Eu3d+fti5Y4fAwAQJE2Lthg3+JveXLl6UvthmzJkj0I6ALDiA1aZlSwGFhFedunZFkaJF/bP/vL28ZG4ce/fOnRLjb779Fj/37SuAlHGdMXUqFv3+O9q2by/rsYWmAMsWoqhriFAFFGBFqNxRbjAFWFEu5LpgG1BAAZYNBNEClqAAywKCYOYpmBJg8UV6xZIlcMqcGd/Wrw+HMGQQmXl5VtU9s5IubtmCW9u2oULlyuInFJ42ecIEzJ45U7KOmDljaARYzG7q1qOHZE0ZfI4IvYb89pv4RxG8zJg9W24xAKw8efNi0rRpgbKJmP3UsG5d8duaMHmyZCcZk4FFkDJ8yBDJNho4aBCq16xpVLmp2+PHKFOihEAUZmCxxI+N2Wf9/58dxQworpNZSIYWHMAiHKpasaKAPwKVxs2a+c+DGVJrVq7EqBEjpBTzz507pauAAKtdx44CAw0G54Q+zX76SWAY5/U503qW002bPBnz5swRMEjIQyAY1CeMmV6/DRggWXI79+2T7Cs2luhxrAvnzwtIatS4sfzcALAI9/r/+qtAPoPfFKEXPcLOnTuHqdOnyx5hmzppEubNnSswiplRnENwAMvNzQ1lS5USwNewcWN06NQpRL+v3wYOFP0MGhFqsRFyDx00CHnz55fTDW2hKcCyhSjqGiJUAQVYESp3lBtMAVaUC7ku2AYUUIBlA0G0gCUowLKAIJh5CqYEWG9ev8b82bORukQJ5KxeHXZ6aplx0fvwAbePHsWJuXNRqWpVpM+QIdT76Tvk4emJbVu24Pz58wKECJJY5kf/JvpIGZrBA6tP374oX6FCoL4njhsnJXj0J/pzxw75zACwChcrhslTpwa6/uGDB6hTowbevX+P2f/3cCIkMQZg0fNpwtixUtK2fvNm//K04BZMkMTr6LvEUjqOTS+uK1euCMAiAGNWGZuxAOv8P/+geePGAmEG/PabeE8FbMwiGvzrr2KafuLMGcl2CwiwFi5dKqVxhnbm9Gk0qlcvTACL93BNBHmEU2zUkaWT9PUylAQe2L9fABahXXDNPkYMNPzpJwF2bAaART+zQcOGIUmSJP63MbuNZX1rV68WeDVp6lQpeezVvbvMZfL06Sj+3XdyfXAA6/TJk/ipQQPEc3GRjLRq1auHuEcbN2yIUydOhPh55qxZsfqPP0Ld49ZwgQIsa4iSztGiFFCAZVHhsLnJKMCyuZDqgqKAAgqwokCQI2CJCrAiQORIHsKUAOv1q1eYPX06Mv/4I76qWhXRgpw4F8lLtYrhH5w+jUMTJ6JytWrIGMBkPLjJE+qw/IwZPPQ6YhYUARRLAelrZQzAmjJpEhbMnYukyZJh09atMtxnAdbDh6hfu7aUu82cOxfZs2c3CmBx3pPGj5eSsp1798q8g2vMMvrryBEp5bt/965APZ6+Rw+lTRs2fDHAYgkjy+TY3+Bhw/BdiRKBprF/3z4MHjgQjx8/xpHjx6WE0ZQAi4PRa2vJ4sU4f+6ceEQxu6lm7dpyiqJjrFhS9jdowADxlCr8/9LEoKf30fi9WPHiqF23bqgAixfs2rlTgBjh57JVq+SEQpYVOseJgzXr1/uXFQYHsI79/bcAP5Yg9vr5Z/wYBIQGFK9apUqyJ1i+yFMVowUJMLPOmKVmC00Bli1EUdcQoQoowIpQuaPcYAqwolzIdcE2oIACLBsIogUsQQGWBQTBzFMwJcAiUJkxeTK+ql4d2StXNqokzMzLtJruH58/jz0jR6JKjRr/OSUu6CIINliKRS8lejcRWNHMnDBqFsvDwpiBxaycEcOGYdXy5QJCmIUTGsAixKlVvTpSpkiBcZMmCVgyJgOL/lk0dmdJIwFYwNMPA66T2UEd2rYVyMIyQ5bJsbTS/flzlCpePGSAFUYPLBqR12X5YvTo6NWnD6oGySjasnkzhv72m2SaHf77b4FLpgZYXC89rwjTdm7fLv5lL1++lPI6niLIkxENGVibt20Tg/fPtc9lYPE+Dw8POV2QWV/09qJv1bKlSwVI1W/Y0L/r4AAW9apUvjxixY79seSyadMQn3OCQcLH1m3bonmrVjZz4mBw2ivAspqvWJ2opSigAMtSImGb81CAZZtx1VXZtgIKsGw7vhG1OgVYEaV05I1jSoClGVhfHkdjMrCmTZmCebNny4l7S1as8PdOYjng3NmzUbhoUX8/K85MPLCePRNQUalKFX/w8OD+fTnhjqf39ezTx99LyZCBRbP3mXPm+J+Ix75WLFsm8IynAPYNh4k7M8Ro8M1sMZrNDx0xIljAwZPwenTtCpanEnQZyvV4muIPpUrJ2n9lCWGuXCI+s7LY748VK4KlkjRWN7TgPLAIjmpVq4a7d+6IbxYhFssE2d68eYOZ06bh9/nz5YRElkqymQNgGeZIjymWFO7asQPtO3US+ENoRIBFoFS3Xj383L//Z+FwaACLY9HzataMGeK9Rf8u+nEtWLxYTg80tOAAFq+rUaWKzInZaj/36xciUPt93jyMHT1ayjuHjRz5WT+wL39yIrcHBViRq7+OboUKKMCywqBZ0ZQVYFlRsHSqqsAnBRRg6VYwhQIKsEyhomX3YUqApR5YXxhrIz2wWDo4Y9o00Px97u+/I1OmTJK9M3nSJPHC+jZ3bsniiRsvnkyMAIvgIW3atOJfVPz/AILm5YsXLsTsGTPk1L+NW7f6ey8ZABZL1GrVri3eTMzwunj+PNq1aSOAp0evXgJ+DKf2tWzWTMrsps+e7Q9D/lizRrKt0mXIgCXLl8tceOIis77oheXg4CB9tGjdGgkSJADh1N9Hj0oG2aPHj9GpbVvJ1KJZOq8h9Bo9ciROHj8u5YSSffbJjNxQ4sYsLZrL84TDzwEsfrZm1SoBRCxj7N6zp/hg0XCcWg4bMgQvPD0xatw4fP/DDyYFWMyy4hj0kyII5JjMNCNMJGwbPW6cwD16gBFUzpo5U2Ldqm1bNGjUSE4pZIklSw/ff/jg7wMWFoDFUyArBPD7Ysliz969pWTxcwCLnzFLrHuXLjLfcuXLi4F8kqRJ8ezpU4FsBFbMEiMYbd2ihcBB7jV6lRkM6PkZDeX5c1toCrBsIYq6hghVQAGW+eV+/+49fLze4qXHG9y//hgPbz/F88ceeP3SG34+vnj//oP5J6EjWIQC0aNHg31Me8R2dkT8JPGQLHUipMiQBHETOsMhVkzY2UW3iHnqJAA/33fwfuOD5488ce/aYzy+/wyeT1/C+7WPfMZf/LRFDQX4XMZwjIE4Lk5ImNQFKdInRvJ0iRHL2QExHGKAz7W2/yqgAMv2d4UpAZaeQvhl+8XYUwgJOeiNRDNzAiQCBTt7e2TNmlVOpqNXEkvQunTrhjRp0wrAunP7toAPgivCKH7z0fCd8KpH795yOqGhBQRYMT6dIMdT/WgmzlPqvitZUjK2kiZNKrewhLBVs2aIHQLAYpnh4k8Ai9d7enigZ7duOH36tJSx0UidfwjGCJ7GjB8vgKp3jx7Yt3cvWOrIcblWgpC4cePK2tOmS4feP/8sJyg+evQIvbp1A09JpAl66tSpUbNOHfGUCi4Dy7BWnsxHmOTt7Y1Erq484g9PnjwRrarVqIG2HTrA+dOpmjdv3kS/Pn3A0wGDmrhzDJ7OGJZTCN3d3cVnbOP69XLCI6EPSya9vL394SN/zkavsBFDh0pmFv+ZkDBhokRSSsksskZNmqBj585y7d7du9GpfXspywxq4h5wh7Zt2RKHDh6UvkaMHi0wKaC/VnAZWLyfQI3+ZYSPnAsbY/Hy1SskS5YMI8eMEYhFSMm4jRszBvfv3ZP7+Dn/n6b4WbJmlcxBW2gKsGwhirqGCFVAAZb55H7n9w4eT17i7rVHuHH+HtzuucM+thNiubjI8dB2Dg7g30wFNVQ034y058hWgNDjw7t38Hv7Fm9fvYKXhwd8X79ComTxkD5HKqTKlETAlr29XWRPNcqO/9bHF0/uPcftyw9x88I9vHzhA4e48RArXjzEiBVLTsaiubAii6izRfjcvvfzg6+XF3z43Lq7472PF9JkSY502VMgeYbEArf0uzzwnlCAZfvPiCkB1lsfH2zZtAmednbI37w5nAkCtIVZAb7wH5s3D97Xr6NshQpwDYN+hw4ckBPlaPBNX6J8+fMLhFqycCFOnTwppuxNmzcXI23DKYR1/l+G5uPtjcuXL4sJe/wECVD6++9RomRJASlBAVb+AgXwQ7lyOLBvn4xDyMTT8mrUri2AydAItmbPnCkZVc1btpR+2ZgVRUjDLJ32HTsG0oO+aatWrBD/J2bw8XfqOM7OyJU7NypXqSLZYzxxcMH8+bh5/Tr4107p06cXIMW5sFSSutWpX19OzyMc4brX//GH3MdyQHpnlS5TRjKB5s+dKyCMQMoA3jghQjP6ch09cgSenp4yTnwXF4Fi1Cbepyw2XkuwtWLpUty5cwcdOnUKVBrHMSZPnIgMGTLIHAmZQmqEiCzbJHBinwRRsRwdkSVbNjndL0XKlIFuZczoyUVPLIIrNsaL2WZlfvgBefLmlZ+xPJPrJASsVadOoLkH7PDIoUP4Y+1aGad2nTr/KQVkqSTjSThFD6uA+1HM97dvl1Mh6anF/3bSBD5rtmyoWq2avyk/tSbo27plC27dvCmlijTMZ6Yd58vY2EJTgGULUdQ1RKgCCrDMI7fXax9cPnETV8/cxtNHL5AwUyYkzpoVLqlTyy9ljp9ehqPb2+tLj3lCYJG9Gl6E/by94e3piVdPnsDz7l24Xb4Mt4sXkTBxHGT8JjWy5kkHp7ixLXINtjopxubpQw9cPHYDNy/chY9vdCTNkQOJMmdG3OTJ4ZQwIRzixIH9J/CMaIqwbHUvBF0XMxve+fri7evXAp1fubnB/dYt0DD5jdsjJE2dAFlyp5Nnl3+7r+2jAgqwbH8nmBJgEYbwpfjspUso2qkTEqRLZ/sCmnCFhOzbWMrm5CRlbE6fMn5CG4IghBCBGUfMpCJMIDig3xWzoZhFxJ8ZABa9oViaRghCoEBAweuCtoCnEE6aMkUAE8veCKgMcCq0uYXlc/63m0CEHmrMIiO0IiQL2AimPNzdJXOaJXe8jv9M2MTGNQT87mYm1ctPsI39hfV7nSDr1cuX0jfvo6bmbowVdSWgIoRkptfn5kvQJVoAkj1lyAwz9zyD6596ce7cX9x7IelliB/3KssUeS1jaCtNAZatRFLXEWEKKMAyvdQsFdy/7hju33yCOMlTIUu5ckiYIYNAK7sg/1E1/ejao7UpwF86CbPc79zBpS1b4Hn7BpKlSYSilfIgfuK41rYcq5wvy3xvXXqA47v+wbNHnkiRJy8yli6NuMmSCbTiCUPaVIGACvj5+OD106d4ePYsru7Ygffer5D+q5QoWPYbxHJyULEUYEWJPWBKgMWX/quXL0smS76WLZG6QAH9Cz4jdtHLhw+xtW9fyaIqUrx4mKFLWIcICLDKV6gQ6m0BAdbkqVNDvV4vUAWiqgIKsKJq5HXd4VZAAVa4pQv2xuePPbFu5i54+/gh/XclkLNqVXkB1mwN0+psq70xw+Pi5s24smM7YtpHQ5VWpZEo2b+n4NjquiN7XdfP3cGuVUcRLYYj8jRujFR58yq0iuygWMn4fOlmRtbRWbPw9NpVpM2aHCVrFIBTXPP/zbulS6QZWJYeoS+fnykBFmfDsq3NGzYgbrZsyNe0KZilri1sCpxbuxY3t29H6R9+QNbs2cN2kxFXKcAyQiy9VBUwQgEFWEaIpZeqAlRAAZZp9gFfYtzuPcfOFUfw6vU75KhUCZl/+EF/+TKNvFGqF/ox3Ni7F/+sWwc7vEXZ+kWQLI0roqlRtMn3ATOv6E+3Y+VfiJsiFb6tWxeuWbPq3/qbXGnb7/Dd27c4uWQJbv91BOmyJEHhH3OJL1ZUbgqwbD/6pgZYLN3as3Mnrty4gfJDhyJW/Pi2L6IJVujr7Y3NPXvCJXZsVKlRQ0riTN2WLV4sBuHFvvtOTiwMrbEclAbrPLUwLBlbofWnn6sCtqqAAixbjayuy2wKKMAyjbTP3TxxYP0JPH3ihZw1aiJd8eL6EmwaaaNmLx8+4NaRIzizYgXixbXDd1XzwjXFR0NTbaZRgND55oX72LXyCGInSYFv69dHYh6Zrd5WphE4CvZCiPXPH3/gxr69yPJNChQqnwsxYkbdDBIFWLb/EJgaYFExngBHiJW+TBl8XauW7YtoghVe270bxxcsQIFChVC8ZEkT9KhdqAKqQEQpoAAropTWcWxGAQVYXx7Kt96+OLr9LC6dvoscVasj8/ff60vwl8uqPRCwHDyI08uWIn22pChc/hvEcv73hB8V6MsUePrAHXvW/A0Pj7co0qGDHLKg8OrLNNW7IX52Z1evxv1jR1G4/NfIUSBjlJVFAZbth94cAIsm2JvWr8fj589Rpl8/OURDW8gKvHn2DAcnTYLX48do0KgR4idMqHKpAqqAFSmgAMuKgqVTtQwFFGB9eRzuXH2IrYsOIXXhovK3hTGDOY3ly0fRHqKiAjSKZkbH9V07ULpWAWTImVoZiwk2gq+PL/7adhb//HUNBVq3Qar8+TVj0gS6ahcfFXjx4AGOzJwJb7cHqNWxLOImcI6S0ijAsv2wmwNg4cMHnDt3Dtu3bEHK/PlRsFUrtWMIYSvxhNQLGzfKn4IFC6JQkSL63zLbf+x0hTamgAIsGwuoLsf8CijA+jKNWYa0dvoOvH4bE/mbN0eiMPgCfNmIendUU8Djzh0cnTMHMf1eoHq772FnbxfVJDD5eh/cdMOO5UfgkikHCrVpoy9HJldYO7y+dy9OLFqEzF+nRJnahYBoUU8TBVi2H3OzACwA/N1qxZIlePT0KXI3bIh0RYpohmww2+nJ5cs4Nn8+Yvr6onHz5iY/edD2d7CuUBWIfAUUYEV+DHQGVqaAAqwvC9idyw+xccF+ZCpTBrnq1NEX4S+T0+rufuXuDvdHj/DmxQv4vX0rv3Qb06JFjw77mDHhFDcu4idLBqd48f5zO03dDX/DWq5eIaT/KqUxQ+i1QRTw832HYzv/wbljt6V0MIkZTmtS0S1XAT5PHm5u8HRzg/fr13jn52f0ZKPb2SGGgwPiJkwIl6RJ4RDrvycO0g9r59Ch8H7yEJVblIRr8qhnRq0Ay+itZXU3mAtgUQgPd3csX7IEMRImRN4mTRA/bVrNLgqwQ948f45TS5bg6fnzqFilCtKmS2d1+0cnrAqoArBsxZcAACAASURBVIACLN0FqoCRCijAMlKwAJcTVmyctxduj97Ii7ArDaC1RQkFfN68wdk9e3Bk3TpcOXYMbrduwevlS7x//96o9fNFOHbcuEiaLh2yMv2/enVkL1wYMYO8ED+/cQOHZ8xAnFjvUL11GT2R0CiVA1/85qUX/pi5G85psyBPo0ZwDAYafkH3eqsFK0DgfGjNGpzYuhXXT52C+8OH8PHyMnrGhM7OLi5I89VX+LpkSRSpUQMpsmT5T/bD7SNH8PfsmchTMgfylckZ5cp/FWAZvbWs7gZzAiyKceH8eezdvRvxs2aVU2KdXF2tTiNzTJj2AudWr8btAweQJ29e5MufHzFixjTHUNqnKqAKmFkBBVhmFli7tz0FFGCFP6Yvnr/G8glbEC9tBpTo0QN2+stD+MW00Duf3LmDw2vXwuvVK9T55RcwY+qVhwe2TJ+OrbNm4bWnJwpXr44MuXMjToIERqfvMxvkxdOnuHr8uMCwBMmSoXLHjijVuDFiOf/rm/PO1xeHp03Dw9OnUL97BbgkimOhiln+tO5efYTNCw8hZ82acuACY6rNthT4Z98+nN69W56nH9u0kcURMs/t1UvAc/ykSZGvQgWkzJIFjuHwLPR9+xbPHzzA6V27cPXYMaT7+ms0HjYM2QoXDiQkj7bf0qsXkiRzQpnaBeHo5GBbQoeyGgVYth9ucwMsX19fHD96FMdPnEDir75CvmbNECOYjEfbV/rfFRJenVm5ErcPHkTmjBlRrGRJOAf4fSEqaaFrVQVsQQEFWLYQRV1DhCqgACv8cl89fRs7VhxB9spV8FW1auHvyAR3Lhs8WDKAQmqEIolSpTLBSFGri4tHjmByq1aSqbH40SPQMHXr7NlY2K8f0ubMiY6zZiFRihSSMWVnZ2e0Rwez+AixmNH14No1TG3TBo9u3kTbyZNRtFYtMEPL0C79+SdOL1+OUjXyI3v+DFErECZc7ZEtp3Hp/BPka9oUSb/6yoQ9G9fV/StXsHvRIvj6+IR4409DhkiJqTbjFFg1ciRWDBkiz+iYw4fx8tkzTGjeHH9v3IgfWrQQGB3P1RUxHB2Nhs6cCZ9bQuXXHh44tHYtlg8ZIiWFI/bsgWvq1IEme3j6dLy+dRGlaxZA4lRR63QwBVjG7VtrvNrcAIuaeHt749CBAzh75gwSZMiAwu3aRdnM2bevX+PMihW4ceAA0qRJg/IVKyq8ssYHR+esCgRQQAGWbgdVwEgFFGAZKViAy//aegb8Bf27nr0i9UWYU6qfODE8nz6VFHI7e/v/LIovVpny5Qv/Yk14J1/YWWrHuQYENCYcwmRdXTh0CBOaNZNsixXu7rh3+TIGV6mCBMmTo9eyZQKvTNlunTuH8U2aSFkTY+aSJIl/926XLmHPiBH4qlBGfFclrymHjVJ9rZu1G14fnFCwdWvESZo00tbOMrbhtWqJD1PM2LH/4/EdLVo0LHrwALHiRH62HZ9Xg8dbcH5PkSZiCAOvGDoUS3/7Dem++Qbjjh7FuvHjsWzQIMmW7DJvnsl9dLbMmIEFffoga+HCGLhhQ6Dv4Ks7d+LiulUoUS0f0ueIWv51CrAs7ckw/XwiAmBx1sx63LVjB86fOweXNGkkEyteypQW/zuEqRQnNH/95AnOrl6N+8ePI1myZKheqxYcHB1NNYT2owqoApGkgAKsSBJeh7VeBRRghT92O5YfxuWTt1Bp7NhI92UgwOKLcJmmTZGDp/UEabnLlpUSt8huNEzeMGkSHt+8ibItW0rpjSW3oABr5fDh2DhlCtpPm4bC1aqZvPyM2VjbZs/G/J9/xk+DB6Nihw7+8rx59gwbe/RA6kxJUKlZCUuWzaLntmDYOjinTI/C7dsjZjjKx0y1OAPAYhZQs9GjEdMhcHkZAVaRmjWDBdKmmkNY+7lz4QL2LF6Mt97eaDluXFhvi7TrAgKsPitWYEqbNnh2/z7G//13uEoGQ1sIX65H1KmDMzt3ov+6dfimdGn/Wx6fP48D48egeJW8yJ4vamVOKsAKbedY/+cRBbCo1Lt37/DX4cM4e/o0ojk7I2v58kjx7bc2n43l6+UFt4sXcXHzZry+fx9ZsmXDdyVLIqZm51r/A6QrUAWgJu66CVQBoxVQgGW0ZP43bJq3Fzcv3ketOXNgH+TlM/y9hu9OAiy+RLWbMgUlGzb8fCc8KS/axzPd33p5wfPJEzESd3JxCXQfSxJfPHsm2Qo8bcsxJI+FAP0RwNAomSVxLNEJakbO7KseRYpImVyvJUuQp2xZo8rumAny8vlzvPH0FI+ogBlKgSYfYE7yN5eenvB68QLOCRIE8pYKKhTnTU8q6kP/nMtHjwbKwOpVrJhkxHScORNJzHTiD2HB2J9+knmO2LvXf4o81WxNmzZwTR4PtTqUDd9G0bswo+8KJP7qaxTt2DFSTw01ACzuyRnnz4f8fBli9mlPs4yV+5l/XFOl+k8GAp9nPrt89vjchqUEkdlVPJmPz3q8xIlhHyNGoJ1ydMMGgUAsk5t348bHzz59h4RlSxFcP3/4UMru4iZKJN83wbYAzy3v4bPIufE559ghNX7n8A+fzTgJE2LV8OH+GVhNR4zA+GbNUL51aykdNFc7tmULhlStipq9eqHRkCH+w3jcvYtt/fqhWJU8+LpwZnMNb5H9KsCyyLCYdFIRCbA4cf73/PKlSzh94gTc3N2RJEcOpClYUE6TtbexbCR+Xz67fh13jh7FvWPH4OzggFy5cyNbjhxwtLG1mnRTameqgJUpoBlYVhYwnW7kK6AAK/wxWDdrF2gIXXfhQpOXpBg7q7AALMKlfcuWSSZF6caN4eDkJNk+fEms0K4dSjVqJMMSDm2fNw8nt28XWETUxZdCmh5/V69eoEyuY5s3Y/vcuQJz6vTti/UTJuCfAwcEjDnFi4eqXbsiT7ly0u+NU6cwv08fXPrrL/mc5T18wY4dLx7aTJ4Ml8SJP7tsj8ePsWnqVPyzf//HsqtYseQEsApt24ops6FdP3kSq0eOlBflZqNGYdO0aTixbRu8X72SF9xyLVqgWJ06gcaiNqd27MC2OXPw9N49iSfXxDlyffTAYglhfVdXFKhSBR1mzEBMM/0CybUNrV4dV0+cwHLCNEP78AErmzdHfFdn1Ov6o7FbRK//pMCUXkuRMk8eFO3UySgIY2oBwwqwCH7WjRsHlpc2GTEC5w8exF/r1skz8OvmzR+fxw8fcOuff+R5vn76NGgebhcjBhKnSYMyTZog9w8/BJr+on79cOP0aSmpS50jB1gCx/JYPuvpc+VClS5dkCLzR9hyaPVqrBg+HHfOn5eMw5zFi8vP85Qvj3ItW8IhduwQpeHL5qUjR6T/+1ev4sO7dwLISjdqhIJVqwaCUpunTQO/T3IUKybZjRunTpWTAvkSlzR9evkuyRykDJrfTzsXLJD7DNAue5EiAveoBZ/fmr17CxDuu3Yt8n76LjJ1LNkfYT+/h4vXri3lxYb26vFjyZwsVjkPchXLao6hLbZPBVgWGxqTTSyiARYnzr/Icnd3x4Vz53D65ElEixULCTNmRNpChcTOwdpBFv+S4snly7h1+DBoHeD19Cly5MyJb779FolcXWEfjE2EyQKqHakCqkCEK6AAK8Il1wGtXQEFWOGP4LqZu3D32iPUW7Qo/J2Y6M6wACxmNNDsnV4w2YsWxd0LFyRrgZkUzFKo0bOnvAiPqFsXf61fD15PQ+L3fn4CdZgBwRfWn4YO9ffl4Wl883r3ltO8CKLO798PP19f/1WlzpYNfVaulOPmT+/cib7ff/+fFRM0TeQJQ0HMj4NeOKhyZfClnxCK2VE0wY5mZ4dKHTqgwa+/+pcGndq+HaMaNBAgRgjFcQMaZfP+Idu2IWuhQv5D8GSyoTVriikzgQBPJnty9674dHE99P0hwKoSMybKtWolAMuc7bdKleSlfNP794GGWdmsGeInckK9bhXMObxN9z255xKkypfvI8CKxBZWgEVz/4nNmwu4JXBipg/3Mw8NWHj/vuzza8ePY0rbtgKl2Ah8CFT4fHMvs+Q1YGZm/7Jl5TQ+PgPM2OKzRIjLRg+98q1aSRaRc/z4WDtmDObyuyFIK9uiBVqMHRtyNhWACwcPYmq7dgK/6BtH6MzyYcJzltp9XeLfUtjp7dvjz1mzkKVAAckmJfDmdxAbwVn+ihUlw9RwGAWBFUt610+cKBmfiVKmlGwtrpnXU6NMefMKjBvTsCHG/fWX9G2uRlhXMXp05PvxRwGLhvbKzQ0bu3dXgGUBJezmin1U7jcyAJZBb5YUeri74+D+/bj26feB2IkSIU2BAkhdqJB4HPIvo6ylvX72DPdPnBCD9pc8NMbXFylSpULxEiWQOEkSBVfWEkidpypgpAIKsIwUTC9XBRRghX8PWBrAoj8NQU7BKlX8F8UXORdXVylPCgiw+HOe0NVk+HBkzJ1bXixZ1kOz49nduiFJ2rRoPmaM9EWj9cNr12Jm585wf/QIvZctkxPy2AwAiy+TfNn9oVkzVGzfXoAXX5KZBdJ46FB/LyfOsSdLCG/dkhJCQ2YI5/O5tvP33zGhaVPJuGo3dSpSZs2KaydOYGCFCjJu999/R+b8+aULA8BiZhnXxYwIlvX4eHtjVP36eHDlCqr36CHZWWycU7eCBXHv0iU5oazhb79JZhhhALU4f+CAZFsJwPoE8dpPn262X4z5IkxYR1Cx6RNUMGijACv8z6vhTksDWLHixsXg/xu6B8xk4jPHZ5BNAFazZpLZyHLAQixT690b8ZMkkcxDZmJNa98ee5YskewoZv8Q8DI7icD6z5kzZa+OP3pUQDIbn01mWHIcwmc+H+z3wMqVAsL4s75r1shzxkagPbVtW4HYc69fl5/Ji+FnXg4Jgwm+mCFVvXt3+a7hs0bgxFP7mGn125Yt/s+RAWARpBGc8+RUQrerx49jcNWqAsA6zZ7t/51x8fBh8Z3yevVKgHLxOnUks5NZpsuGDMHjW7eQKU8eAVhjGzWS0wizFiz45RsohB6YNVHRzk4yVX/dtMn/KgVYpzFx4kQkUIBltr0XmR1HJsAyrJv/zXzi5oaTx4/jzu3b8HrzBn5+fnCMHx+JMmUSs/e4SZPC0cVFTh61o3dUZIGtTyeY+vn4wOfFC7x8/BgvHjzA06tXwe8Ku2jRxJg9abJk+DZPHqRKnfrjCcfaVAFVwGYVUIBls6HVhZlLAQVY4VfW0gAWMyn4Qho9AAziS3HnOXPEDDogwGJpDc2N+aJqaDz5rm327Hj24IFAKGZlGfxzWH7Hl+G1Y8fiq+LFMXz3brnNALBY5sOMjSqdOgm0YuuSLx9u//MPavXujfq//io/C+SBtXTpRw+sUBozoJqlTy8lQj8NGSJzM/TFl94dCxYIwCpRv75kXhgAFj2vqnbrJkDKsI6RdevKS3qJBg3Q41Pm3JE//sCQ6tXl5b7bggXImCeP/4zO7duH8U2b4sWTJwKwGiRJIi+ofGH+XOlUaGv63Od8IWcJIUvBlrm5BbpUAdaXKPvxXksDWIx3UM8pluwufvhQ5hsQYBWsXBldFywQaGtoLP3rVqCA+Hn9smqVQF5Dc7t9G8zmu33+PGr06IGmI0fKRwRYLJlNlT07Wk+YgG9KlZJnh1mHvYoWlQyoQX/+KeWEbIE8sG7eDFMQmHXVs1gxgWzMtkqeKZPcx2yxSa1aSUnk0sePpTyZzQCwCI9bjh+PYrVq+XuUtcqSRTLFCLCK1Kgh2WKLBwzAimHDJCOSmWD0jDO0Rf37Y9XIkUj/zTfy/TO2cWP8vHKlPLvmap5ubmiQLBmK160rcN7QFGApwDLXnrOEfi0BYAXU4YWnp0CsRw8fSnbW69ev5S+vvH185HcgZm2xBDEyG39H4x9muzo4OMDRwQGxnJzgEi8eEidNijRp0yLBp+/FyJynjq0KqAIRo4ACrIjRWUexIQUUYIU/mJYGsN68eIG85ctLZpWhScZGtWpIkyNHIIBV++efUW/AgEA+TncvXkSnPHmkXK71xIn/MYPfvWgRZnTqJJ40qzw9BZYZABbNpCedOCF/u2loA8qVw9m9eyW7o+GgQfLj8AAsvoQ3TZtWgBFfzpNl+HiSFzMe6KfFDA2+mFft0kVAlQFgMaNs4vHjgV72p7Ruja2zZ0u2hsGnZn7v3lg9ahRylSkjL9osuTK0oKcQ9ilZUrJQaOJumEf4d1Dwd/LFflzjxvJiP3THjkAXKcD6crUtDWARHNGDLiDE4h5klhVbQIDFzJ6gEIbZUcxQyla4MLr9/juSZ8z4r0gfPmBY7driY8VsR0IpjkeAdWb3bikJbj1pkv9Jhzypj5/R0J1ltum//Vb6Cg/AYgnsrxUritH8t99/729Sz8ysUzt34vmDB3IqoMHXygCwcpUujQEbNgQynyegI6gjwGL2J6H24CpVcPzPPwXQ0+eL30eGFvAUQmZa0sT9+yZNUH/gwC/fQCH0wDgMr10b/G5lJqyhKcBSgGW2TWcBHVsawDJIwqwsLy8vvHzxQjKy+M++vr7+AIufR0ZjQaMBXtHLyjFWLMSKFQvOceLAyckp0F9ARsb8dExVQBWIeAUUYEW85jqilSugACv8AbQ0gEU41GrCBMlECtiYEcVfmAJmYDUaPFg8rwKe7MVSub4//CDm613nzxcYFrDxBW1au3aSoUWARUBkAFjMXhp7+HCg6weWL48ze/Z8McDivHp9Mo4OKVq1+vSRl1OW+hkAVsIUKTD+r78CQTWWQbGkKiDAGl6rFg6tWSOgr+/q1YFKC4ICLPoBrRkzRjyFitasKTDAlI2ZJdT097590XzUKJRr3TpQ9wqwvlxtSwNYTv8vc5ly6lSgUwhZnmfIGgwIsEbt3y+ldwHb1lmzMLl1a//MQHpBBWyEzhsnT0a2QoUwbPdueUYMHljVunUTY3hD47M9oGxZuD9+/MUAi6bsLG38XBu4aRPyf8qKMgAsZlj1Xr480G3dCxbE3UuX/gVYb98KbL9/+bJcS2+wgC0gwPpl9WoQXD+8fh2Tg+j85bvpYw/87h1SrZqUG9P/ilmqhqYASwGWqfaZJfZjqQDLErXSOakCqoAqEJwCCrB0X6gCRiqgAMtIwQJcbnEA6+1bMTkOaNYccHWhAayrx44JKKLJOUvkgr4UsvRueocOUsqz4e1bKRWMCIB15e+/0bVAATFp7jhrlmRzBG0ESYbSSWMB1rAaNXBo7VoxiWbmR0DT16AA69GNG/i1UiU4x4uHX9askewSUzb6bo35dBrkyH37Ap34yHEUYH252pYGsJwTJMCM8+cDAayAqwwNYDEzkqfsfVO6tGQjGbyzDH2wBJY+VDy4YeTevZKpFBEAi6d3TmzRAvkrVRLgG/CkUMPcOBfD82YswOr47bcCtfosX+7vyWfoNyDAmnDsmPhuseSQJcu9V6wwuX8d++fJjjlLlsSA9esD9a8ASwHWl39rWW4PCrAsNzY6M1VAFbAOBRRgWUecdJYWpIACrPAHw9YAFk3PW2bOLOU5DQYOBLMzDBlGhF8bJ03Cgl9+QeI0aTDr8mURLjwAiybufClnCV/QLK/gosGSo58+gaI6v/wiXj4Gn63grjcWYPEUxTWjRiF7kSLik0OzaDb6ZJz480/JOqMhNj2wWLa4a+FCyZBKlj69ePWwlJBZa5yTsScesYyBJ6e9pm/H+fOY0727lG+1mTTJ30A/4BoVYIX/eTXcaWsAi4C3R9GiSJounfjaGXyruF4avDOj6sLhwyjVqJGUGLIZDbA2bsSUNm0QPVo0/H7vXpiCcPHIEfxcsqQ8T8yC4mERn2tGAawAJYT06qvatat/xhqN4umBtX7CBNGCAIsnEzIb7OCqVZKhWqNXLwHiPNwiPAbJ/B7gOHxWmb35x9ixiOfqit82b0bCIBlwCrAUYIXpgbHSixRgWWngdNqqgCpgMQoowLKYUOhErEUBBVjhj5StASwqwUyOPYsXI2eJEmg7ZQpSZc0qEOvayZMCV/7Zvx91+/UTY/TwACzCmv7lykmpDX22aMBMI9PQ2swuXbBh0iR5CaaRO7NN6BlEyETwxuwrekYRIBkLsOjVM6hKFcRNlAh1+vZFiXr1JEuF/lp8CaZfj2Ps2AKwONc3np5iHM8SKY/Hj5H3xx/FAN7ZxcVo/woayvLl+uaZMzi5bRuSpEuHKp07o1idOoG8uAz6KMAKbaeE/rmtASxmRHL/EmRx/9Jzjh5aPJTh4MqVchIgAWmvpUvFAD08AIsnFrIM7/nDh5j2zz+BfbZCkJwnlvL7hM9PmcaN5XvD4BtHSP707l24JE7sn3lmDMBiqS1PMlw6aJB8J7B0mrDqxbNn+HvjRqwdPRqPb99Gprx5BWCx8WTUJb/+ir83bRJfPBrXcz58to1t9NLxePQI5w8elIMqshQoIN+JmfLl+09XCrAUYBm7v6zpegVY1hQtnasqoApYogIKsCwxKjoni1ZAAVb4w2OLAIuZUcNq1sT9K1fkyHm+ADJL6PLRo/Ina6FCUqZkMIo2NgOLL56LBgzAymHDkDp7dhSoXFleJit16PDZU/344jy+SRMxnk6ZNSuyFSwomQ6EP49u3kShKlVQstH/2DsL8Kiup42/xIUIISS4Bi1uRYoXdyju7u7u7hLci7s7pbi7e4BAkIQQ4v7959DNl8CGJHezu/fuznke2pI9Muedc7fcHzNz2giolVSAFRYcLAAAvWhTSmCOIkUEwKJi6lQYn6AbFa5XASw6MTTmydWroLpgD8+fFxFl1Jf2l5RG61D0VobcuVGgQgXQLXM5ihaNU5ss9nwMsJKirvq+hgaw6Gye3b4da4YORXhIiIhqTJMli0j1vXf6tHg+qnboIKIFVTf1JTUCiwqoL+zSRYBnAj+/lS8viq8XrVo13mhIitq8dvgwVg8ejM9v3ogi83T7KdlA4JdqUnWYORM5/7v1MykAizxLlzcQICPbchQuLG45pEjJNw8fiu8BWpOeJRXAojH0jFLhd4LW9H3m/e4dQgMDk3yozC0sBDCn+ak4PhXWpwg4dTXxGGAxwEryAVPQAAZYCnIWm8oKsAKyVIABlizdwkbJWQEGWNK9IyeA1TpdOpHSQlFTlVq1UrspeqGk2jAUhdBm8uTvRdwtLH7qS3WYqA9FBInrpqOjxXX2BInoZjS65VB149fhZcvEi3O2ggUx6/z5OHPRDWS3T54UY1QRW9SB6tas6NcPt0+dEhFNDi4uWHTzpoiA+lV7/+wZ9s6bh383b0awv79IGSJgZOfsjHaTJ4sUKUrju3XiBGa1agUq4j6XirhbWsZMS2lEBN0qtGiBIbGuuicAtbxvX1CkiQpCUZTXH40bY8+8eeKFe6uPz0/RYsEBAQKihQYFiSL5pFVSGkWMkbYUMUMgL/YNiOrmYYCVFHXlDbDo+ZrapAnsU6fGknv34q2BRaBnfseOIvqRnjFKdf2x0fkjmEpRSXSbKD0bdB4prY1uOCRATOdL1cbWqoU7p06h0aBBaDd1aszP6WZAipCk8z6JbiEsXFh8RnNd3LULqwYPFtDHwtISNbt1Q/tp02BhbR2vU6i4OdlN3zv3zpwRzw99d9D3CkFwSnlU3Zq6tE8fHFm2TNSzomix2G1wmTJ4Q7ek0i2Ef/0lPgoPCxN7/nvUKAGQCbTTxRK1e/QQRdUPuruLWxTnXbkSZy5am9KSKSqNgF9SoTNNRqCKIBmtZ+voGC9wpr4MsBhgaf6tJd8ZGGDJ1zdsGSvACihDAQZYyvATWykjBRhgSXeGnACW9F2oH0kvg/Qy+9HDQ7wYZsiVS6T7JFejqKaPr17B39cXabNnT9LcAV++wPPpU/Hy6Zw5M9JkzBhT/0YT++gl/dPr1yLViOCXKspMkzmTeywDLM0VlUsEluY7+XkGelbfPnwoUukIrlBUUkJQNCl2ECijCCcCUZR+Rxc+JLbRc0WXIBA0d82eHQ7OzslyiyeBe0rjo0gqimRUVyw+sTZqox8DLAZY2jhXcpmTAZZcPMF2sAKsgFIVYIClVM+x3XpTgAGWdOkNGWBJV4VHalMBBliaq2vIAEtzdXiG5FaAARYDrOQ+U3KajwGWnLzBtrACrIASFWCApUSvsc16VYABlnT5GWBJ145HSlOAAZY03WKPYoCluYY8Q+IVYIDFACvxp0V5PRlgKc9nbDErwArISwEGWPLyB1ujAAUYYEl3EgMs6drxSGkKMMCSphsDLM114xmkKcAAiwGWtJOjjFEMsJThJ7aSFWAF5KsAAyz5+oYtk6kCDLCkO4YBlnTteKQ0BRhgSdONAZbmuvEM0hRggMUAS9rJUcYoBljK8BNbyQqwAvJVgAGWfH3DlslUAQZY0h3DAEu6djxSmgIMsKTpxgBLc914BmkKMMBigCXt5ChjFAMsZfiJrWQFWAH5KsAAS76+YctkqgADLOmOYYAlXTseKU0BBljSdGOApbluPIM0BRhgMcCSdnKUMYoBljL8xFayAqyAfBVggCVf37BlMlWAAZZ0xzDAkq4dj5SmAAMsaboxwNJcN55BmgIMsBhgSTs5yhjFAEsZfmIrWQFWQL4KMMCSr2/YMpkqwABLumMYYEnXTtcjoyIjERUVBVMzM6RIkULXyyfbegywNJeSbyHUXENdzRAZHg6kSCGeW6U2BlgMsJR6dhNjNwOsxKjEfVgBVoAViF8BBlh8OliBJCrAACuJgsXqzgBLuna6GhkRHo6/x4zB+e3bEfD1K5zSp0fVDh3QaNAgXZmQrOswwNJcTgZYmmuozRmio6Px+v59bJk0CffPnEFkRASyFSqEJsOGoWj16tpcWitzM8BigKWVgyWTSRlgycQRbAYrwAooVgEGWIp1HRuuLwUYYElXngGWeu0+vX6NPXPnwsfTEx1nzULa7Nmli6zBSIq6mt+xI05v3Ah7Z2ekTJUKEWFhKFajBnouWaLBzPobGqRexAAAIABJREFUygBLc+0ZYKnX8PmNG9g+dSqyFiqEur17w87JSXOxJczwxcsLU//6C8+vXxfA2cLKCqbm5vhr6FBUat1awoz6HcIAiwGWfk+gdldngKVdfXl2VoAVMHwFGGAZvo95h8msAAMs6YIywFKv3au7dzGrZUt4Pn6MOZcvI2fx4tJF1mDkJw8P9MifHxbW1ui+cCH++Osv+Hl7I9jfHxly5dJgZv0NZYClufYMsNRrePXgQUxu0ACFqlRBv9Wr4Zwxo+ZiS5jh1okTGFOjBvKXK4fey5cjvZsbPr99K57jVK6uEmbU7xAGWAyw9HsCtbt6cgIsiph+8vixdg02ktkzZc4MewcHI9ktb5MVULYCDLCU7T+2Xg8KMMCSLjoDLPXa+fv4gF5CA3x9Ufavv+CQJo10kTUYee/ff8WLcOoMGTDh8GFkzJ1bg9nkMZQBluZ+YIClXkOKnLx++LAAVwUrV4aVra3mYkuY4eDixVjapw9q9+yJdlOnwlbhL2EMsBhgSXgMFDMkOQFWgL8/lixcqJi9y9nQ+o0bI3eePHI2kW1jBViB/xRggMVHgRVIogIMsJIoWKzucgBYYcHB+OzpicCvX2GfOrWANeaWlmo3RVEMvh8+iH5pMmUSaTk/tejo7z9KkUKk23308BARS25Fi4qfxdtijRN9fvz9DwODAwLg/fatmNvGwQHOmTLBysbmp+lpXx9evRLzpc+VC9YpUybaYdcooqRxY6TJnBlTTpyAa5YsP+2B6u14e3ri68eP4oWddLGKb40ftXn1CiGBgchB2uioMcDSXGg5AKzAb9/w+c0bUJFyp3Tp4OjqqvZyAXoG6fyH+PsjTZYs8cNgOpv/PZ+hQUHwev4c1vb2as98HAVjjUvMc/v10yf4vHuH6KgoOLi4IFXatDBT8z3i8/69SCGmtF16/uL7TlL3/bNj+nSsGzkS9fv3R5uJE78/8z9899CFDLRH+v6w++/7zMTUVP3h+EGb98+fw9bRES6ZM2t+mBIxAwMsBliJOCaK7aINgFWlSk6UK5dNsZro03APD1+sW3cNDLD06QVemxVImgIMsJKmF/dmBcAAS/oh0CfAohffC7t3Y+2wYeJFWNUocqL/mjVxXs4+vnqF5f36gVKEqKUwMUHhP//EoPXrxYuzqj04dw6jq1VDqnTp0Hn2bBxcskQUUTYxMYFL1qz45u2NgevXo2SdOnFEe/f0KQaWKiVeUiccOiTA2PRmzUQK4fxr1+BWrFhMf0oR2DRuHI4sXy4itFTNJUsW9HR3R/FatcSPwkJCcHzNGmyZOBF+nz6Jn9HLcscZM1ChZUvE+7IKCJi3YsAAnFq/HgSoxJ7/ewFuPXEimo8eLX5GNX9WDxkC2jfVy6LmmDYtmg4fjlo9esR5Mb935gxG/fmnqOdFUSEHFi3Cg/PnYWNnh22x9iH9NCVuJAOsxOn0q176BFgElzaOHYt9CxciKiIixsy6ffqg24IFccx+dv065rZrh7ePHomf05mnqKROs2bBzMIipi89S+49eqBm9+7IUaQI1o0YIZ4tinykc21tZ4c1L1/+JMnNY8cwtmZNVGzVCl3mzsWTK1cwsV498d0wYO1aAcNVzeP+fWwYORI3jh0T0E3VilStiuHbtgkgRI3g1trhw3FmyxYBuei5y1u2LPqvXo30OXP+0nleL19iQMmS8P/yJQaAq57bsfv3i+8dep6ppt2aoUMFdFa1THnzosfixShYqVKcNQ66u2NZnz6o17cvqA99Xwb5+4saXz/qrfnJUj8DAywGWNo6W3KYVxsAq2nTQqhbN58ctqc4Gx4//oQpU04xwFKc59hgY1aAAZYxe5/3LkkBBliSZBOD9AmwCLrMbtMGQX5+yFumjIiGoAgriiBqO3lyzMun14sX4uX2/rlzyF6wIFyzZxdgiV6KC1SogLEHDsD8v5dhgjRjqleHiZmZAGCUCkiAiz6nl9odM2ag0eDBaDV+fEx6Eb1QUuFnujEsf/nymHjkiLhBbHrz5t8B1tWryFmihNCL5pvRooVIL6QXXqptkzZHDgR8+SJedpsMHy7WoUaAiF5SKTrFrXhxhAQE4PHly2Jc72XLQC/OqpfbHz1IURlURP70pk0iSoNe9il9kP5dq3t3VOvUCQ/Pn8eCLl1AdbKoHlbGPHnEizPZ7vf5M+r364d2U6bA3MpKTH/39GmMqloVltbWQlu60ZDq8VB0yKwLF6QfoiSOZICVRMHUdNcXwKIzvnHcOOyaNUvApTylSolnjQBz8Ro10HL8+Bhrb586hQl164oC5rlKlICljQ2e3bghIijpNr6W48bB1MxM9D+0dCmW9Owp4Gqgnx9s7O2R0sEBmfLlE9GF98+exfhDh1DiPzhMYyiCiWAVAer206cLMHblwAFMql8/BmCpamAR2KLLEOg7g4qq03NL3zdUbD1d9uyivhxFURK8WjlggJgnc7584pl6/+wZCH7RHiYfP/7LSCzvd+8wt21bvHvyBPTf9N1DzxoBdAJsVEtv34IF2DZ1KigWlIrN0zNI33v03FI/glgE5FTa7F+0CMv79hU2f/PxERFhlJJYrmlT8X2ji8YAiwGWLs6ZvtZggKUv5dWvywBLXv5ga1iBxCjAACsxKnEfViCWAgywpB8HfQEsiqo4sXYtFnbpgootW6LfqlWiwDFFN4mUPDs7EQUVHhoKikCgiA8qzDxgzRqRbvPqzh3M79wZL27eFC+VhatUESKoABalLWXJnx+NhwwRN/ZR+s6bBw8wuWFDpE6fHhOOHBGgjBq9xM5q1QpUb2rE9u2i5hXNrw5gbRo/HpsnTBAvkQSI6vTqJW4HpBd7ermkl3WKFvnw8iWGlCsnft95zhwReUEvp5smTMC2KVPE2NYTJsSf6keGRUfjysGD4jYzVQohRXkR9CL96OeX9+0TL7IU0UIpjKHBwfh382ahF0V3jN6zB7/XrRsHYBGwy1awoNCmaLVq4jPag64aAyzNldYXwCK4NKN5c9w4ehQdZswQt+pRozRUisxS1YojgErPFIHeZqNGoemIEQJgXdy9W0Q2Zi9UCEM2b46p6aYCWPTM03klyJzlt99EpBTBngOLF6NQ5coYf/BgTOTi6wcP0K9oURGVNGD9ejHn5f371QIseu4v7d2LzL/9JqDu7/XqieeI0pdpT2S3KjKKIj1z//47BqxbJ74r3j17JuDanX/+wbj9+1Gidu1fOlAA8WnTsGHUqJgUQkrppfUo4nFR164CcLWdMgX1+vSBpa2tAM703XJoyRIBuWht2j81FcAibUo3aCC0yZQnj4hCTUo6sianjgEWAyxNzo/cxzLAkpeHGGDJyx9sDSuQGAUYYCVGJe7DCjDASpYzoE+AdWrDBizo3BlZ8uVDu2nTBGhSRR2oNkdwaXH37riyfz/GHTgQE4FBAGdh16745++/0XDQIJGWFxtgUS2oTrNniyvrVfVtqF7Vom7dxEv10M2b8UeTJmLMxT17RIoOvWAvvHlTvBSqA1gUKTaicmU8v3ULhSpVwtAtW+Do4qLWD7tnzxapffSiTNCNgBe1p9euiaLs2QsXxrCtWxO8kYxSJqc0biyiyaacPAkCWNSoPk+XnDlFJAbBv2I1a8ZEc9EL+exWrXDt8GGUadQII3fuFGNUEVh2Tk4ivbJ8ixZqa/8ky8H6xSQMsDRXWF8AK+jbN3E759VDh0SqLMGgrAULCjgbu1Ga3oJOnfDl/XusfvEi5twSoO6YLZuAUN0XL0bp+vXFMBXAokjMXkuXCsCqalQHjiINCWzPvXxZgGlqlGJLYKtq+/YiaonSf9UBLIr46pQ9u4jYInvr9O6tNoqK5qfvGgLAlH5I3x20LxpHMGrvvHmo2rGjiJ5MqBHAWj9yJBr074/WkyaJ75TIiAgBqFYTgMqXT+yFALeqUfRX93z5hDYUrfVn+/biIxXA+o1uNFy2TESG6boxwGKApeszp8v1GGAlr9qBgSE4fPg6rl9/hq9fA+HoaItixdxQu3YJ2Nr+/3defKsywEpef/BsrIAuFGCApQuVeQ2DUoAjsKS7U18AiywWUVSdOokoKoqAIKjTYMAAEWmlgk5UrJgAjsfdu3DNmjXOC5/vx48iDa5s48YYuWOHEEEVgUW1pihaQ/WyS5/RyzOl5f09ejSKVq8uPqfIkb/HjMH+hQvFy+1fw4aJedQBLEo/Gl+7NuimM7KTAFl8bWaLFjizdatIhaIUQlWqIEWUUbpQOjc3ETmmigKLb574ABZBOKr1RdEafVetEtEnsRu93NNNaJSStezhQ/FSrAJYabNlw5h9+/TyIkw2MsCS/ryqRuoLYFF00dEVK7Bq8GCEh4SIyMBi1auL54FS3FSFyqmmFdWRolpuGXLnhkmsAuZUJ0oA5lmzRCosNRXAqt65MzrOnBkDfOkzgmZUu43qvTUfM0ak/xIYG1q+PKgg+7AtW2KiotQBLIqcGlmlinjWCPYW+S/q8EcvUHow1dMiyEyph7Gjm/y8vUX6cIGKFTHtn38SdKA6gEWXPlDtPPoOIjhFkOzH1rdYMby8dQtU544i1+h7QwWw9HmjIQMsBlgJHnoFd2CAlXzOu3fPA4MGrcLNmy/g7x+EiIhImJmZws7OBoULZ8e8eV1QoEDWXy7IACv5/MEzsQK6UoABlq6U5nUMRgEGWNJdqU+ARVY/uXoVawYPFi+NBHfMLC1Ru0cPtBgzRrzEUtrf6OrVRW0aeumltJkfG9XBougsaiqARdCI0gQp1SZ2o5dZirL48OIF1nh4iPpb8zp0EHWmljx4IFKGqKkDWPQCPaVRIxH91H7aNJHKE18bXLYsHl28KECcqgZV7L60zqRjx2IiU+KbJz6AdW7bNpHiSHvvvXx5TCqWah5Kc6TUK6q/s+TePaFdDMDKnh3jDxwQYEEfjQGW5qrrC2CpLKfoyfXDh4PADkUWEajtv3atSHEj6EI15bZOmSJSWtWludF5bDVunCjaTk0FsGp264YO06fHFFRXrUdptxtGj0bu/9Xcmnj4MC7s2oVVAweKtNlFt2/HAG91AIvSFgmCU+RS35UrRb09dY1gGBVgJ0BN0ZjqLlmgtL45ly4l6EB1AItg3rrhw3F4+XLx3UEA78dG0ZlUmJ7gFelDaYMqgEXphm0mTxZa67oxwGKApeszp8v1GGAlj9qPH3uic+cFuHbtKZo1K49BgxrCzS0dnj//gLlz92Dr1jMoViwnVq/uh7x5v5dwUNcYYCWPP3gWVkCXCjDA0qXavJZBKMAAS7ob9Q2wyHKqQ3P96FFRE+vB2bOilg7dQkgpPFR/ZlKDBqKQ8qyzZ8UL7K9aQgCLbiGkultUO4qireiFlKLAKrVqJdKQ6MWVmjqARdCLYBoVrKbaV10XLIi3CDu9MF/aswcVWrRAv9Wr40SOJcVb8QEsglGUzuhWtKiIwKKb22I3Sok8vGyZuDVt6f37AvwxwEqK8vLuq2+ARepQzTdK4T2zeTNe3rkj0u0oBZdqUlHduvWjRiEiNBSbPnwQBdJ/1RICWPT89ypUCJT+SvCYUorpBlMqvk7PoqqpA1hPLl/GwNKlRfH2fitXxtwS+qM9tB+65OD1vXsYtWsXStatG+/zndDpUAew6BKHzRMnigL4ldu0waANG+JOEx0t9kjQvs2kSWgyYkScCCwGWAmprp3Pb5x+gIuHGWBpR115zMoAS3M/UNrg5MlbsXz5EYwf3xJ9+35PD4/dFi3aj3HjNqFr1xoYPboFUqZUn07IAEtzf/AMrICuFWCApWvFeT3FK8AAS7oL5QCwVNbTDXpUH4ZAFtWpoZdTv0+fsKRXLxFxQYXPu86f/8vNJgSwaDCl8FCRc4rwoqLOjy9eFNEjZRo2jInwUgewwkJCMK5mTdz991/kLV0agzduFCl66hq9wC/t3VukRVLUB6X6SWnxASyKFuns5iZuFCSARUXiVWmKBOlUBbQrNG8uimVTY4AlxQPyHCMHgEXKUEoh3fBHUYx0Yyel6FFaIEU6zmvfHp89PUUNOFU9p/jUTAhg0Ti6cZCKx9ONnnRBQWhgINzv3YspHE991AEsqm3VKUcOkc5It/bRLxWojm0PpfjRbX/0/VOtY0f0XLo05nbTpJ4CdQCL6vYdWbFC3HJIabwLbtyIYwfdttq7UCEBu7vMmycgFzWOwEqq+snbnwFW8uopx9kYYGnuladP36FFixnInj0dli/vDScnu58m9fUNQLdui/H8+Xts2TIUuXNnVLswAyzN/cEzsAK6VoABlq4V5/UUrwADLOku1BfAope5hxcuiMLMlAZHt3QF+vqKwswn169Hi7FjRa2bqIgInFy3DquHDhWApuW4cajeqZPoTy/PFA1FkRN0xT21xAAsqmVF9aMoLZFS/HKXLo2+/3uxzJArV4yQ8d1C+O+mTZjdpo148aToKoriSpcjh0h/fE61vJydxTx0qxilEX5+80aAMappQ9FQ1AJ8fUF1gKh4Pd28+KsWH8Ai/ea0ayeiXwheUfQY1SOiml7H/pcmRemDtM7Eo0djbmhkgCX9OZHbSH0BLKoDRfXX6IznKFpUyPL48uUYgDVmzx6UatBAPNcEsChKKmuBAuLGQrop1MzCQjzTbx8/Frd1qi4lSAzAun3ypHhuKbWPnn2KvOq2YEEc18R3C+GaIUOwa/ZskVJLAIsAFT17VOD99f37oALpZNvlvXuxuFs3hIeHo8mwYajbu7ewk24E/fT2LegiiHxlyyZ4HNQBLBpEKdOLunQRazYeOlSkStN3CaUlUyr1v1u2IE+pUhi4fn3M9xEDrATl1moHBlhalVcWkzPA0twN1649Q5UqIzF1alt0715L1L36sVE9LIrQGjFiHU6enIqSJf//z1yx+zLA0twfPAMroGsFGGDpWnFeT/EKMMCS7kJ9AazwsDDsnD5dREPZOzuLAtBUlJ2iOBxdXTF82zZxlT01isxaN2KEAFl0SyHVt6LaN1TcmSBU4cqVY6KMEgOw6FaxGc2a4fzOnWI+glAtx44VL7CqFh/AiggLE8Wp6UYy6p/S0VHcREjF5KleTesJE2IiJ+hFf87/UoXIfkp9SpsjhxhDNXbsnZww+n8vy1QsWgrAojFU7JkgFgE5soEAGa314dUrkYZJL8fNR4+OudmRAZb050RuI/UFsChKiFJw6VKFVOnSgS5LoPpxdDEBRRvO+PdfAZepfXj5Uty4SWPotkwCrHRZg7enJ+g5ovOpisxKDMCiVOP+JUrg9YMHIkpp9sWLP6XOxgew6JkgMEXPJNXfoueW0hrpeaHUwsnHjonvIfpOIfi0f8ECRAPillCCbCFBQfDx9BS3IxIUTqjFB7BUNxH+PXasKIJPczu4uIjvMdKFIiop5ZhuD1Xd7MgAKyG1tfs5Ayzt6iuH2Rlgae6FK1eeoEKFYVi6tBfatfsTJiYpfpo0KioaGzacQvfui3H69HSULh23RqlqAAMszf3BM7ACulaAAZauFef1FK8AAyzpLtQXwKIIIqpjs2PGDAF06MWOIisy5sqF5mPHomDFijHghXZHL6+UfnNg8WJReJ0iMKg/vUDX6NxZpBxSo3SmmS1bCqBDKX4UHaWuXTt0CIu6dRMRGXT7YOE//4zTjaCQe48eoFsQJxw+LF5cVY1spxfuQ0uWgNL1qBEIo0gTKr6cv3x58TMCZU+vXsXWyZPFTYv00p7C1BQ2dnYiGqXd1KmwS536l86jVKwFnToJOwnq0b9jNwJtWyZNEgXj6ZZFilKjF3KKHPmzXTsB1WL+UHjpEqY3ayZemgdu2CDSmPTRuIi75qrrC2BRBNbe+fNxdutWAXvoOaQzVrRqVbSfPl08j7EbPavrRo4ERRISVKXzSc8K3ZpJkVD5K1QQ3U9v3CjAMKXNNR0xQm2hcnqeds6cKW7XpGesp7t7nNsKaR6K0prbvr2IqOo6b14ceyhak8DS9SNHQOnAZAsVmC9ctaq4UZSeS2oElv7ZuFHAdXq+Vd81jmnSoGKrVsLuhNohd3dsmzYNNbp0QeMhQ+KkCtJ8F3buxJbJk0UEWHRUlPguy5w3ryjS/mOEF4F7KmBPqZk0l7qi+AnZo+nnXMSda2BpeobkPJ4BlubeodsH69WbgMaN/8CECa1ga/tzfaugoFCMH78J27efw759Y1GokPo/gzDA0twfPAMroGsFGGDpWnFeT/EKMMCS7kJ9ASyVxQSuqM4VRULQCyRFdcSOhPpxZwSBPnp4CBiU0skJTmnTqr2ZULoiiR8ZTBFgXl4CVFHqIEVwqOpQxZ6FPv/y/j2+ff4Ma3t7EdWhilJJ/Grx96QXYpqfUgbpxkO64VBdjZ/kWCs55mCApbmK+gJYKsspZZbOHIEgOvcEYlURQz/ujs4n1Z+iKCMTMzMQCEoI3GquUPwzEDQiMEXPCj2LIkVQTaPvJoJetEeql0dwjuBbcjX6XvhE0ZLBweLWRQLP8WmYXGtKnYcBFgMsqWdHCeMYYGnupU+f/DBo0EpcuvQYa9b0R/ny+X+a9Pz5B+jQYR5KlsyNefO6wMXFUe3CDLA09wfPwAroWgEGWLpWnNdTvAIMsKS7UN8AS7rlPFKpCjDA0txz+gZYmu+AZ1CSAgywGGAp6bwm1VYGWElV7Of+BOSPHr2Bvn2XI3VqO/TrVx8VKxaAs7M9vL2/4cyZ+1iwYB8+f/bDggXdUKtW8XiBvRwAlq+vL968fo1UqVIhY8aMIkqWGyvACsSvAAMsPh2sQBIVYICVRMFidWeAJV07HilNAQZY0nSLPYoBluYa8gyJV4ABFgOsxJ8W5fVkgJU8PgsODsWePZcwdOgahIdHImtWF9jYWIJSBz08PonC7jNndkTDhqXFz+Nr+gZYFDV89MgRLFm0CLXr1kX7Dh1glcCFO8mjIM/CCihXAQZYyvUdW64nBRhgSReeAZZ07XikNAUYYEnTjQGW5rrxDNIUYIDFAEvayVHGKAZYyeenyMgoeHl9wdy5e7F370W8evURWbO6Cmg1cGBDpEvnBFNTk18uKBVg+fn54Z2npyjrQFFTjqlSxbsO3TTr6emJz58+wdraGunSp0fq1KlFGQgav33rVkydNAktWrVC3wEDYGNjo7ZERIC/Pzw8PEAXE6XPkAGuP9SBVBlAUExVYiIyMhIvX7wQ9RWzZssGi1gXCCWfJ3gmVkC3CjDA0q3evJoBKMAAS7oTGWBJ145HSlOAAZY03Rhgaa4bzyBNAQZYDLCknRxljGKApR0/HTlyHbVqjcPBg+NRu3aJRC+SVIB1cP9+bNq4EY8fPoSpqSkIEFGr16ABBg4ZAgcHh5i1/f39cejAAfy9fj08376F2X91DQla9e7XD23bt0ezxo3x/NmzOPaaW1igR69e6Ny1q/j5p0+fsHLZMtDaISEhIh2SoFix4sXRvVcvFC1WDOb/XaJz/9499O3ZE/YODhgweDAWzJ0r5i9dtizGTpiADD9czpNoobgjKyAjBRhgycgZbIoyFGCAJd1PDLCka8cjpSnAAEuabgywNNeNZ5CmAAMsBljSTo4yRjHA0o6fdAWwJo0fj8ePHiGHmxvSpEkDql914tgxBAUFCWDUum1bsUGCVO4LF2L92rUCXBUqUgS5cucWn3308kKlKlVQtXp1LFm8GFcuXcK9u3eRLXt25M2XD5aWlqhcpQoqVKqETx8/YvTIkbh25Qqy58ghoJWVlRVevXyJy5cuiUis4aNG4fdSpQTYIoDVp2dP0A3WSJEC9vb2wlaat0nTpnBK4DZq7XiHZ2UFklcBBljJqyfPZgQKMMCS7mQGWNK145HSFGCAJU03Blia68YzSFOAARYDLGknRxmjGGBpx0+6AlgP7t8XaXgEmwhMUUTUyOHDcer4cdSsVQvTZ88WG7x/9y46tW+PiIgI1K1fH9169kS6dOlEKl9wcLDoQ+mE1LZt2RKTQthv4ECRQqhqq5Yvx1J3dzg6OmLarFki2orW/eLjg9kzZ4oIL6qdNWzkSBH9pQJYPt7eKFykCPr07488efMKmylKS663z2rnVPCshqoAAyxD9SzvS2sKMMCSLi0DLOna8UhpCjDAkqYbAyzNdeMZpCnAAIsBlrSTo4xRDLA08xPVvSpdetBPk/j5BeLp03fImTMDHB1tf/r8woXZMDf/+Xa/pKYQqrN+4bx5WLViBcqVLw/35ctFl3lz5mDtqlUiaopS9wg8qWsEtKgG1pSJE9GydeuYGljUNyAgAIP798fFCxdQr359TJgyRaQtqtrNGzfQs2tXpLSzw9oNG5Apc+YYgBUZEQH3ZctQoFAhzQTn0ayADBVggCVDp7BJ8laAAZZ0/zDA+n/tRJFN+m0K8U9uWlKAAZbmwvIthJpryDMkXgEGWAywEn9alNeTAZZmPouIiISFRf14YZCqePmPHUJC9sLCwuyncVIAVmhoqKhHdffOHXh5eeH506fw9vbGH+XKYcmKFWKN3t274+yZMyhVurSInKKi7erarwDW2zdvMHTQIFDU1+Bhw0TNrNjttYcHenbrBuq3Y88e5M6TJwZgOTg6Yu369Ujl5KSZ4DyaFZChAgywZOgUNkneCjDAku4fBljftTuxZg0OursjbfbsGLFjh3RBeWSCCjDASlCiBDsYE8Dy//IFgX5+QHS0Wl0sbWzg6Or60w1Rwf7+8PfxEXVPUqdPD3MrK7Xj/T5/BvWlZm1nB4c0aeLV//Pbt4gMD4eZhYXoZ24Z/1XwCTpRQR0YYDHAUtBxTbKpDLCSLFmiBugihZBS/3Zu345l7u7i/wEZMmaEi4uLuGHwxfPncQBW144dRY0qisqaMWcOUqZMmWSARbcHjhg6FI8ePsS4iRPRuEmTOHMQuOrXp48AaBu3bkXBQoUYYCXqtHAnpSvAAEvpHmT7da4AAyzpkjPA+q7djunTsWn8eGTKkweLbt+WLiiPTFABBlgJSpRgB2N63/fdAAAgAElEQVQCWASWz2zdiqiICLW65P79d3ScOVNAJVWLjorCqQ0bcHLdOoSHhqLluHEoVqOG2vHbpk7FtUOHRB2U/OXLo+XYsSAo9mML+vYNUxs3RnBAANK5uaHZyJHIlDdvgr4yhA4MsBhgGcI5jm8PDLC0411dAKx/T5/GpHHjQLcLDh46FFWqVRORVYsXLsSKpUvjAKwxI0Zg3969og7V5OnTkTlz5iQDrI8fPmDwgAG4c/s2evTuLW4mjN0ImnXt1Anf/PywdedOUaxdVQOLI7C0c854VnkowABLHn5gKxSkAAMs6c5igMUAS/rpkTaSAZY03WKPMiaAtWboUOydPx9WNjYoVKXKT+LlKFwYfw0fDrP/riynDl+8vLCsTx9c3L1bgKnyzZph8MaNMP3vyvTYkyzo1Akn168XN0RlK1QI/desgVvRoj+tc2nfPkxu0ED8PFvBgui7ahVylUj81fCae11/MzDAYoClv9On/ZUZYGlHY10ArGVLloCKqlNdqy07dsTUo1owbx5Wr1iBMn/8gWUrV4oNHjp4ECOGDIGTk5NI/6tVp47aAur0/wyK6qLbDRs2boyhw4fD9r9orfDwcIwcOhTHjx1D8ZIlsWTZMljGiu6lAu5jRo5Edjc3LFqyRBSJZ4ClnfPFs8pLAQZY8vIHW6MABRhgSXcSAywGWNJPj7SRDLCk6WbsACtjrlyYfubMT+IRuLKxs4tTu+72qVOY16EDvN++Ff3Tu7lhxPbtyF6kyE/jYwMsSiHsNGsWanbrFqcfvdDMaN4c57ZvZ4BVLo/mB1hBM9w4/QAXDzPAUpDLkmwqA6wkS5bgAPrO3LfvMho2nIxdu0ahYcPSP6V5xzdJUmpgrV65EsuXLIGJqSnWrF8vbiI8feoUFi1YgHeenqJQO4EkO3t7hAQHo1Xz5nj+7BmyZs2KfoMGoULFiuIvOR49eIDQsDCR8ke3A9Ic/Xr3FmCMxlMxdlU7cfw4Rg0fDlMTE3Tv1QstWrUSY548fiyisyiNsHPXrujcrRusrKwYYCV4WriDISjAAMsQvMh70KkCDLCkyy1HgEXpP2EhIXj39Ck+vX4tas1kzJMHKR0dkcLEJGazYcHBiAgNhSldRWxpiYCvX+H5+DFCAgKQtUABMc40VlQGDaQ/qISHhOD98+f4+OqVqJ2TMXduHFqyBJsnTtQohZBq44QGBsLE3FxEi8QuBk8/jwgPF3V4LGL9bZ24vvnbN3x680b8srC0FOlJVLMndkoU1f+hv/nzefcOno8eCQ2yFiwo7I8deULzCV3CwmBlayuui/7k4YGPHh7IU6oUUqZKJf2wJNNIBliaC2mMEViZ8+XD4kSk99J3x84ZM0RKcPbChfHq7l1YWluLNMJGgwf/9BKlAlj0HNHYP9u3R+fZs2EXq8Dvm4cPMalBA/h4eiI0OJgjsDQ/woqZgQGWYlwl2VAGWJKli3fg589+qFt3Aq5efYqSJXNh//6xcHFxTNRCSQFYdOvf2FGj8Ob1axFNZWZmJuoeEsiielXm5uYCUvUdMEBAqMcPH6J/37744OUl+llbWwubQkJC0KpNG/Tq2xe2trZi7JCBAwXssrOzEyCrSbNmqFv/e7H6mdOnY/uWLeLPWFSU3dLCQhSPpxsJfy9VCiNGj0bmLFlEX1UElqOjo4BsXMQ9UceAOylMAQZYCnMYm6t/BRhgSfeB3AAWQZ6H589j84QJeHDunKhFQzVsMuXLh04zZ6JItWoxm13erx8OLV2K4jVqoGzjxtgxc6YAWATA7FOnRusJE1C1Y0dY/PcHFEoRenb9OrZMnIibJ058DzVPkQKZ8+aFfZo0uPvPP6CXZKk1sKiODr3kFqlaFaN27YpZlwye3LAhLu3diwYDBqDL3Lkxe7jzzz9YN3w4Xt65I8AW7Z/+ANZ90SJUadcupt/nN2+wc+ZM/Lt5s+hDsMw6ZUoxX+2ePWPAlO+HDyBdKFKk55IlQssLu3aBrm+ede4c8pQuLf2wJNNIBliaC8kAK34NCfJOql8f754/x6idO7F2+HA8v3EDperVQ69ly+CULl2cwSqAVaZhQ1w5cACuWbNi2JYtMdFaBIWpDteG0aNRoVkzHFu1Clny5+cUQs2PsSJmYIClCDdpZCQDLI3k+2mwr28AevdeiqNHb+C33zLjwYM3qF69GNzdeyBVKvWF02NPkhSAReP+OXkSWzZtQkBAAKysrcUtg81atBCphQS4XNOmRc8+fZAzZ04BrR4/eoTtW7eKIu/0F4PmFhZwdnZG3Xr1UK5CBQG9CExdPH8eO3fswOdPnwToatG6Nar+92dQ+v/C/r17RSqh75cv4i9HLS0tUax4cTRu2hTp06eP2ZLHq1dwX7RIFI0fOGSIAGLcWAFDU4ABlqF5lPejdQUYYEmXWG4Ay+PePbj36AGP+/fxZ7t2IvWH4M6lPXvglD69gDC2jt//Fm95374CYNHPKULJOWNG5CxeHN6enri4Zw9yFCmCvitWwK14cdGffu7esyduHD0qIFPBihVFxMWD8+cF6AkNCkL2QoUkA6yrBw/+P8DavVtEfagaga3L+/ahfr9+6Dp/vvgxRYL1KlwYvl5eKN2gAXKVLCnsIQj1e506yF+hQsx4qudzfM0aFKhQQdhOUVYn1q0DFZbuvXQpfq9fX/ztI41d1rcvzu/YgQy5ciHA11f0t3d2Rv3+/ZE2WzbphyWZRjLA0lxIBljxa0igeFrTpuLc91m+HA8vXBDpf2kyZULflStRtHp1tQCr2ahRuH3iBJ5euybGVWnfXjxTdJPh0t69BYCec+kS+hUrxgBL8yOsmBkYYCnGVZINZYAlWbqfBgYEhGDq1G2YM2c3unatiT596sLd/SCWLTuCgQMbYtSoZkiZUv2NsKrJkgqwaBxFUPn4+MDGxgYODg7iuzsyMhKfPn4UwIhqWNEthapGgOqrr68YR2PsHRzEXx7+2IKCguD39auoc0URVDRv7EbjaR5ai+ZgOJV8Z4lnUpYCDLCU5S+2VgYKMMCS7gQ5ASyCMrvnzMHWyZNF9BFFKlEaHBVkXtS1K64dPox+q1ahaocOYsMqgEVRVH80boymI0Ygfc6c8Pf1Rd8iRcTfiPVetgxlGjUS/31myxYs7NJFpN4R2KI0Q4rK+vj6NTaNHYuz27Yhy2+/6Qxgeb14gc5ubgLS0b5UwIogFv1Bi9IiqT2+dAmjq1dHhpw50WPxYtCta9SOrFiBpX36CD0o5cnG3j4OwKJ6PjRvwUqVRLSWmaWl2oKl0k+PtJEMsKTpFnuUMQIsisYsWrVqHPHSZMkizn7sNr5OHVANrHaTJ6Nu374inbZP4cL48OqVuDmwyfDhcW4ZVEVgtZ86VUQ3UqRVqfr1MXzbNvEMEgBb0LkzUrm6YsqJE2hgZcUAS/MjrJgZGGApxlWSDWWAJVm6OAMjIiKxcuVRjB79N4oVc8Patf2RIYMz3r3zRseOC3Dt2lNMmtQW3brVgJmZabyLSgFYybMDnoUVYAWkKsAAS6pyPM5oFWCAJd31cgJY37y9MbddO1w7cgTjDx5EsViREmuHDcP+RYtQuW1b9PvvRhkVwKIaVpNPnIBT2rQxdaf6Fy+Od8+eCYBVoUULkVY4v2NHcdtY28mTRS0cFSAi9bZPmybSFjPlyRMDsCjtLsjPD9G/kJdqXalSFJMagUXRUS1dXETxUYJsbSdNQtrs2ePUzqKl148cKeyr2LIl+qxYEVNDi9Ihx9eujYx584qURUcXlzgAq92UKfhr2DAxv5waAyzNvWGMAIvSZmP/DTqpSMDZ/d69GEE9nzxBzwIFQAXfKYoqb9my4rONY8diy6RJcCtWDGP27hXRmqqmAlid58wRUHt269YI9PPDiidPkCptWhxetgwrBwxAT3d3VOvUCfUtLBhgaX6EFTMDAyzFuEqyoQywJEsXZ+CJE7fQq9dSEY107txMpE+fOuZzL68v+OOPoTA1TYHFi3ugWrWfb3pVdWaAlTz+4FlYAV0qwABLl2rzWgahAAMs6W7cu+IU3j77gBZ//y19kmQaSbVrxtSogdf378c7Y6HKlTH11CnxuQpgUbTEyJ0744wZXKYMXj94EAOwKNJqRKVKIl1w0IYNqNiqVZyX4R3Tp4uiz7EB1pX9+zG1SRNERUTEaw+lHTUdOVJApaQCLJp02+TJonYXFZ6naLPKbdqgwcCBcMmSJaY4+4S6dcXc8TWKOpv+77+i8HvsFEJ6USdt5Na+A6yUaDGwltxMU4w9xgiw0uXIgaknTsTxEUUV0mUN1CjKkr4TDri7o0StWjERnPQZpSFPa9JEpOiO3bcPJevUiZknNsAq3bAhlvTqhWsHD4IAcPX/RV4t6NIFL2/dwqRjx0RaLgMsvoVQMV8UbGiiFGCAlSiZftnp6dN36NHDXdS72rVrJMqWzfdT/4sXH6FRoynIly8Tli7thdy5//8vEmJ3ZoCluT94BlZA1wowwNK14rye4hVggCXdhQfW/AuPR+/QdPVqcZufPhsVKh9WoYK4jY9qPcW+BUxlF6XbtZ82Tfw2qQCLIjO8nj/H4I0bUa5p0zhbVQewXt6+jQOLFomin/E1Kgxdok4dAZukACyK8jq5bp1IX6SXbH9vbxEdQtEg9DJtamaGwWXL4tGlS6J+FdX1in27IdlFBevpZZv0kjvAoiiaXd26wTmdPZr2qaHP46botZeO3Iq0BQujbJ8+souwS25h1wwdir3z54sLFn51CyEB8P4lS+LL+/fiBs/YNegIYAcHBAjTqN7c6N27Y56j2ACrTq9e2D51KrZNnSogMqXgTqxfX4BgeiZtHRyMEmD5vXuHoyNHoFy9YihYNndyu1jW83EElqzdkyzGMcDSTMZv34IwYMBK7N9/BRMmtEKnTtVgaWn+06ShoeFYs+YExo3biDp1fse8eV3g4GDzUz8GWJr5g0ezAvpQgAGWPlTnNRWtAAMs6e47tvkCnt1+jXrz58PGyUn6RMkwkmpd0e1hz2/exIgdO0C3gv2qJRVgDS1XDo8vXxapRXQ7YezUOnUAK6lbUgGswlWqYPT/CkmrXqBDAgMxsV490I2DsYu4q+YnQObj6Yn7587h0JIlouYVAbz+a9bANVs2zGrVStTvKt+sGXovXy5qXcXX5A6wgr9+xX66zjqHC+p1rpRUibn/fwqsnbIHdpndULZXL5jb/PwCYEhCJRZgHXJ3x8rBg8WFBXQr6f+X6/2uxoeXL8UzSGmIC2/eFPXyqMUGWPR83jpxQtTc++jhgWI1auDRxYsimuvP9u1Ff2OMwPr06BHOzp6J8vWLI1/JHIZ0vBLcCwOsBCVSfAcGWJq5cMeOc+jadTHat6+CUaOaw9k5/j+jeHt/E0Xe1649iWXLeqFZs/I/Lc4ASzN/8GhWQB8KMMDSh+q8pqIVYIAl3X0XD9/GrTMPUWn4CLjkzSt9omQYGezvD6p1RTcLlqhdG2P37/9l0fEkAayoKMxt2xanN21CtY4dxQupjYODsPrz27dY0rMnrh8+LGrgLLp9W9JuqMj85IYNkaNwYUz95x+REkgFpOm2wL9Hj4bf589qAZZqMUqBenDunIhCy5I/v7gxLU+pUji7dStmtGghXrgJvlFR9via3AGW97NnODV1KvKVyIZKjUpK0pkHAbuXnkSoqT1Kd+uGlK6uBi1JYgBW4NevAvReP3JE1H2jYu0/tld374Ju83xx6xYaDx6MjrNmqQVYNNfkRo1w9/RpAbkp6pFqz9G/KZLLGAHWi3//xf0dm1GxYQnkyJ/JoM/bj5tjgGX47maApZmPPTw+Ys+eS/jrr7LIlOl7Svev2tu3n7Fr1wXUr18a2bL9/P8vBlgJKcifswLyU4ABlvx8whbJXAEGWNId9Oj6S5zeeQUFmjRF3tq1pU+UTCNvHD0qIiK+fPggipZ3X7AAKZ2cRH0bqo3l9fIlSv9X1ykpAAvR0bi0b5+og0MvpS3HjkWV9u3FnHTrIUVZ0Mtp9kKFJAOse2fOYEbz5vD/8kUUinYrWhSHly7F/sWL4e/jIxSKHYFFKYpHV6wApS1l/u03sccd06Zh/ahRyFu6NAauXy+gFdk1oGRJ8eJNNxD2XLLkeyohAF8vL7y4fRv5y5cXwEzuAOvZyZO48fffqFC/OAqU+R4Bwy3pCpzbdwMvnn9FiY4d4apn8Jx065M2IjEA6+bx41jcvTs+v36N1S9fivS/HxvBZPeePXFy7VrxnbLq+XOREvhjBBaNozTCjePGifThP9u1E7X0KC3RWAHW1dWr8fXxbVT+63ekzeKcNAcqvDcDLIU7MBHmM8BKhEgJdImMjIKpqUmiJ/pVfwZYiZaRO7ICslGAAZZsXMGGKEUBBljSPeX7+Ru2LziK1LnzovzAgXqvpxMeGiqgD9W88X77Vrw0OqVLh5CgINCtfXQzIUVmUVver59IuSvVoAFG7tgRR4Qfi7jTh1QbZ+WgQbi8d68o5kyNYFaazJnFCy9BrMx580oGWN6enqCX7Qs7dyIiPFzMb2ljAyo87/P+PV7cvIkG/fujy7x54jMqKD+menURpeWYNi1MTU1Bc6RydUXjIUNQt2/fmAg0gleLu3WDx/37iAgNReoMGWBqbg5Ku8yQMycmHj0qdJIzwIqOjMSl5cvx9soVNB9QC6nTfo+A45Z0BV49eodjW66gcLNmyFG58k+38yV9RvmOUAGsLPnyqX026fmhGwYpDVjdhQ6xd3Z+xw4BsYK+fUOfZcvwZ4cOagGW5+PH2DBmjKhBV6VNGxSv9f3CAWMEWHSJxaGhQ5HayRx/NisNGzsr+R4WLVjGAEsLospsSgZY8nIIAyx5+YOtYQUSowADrMSoxH1YgVgKMMCSfhyio6Kxe9lJfPWLQLkBA+CUNav0yZJpJL2QUq2aS3v3CvBDL1AW1tYC2hSuXFkAK2pUF+rO6dMi0qlW9+5xVt8+bRqoqHPltm2Ru+T/p6q9e/YM/2zYAEonooLiBH3+aNIEBM4ohdApfXq0HDdO0k4ogurVnTs4sXYt3j9/DnMLCxEpVal1a5HaRLW9ilarJmpZUSPYdHz1arx9/BiUtkS1eVKmSoWSdeuKW9LoZkNVi46KgueTJzi3fTs87t0TBanN6QY2Z2fkKlECldq0ERFYQX5++HfLFjy9dg31+vRB9sKFJe1FG4P8PD1xYfFiWEQHoWm/mjAx+bFKkTZWNcw5A/yCsWvJcaTOVxhFWraEpZ2dYW4UwPmdO3Hr+HHx/Kt7NsWZ37wZT69fR/VOnZC3TJl4tfjm7Y1ds2bhm4+PiFqs0ratuETh4fnzKN+iBah+3a8aPYeLunUTtlBNLFcZfF9q2/Hv79zB+flzUbhcXpSuWcigYak6LRlgafuE6X9+Blj690FsCxhgycsfbA0rkBgFGGAlRiXuwwrEUoABlmbH4dmdNzix/Qry1KyJ/A0b6j0KS7UbSt+hF04CTZa2trC1t0cKk8SHqMenCkVR0AsszUvAiKKkkrMRDKM0QrqZkOaPXSxe3TphwcEiIoRuF6SUJgJT8TWCZAS7QghgWVmJgu6/6p+c+9JkLnrxf3L0KO7v2YMK9Yogb4nsmkxn9GMjwiJw8cgdPHv0GWV79oRzrlxGrwkLkPwK0Hfk2blz4efxHLXblUe6rAnXt0l+K/Q7IwMs/eqvi9UZYOlC5cSvwQAr8VpxT1ZALgowwJKLJ9gOxSjAAEszV0WER2KX+3FEWDigZMeOSGUEUQWaKcajk6rAt/fvcW3tWkT5fUCjntVgafXzFdtJndOo+0cDb5554dSOK0hbpCSKtWuXICg1ar1485IUeHv1Ki6vXImsuVxQrWXZJNW4kbSgDAcxwJKhU5LZJAZYySyohtMxwNJQQB7OCuhBAQZYehCdl1S2AgywNPffy4eeOLLhPPLUro3f6tWD2S+igDRfjWcwJgUoBfTx0aO4t3OHKAKdp1g2o0tD0oa/w0LCcf7ATTy68QqVR45EGo7C0obMRjtn8NevIuX3y/PnaDGoJlKlMc6adQywDP8RYIAlLx8zwJKXP9gaViAxCjDASoxK3IcViKUAAyzNj0NIUBjOH7iBV08+i2iOzL//rvmkPAMrAMDr7l1cXr4cGbM6ony9YrB1SN6UTWMW2evVZ5zefRXBYSaoNHQo7DNkMGY5eO/JpEB4UBAe7N+PF6dPoViFPChe+bdkmll50zDAUp7PkmoxA6ykKqbd/gywtKsvz84KaEMBBljaUJXnNGgFGGAlj3s/efrgzJ7rCAw1RbG2bZGuQAFRl4kbKyBJgehofHz4ENfXr4dFihCUr18cGbK5AHykJMmpbhDVRHt49YWIxHJyy4UirVrBMVOmZJufJzI+BShi8tnJk3h86CAyZkuFSo1KwsKIU34ZYBn+M8AAS14+ZoAlL3+wNaxAYhRggJUYlbgPKxBLAQZYyXMcoiKj8ObZB5zdew2RJtYo0LgxMpcqxbV1kkdeo5olOjISnjdu4N7u3Qj/5oOKDUsia74MRllDR9uOpxp29y89w+Xj95AmT17x3FIdO7rVkhsrkBQFosLD8ejQITw7dQouaW1Qtk5RpHZxMGrozAArKSdImX0ZYMnLbwyw5OUPtoYVSIwCDLASoxL3YQUYYGnlDNDNf+9ffsaRDWcBC2vk/PNP5K5WDebJfFOfVoznSWWhQERoKJ7/84+4dTAyOADVW/2BTG6uMDHV/AZJWWxQhkZERkTiwdUXuHT0DqxTu6Boy5ZISxGU3FiBRCoQ5OuLW5s24f3t23DN4IAKDUvAydXB6EEoA6xEHiAFd2OAJS/nMcCSlz/YGlYgMQowwEqMStyHFWCApdUz4OfjjyN/n8eXj35IkzsPCjVrBocMGWBibm70LzRaFV6hk1MqG0VvBH7+jNtbt+LD/XtwTGOHqs3LIE36VArdlbLMjoyMwtNbHrhy7C4C/UOQo2JF5KtXD1b29t+jKDkiS1kO1YG10VFRiAgJgde9e7i3axcCP39CRjdXVGlaCrZ21jqwQP5LMMCSv480tVAbAKtBg/yoUSO3pqYZ5finTz9j7tyzqN+4MXLnyWOUGvCmWQGlKcAAS2keY3v1rgCnEGrHBYHfgnDrzGO8fOCJwIBQpC9cBBmKFoVD+vSwtLMTUVmmFhYwMTHhl2PtuECesxKsiopCZFgYwoODEervD/8PH/Du1i28vXYNtrbmyJo3AwqXzwuH1CnluQcDtYpA4vtXn3H77GN4eXwCLGyQ5fff4Zo/P2ydnWGZMiXMrKxgSiCanltuRqMAnQ1K7aUIybDAQPHc+r5+jTdXrsD35XPYO9kiT7HsKFQ2F0dLxjoVDLAM/xHRBsAyfNW0v0MGWNrXmFdgBZJLAQZYyaUkz2M0CjDA0p6rI8Ij4OXhjVcP3+Hdy4/w8wmEtVNq2KVNC+tUqWBhawsTMzOjexkODw+Hn58f7O3sYGFpqT0HyHHm6GhEhoeDbioL/vpVwKsgH2/YO1ojfTYXZMuXQfzb3NJMjtYbhU0hQaHwePQer5+8xwcPb4SGRcPW1RV2Li6wtLeHubW1UUZlBfj7IyQ0FM7OzkZxDmJvkqKtCDqHBgQgyMcH37y8EPbtK1wzpUZGt7TI/ltGpE7riBQmXDsttm4MsAz/UUlOgBUWFoarly8bvmg62GGevHnhnCaNDlbiJVgBVkBTBRhgaaogjzc6BRhgad/l4aERoLTCL5++4eMbH3h7+eKbjz+Cg8IQERYB+tt9Y2q+vr64ceMGChQoAFdXV2PaukghNbMwhZW1JexTp4RzWke4ZnaGk6s9HFLbGfWNZXI7CMEBIfjq7Q9vr6/iuf3yyQ8BXwMRGhwGqptlZI8tHjx4AC8vL1SpUsXoUqFNTFLA3NIcNnZWcExtjzQZUwl45ehsh5SOtjAzN5Xb8ZWFPQywZOEGrRqRnABLq4by5KwAK8AKyFQBBlgydQybJV8FGGDpzjei1lFkFCIjohAVFf0dXBnZWzClz21btQ8rZv+NVt0ao03vJrC0tNCdE+SwUooUoqQSpY9ScXZTMxOjAwJycENibaBnNSoiEpH0zEZFfX9kjey5/fDuM2aPcseNi3cxY/VYlCxXOLHyGU6/FClAICv2c2s4m9POThhgaUdXOc3KAEtO3mBbWAFWQIkKMMBSotfYZr0qwABLr/Ib3eLBgcHoXHcgnj/yQNacmbBo21S4pDO+lCSjczxvWLEKEGg/fegCZo1wxxfvryhZvgjmb5oEUzOOOlKsU3VkOAMsHQmtx2UYYOlRfF6aFWAFDEIBBlgG4UbehC4VYIClS7V5rX8OnMPIbtNi0iZHzemPei2rszCsACsgUwUCvgXCfcpa7N5wSFhoaWWJxdunomCJfDK1mM2SiwIMsOTiCe3ZwQBLe9ryzKwAK2AcCjDAMg4/8y6TUQEGWMkoJk/1SwXCw8LRpd4gPLrzLKZfrt+yY/Wh+bCwNGf1WAFWQIYKPHv4EkPaT4TX24/COlNTE9RvVQODp/TkKCwZ+ktOJjHAkpM3tGMLAyzt6MqzsgKsgPEowADLeHzNO00mBRhgJZOQPE2CClw4dQ1D209Ahqzp8fr5W2TMmh6fP3hjovtQVKxVNsHx3IEVYAV0r8DaBVuxffV+REZGwu/LN+Qu6Aa6YXX8oiEgAM2NFYhPAQZYhn82GGAZvo95h6wAK6BdBRhgaVdfnt0AFWCAZYBOleGWqI7OoLYTcPXsDXQa0ArLZqxH655/4eC2E8icLQNW7J/Nhcxl6Dc2ybgVoAL2DUu2R7ZcmUERlNcv3MGkpcMxZeA8dB3SFi27NxIXEnBjBdQpwADL8M8FAyzD9zHvkBVgBbSrAAMs7erLsxugAgywDNCpMtzSnasPMbr7NKTPnBZdh7ZBz8bDMHXFSBzZ+Q9uXbqH6atHo4Qx3mwmQ1+xSayASoGD205i1kh3dBrQEh7P3pJxLSsAACAASURBVODQ9pP498UetKveFxmzpsPQab2QNqMLC8YKqFWAAZbhHwwGWIbvY94hK8AKaFcBBlja1ZdnN0AFGGAZoFNltiWK3Fg+82/sXHsA01aOgpW1Jbo3Gir+287RDgPbjEWtJlUwaFJ3WFhayMx6NocVME4FgujG0DoDERERgWkrR2PTsl04tO0ELnoexMYlu7B1xR6MmN0P5ar+jhQmHIZlnKfk17tmgGX4p4IBluH7mHfICrAC2lWAAZZ29eXZDVABBlgG6FSZbenlk9eYOniBuHlw2Z5ZuH/9UQzAKl+9FHo3HQF/v0CMnjcAeQvllJn1bA4rYJwKnD50ASO7TkWD1jUxeGoPTBm0QACsK15H8PD2U4zpOQPFyxZC/wldYW1jZZwi8a5/qQADLMM/IAywDN/HvENWgBXQrgIMsLSrL89ugAowwDJAp8poS1FRUeKld86YZRgytSdqN60qUgZVEViV6/yBM0cvYWzPGeg6pA2ad20objnjxgqwAvpTICwsHCO6TMGFE1ex/thC5C7ghon958YALP9vgXCfvBqnD1/A6oPzRTohN1bgRwUYYBn+mWCAZfg+5h2yAqyAdhVggKVdfXl2A1SAAZYBOlVGW/L1/oqZI9zh8cwTc/4ej/SZXH8CWN++BogoLCdnRwyb2QfpuKaOjDzIphijAlSsfXL/ucjslgkLt0wWEsQGWPT7E/vOYu7opWjQtha6DWljjDLxnhNQgAGW4R8RBliG72PeISvACmhXAQZY2tWXZzdABRhgGaBTZbQln0++cJ+yBtlzZ8Vf7evAysbyJ4AVER6BfZuP4fble+g+vB0yZOFoDhm5kE0xQgUu/XMNfy/ZhS6DW6NIqfxqAdan995YOn09Urs4ovfoTkaoEm85IQUYYCWkkPI/Z4ClfB/yDlgBVkC/CjDA0q/+vLoCFWCApUCnKczk4MAQRAOwsf1eJ+fHFEL6WUhwKCIjImFrZ6Ow3bG5rIBhKvDF+ytSpXZAihTfC7T/GIEVHQ34+X6DvUNKmHDar2EeAg13xQBLQwEVMJwBlgKcxCayAqyArBVggCVr97BxclSAAZYcvWLYNqkDWIa9Y94dK6B8BX4EWMrfEe9A2wowwNK2wvqfnwGW/n3AFrACrICyFWCApWz/sfV6UIABlh5EN/IlGWAZ+QHg7StSAQZYinSbXo1mgKVX+XWyOAMsncjMi7ACrIABK8AAy4Cdy1vTjgIMsLSjK88avwIMsPh0sALKU4ABlvJ8pm+LGWDp2wPaX58BlvY15hVYAVbAsBVggGXY/uXdaUEBBlhaEJWn/KUCDLD4gLACylOAAZbyfKZvixlg6dsD2l9frgArKioKIcHBCAkNRXhYGMLDwxEZGQn6eTQV8KNf+mgpUoi6gib0y9QU5ubm4pellRWsrKxgZmamD6t4TVaAFdCjAgyw9Cg+L61MBRhgKdNvSraaAZaSvce2G6sCDLCM1fPS980AS7p2ShkpJ4AVFhaGLz4++PzpE3y/fIGfnx/8/f0RHBSE4OBgRPwHsSKjovQHsP53IYaJiQlMTU1hZm4OawJXNjZImTIlHBwckCpVKji7uCC1szOsra2VcgzYTlaAFdBAAQZYGojHQ41TAQZYxul3fe6aAZY+1ee1WQFpCjDAkqabMY9igGX43pcDwAoMDMTTx4/h8fIlfH19EeDvj4jIcKRKYw8nVwfYpbKFrb01LG0sYWZuClO6NfW/21V17qHoaERFRiEiIhJhweEI9A9GwNdAfPn4Db6fvwFRKWCbMiXsHRyQKXNm5M6TB6mcnGJug9W5vbwgK8AKaF0BBlhal5gXMDQFGGAZmkflvx8GWPL3EVvICvyoAAMsPhNJVYABVlIVU15/fQIsAlc3r1/HnZs3QdFXpmYpkD67C9wKZkGmnGlhbmEGE5MUSGFighT07xRACoh/6L19T2MEoqKjER31H9QKj8SHN954ce8NXj9+j7CQCFhYWCBnnjwoU7asgFrcWAFWwPAUYIBleD7lHWlZAQZYWhaYp/9JAQZYfChYAeUpwABLeT7Tt8UMsPTtAe2vrw+AReDq2ZMnuHLxIoJCApHSwQZ5imVHriJZYJ8qpfY3rYMVQoJC8fzuWzy6/gK+n74hOgooVqIkChYuDDs7O5GGyI0VYAUMQwEGWIbhR96FDhVggKVDsXkpoQADLD4IrIDyFGCApTyf6dtiBlj69oD219clwKIi7O88PXH9yhV4er5B6nQOcCuYGTmLZIW1jaX2N6uHFcJCwvHqoSee3n6Nj2984JTKGcVKloRbzpxc8F0P/uAlWQFtKMAASxuq8pwGrQADLIN2ryw3xwBLlm5ho1iBXyrAAIsPSFIVYICVVMWU119XAItuFLx75w5uXb+OKJMI5P/dTaQKOjinNIr6UEH+IXhx/y0eXHmO4G/hyJsvH0qWKiXqZXFjBVgBZSvAAEvZ/mPr9aAAAyw9iG7kSzLAMvIDwNtXpAIMsBTpNr0azQBLr/LrZHFdAKygwEBcvngR9+7ehaOzLf6oWxQuGZ1gZmGmkz3KZZHIyCh8+eCHayfvwePRe+Rwc0PFKlXgmCqVXExkO1gBVkCCAgywJIjGQ4xbAQZYxu1/feyeAZY+VOc1WQHNFGCApZl+xjiaAZbhe13bAIuKs184exY3rl1D1jzpUb3NHzAzMzV8YX+xQ0qlPLvnOh5cfYHsOXKgao0aXODdqE8Eb17pCjDAUroH2X6dK8AAS+eSG/2CDLCM/giwAApUgAGWAp2mZ5MZYOnZATpYXpsAi0DN1cuXcfniBbgVzISytYvAOqWVDnaljCUuH7uDu+efIlfuvChfqRJsbW2VYThbyQqwAnEUYIDFB4IVSKICDLCSKBh311gBBlgaS8gTsAI6V4ABls4lV/yCDLAU78IEN6AtgBUdHY37d+/i1InjyJwrLcrUKgwHZ7sE7TGmDqHBYbh28j4eXX+JYsVKoky5ckZRD8yYfMx7NQ4FGGAZh595l8moAAOsZBSTp0qUAgywEiUTd2IFZKUAAyxZuUMRxjDAUoSbNDJSWwDL8+1bHNizB5Z2ZqjarDSc03OdJ3WO8vcNxLkDN/H+xWfUqF0HOXPl0sifPJgVYAV0rwADLN1rzisqXAEGWAp3oALNZ4ClQKexyUavAAMsoz8CSRaAAVaSJVPcAG0ArNDQUNAL3fNnz1C3QwVkzp2OI4viOxnRwMe3Pjiy8RzMYIFW7drBhlMJFfccscHGrQADLOP2P+9eggIMsCSIxkM0UoABlkby8WBWQC8KMMDSi+yKXpQBlqLdlyjjtQGwHty/j9MnTiDrb+lQpWmpRNlh7J2unriHqyfvo1SZMihXoYLGclDx/JnTpwuIOGDQIBQqXFjjOeNlcNHRiIiIEJDS1NSUYaXWlOaJ5aoAAyy5eobtkq0CDLBk6xqDNYwBlsG6ljdmwAowwDJg52ppawywtCSsjKZNboAVHByMf44fxyuP52jarwbsHLkweWLcTfWwNs89DFvLlGjw119wcHRMzLB4+4SEhKBn1664e/cu5i1ciHLly2s0368GP3v6FAvmzoVzmjTo2acPXFxctLYWT8wKyFEBBlhy9ArbJGsFGGDJ2j0GaRwDLIN0K2/KwBVggGXgDtbC9hhgaUFUmU2Z3ADrnacnDu3bh8y/uaJc3aIwMTWR2Y7la86tc49w/fhDVKxSBQU1jJjSJcC6fu0aunfujIyZMmHB4sXIkjWrfEVmy1gBLSjAAEsLovKUhq0AAyzD9q8cd8cAS45eYZtYgV8rwACLT0hSFWCAlVTFlNc/OQFWVFQU7t6+jTOnT6Faq7LImie98gTRo8WB/sHYPPsQ8uT5TUAsCwsLydboEmD5+vri1o0bsLa2RqEiRWBjYyPZbh7ICihRAQZYSvQa26xXBRhg6VV+o1ycAZZRup03rXAFGGAp3IF6MJ8Blh5E1/GSyQmwwsPCcPL4cXz84omqzcvAycVex7tR9nJRkVE4tP4sooLNUb1mTaRyckr0hqjm1evXrxEaEoKs2bLBzMwswRRCLy8v0C9HBwcRPRUbmEVHR/+ylhV9To3qXlH78fc/Gk6Q6/27dyA7nZyckDZdOlhaWv60P+/Pn/HmzRvY2toiS5YssLK2TrQG3JEV0JcCDLD0pTyvq1gFGGAp1nWKNZwBlmJdx4YbsQIMsIzY+RK3zgBLonAKGpacAIuifnZu2wZbZ1OUr1ccNnZWClJC/6ZGR0Xjyol7eHHrPWrVrYv0GTIkaFRkZCQuXbyIKRMnCkCUwsQE5mZmaNq8Oe7cvo3Hjx/HqYFFoMnj1Sssmj8f/5w6JfpHR0Uhf4ECGD1uHPLkzYunT56gb8+eCA0Lw99btiBjxoxx7Lh18ybatWqFkr//jklTp8LT0xNdOnRApsyZsXjp0pgUQlrr5cuXWObujjOnT4NupzQxMQFF6v2WPz8mT5uG7DlyCPj18eNHrF6xAvv37kV4eLjoQyBuyLBhorA9FYfnxgrIVQEGWHL1DNslWwUYYMnWNQZrGAMsg3Utb8yAFWCAZcDO1dLWGGBpSVgZTZucACsoMBDrVq2CW9GMKF29EMwszGS0U/mbQiDnyU0PnNt7E3UbNkS27NkTNJrA0KD+/WFubo7CRYvC1dUVHz98AN0E+fXrV1hYWsYBWFSjbPqUKbhy+TKKFismINGrV69w59YtuOXMiZVr14IK8c+aPh2HDhzAiNGj0aJVqxg7CCwNHzxYwK827dujT79+uHHtGrp07IhMmTJh0dKlYk5qNO/QgQMFEEufPj1y580LF1dXfPHxERFWXbp1E5Ff/t++Ye7s2WK9vPny4bcCBQSMo9paVBB+/qJFyJwlS4JacAdWQF8KMMDSl/K8rmIVYIClWNcp1nAGWIp1HRtuxAowwDJi50vcOgMsicIpaFhyAqzAgACsWLIERSrmQYk/84toG25JU8Dj0TscXn8O9Rs1gluuXL8c/NXXF8MGDxYRWA0aNUL/gQPhlDo1AgICcPzoUbgvWgQ/P78YgBUREYHdO3di7qxZ+L10aYybMEH0J6g1ecIEMc+sefNQuUoV7NqxQ0ClrFmzYtO2bTERUC9fvECHNm1gYmqKBYsWiWLz165cUQuwBg8YIOygou49e/fGn9WqCdBGdpCNBLHo9+fOnsXwIUOQM1cujB47VoA0gm/z58zB3t27MXT4cLRs0yZpQnJvVkCHCjDA0qHYvJRhKMAAyzD8qKRdMMBSkrfYVlbguwIMsPgkJFUBBlhJVUx5/ZMTYBGUWL54MUr8+RuKV8n/yxpKylNKNxa/feaF/av+FQArZ+7cv1z08sWLGDtqFD58+IDN27eLNEBVoyiq7l26iEiseQsXolz58gjw98f4sWMFVJo+a5aos6VK6Vs4bx42btiAeg0aYNzEiWLc+DFj8PzZM6xev15Ea1FbsXQpli9dilKlS2PeokWibpY6gOXj44MaVaqAUhwJPvXq00cUeVfXpkyahG2bNwvI1aFzZzEnRaPt2bULM6dNQ9ly5TB3wQLdOIBXYQUkKMAAS4JoPMS4FWCAZdz+18fuGWDpQ3VekxXQTAEGWJrpZ4yjGWAZvteTE2AFBgZi1bJlKFA2B0pWLQhTU47ASuoJenn/LY5vvoR6DRsiR86cvxxO0UlzZs7Et2/fcO327ThF2NXdQuj75YuAWo8ePhQ3BVKhd1Wj+lT0q3jJklizfr0otj5u9GgcPnQItevUwdQZM/DlyxcM7t9fpPbNmT8fVatXF8PVAazbt26hbcuWcHR0xMChQ9GgYcN499KhbVuRhmhlZRVnD1QLi/aRJ18+bNu5M6lScn9WQGcKMMDSmdS8kKEowADLUDypnH0wwFKOr9hSVkClAAMsPgtJVYABVlIVU17/5ARYQUFB2LhuHTLlTYMyNQvDwspceYLo0WKKOnpw+TmuHnuAOvXrI8t/taTiM2ndmjVYunixSOe7dO1anG7qABbd8Ne6RQt4vX8vaktZWv1cZJ+Kqi90dxdzHdi/H9MmTxaga8fu3bh/7x6mTZkCkxQpcPj4cZiZf/evOoB1+dIldO3YEWnSpMHw0aNRtVq1eJWtX6sWPDw8kCpVKqS0s/upX4YMGbB89Wo9eoaXZgV+rQADLD4hrEASFWCAlUTBuLvGCjDA0lhCnoAV0LkCDLB0LrniF2SApXgXJriB5ARYFMGzf88eRFuEoGKjkrBztElwfe7w/wpERUXj3P4b+PD8K2rWqQPXtGl/Kc+WzZuxaN48EDi8dP16nBS9+CKwenTpgidPnogIqkpVqvwyzfPzp0/o3L493r9/j+69eoni65s3bkSf/v3RsXPnGNvUASxKPWxUrx5SpkyJPgMGoHmLFvGu1bFtW9y8cQP9Bg5Em3bt4kSG8flgBZSgAAMsJXiJbZSVAgywZOUOozCGAZZRuJk3aWAKMMAyMIfqYDsMsHQgsp6XSE6ARcW5z585gyfPHqBmmz+QJoOTnnenrOUjI6KwY/ExONg6o2qNGrBTE40Ue0cnjx8H1Y/y8fbGijVrRF0qVbt39664nZDS/lQ1sOiWSLpdcNfOnahVpw4mTZ0qiqj/qs2YMgWbN20StwBSJBYVjv97yxZxe6CqqQNYoSEhqFe7trgRsUatWhgybBhSOzurXcp94UJRV6tM2bKYMHlyguBOWV5la41BAQZYxuBl3mOyKsAAK1nl5MkSoQADrESIxF1YAZkpwABLZg5RgDkMsBTgJA1NTE6ARSlwT588wZGDB1ChYXHkLpqVC7knwT/eXr7Yueg4ipUoiT8qVEjwFkeCQ7179MCTx49RvEQJ9B80CC6urjh35gw2rFuHN69fw9zCIgZgRUVF4ey//2LC2LEiaqtF69bo3LWriJKi5vnmDd69f4/fS5WKsfrp48do0qiR8OP/sXce4FEWXRt+SCUkIQUIJEDovSOISC8CgnQRFSkiKCgICtKr9CZduoD0JiK9g/QmXXoNnYRU0sv/ndHkDxjIZtnd7Lv7zHV5fUpm5p25z/iJt2fOyB+NmzbFwMGDX7h++KpXCFevXIlRP/6oXhts2aqVKtDu6ekJqcV14cIFFC9eXEktOTPdv/5aZXh90KSJ2oebm5tag+zx7t27qPj222kgya4kYFoCFFim5c2vWQABCiwLCKLGtkCBpbGAcbkkwFcIeQb0IECBpQc0jQ0xpMCSrcu1s62bNsHRLQMata8OWztbjRFJv+XuWn0Efpefol6DBihYuLBOC1m2ZAnGjR6t+sqLgtJEJGbNmlXVlLp9506SwJKfyTXPBfPmYdGCBerPpXC6j48P5NXCp0+fonSZMli4ZMkL3277ySc4+2+R+IlTpqBGzZoviMlXCSwpwj5i6FD8vn696i/rc/fwQHBQELJ5eamXBUuULIm42Fhs+uMPTBg3DqGhobC1s0Pu3LnVC4YisKQu16p163TiwU4kkB4EKLDSgzq/qWkCFFiaDp8mF0+BpcmwcdFWToAZWFZ+APTYPgWWHtA0NsTQAivxGuFfp06iaada8MnvpTEi6bPcZ4+DsXLyVnVVr0mLFnB0dNRpISKrVi5frmqPySuQUtC9aNGi+KZHDyWprl29iu9/+AFly5VLmk9eGNy5fTvWrl6trhhKZpZcDxTpVadePVWvKnnbtmULpGB8gQIF0LVbtxeuD0q/vy9exMjhw5E9e3b0GTAA3t7eScODg4PVd3bv3ImwsDD16/ICYqnSpdGxc+ekvnJujh4+jJUrVsDv7l3Ex8UpkSUSrmr16viic2edeLATCaQHAQqs9KDOb2qaAAWWpsOnycVTYGkybFy0lROgwLLyA6DH9imw9ICmsSGGFliy/Xt+fti2eTMcnDPgg4414eSsm4zRGDqDLTc6MgZ71x3HzQv30LBxYxQtXjzNc4u88vf3VxlVIqJsbVPPfEvMcBKhJa//iSzSZVyaFwcgJCRE1c9KzMJKvLb48lwi0x4/fozIiAh19dDD0zPVOl36rIdjSMCQBCiwDEmTc1kFAQosqwizWW2SAsuswsHFkIBOBCiwdMLETskIUGBZ/nEwhsASMXL4wAEcO3IE5WoWwzv1SsPG9p/rbWwvEpCXBy+duIHDW04jb54CeL9xYwobHhIS0BgBCiyNBYzLTX8CFFjpHwNrWwEFlrVFnPu1BAIUWJYQRdPugQLLtLzT42vGEFiyj4jwcKxZuRIhoYGo2rg8ipTPlx7bM/tvPrz1FPvWH0dclI0qqi6ZUGwkQALaIkCBpa14cbVmQIACywyCYGVLoMCysoBzuxZBgALLIsJo0k1QYJkUd7p8zFgCSzYj9Y9+/eUXZHS2Q80WbyNngezIkCFdtmmWHw15FoZdq47i6f0gNGvZEnnzUfKZZaC4KBJIhQAFFo8ICaSRAAVWGoG9Qff4uHhEhkcjKiIa0VExiIuNQ0J8AhLeYE4tDr128SYmD5mDzr0/Q7nKpbS4Ba6ZBKyOwJIZa3Bk70n8vG6c1e1d/p1ZrjDZ2tvCwdEeGTM5wNHJ4YWXtKwOig4bpsDSAZLGuxhTYAmaG9evY9f27ciY2RbvNiyHnPkpsYRL0NMQHNj4F57cCUTlqlVRplw5VUidjQRIQHsEKLC0FzOuOJ0JUGAZPwCRz6Pw2C8Aj+89w7NHQQgOCEVYcASiI6MRFxuvnixmIwESIAESME8CNjYZYGtvp8SVi1smuGfNjCze7sieOwuy+XjA3pH/4phS5CiwzPM8G3JVxhZYUg/ryqVLqiZWBod4VKhdEvlL5oKdfepFxg25T3OZS37PeO/GYxzfcQ7B/uF4+513lLyS4utsJEAC2iRAgaXNuHHV6UiAAst48CXL6vbf93H19G0EPApCREQsXH1ywjNvXrh4eSGjmxts7e2RwYbFSY0XBc5MAiRAAm9GICE+HjGRkYgMDETIo0d4dvMmwp48hnsWV2T3zYJiFfPDO2829UIW2/8ToMCy/NNgbIElBGNjY3H75k3s37sXEZFhKFIuH8pUKwJXD2fLB5xsh5HhUfj7xE1cPHoNkWExqFmnDooUKwZHR77SaFUHgZu1OAIUWBYXUm7I2AQosIxDWGoTHN5yBnevPERcQgbkq1YN+apWVeLK1sEBNra2yCB/sKCDcQLAWUmABEjAgAREYiXExSEuNhZxMTEI8vPDtZ078ej8Odjb26JYhfyo/H4ZvpaWjDkFlgEPoJlOZQqBJVuPj49HcFAQtm3ejAf37yGrjwfefq8UfIt4W4U49n8YiEObzuDB7SfI4pkVDRo1QjYvL6vYu5kefS6LBAxGgALLYCg5kbUQoMAybKTlN1mP/Z5hx4rDiHgeA59y5VCmVSs4Z8tm2A9xNhIgARIggXQlIELryeXLOP/bbwi4eRPZfNxR96N34OGVmf9xAgAFVroeT5N83FQCK/lmjhw8iL9OnUJkZATyFvNBhTol4Z7VFXb2dpDrvpbQpLREbEwcQgOf4+zBK7h08iYc7B1UxlWV6tXh7Gxd2WeWEFPugQReRYACi2eDBNJIgAIrjcBe011+s3H9/F3sX38CGT2zoUiDBshbuTLsWJvAcJA5EwmQAAmYGYHIkBBc3rIFtw4eQGZXO1T5oDx85EqhrXVfKaTAMrODaoTlpIfAkv9Q+OjhQ5z56y/c8/NDWFgIfAv7IG9xH2T19oCreyY4uWTUnEQWaRUVHo2w4HAEPg3BncsPcPvyA9hlsEd2b2+ULlMG+QoUgK2tddb/MsLx5ZQkYBYEKLDMIgxchJYIUGAZJlryouC1s3dweOsZOLh7oezHHyN78eKsb2UYvJyFBEiABMyaQHxcHO4cOoSLf2yAc8Z4VGv8lqqPZc3XxCmwzPrIGmRx6SGwEhceHR2NB/fvq/pYfn5+eBbgj0yZHZElhzs8vNzg5ums6mSJzMqYyVG9IGprZ/PPtbt0TNSSF6nj4uIRGx2rXqaOCItEaFA4pPSEiCt57Cfk2XO4uroht68v8uTLB988eVio3SAnlpOQgPkRoMAyv5hwRWZOgALLMAG6f+Mx9q0/gXiHzKjctSvcc+c2zMSchQRIgARIQBME5Erh3WPHcHb1anh62uP9z6rCMZP1FlimwNLEsX2jRaanwEpcuBR5Dw4ORsDTp/C7exd3bt9G4LMA2Dvaw9HJHvYOdup6ocgreTTnn9Kj6WWwEiAPTyfEJ0Ckd0xMnBJZUZExiI6MgatrZiWtRFhly54dbm5uLNL+RieUg0nA/AlQYJl/jLhCMyNAgfXmAZH/erZ7zTE8vBeCKt27w6to0TeflDOQAAmQAAlojkB8bCwub92qMrFKVsyHak3e0tweDLVgCixDkTTfecxBYCXSkSt4cr1QxFBERMQ/2Vm3buHWjRsIDQ01G4i2tjb4Z60Jak2Spenh4YHyFSuiWIkScJCHfpRoSy/JZjaouBASsAoCFFhWEWZu0pAEKLDenOalkzewb/1fKNGsmap7ZWtv/+aTcgYSIAESIAFNEogKDcXRuXPx6Px5tOhaB955rPMRDwosTR7fNC3aXASWZGHJlcKY6GgEBgbi7p078Lt9G0+ePkFCQrzKwLJ3tINbVhd45fZE9txZ1J+nV4t8HqUe/Hl48ykCHgUjOipGZWI5OmRUVwbzFyiAHD4+cHJyUkLLzs4uvZbK75IACRiZAAWWkQFzessjQIH1ZjGNiojGmhnbYefhjbc7dkRmH583m5CjSYAESIAENE9A5NWhmTPhncsN77erpq4xWVujwLL8iKeXwIqLi8Pz588RFhKCkNBQ+D99iiePHuHxo0eIiAhHRhdHZHLNCOfMTkpUycug7tlc4ejkYHZBkeuDzx4Gwf9hMIKfhiIsOALhoRGws3VADm9v+Pj4JF0nzPzvlUJmZ5ldGLkgEtCbAAWW3ug40FoJUGC9WeQvHL2OA5vOoGSzZijasCGLtr8ZTo4mARIgAaMSiI6MYjN97QAAIABJREFUxLWTJ3H91CkEPHiAqPDwNH/P3sEBLh4eyFe6NIq88w7cvbz+M4dcJTwyaxaeXDyL+p9UgW8R7zR/R+sDKLC0HsHU129KgRUZEQF/f3/4P3mi/jcoKAjBQUEICQ6GnYMN3LK6KlnllsUFzm5O6g8p4C5X9rTSpA5WWFA4QgPDEeQfisDHIXj2JAQZ4jPAw9MTnp6eyOrlhRw5csArRw5kypRJK1vjOkmABF5BgAKLR4ME0kiAAiuNwJJ1l/oFK6dsQWSMHWr26YPM3tb3Lyj60+NIEiABEjAtAX8/Pyzs3x+XDh1CSEAAoiMiEBcbm+ZFSH0aO0dHJbF8ixdHi969UbZOHdi+dM3H/9o17B41EqUqF1K1sKwta4ICK81HS3MDjC2wngUE4N7du7jn56ekVUR4OCKjohAfFwtXT2dky+WBbDk94OqRSRVtl5cG7RxsNccxpQXHxsSpwu7yx7PHwXh0OwBP7z1DbEyCepFQ5FX27NmRN39++ObNS5llEVHnJqyRAAWWNUade34jAhRY+uPzfxiENdO3I0ep0qj23Xf6T8SRJEACJEACRiVw88wZDKhTB+EhIShZowaa9eiBYlWqwNXTM83flayte1euYNu8edizZIl6z6znL7+gaqtW/5lrc58+cHNOQN2PK8PFzbqyJSiw0ny0NDfA0AJL6liJrLpx9SpuXL+OkJCQJCZy/S9HnizwKeCFHL5Z4JjJ/K4DGjuAcXHx8L8XiLtXH+He9SeICo9SnxSpnsvXF8WKF0fBQoXg7JJ+9b2MzYDzk4ClEaDAsrSIcj9GJ0CBpT/ii0evY//vJ1D20zYoXK+e/hNxJAmQAAmQgNEI3Lt8GRPatMGj27fRZuhQvN+lC+Qa4Js2ee3s/P79WNSvnxJagzdsQOmaNV+Y9uSvvyLg7HHU+rASfPJZVzF3Cqw3PWHmP96QAkte5rtw7hy2btpk/hs34xWWK18etd57j4XfzThGXBoJJCdAgcXzQAJpJECBlUZgybof3PgXzhy8jLqDBiNroUL6T8SRJEACJEACRiEg2VLLhg/Htjlz0H70aDT6+muDf+f0zp2Y0rEj3LNnx4ht25A5a9akb9w6eBDnli1GjeYVUbC0r8G/bc4TUmCZc3QMszZDCixZ0dMnT3D29GnDLM5KZ5FXDAsVLmylu+e2SUB7BCiwtBczrjidCVBg6R+AbcsO4vrZu2g6bRqc3N31n4gjSYAESIAEjELgzoULmNa5MzK5uWHoH3/AzgCZVy8vVDKx5vfujW1z56qrhNVbt07q8vTqVewbOxrVm1ZAiUoFjbJHc52UAstcI2O4dRlaYBluZZyJBEiABLRBgAJLG3HiKs2IAAWW/sH4Y/5e3LnyAK0XLoTNS8V79Z+VI0mABEiABAxF4MSWLZjcoQPajRyJBl9+aahp/zOPvGzYq3JlNOzSBV2mT0/6eciDB9jSvx+qN34LpasWMdr3zXFiCixzjIph10SBZVienI0ESMD6CFBgWV/MueM3JECBpT/A3+fsht/1R/hkyRL9J+FIEiABEiABoxH4c9UqTGrbFiN27PhPfSpDflSuKrZ0cUHl5s0xcN26pKnDnjzBxl691CuEZasVNeQnzX4uCiyzD9EbL5AC640RcgISIAErJ0CBZeUHgNtPOwEKrLQzSxxBgaU/O44kARIgAVMQ2Lt0KSa2bYufjh5FkUqVjPrJRhkyoELDhhi+eTMFFgAKLKMeN7OYnALLLMLARZAACWiYAAWWhoPHpacPAQos/blTYOnPjiNJgARIwBQE9q9YoQTWuH37ULxqVaN9MjYmBk0dHFCpSRMM2bCBAosCy2hnzZwmpsAyp2hwLSRAAlokQIGlxahxzelKgAJLf/wUWPqz40gSIAESMAWBI7//jknt2uG7X35BlQ8/NNonH9++jU4FCqC2fGvhQgosCiyjnTVzmpgCy5yiwbWQAAlokQAFlhajxjWnKwEKLP3xU2Dpz44jSYAESMAUBC4dPoypX3yBsnXrvlBc3dDf3jZvHmZ37472o0ej+fffU2BRYBn6iJnlfBRYZhkWLooESEBDBCiwNBQsLtU8CFBg6R8HCiz92XEkCZAACZiCQPCTJ5j97bf4a/t2TDt9Gtnz5jX4Z4P9/TGwbl08e/AAY/fuhW+JEhRYFFgGP2fmOCEFljlGhWsiARLQEgEKLC1Fi2s1CwIUWPqHgQJLf3YcSQIkQAKmInB4/XrM6dEDWXPmRPe5c+FbvDhsbG3f+PMJCQlKWq0aPRp7lixB0x490HbEiBfm5SuEZzB16lR4enq+MW9OYH4EKLDMLyZcEQmQgLYIUGBpK15crRkQoMDSPwgUWPqz40gSIAESMBWBqPBwbJo5E8uGDkW+smVRp107lKpRA15588LRySnNy5CC7cFPn+LKsWP4c9UqnN21C5WaNkXnSZPg7O5OgfUvAb5CmOajpbkBFFiaCxkXTAIkYGYEKLDMLCBcjvkToMDSP0YUWPqz40gSIAESMCWBiLAwHN+4EcuGD4dcK8yWOzcyubnBzt4+zcuIj4uDSLGABw8gf96gc2c07NIFnj4+/5mLGVjMwErzAdPQAAosDQWLSyUBEjBLAhRYZhkWLsqcCVBg6R8dCiz92XEkCZAACZiaQEJ8vMqc2r9yJQ6uWYM7Fy/ieVBQmpfhmCkTsubKhUqNG6N227aq5pWtnV2K81BgUWCl+YBpaAAFloaCxaWSAAmYJQEKLLMMCxdlzgQosPSPDgWW/uw4kgRIgASsgQAFFgWWJZ9zCixLji73RgIkYAoCFFimoMxvWBQBCiz9w0mBpT87jiQBEiABayBAgUWBZcnnnALLkqPLvZEACZiCAAWWKSjzGxZFgAJL/3BSYOnPjiNJgARIwBoIUGBRYFnyOafAsuTocm8kQAKmIECBZQrK/IZFEaDA0j+cFFj6s+NIEiABErAGAhRYFFiWfM4psCw5utwbCZCAKQhQYJmCMr9hUQQosPQPJwWW/uw4kgRIgASsgQAFFgWWJZ9zCixLji73RgIkYAoCFFimoMxvWBQBCiz9w0mBpT87jiQBEiABayBAgUWBZcnn3JACKy4uDo8fPbJkXCbbm4enJ5ycnEz2PX6IBEhAfwIUWPqz40grJUCBpX/gKbD0Z8eRJEACJGANBCiwKLAs+ZwbUmCFhYbi52nTLBmXyfbWtGVLFCla1GTf44dIgAT0J0CBpT87jrRSAhRY+geeAkt/dhxJAiRAAtZAgAKLAsuSz7kxBFahMnmQr3hOS8ZmtL0FPgnBid0XQIFlNMScmAQMToACy+BIOaGlE6DA0j/CFFj6s+NIEiABErAGAhRYFFiWfM6NIbAqv18WFWqXsGRsRtvb/ZtP8NusnRRYRiPMiUnA8AQosAzPlDNaOAEKLP0DTIGlPzuO1I1AVHg4EhISYO/oCFs7O90GmUuvhARERUYiPi4Ojk5OsLG1NZeVcR0kYDICFFgUWCY7bOnwIQqsdID+mk9SYJlXPLgaEtCFAAWWLpTYhwSSEaDA0v84UGDpz04LI2NjYvDwxg0lYBKbvYMDMrq4IHOWLLBzcDD6NoY1aoTnwcFoPXAgKrz/vtG/Z8gPiHyb2bUrbp07h69nzkSxd9815PQmn+t5UBD879+Hi7s7PHLkoJAzeQS0+UEKLAosbZ5c3VZNgaUbJ1P1osAyFWl+hwQMR4ACy3AsOZOVEKDA0j/QFFj6s9PCyGcPH2L8p58iIiQkabkZnZ3hnj07ClWogFqffYYsOY1bp+PLIkUQFhiILtOno3rr1lrAlrTGyLAwDG3UCFePH8fgDRtQvl49Ta3/5cUe27gRy4cNw9uNG6P5d98hk5ubpvfDxZuGAAUWBZZpTlr6fIUCK324v+qrFFjmFQ+uhgR0IUCBpQsl9iGBZAQosPQ/DhRY+rPTwsgnd+6ge9myiImKQsnq1ZHBxgb3Ll/Go1u34JgpE95t3hy9ly416lYosIyKN02T7/n1V0zr3Bm127XD5+PGwdXTM03j2dk6CVBgUWBZ8smnwDKv6FJgmVc8uBoS0IUABZYulNiHBCiwDHIGKLAMgtFsJ0kUWA5OThi4bh18S5RQ2VDrJkzAltmzkSFDBiy+dw8e2bMbbQ8UWEZDm+aJoyMiEB4SAjkPTi4uSmiykUBqBCiwKLBSOyNa/jkFln7RO3XoHE4cOI2YmBj9Jvh3VEICkNM3B+q3rAUXV2dQYL0RTg4mgXQhQIGVLtj5US0TYAaW/tGjwNKfnRZGJgosybYavmUL8pUpo5Z9eudOTP/ySzy+fRuTjx9H4YoVkRAfj8jnzxEeHIwnd+/i2aNHqnC5T6FCyJorFxwyZvzPlqMjIxHi749HN2+q2kpSX0uuJOYsVAgunp5KkKUksKQmV0hAAGIiIpDJ3R3OulxlS0hA6LNn6ltS10vqeOUvVw7u2bK9UMtLCsYHPniABEDV+YqOioJweHj9OjJnzYrcRYsic7Zsam3Jm2SpBTx4AL+//4bsK1fRonD18MC4Tz5J0xVCmSfoyRM8uHoVwf7+6pqed/788ClY8D/CSISS/7178Lt0CVEREWpt2fPmRabMmYHE9SUk4HlICMKDguDs7q7mkP3cv3IFWXPnhqe3t6pl5enj85/4yBXI0IAAOGXOrMZKTa9Qf3/FztnDAzbJBJasW2pkPbh+HQH37ys+njlzwqdAAXXlNLHFxcYi7Nkz3P37b8gVVZGfwkpqalGIaeH/FdK+RgosCqy0nxrtjKDASlusYqJjcGDHUUwf8QuCn4XA1k6/x03i4+MRFvI86ePL98xCgWJ5KbDSFg72JgGzIECBZRZh4CK0RIACS/9oUWDpz04LI1MSWCKPDq5Zgzk9eiAuLg7zr19XRb2DHj/GmnHjsG/ZMlV0XYSVCA8RME179kSrvn1feEVQZNLmn3/GzoULlQiT/iJERMR80K0bOowera4ppiSwzu/fj9ndu6tvfjFhgrrSllq7cvQolg0bBhlrZ2+vJJNIsrY//og67drB/l/BJhLu61KlEB8biw/79MHFAwdweP16SEF7ESxlatXCt/PmIXu+fEmflKykzbNmYcOUKUrIyYuJwqlio0ZK1Dy+dUunGljy7W1z52Lt+PFKtkm9MeERFxODlf7+SiIlNsmEW//TT9g+bx4i/ldrS8SbSCSpS9Zm6NCk9amxo0Zh+fDh+OCbbxATHY29S5ao//UtXhyBDx8qgTf70qUXRKAIyZUjR2L5jz+i7YgRaP7999i/YgUmf/456nbogE6TJiVdIRSZuHfpUpWVJ1dMRUTKnLL2d5o2Vdl70oT5ic2bsWLECNy9eFHFV34tb8mSar5SNWumFkb+XIMEKLAosDR4bHVeMgWWzqgQFRGFrWv3YOHUlXDzzIyPvmgCL++suk/wb8/YmFgc2HkMfyzfDltbG0RFRoMCK80YOYAEzIYABZbZhIIL0QoBCiz9I0WBpT87LYxMLrCGbNwIL19fXDl2DBumTYMIoea9euHTIUPUViSrSSSJZF3lKVVKyRfp++fKlUr+TDlxQgkTaSK+5vXsia1z5ypxValxY/VCn0gPyd6RjJzKzZsrEfKywLpz8SKmduyI+9euodl336k/5Drb69rTu3cxsnlz+F2+jBqffIJilSurLKTfJk1SmT/fL1qEEtWqqSmUwCpZUokoEUYioio1aaKymkS+iJASsSU1oBLbllmzMLtHD7hlzYo67durLCh/Pz/sW7FCZXzJHnUp4i5ybVLbtkpefTRgALLlyqVkoMzRfvRodXUvsa348UesGj0aBcqXR42PP1bsdi1ahNvnz6Nl795qvIg0EVgrRo6E9JdsK5GKUoRd1uiVJw82zZiBm2fPos/y5YpNYhMOPStUUIKp5y+/oHStWko2TunYEXXbt/9HYEmGWmQkts6Zo+aXtVZu1kzVSxM5FfjokZJcjb7+Wk0r+/v5m29U5lWT7t2RzdcXlw4fVkJU/nzCgQMvSDot/D3CNaZOgAKLAiv1U6LdHhRYusUuODAUK+b8hvVLt6JA0bzo3KsNSlcsnuYMLMng2vbbXvw8eiE8s3kgXyFf7NywnwJLtzCwFwmYJQEKLLMMCxdlzgQosPSPDgWW/uy0MDJRYEkmTZ4SJWBrb6+khK2dHRp3747an32mJIa0mMhIdW1QpI9kZEl7cO0axrZujRunT6PPihVKtEj7+9AhDKhTR107FOEjGT5yzUyuncVGRytppK4cvnSFsEilShj38ce4eeaMygKScW7ZsqWKcunQoVgzZgyKVK6MgWvXqjFy/W5Gly7Yv3KlelGv3ahR6ipdosCSrDDJsuoydaqSW3aOjlg9erSq/5WnZElMPXlSfVfk2KiWLXH91Cm0HjgQrfr1U/JOeFz76y9M7tBBySxdBJZkMC3q109lrc25dElJIMmskjU5OTsnXQu8dfYsBjdooDj1mD8fFRo2hK2tLa7/9Re+r1xZycDus2crEZhcYMl8X02bhnf+FXIy99wePbB9/ny81aCBWqPEVtqh337D2I8+QpUWLdBlxgy4e3mlKLBEOA6oW1dlXokAk4y4xJcp5duS6SU8woKCsHTwYJWlJQLwk8GDVdabjB/TujUuHz6MXkuWoFabNqnGkx20RYACiwJLWyc2baulwEqd15NHAZg3YQm2/7YP5SuXwrdDOyFvwdywsU1bHUXJvJIMrnmTlqqxI2b2xdULNzC+/0yLFVhSI0z++Z78yn7qxNmDBLRFgAJLW/Hias2AAAWW/kGgwNKfnRZGJgqs8NBQJTCCnz6F1DBSWVNNm+LLyZNVVs+rmtTDGvbBB7h48CC6zZmD97/8UnUVoSQZO5IF9P3ixSpj51UtMQPr02HDVAbUqa1b1VWz/mvWqBpVqTURVcMbN8aZ3buV8Pqof/+kIXIlbmLbtqj56af45ueflThKFFiy126zZyspI2JLmlzvW9i3r6qFNe/aNfVrR37/HTO7dkXwkyeYe+UKvAsWTJpfrvYNa9gQV0+c0ElgHVi9WmUoSS2phl274uOBA1+oH5U4sUiguT17IquvL6adPKkEkWoJCeiYP7/K1BKxJeItucBq1LUrOk6Y8P/9Afy1fTuGN2miMtHkql+hChXUVL3efVdd82s3ciQad+um5FlKGVhnd+/GwPfeUxlqwzZvRvEqVVIMidTGmvL557h46BBmnDmjhGhik6yuPUuXqmy6ThMnphZS/lxjBCiwKLA0dmTTtFwKrNRxzR77KxZPXwWpWyUyxt7hn/9Qok+LjY1DNu8s+Hn1OHj7euH3pVsxts90kwmsvy9exNxZs+Dh6YkB8h9i7O312cZrx0iW+m9r1+LXRYvw5MkTZHZ1Rc3atdGzVy84J/7z3uBf5YQkkH4EKLDSjz2/rFECFFj6B44CS392Whj5cg0skQ7HN2/G2gkTVGHynAULYtSuXaoAuPzGVKSPZAcdWb9eZR1JMXK5cidSKLnA+unzz7F70SLkK10aP27dmmIB8UQ+IrCkOLpkTT178EBlJU07deqFGlSvYyl7GPPRR2q9r2pvf/CBklWSOZQosCS76Ydly5KuFsrYHQsW4Jc+fVRx9nnXr6vp5Prgov79VUbXuufPX6jzJUXQhzZqpHMR94jQUEzr3BnHN21S6xCuDTp1Qu22bZGjQIGkwvEL+/XD+kmTlExMqUlh9J4LF6LC+++/ILBE4LXs00ddzUxskvHWtWRJlQklGWQf9eunMrl6VqyoJFO/VavU65PSUhJYwmRqp04qltJXsr5SapI1N6ZVK1Xk/VWtWuvW6LdypRb+1uAa00CAAosCKw3HRXNdKbBSD9nMUQvx64zVyFfYFzY2Lz6Akvro/+8RFhKOxw+eYvLSEXi3zj//sWX9ki0mFVhHDh9Gv969kS17dixftQoOyf55mpa9vKqv/F5q9cqVmDZ5suqSI0cO9furfP/7PcDwkSORWR5pYSMBCyNAgWVhAeV2jE+AAkt/xhRY+rPTwsgUXyFMSFAZRdO/+kpd5ZPsnC7TpytxJZlVJ7duRYGyZeFbsiScM2dWV9Hkml1ygTWxXTtVSDx/2bIYtXOnymh6VROBJeNF5sj1RSnA/u38+ajctKm60phau3flCsZ/8om6xihX63IXK/afISJqpBC8ZHSlVWBJ4fqVI0aoLK01QUH///qf1NNKo8CShUn9K7nSJ5lmt86dU39d8K238PXMmZArlNJmdeumruLJ64tSJP3l1/skI+u9zz9XfJNnYKUksNS/AEyahPm9e6ui893nzMHqMWNUgf16HTuquCVmoKUksCQrTc6CZG79sHy5ekEypXbt5EmMaNZMxbBKy5ZwcnX9TzeRYE2+/Ta1kPLnGiNAgUWBpbEjm6blUmCljitRYO27sR5Omf77InHqM/zTQ2pdDeoyFnM3TESZt//5DytaFFgB/v4ICgqCq6srvJK90iv7CQkOxtDBg7F75050/uordPn6a0RFRSEwKAg+Pj4qg42NBCyNAAWWpUWU+zE6AQos/RFTYOnPTgsjUxRYgHpdTgqpS/0oKcw++fhxrBo1ShVFL1u3LjqMGYPcRYuqAt/qCuGBAy8IrMUDBihJ4lOwIPquWoWC5cu/EkfiFUJ5BU+E2YH/vYDonT8/Oo4fr4qrJ8qVV00gV/tGtmih6m69XHw9pTFpFVgiemQ/Mm7F06cvFCGXK4RDGzbENR2vECauR2pTPbpxA+f27cMf06bhzoULqNiwIYZu2qS6CGspmO+VNy/G//mnuv73qqaLwBKp1KV4cXUNUBjJnqTgvWTXlU72MmBKAkuuIEo9LrlKOmTDBhSqWDHFpUjx/fGffqquJY7Zs+e110a18PcG16g7AQosCizdT4v2elJgpR4zCqwXGf08YwZOHDuGOnXr4rP27V/4oZ+fH4YNGoQTx49j0dKlKP/WW6kDZg8S0DgBCiyNB5DLNz0BCiz9mVNg6c9OCyNfJbCe3rmjro2d3rULRd95BwN/+w2zv/0Wh9auRa/Fi1U2k7SwwEBVf0rkkdSYkrpO0k7v3IlB9eqp64BS9Fyurb0qmyrpFcJp01C8alVMbNMGFw4eRN5Spf4psF69etLVupSYSur9z19/rbKachYujKEbN8K7QIFX4k+rwDq6YYMqBi/XJeX6W9VWrZLmlquAEz/7DDFRUTrVwHp5UfJ647rx47Fy1Ch1hfKXW7dUIdcL+/erq4ny5+3HjMEH33zzRgJLBss6RUhKXTJ5JVAE5MQjR164bpiSwHp86xb61qyJgHv3lPySYvgvZ4TJ/MJn3nffYd/y5Uo8Dv7999fGTQt/f3CNuhGgwKLA0u2kaLMXBVbqcTNngSX/wUiaPCKjft8SFob79+6pP8+TJw8yJnv9V34ttSuEERERePzoESIjI+Hl5aVqZSXOLePle999+y3+3LcPn7Rpg959+77w/Zs3bmDY4ME4c/o0Vq5di2LFi6f4z8ro6Gg8fPAAwcHB8PDwgE/OnClmZyXfn/x+6OmTJwgICEDhIkVg9++jLdIncY2S7eV3966aK1fu3Ek1vmJjY/Ho4UOVOSa/7v7vYz2pR589SCB1AhRYqTNiDxJ4gQAFlv4HggJLf3ZaGJkosGwdHFRR8Bz/e5Xv0a1b2DZvniqoLkXDPxkyRL1I+MsPP6gaSSWqVlWy5nlwsMqy2rd0qcrYat6rl8qaUi/p/O9lvX61auH8n3+qFwulWHn9zp1h7+gIuWoW+PAhytevr66ZJQms6dNR/X81kiLDw/FDlSq4efYsCr31FvquXPlaISWc5XqjfC88JATl6tVD50mT4PPvVbeHN25AhJxcL8zo4pLmK4RScH1Q/fqqzpXMKYXts+fPj92LF6sXC2Wvsi9dXiHc/euvSgTV69QJrp6eSgDKdcFD69apzLYR27YlHZsRTZvi2MaNyObriw5jx6qrhHK9MiIkBFeOH0euIkVUnTBdMrBk0tM7dqhMqsTf7Pb69VdVeyt5S0lgSWxXjxqFVWPGqK4iJFv26gVHZ2fcvnBBvS4o50Pan/+L1ZwePZTMkuuJn48bpzLW5DVKqbsVEhCAtxs10sLfGlxjGghQYFFgpeG4aK4rBVbqITNngSX1rLZs3ozmLVuiQsWKmDp5Mp48fqw25e3jg159+qhMqcSre68SWH+dOoXFCxcqMSWiSJr8fqdBw4aqdpXUyhI51b9PH1z6++//QFvz+++4ef06+vbu/Z+fVatRA4OGDFHrkVcJd+3ciZnTpinRJE3kU8GCBdGjVy9UfvfdJDElPx8ycCBOnTyJOQsWqHEbfvsNUiR+1/79qiD8jGnT8OvCheg7YICSYKN//BGP/91/6bJlMWvuXISFhmL82LHYv3cvRGRlzJgR3/bsiU/btuXriKkff/bQgQAFlg6Q2IUEkhOgwNL/PFBg6c9OCyOVwCpXTomUxCa/IbPPmFEJFpE+vZcsUdf45EU/uUrnf+8ebOzs1G9qsvj4wCtPHvXynIOjo6qX9WHfvkpayLW1CW3aKPEjV+3kZUPJ3JGi4nXatVNyQ2pjvSywZB1yDU1errt26hRK16oFkS2vew1RxkhheSl+LnuSJjW1YqOiVOH5yi1a4KspU9RVvKQMrPh4/LB0acpF3D09k14hlLnkWqNkF0mR+UQBJDJMstOkhpXf33+r63Uiz17XpBaVZFuJaMuaK5diIey9fH3Re9mypBcCZQ6Zd3KHDuqFR+nvmiWLqokla5AXI7vPm4eydeq8ILDkRcEWP/zwQlZV4nqe+vlhVIsWSiDKt+WVRYlJ8paSwJKfi9RcOmSIEmry8qStnZ2SdpJ5VrhiRUw8fFhNI4XuN0ydiq1z5kC+J31krfLKpRSwl7h/O2+eFv7W4BrTQIACiwIrDcdFc10psFIPmTkLLBFGWzdvhm+ePIgID0cmZ2e4uLggNDQU9/z8lNQRASVyS0QJhUghAAAgAElEQVTRqwTWL/Pn4/d161TGlbe3t6pbdfr0aTwLCMBXX3+Nb7p3x4P79zFr5kzs27tX1brKmi0bcubMqQCOHDsWD+7dw08TJyox9fx/ZQmKFC0KJycnlC1XDu0//xyeWbJg5fLl+GnCBDhlyoRChQopqSX9r1+7pv7ZO3DIENRv0EDNeffOHQwdNEgJrDLlyuHGtWuqvwion+fOhaODwz8Ca9EidVXxwvnzyJkrlyoUL1lokqlVpWpVSI6aSDepwSWZX1evXEHevHkxdMQIvPXvy8WpnwL2IIFXE6DA4ukggTQSoMBKI7Bk3Smw9GenhZEiT6SuVVR4eNJyJctHZIkUPi9ZowacXFzUz0RAHP3jD5zbs0dlX2XNnVtl00gWkEiLoMePUbxKFSUpRGBJE5kk1w6lWLl8Q4SJh7c3ytSpg1I1aqi/XjN2rPrZuy1aqKLk0uSFwMtHj+L4xo2IiY7Gu82bvyCaXsX2+qlTao1SX0rqc8kVRpFW8q3StWvD0clJSaO148crEVWrTRvkyJ8/aborx44pSSNF0j/q3z/p16WvZKRJAXsRYiJmpCB5rc8+w+F/i9i/17Gjyop6Xbt97pya4/7Vq0rq2Tk4KHlVuVmzFGtLhfj7q/lFOonQkt+8iljMU7KkuqYnIkpYyZXNv3bsQIWGDVGmVq0U64ZJJtWxDRtU9la+MmVQ96W6HLJuKd4volKklGR8Cb/EJq8YHvn9d9VH4iVrFzlV+O23UePjj5P6Cd8zu3fjzK5d6uVDWZ/Ivmy5c6NM7doolazmlhb+HuEaUydAgUWBlfop0W4PCqzUY6cFgSUF1Rs3bYomzZrB19cX12/cwIQxY3D+3Dl8Jv9x5bvvlPh5lcAS+RMeHq5kk2RbicCa8tNPWL1ihRJNK9etSwLVs3v3V14hvHHjBob/e4Vw1bp1KFqsWNL1vls3b6LtJ5+oedq2b4827dr9I9tCQjBvzhwlt0S4LVu1SmVXJRdYLq6u6PTll6j//vuqeLz8ERUZmSSw5Pd2jT74QNXkkquTixYswMIFCyBXIvMXKICOnTqhVp06Sux9+tFH6vdekp3W4sMPUz8A7EECqRCgwOIRIYE0EqDASiOwZN0psPRnZ4kjReTIy3siMDK5uSVl8MhfS2aTiCv5TVLyJqn2Ir8kW8fewUHJDBExxmpxsbHqeyJSRDTJNcXUCsHruhaRYpINJfJGXmBMqRaULnMJK2EmdcFEEL6OhzBXfMPC1D6E38uZU7p801B9ZP/CQeKs1v6KlyIlDnL9UuIv4lCJ0H9rkBhqLZzHPAhQYFFgmcdJNM4qKLBS56oFgVWrdm2VaeXu4aE2JP9s2rB+vapHVbxECcyZPx+Z3dxSrYGVnMaqlSsxeeJEJZl27duX9COpgSXX8T797LOkGliJP0xeA2v1b78pgZXY5s6ejRlTp6J0mTIYPW6cyhpLbBcvXMDwIUNw5fJlzJg9G9WqV39BYH3eqRO+7tYNjo6OSWMiIyKSBJZkbQ0YMkTV05K2Y9s2jBoxAiH/y/CeNHkyqtesmXQ1sX2bNiojq2evXmoPbCTwpgQosN6UIMdbHQEKLP1DToGlPzuOJAESIAFrIECBRYFlyeecAiv16GpBYH3YujWGDBv2wmZOnjiB7l27qkLu6zZsgKen52sFltSHOnTgAM6fP6+KpYvkuXb1qrpWuOfPP99YYH3fowd27diBGrVqYfK0aUlCSSaWul0jhg3D/n37lKjq8s03Lwis+YsW4e1KlV7YX3KBJcXkJdNM1SkFsHvXLjWfZHftPXhQXStMbJ06dMC5s2fR4/vv0ealWpmpnwb2IIH/EqDA4qkggTQSoMBKI7Bk3Smw9GfHkSRAAiRgDQQosCiwLPmcU2ClHl0tCKxWrVtj8EsCS14C7NGtm7rqvmHzZlWDKqUrhJKtdfjQIUwcNw53bt+Gs4sLsnh6IjomRr3cZyiB9WXHjjh29KgqDD9u4sQXwAcHBWHk8OHYvm2bElF9+vd/QWAtXLLkP/Wqkgss6S/ZVP8RWKGh+PPwYXUlkQIr9bPOHvoRoMDSjxtHWTEBCiz9g0+BpT87jiQBEiABayBAgUWBZcnnnAIr9ehqVWAdPXJEZWDJVb1fFi+Gm7t7igJLiprL9T3JuJJMrs/atlVj1q1Zo6SWFFw3RAZWn169sG3LFlSvUQM/TZumam0lNhFlPw4bhoN//qnqdUm9q+Q1sCiwUj+n7JF+BCiw0o89v6xRAhRY+geOAkt/dhxJAiRAAtZAgAKLAsuSzzkFVurR1YLAataihaqBJS8NSouLi8OyJUswafx41KtfH8NGjlRZSCllYO3csUPVynJ3c8PvmzfD/t/aj2tWrVIvBsoVxL0HDiSB6tWzJ/bs2qVk18DBg18A+LoaWEsWL8aEsWNVTa6RY8agYKFCSWMlW2zYoEG4desWFixerF5NpMBK/Wyyh3kQoMAyjzhwFRoiQIGlf7AosPRnx5EkQAIkYA0EKLAosCz5nFNgpR5dLQis3Llz48uuXZWskoypvy9eRP8+ffD40SMMGjoUDRs1Ug+lpCSwdu3cqQQWEhIwe8ECFC1aFBfOncPsn39WV/7kBcBNW7eqDC5pY0eOxIrly/FO5coYPmoUcuTIkQTxdQLr8ePHaN2iBSIjI9H6k0/wRefOqrB84LNnmDxpEjZv3IjCRYpg0dKlqlg7BVbqZ5M9zIMABZZ5xIGr0BABCiz9g0WBpT87jiQBEiABayBAgUWBZcnnnAIr9egaS2A9exqEcX2n4+Cu41i8fRoKFsuH+zef4LdZO9G0ZUsUKVo01cX17d0bWzdvVplXIn2y58gBV1dX3LlzB8/DwlC7bl30GzAAXtmzq7lSEliJVwjPnzunZJWLszPCwsKQydkZzwICkACgVq1a6NylC4oVL45TJ06gY/v2sLW1Rd68eVWNrHGTJiFr1qx4ncCS7+/cvh0D+/VTryTKmuQPPz8/BAYEwM3NDWMmTFBiTBoFVqrhZwczIUCBZSaB4DK0Q4ACS/9YUWDpz44jSYAESMAaCFBgUWBZ8jmnwEo9usYQWPmL5MG4vjNwYOcxfNypKdp3b41MLk56C6y6772n5NW+vXsRFRkJO3t7JYK+6toVOXPlStrk6b/+wrjRo5E1Wzb1EmDidcGDBw7g5+nT8ejRI/U6YNly5dTY39auVXWrJFOqa7duKsNL2vKlS9UVRcmmsrWxwa8rVqhMLJFRUydNwsWLF/HznDnIlz//C4DlauPhgwfxy/z5qq+ILDtbWxQsXFhlZJUrXz6pEPvDBw8weeJE9SripClT1NXD5C0qKgpLFi3CurVr1auFTZo2TbpCeeTQIUybMgXhz59j5bp1cHJySho6oE8f/P333+jYqROaNGuW+gFgDxJIhQAFFo8ICaSRAAVWGoEl606BpT87jiQBEiABayBAgUWBZcnnnAIr9egaWmANndYbB3cew5G9J9GiXUN89vWH8Mjyz/U8fTOw5BXCQUOGICAgAIGBgcicObPKbkqsiZX6LoGIiAiINMqYMaOSYZJhJYJJXiaUzCzJsEqcLyEhASEhIQgKDIRr5szw9PTU5RNJfaKjo/H0yRP1TRcXF3h5eakrjmwkoEUCFFhajBrXnK4EKLD0x0+BpT87jiQBEiABayBAgUWBZcnnnAIr9egaWmBJ9tWd6/fQpmsLfPJVC3hm/UdevanAGjxsWOqbYQ8SIAGDE6DAMjhSTmjpBCiw9I8wBZb+7DiSBEiABKyBAAUWBZYln3MKrNSjmyiwSlcsnnS9LfVR/+0RGBCMO9f91BxffP8pWndqClc3lxc6vkkGFgWWPlHhGBJ4cwIUWG/OkDNYGQEKLP0DToGlPzuOJAESIAFrIECBRYFlyeecAiv16CYKrNR76tbjyx/aosO3rWFr998rc2kVWKtXrsSZ06dRqXJlNGU9J90CwF4kYGACFFgGBsrpLJ8ABZb+MabA0p8dR5IACZCANRCgwKLAsuRzToFlXtFNq8Ayr9VzNSRgnQQosKwz7tz1GxCgwNIfHgWW/uw4kgRIgASsgQAFFgWWJZ9zCizzii4FlnnFg6shAV0IUGDpQol9SCAZAQos/Y8DBZb+7DiSBEiABKyBAAUWBZYln3MKLPOKLgWWecWDqyEBXQhQYOlCiX1IgALLIGeAAssgGDkJCZAACVgsAQosCiyLPdwAKLDMK7oUWOYVD66GBHQhQIGlCyX2IQEKLIOcAQosg2DkJCRAAiRgsQQosCiwLPZwU2CZXWgpsMwuJFwQCaRKgAIrVUTsQAIvEuAVQv1PBAWW/uw4kgRIgASsgQAFFgWWJZ9zZmCZV3QpsMwrHlwNCehCgAJLF0rsQwLJCFBg6X8cNszdg7vXHuLjxYuRwcZG/4k4kgRIgARIwCIJhD5+jE29e6Nak7dQtlpRi9zjqzZ1au9FHN5CgWXJQafAMq/oUmCZVzy4GhLQhQAFli6U2IcEKLAMcgY2LdyPW3/fQ6t582CXMaNB5uQkJEACJEAClkMg6O5dbB8yGNWbvIVS7xa2nI3psBMKLB0gabwLBZZ5BZACy7ziwdWQgC4EKLB0ocQ+JECBZZAzsGvVEVw+dQsfTJgAl+zZDTInJyEBEiABErAcAg/PncPhaVNQvVkFFKuQ33I2psNOKLB0gKTxLhRY5hVACizzigdXQwK6EKDA0oUS+5AABZZBzsDxnedxYtcFVO3ZEznLlTPInJyEBEiABEjAcghc2bYNVzf/jlotKiJvsZyWszEddkKBpQMkjXehwDKvAFJgmVc8uBoS0IUABZYulNiHBCiwDHIGbl64h23LDqJwg/dRtnVrg8zJSUiABEiABCyHwIEpUxD9+BbqtHoHWX08LGdjOuyEAksHSBrvQoFlXgGkwDKveHA1JKALAQosXSixDwlQYBnkDDwPicDySZvh4pMbNfv0gb2Tk0Hm5SQkQAIkQALaJxAVGorNffsiV1531PmoMhwz2mt/U2nYAQVWGmBptCsFlnkFjgLLvOLB1ZCALgQosHShxD4kQIFlkDOQkABsX3YQfreD8M5XX8G7VCmDzMtJSIAESIAEtE/g+p49OL1sCSrVK43y1YsBGbS/p7TsgAIrLbS02ZcCy7ziRoFlXvHgakhAFwIUWLpQYh8SoMAy2Bl4fDcAa2buQP7q1VGhXTvY2FvXf2E3GEhORAIkQAIWRCA2MhLbBg9GfHgwWnR9D+5ZXS1od7pthQJLN05a7kWBZV7Ro8Ayr3hwNSSgCwEKLF0osQ8JUGAZ9AxsWrgP/gGxqNChA7KXKIEMGazsP7MblCYnIwESIAFtE0iIj8eV7dtxbs0alK5cAFUbv6XtDem5egosPcFpaJgxBJaGtm+2S23asiWKFC1qtuvjwkiABP6fAAUWTwMJpJGA/ObDO282fPhNvTSOZPdEAg9uP8X2pYeQpVgplGvTBk7u7oRDAiRAAiRgjQQSEhBw4waOLVgAm6gQNO9SB86ZM1kjCVBgWX7YDSmwIiMjsXPbNsuHZoIdVnj7bXj7+JjgS/wECZDAmxKgwHpTghxvdQQosN485DHRsTi9/xLOHr6OArXrotSHHzIL682xcgYSIAES0ByB5/7+OL18OQIuX0StlhWRv0Quze3BUAumwDIUSfOdx5ACy3x3yZWRAAmQgPEIUGAZjy1ntlACFFiGCWxo0HMc/OMv3L3pjyIN3keJpk0psQyDlrOQAAmQgCYIxEZF4dSvv+L+yeMoV70IytcoBls7W02s3RiLpMAyBlXzmpMCy7ziwdWQAAlojwAFlvZixhWnMwEKLMMFIPhZGLb+egD+D4NQtEEDlP7wQxZ1NxxezkQCJEACZksgLioKB6dPx6ML51Hi7QKo/H5ZODo5mO16TbEwCixTUE7fb1BgpS9/fp0ESED7BCiwtB9D7sDEBCiwDAs8OCAMO1ccgv/jUPiUK49ijRrBzceHIsuwmDkbCZAACaQ/gYQExERG4tmtW+raYNijByhSLg/eqV8GTi4Z03996bwCCqx0DoAJPk+BZQLI/AQJkIBFE6DAsujwcnPGIECBZXiq4WGROLn7Am6cvwc7Vw/kefddZC9eHG45c8IuI/+lxvDEOSMJkAAJmJZA9PPnSlw9OHMGd48dQ0aHBBSrkA8l3ylk9ZlXiZGgwDLtmUyPr1FgpQd1fpMESMCSCFBgWVI0uReTEKDAMg7m6MgY3L36EJdP3oTfjSdwyeEND19feObLB/fcueGcLRscXV1ha2+PDDY2xlkEZyUBEiABEnhjAgnx8ZD6VpHBwQh9/BhBd+4g4NYtBN29i/iIUOQrnhNFyuWFT34v1j5MRpsC642PntlPQIFl9iHiAkmABMycAAWWmQeIyzM/AhRYxotJfHwCIsOj8PhuAP4+cQN+1x4BNnYqC8vWwQE2traUV8bDz5nTgUBwcDACAgLgmzs37Ozt02EF/CQJGIFAQgJEYsXHxiI2OhqxERGwsUlAkXL5ULhcHmTJ4Q6HjA7IkMEI39bwlBRYGg6ejkunwNIRFLuRAAmQwCsIUGDxaJBAGglQYKUR2Bt0jwiLUllZ928+hv+DQISFRCAmMgYiuthIQPsEEnDlylWcP3ce9eq9h8xubtrfEndAAgBsbTPAMZMjXD2c4ZXTE7kLeyNXgeywtWP27OsOCAWW5f/tQ4Fl+THmDkmABIxLgALLuHw5uwUSoMCywKBySySQDgSePQ3ExIGzsHvjAXz5Q1t88f2n6bAKfpIESMBcCFBgmUskjLcOCizjseXMJEAC1kGAAss64sxdGpAABZYBYXIqErBiAn8dPocBX45GYEAwvHNnx687piOzu6sVE+HWScC6CVBgWX78KbAsP8bcIQmQgHEJUGAZly9nt0ACFFgWGFRuiQRMTCAhIQE/DZ6N1Qv+SPryD6O/xoefNzbxSvg5EiABcyFAgWUukTDeOiiwjMeWM5MACVgHAQos64gzd2lAAhRYBoTJqUjASgmEBoehxTsdIf8rMitDhgzInd8HS3bOREYnRyulwm2TgHUToMCy/PhTYFl+jLlDEiAB4xKgwDIuX85ugQQosCwwqNwSCZiYwILJy7Fy7u/I5p0FNy7dRsXq5XDu+N8Y9FNP1Gte08Sr4edIgATMgQAFljlEwbhroMAyLl/OTgIkYPkEKLAsP8bcoYEJUGAZGCinIwErIxD0LASf1uyC7DmzoczbJbBi7nqMnT8Iw7+diEo138LQab2QydnJyqhwuyRAAhRYln8GKLAsP8bcIQmQgHEJUGAZly9nt0ACFFgWGFRuiQRMSGDtwo3q9cGO332KzG4umDx0DtYeXoCZoxbi6oUb6D/hW1SsVtaEK+KnSIAEzIEABZY5RMG4a6DAMi5fzk4CJGD5BCiwLD/G3KGBCVBgGRgopyMBKyIQEhSKHzoMx+XzN7Bi72z8uf0IJg+Zg3WHFyDwWTC6tx6A1l80VXLLMaODFZHhVkmABCiwLP8MUGBZfoy5QxIgAeMSoMAyLl/OboEEKLAsMKjcEgmYiMCejQcxYcBMVK9fGf0mdMeq+RuSBFYWL0/06zwKYcFhGDT5O+Qr7GuiVfEzJEAC5kCAAsscomDcNVBgGZcvZycBErB8AhRYlh9j7tDABCiwDAyU05GAlRCICI/EpEGzsGvDn1i652fkyuONlfN+TxJYPnlyYNu6vRjXbwb6jeuG+i1qwcbGxkrocJskQAIUWJZ/BsxZYMXFxSEmJgbyv3GxsYhPSFCv5EL+N51Ck+Hf72awsYFNhgywsbWFnfxhbw9bW1v1gi8bCZCAdRGgwLKueHO3BiBAgWUAiJyCBKyQwOVz1zG691TkzpcTo+b0UwSSC6xc+Xxw6+pdjOj5E7xzZ1dZWE6ZMlohKW6ZBKyTAAWW5cfd3ARWZGQkggIDERIcjICAAAT4+yMkJARhISGIjIpC7L9CS4msdGoiquzt7eHg6AgXFxe4Zs4MzyxZkCVrVri5ucHDwwOZnJ3TaXX8LAmQgKkJUGCZmji/p3kCFFiaDyE3QALpQuDJQ3/s2XQQJd8qhpLli6QosCIjonBw5zHExsSiTpPqsLe3S5e18qMkQAKmJ0CBZXrmpv6iuQis4OBg3LpxA/fv3cPTJ08QHBQIG7sM8MiWGS7uzsiUOSMcnRxgZ2cLGzsbZED6ZTrFxcUjLjYO0ZHRCA+NwvPgcAQ+DUF0RCxcXF2RzcsL3j4+yJc/v5JazFw29anm90jAtAQosEzLm1+zAAIUWBYQRG6BBNKJQEx0DGzlXwj+vRr4cgaWLCsmJlb93NaW1wfTKUz8LAmkCwEKrHTBbtKPprfAiggPx18nT+La1asQiWVjB/gW9kbeYjnhkc1VSSt7BzvY2dspcSXX9jLYpJ+8kuBI9ldCfAJEZMXGxCE2OhbRkTEIfhaGu1cf4tbFe4iKiEXmzJmRN18+VHj7bbi5u5s0rvwYCZCA6QhQYJmONb9kIQQosCwkkNwGCZgBgZQElhksi0sgARJIBwIUWOkA3cSfTC+BFR8XhyuXL2Pv7t0ICwuFs6sTylYvhuIV8yOjkyPSMcHqzSKQAMTFx+P6ubs4tecinj0OVrWxqtWogfIVKsDWjlnMbwaYo0nA/AhQYJlfTLgiMydAgWXmAeLySEBDBCiwNBQsLpUEjEyAAsvIgM1g+vQQWP5Pn+Lk8eO4cvkSnFwdUfStfChVuRAyZnI0AyKGW0J0VAyunb2D84evIcg/FLly5kblqlXV9UKRWmwkQAKWQYACyzLiyF2YkAAFlglh81MkYOEEKLAsPMDcHgmkgQAFVhpgabSrKQVWfHy8qnN15NAhBIU8Q4GSuVDq3cLIksOyr9eFBYXjwrFruHr6DuwyOKorhSVLl6bE0ujfM1w2CbxMgAKLZ4IE0kiAAiuNwNidBEjglQQosHg4SIAEEglQYFn+WTCVwIqNjcXZ06dx/OhR2DokoEKdkshXPKfFZV296sRI0Xepj3V6/yUEPQlHyVKl8G7VqrB3cLD8Q8YdkoCFE6DAsvAAc3uGJ0CBZXimnJEErJUABZa1Rp77JoH/EqDAsvxTYQqBFRcXh9OnTuHo4cOwz2iDep9WgVdOD9hY2cMgUvhdXis88McpPLj5FKXKlEHNOnVgb29v+QeNOyQBCyZAgWXBweXWjEOAAss4XDkrCVgjAQosa4w690wCKROgwLL8k2FsgZUQH4/Lly5h944dyOhijxbfvAcnC6t1ldZTEhUZgz/m7UHAw2B1nVAysVjcPa0U2Z8EzIcABZb5xIIr0QgBCiyNBIrLJAENEKDA0kCQuEQSMBEBCiwTgU7HzxhbYD24dw9bN2+CbUag9oeVkC2nRzru1nw+HRURjW1LDyLwYRiq16qFosWLsyaW+YSHKyGBNBGgwEoTLnYmAYACi6eABEjAUAQosAxFkvOQgPYJUGBpP4ap7cCYAis8PBwb1q1DyPNAVGtcHnmK5YSNTYbUlmQ1P/d/GIS9644hLsIGDRs3RvYcOaxm79woCVgSAQosS4om92ISAhRYJsHMj5CAVRCgwLKKMHOTJKATAQosnTBpupOxBFZCQoK6Nnjh/Fm8VbsEylYrCjt7W02zMvTi5VXGG+f9cGjzaXhnz42mLVogQwYKPkNz5nwkYGwCFFjGJsz5LY4ABZbFhZQbIoF0I0CBlW7o+WESMDsCFFhmFxKDL8hYAuvWzZsq+yprLnd80KEGHJ342l5KwYuJjlUC69KJm6j/fkOUKFXK4DE25IQS159nzEDGjBnR7dtvzSJrbO/u3di8aRN88+TBtz17GnK7nIsEdCJAgaUTJnYigf8nQIHF00ACJGAoAhRYhiLJeUhA+wQosLQfw9R2YAyBFRMTg43r1+PWzRto1qUufPJmS20ZVv3zgEfB2LJ4P+KiM6Bj585wzJjRbHnIa5Jdv/oKzs7OmLtgAQoULJjua128cCF+nj5d1RFbvHRpuq/HUhYgsnLe7NnI7OaGL778Etmy8e/jV8WWAstSTj33YTICFFgmQ80PkYDFE6DAsvgQc4MkoDMBCiydUWm2ozEE1vWrV7Fz+3Z45/dA/TZVNcvGlAs/svUM/tp3CTXr1FEvE+raQkNCEBwcDAdHR3h5eek6TO9+FFh6o9PcwFMnT6Jr587I5uWFGbNnI1++fJrbg6kWTIFlKtL8jsUQoMCymFByIySQ7gQosNI9BFwACZgNAQosswmF0RZiaIEl2VcH9u3D+fNn0KJLXWT14auDugQvNPA5VkzeghzZfdCkRQs4OTnpMgxrV69WsrB02bL4pnt3nca8SScKrDehp62xjx89wvZt25ApUya8V78+3NzctLUBE66WAsuEsPkpyyBAgWUZceQuSMAcCFBgmUMUuAYSMA8CFFjmEQdjrsLQAsvf3x/bNm2CoxvQoG012NmxcLuu8duz9ij8Lj1FvYYNkb9AAZ2GjR4xAiuXL8d79eph4pQpaszLheBjY2Nx7949hD9/Dq/s2ZE1a9bXzh0WGopHjx4hLi4OrpkzI0eOHLCxsVFjUhJYAQEBePL4sZrb09MzxUL0UtQ/cV2RkZF4+PAh7O3t4e3tDVvblM+IyNCnT56oDDMXFxf45MyZYt/UrhDKPmSNzwICVO2uXLlzw87O7pUM5Lt+fn6Ii4lBDh8fuLq6QtafnO3Lf53SZMn3/Drg0u/Zs2d4+vQpHOztVcaT7Delgv7S9+GDBwgOCUHWLFmQNVu2VHlHR0fjnp8fbG1s4Js372sfCkjrPiUDUGIfHROjBJesx8Hhv/XuggID8eDhQ8U/Z86ccHR01Ol8a6UTBZZWIsV1mg0BCiyzCQUXQgKaJ0CBpfkQcgMkYDACFFgGQ2m2ExlaYCUWb6/apDyKv52fr+qlIfJP/J5h7cwdeLdaNVSuUuW1IyU7ZvzYsdi3Zw9EuIiQSaydNXHyZFSpWlVJF6MZ6ikAACAASURBVLkGNmXSJFy/dg3xCQlwzpQJH370Edp9/rkSM8mbzDl18mT8uW+fmjNR2IiU+HX5ciWnkguscRMn4sCff2LD+vUIDw9HJicnfNi6NT7/4gtVI0uaiIupU6Zg25YtGDV2rBIXE8eNw4P798W0oXDhwhj/009KZCVvR48cwfSpU3Hz+nXExcfDJkMGVaS9a7duqFa9+gsC6nUC68aNGxg3ejTOnzuH+Lg49QkPT0980bkzmjZv/oJskVch9+/bhxlTpyrhIy1L1qxo8eGH2LhhA4KCgvDjqFHImzcvRgwbhosXL6pC9m3atn1h7f5Pn2JQ//6K+ex581CwcOFXxvLunTuYMW0aDh44gLjYWNVPYjlp6lS8U7nyC+Nu3ryJEUOH4tLff6tY2tnaqsyoQUOHKhmY2GSuH77/HpUqVUKDRo2w+JdfcPPGDTi7uKiYyz7nzJ+vhGDydvXKFbT/7DOULl0aQ4YPV0KtxzffKCk1edo0xT+xiaieO2sWdu7YocSo6D2JUbHixTF42LAkARsSEoKlixerTMGw589VH6mb1rtPH5QtX95i/v+BAisN/0fHriQgBCiweA5IgAQMRYACy1AkOQ8JaJ8ABZb2Y5jaDgwpsCTT5eTx4zh+/DA++LwGcvi+PtMntbVZ28/jYuOwZPxG5M6ZD3Xq1XvtNUKRC7NmzMCObdsgkkCEUWINrEHDh6NChQo4e+aMEimSeVS4SBGVTXXp4kWV7dN3wAC0at06KbPq8qVLGNC3r5IuIjly+/oqYSWiQuI695dfkCVLliSBlQFA8RIllMRxd3dXMkWytiTDRgRGvQYNlJyQb00YOxabN25UvyYvBkqmjlOmTEoISQZP9Ro1MHn6dCVhRLrt2b0b/fv0gXxDsqUkY+fBgwdKKkmfPv37o+EHHyRlY6UksGSeE8eP49tvvlEyTubIlSsXAgMDcefOHSWLOnzxBTp07Kg4i9Q5sH8/Rg4fjmeBgapv4ncfPXyoBJ1kFo2dOBG1atfGj0OH4o/ff0ehwoWxZMWKFzKKjh09qmpHVa1eHUOGDVMCKKUm+/9pwgQ1j/AuWqyYiqVkWAnDislqoV25fFlJKRF/8k2RcCL3hHnTZs0w5Mcfk3gI4x7duqnvCi/JeJOYShF2+bXtW7di6I8/omWrVknLEl4jhw3Db7/9pgRn/4ED8depU+jSqZPKCPt5zhzky59f9ReGIrbOnD6tzpS3jw98vL2V8HL38EDvvn1RoEABREREYM7PP2Ppr7+qsyn7E5bXr19XgktEq8TXEhoFliVEkXswKQEKLJPi5sdIwKIJUGBZdHi5ORJIEwEKrDTh0mRnQwosuaq0Y+tWBD1/gjofvQP3rC9m+GgSkAkXHR8Xjx0rDiPiWTzqN2yosn9Sa6+6QiixGD5kiBJcn3fqhE6dO8PWzg67du7E+NGj4Zkli8qqEnkTGhqKiWPH4o8NG5DRyQk/9OmDho0bKxkl1w9FHonMkat+iRlYknUjVxFFgjRt0UJJqUH9+mHvnj3qxbqvunRRcyUXWCK0atSsibYdOqBI0aJYu2qVyj4SuTFnwQLkyZtXyZuPW7VCRHg4mrdsia+6dlVrjYqMxJxZs5QMkcwh6Z89e3aFJyWBFeDvj57du+Pc2bNKOIlUEVkiWVirV63C1J9+QubMmTF63DiUr1BBXVMcOnAg9u3di0aNG2PA4MHqGp9cPVyzcqX6hogwEVh133tPZb4N6NdPSbrxEyeiSrVqSaHq26uX4vBdr15o9fHHr7yueO3qVQzs1w+ShbVizRoliEQkidiSuAh/ac+fP1eZcetWr8Z7DRpg4KBBcHF1xZHDh9H/hx/UmDm//IJixYqp/okCS659Sm00kXRvV6qEmOhobN++HT+NH49iJUpg4a+/JglM4d7u00+V7Jrw00945913cfLEiRQF1ojhwxUTiVvHL79Ei5Yt1VqFT3BQkJJakmkngqtnt25KgImQK12mTNJ52Lp5s8ocE1lmCY0CyxKiyD2YlAAFlklx82MkYNEEKLAsOrzcHAmkiQAFVppwabKzIQVWZESEkhIu2exRrelbyOTyz7+As+lGICE+ASd2ncfVU/fRqEmT/1zxSmmWRIFVr379pBpY0k8ypxo3aKAkz8ixY1GiZEk1/O7duyrT5vixY9i4bRt8fX1x4fx5Jbsky0eysgYOGZIkNl7+ZqLASoiPVxlMbdu3V6JH2vKlSzF21Ch89PHH6Nmrl/r15AKr8rvvYtjIkUnXBeVa3xft2yOzm5u6olaqdGmsWrECo378EXny5MGEyZNV1k5ikyt0QwYMUNcBx0+ahPrvv69+lJLA2r1rl7rmFxIcrGRX8mwmkW99e/dW1wV7fPcd2nfsCLn62ubjj+Hu5qau78laEpvInS86dFC1nhIFltQJ69i+vcpYEwkjWWFy9U9qZ7Vu0QI5c+VSWU4lS5V6ZfBlrAisG//LpOry9dfqqqLIupebxGXYkCH4+8IFrPvjD5XdJE3kYttPPlHXA3v98ANaf/qp+vVEgSVX/mRdcp00sc7YuXPn8OOQIWq/kjkmWXTSli1ZoqSe/PWsefOUQEtJYInoq1+njhKKzVq0wPe9eythlVL7aeJELFqwQF0plf2J0BTZJldOx4wcqTLvEuu26fZ3iPn2osAy39hwZWZKgALLTAPDZZGABglQYGkwaFwyCRiJAAWWkcCa0bSGFFhyzWrxggUoUMYH7zQoA3uHVxfKNiMEZrMU+Zf7K6du4eAfZ/BBs2ZJV7Zet8BXCSwRTVLPSK7qSfZUYjaPZMnINTTJuhJRIXJDrs4NGzxYXQFbtHQpyr/11is/mSiwpN7VjNmzkwSIDFi/bh2GDhqEVh99hO9691ZZQskFltSPEumR2ETgfPrRRyoTSqRRmbJl1RW+1StXKvEja0leEDxQriOOG4dNf/yhpIh8Q1pKAkt+Ta5YiuQ5ePSokieJTRjMmzMHs2fOROOmTVW9p8MHD6prd5Kp9OPo0fDx8UnqL4XkO7RtC6kRliiw5IeLfvlFXQEU2TVizBjkz59f/fWvixap+lr9Bw1K4p4S0LCwMPw8YwZWLlumMpYkA0tqVn3QuLG6vpnYDh86pKSTZMJJ5pQUY09sIqIk204k3Lc9e6pfThRYld55R9Xskit+iU2u9cn1xy2bN6vMKZFsIvnk+qjUMxs6YoT6dWkpCayLFy7gk1at1JXEb7/7Dq0/+eSVZ+WrTp1w5NAhZM+RQ2XrJRallywt2UvR4sWxYvVqs/n7700WQoH1JvQ41ioJUGBZZdi5aRIwCgEKLKNg5aQkoEkCFFiaDFuaFm1IgfU8LAzzZ89G6aqF8PZ7pWBj+///op2mRVlx55sX72HHssNo0rw5ChQqlCqJVwmsTRs2qCtur2tjxo9X1+V279ypBJZk1+z5889X1mySuVJ6hTDxG7//9huGDBz4SoElV9MSs6ZkTEoCq0+vXqrgu8iXeQsXvrB8uUonBeklS0uylYaNGKF+npLAEnn1y/z5yOTsjP2HDr0wj9S/kjnGjh6NWnXqQIrRy9qFZe06dTBw6FBVLyqxvUpgiQSsWaWKylaSTCeZ6/26dVX2mmSxJd/rq+IgNa9EpMl6EgvnS7bciNGjUfDf+O/cvh3Dhw5VoimlJldDP2rdWgkzaYkCSzLeRMYlXrVMHCuiUQrpS9uyYwdESsm1QKlHtvfAAdj/+4pgSgJLiut/2bGjElL9Bg5Udc1e1Zo0bIjbt2698ueSIbZp27ZUz7gWOlBgaSFKXKNZEaDAMqtwcDEkoGkCFFiaDh8XTwIGJUCBZVCcZjmZIQWWZJTMnj4db9crhQq1S1jMC2OmDJzf9UfYMHcPmrZsqQqvp9aSamDVr49JU6YkdZesHSnAXbZsWXVtT4pmv6odOnBACazHjx9jweLFL1y3e3mMsQXW6zKwkmdzdezUSV1TlJbmDKzoaMydM0cVGG8sBdCHDcPRw4fR/euvVfaZvJYoVwATmxSP79yxI0RkJc/Akp+LsBP5JbXAZIxkVBUqVAhzFyyAm7t7auFL+vn1q1exds0aVcBeMr3erVJFZbjJ1T/JkBOBJS867j148D+vR778kdQEllyJ/OqLL3D//n31GqBwnT93rsri6vn990nTpSSw1DXT5s1Vdp1kfEkGVmJm1cvraN+mjapBJpla7Tp0SLrGqDMUDXWkwNJQsLhU8yBAgWUeceAqSMASCFBgWUIUuQcSMAwBCizDcDTnWQwpsCQDa87MmXirdnFUrFMSGWzkHTm2tBC4c+UBNi/8E01atFCvzaXWxowahRVLl6ri6NNnzUrqLjLqw6ZNlVyQbKD36td/ZV2rq1evqhpY58+eRZNmzVRmk9RzSqkZW2DJ9UGRWFLQXV6pk2LviU1qPcmripIxNF6yuf7N/klJYIkIGjF0qMoqE5lUIdmLfpLJ1ef779WVuR7ff4/2n3+uMoXatWmjXlOUa3c1a9dWnxW589uaNSqbS67qvSywTkmh8y+/VBlbUiD+4cOH6NajBzp/9VVqofvPz+W6oxQ3l+wouep38NgxdYVSpJHER2qV9e3fH23atXvt3KkJLBksbESYyRmT64t3bt/GwiVLXjhzKQksKa7fsF49VWhe6rSJAJNXKFNqki0n3ITloCFD4PVv0f00g9HAAAosDQSJSzQvAhRY5hUProYEtEyAAkvL0ePaScCwBCiwDMvTHGczqMB6/hwL585FsUr5UKleKdja2Zrjls13TQnAtfN3sWf1cSWS8hcsmOpa5fqZZP1IttaU6dPVS3vSRLaMGz0aa1evVq+/iVSRa3mJP5PaSfI6nNRakuL7M6dPx4ply2Bja4uvv/kGzVq2VGJCrrhJFo3UpJK/NrbAevTwIT7+8ENIPTXJaurcpcs/a4yMxKz/a+88wLKs3j/+RUFkyVZRUBy490zNzL01V2pqaa7UtNyzNPeq3GlpmZY2zVHOHGXuvXIPxIHsJXv8//cx+IFJAr4v7/s+7/dcl1cFz3PG5z4YfLjPfZYvx4b161Wm0/NuIQwJDla3EJ47exZNmjVTokXeS0pKwncbNmDpokXq5sTZ8+errCs5DijF40UgiTQT4Sd1w2Tt0odkX4nUk8LycqthahNBNnL4cFUvSpocWfxl27a0QvX/FUCRjNK3xEeO+Ulh/D27d6sC5xKHXXv3wsrKSsVHbmuUeTs5O6vjiiIsRTxJ3TQ/X18kp6TAu0QJNVxWBNb5s2fR5403lOCUsWRNIu7s7OzSppzZLYQipaTgu7OLC3r26qWysGRvyBHEGzduwNvbW31Ois6PGDYMUY8fo0fPnup2SqmdJU3iI7Iv9XKB5250I3+AAsvIA8TpGR8BCizjiwlnRAKmSoACy1Qjx3mTgO4JUGDpnqmx9ahLgSXZGSIYCpdyQoO21WFtk8/YlmvU8xEZcf6vqzi9/xradewIqRH0vHbuzJknmUOWlihVurQSJ8NHjlQ31cntdnLE8PSpU0ooSGFykUFBgYEICg7GRzNnqqNq0u7fu4fJEyfi9MmTsLW1VdkyUqhd5INkFsktgWXLl9e7wBIGB/btw4SxY9W8vIoVU0XARXbc9/NTGUkicNq0a5d2JO1ZGVjy7snjx9WxQKktJYXsPYoWRWhoqBI+IrLkFsW+b7+taljJuGdOn1a8rl29quSVRZ48yGNhoeqESUaXCBqRhA0aNkwLi2RNiVhaMHeu6kOK1AvXzI7VpY+nZLxNmTQpbX4ivyS7TOIjsmfY8OFpWXNy7E+yz04cP65kkazH1d0dUthejhbKUUi56S+rAkvm3btHD/x96ZKSZCKvWrdtmyFLLzOBJRls06ZMwa6dO5Wwc3V1VfsrPDRUXRogRfFFeIpEFYEq8k3GK1SwoJKIycnJ8Pf3V9Lu6Tpnz9vvxvp5CixjjQznZbQEKLCMNjScGAmYHAEKLJMLGSdMAnojQIGlN7RG07EuBVZcXBy2bd6MZKsYvNq5DhycbI1mnaYwkeTkFBzcchKPbkWgdbt2WT5y9fOPP6qMIslSEnGyfNWqtJsEpc7R6lWr8Pvu3UoowMJCHZOTG+8+mDYtwxE9KRL+ycKF+H3PHiVV5ACo1GCqVr06pkydqm6zu3D+PEaOGAE7W1ssXr48LetH+G7/9VfMnD4dnTp3xtB334Wdvb2SK0sWLcLOHTswa84cVeg8td2+fRv933pLZeXMnjcvQzaO1KSS9yRTTISHFEYXoffOsGFo+MorGY44SuaY1HAqV748lq9cmSHUIvHmzpqlxJBIK+Hj7OysBJFkuaW/5VBelAywnTt34urffyvZ90rjxipTS24oVLWivvpK3ZaYvon0mzh+PAIePcIPmzZl6einvO93967KZDpx4gTiYmNVl/b29kqCSc2oAo6OGcaJfvwYK5Yvx29btyI6JkZ9TgSbp6cn3h44UAkoaVLTbOzo0epGRTk+mr4gffoON/30ExbOn4+yZcuq51KLxqc+I3JU1u3m7o5PFi/OIFTlCOGXX3yhboR8HB2t9oqwrFajBkaNHauysKQlJiRg/759+HzlSrVekXwSA7l5slnLlhj3nIsGTOHrVu39bdtw8fx5rF+//l9TtkiRVbORAAlkIECBxQ1BAiSgKwIUWLoiyX5IwPQJUGCZfgyftwJdCiz5YfXPAwdwy/cqWvZ6GW4eWS9i/bx5msPnk5KSsXnVXtjkLYDmrVr9S2D8FwM5AifH3EQaibAQ4ZO+hYeFqSLtIjzcChZUAuHpZ1KfFzmhjsxZWam+RKoYoolEkzlLbTXJCitStGiOCoGLuJKsJmGQz9oaXl5ekJv7stJEPWz/7TclweSInxwPlKOXqU3kmtyaOH3qVFStXh1LV6z4lxR73jgqdo8eKbkofQvv/8rgEpH14MEDJYMk80luBDRUE0EZGBio9pKILpF9z2oSA8nyk+wthwIF1L6SI5BaaRRYWokk15FrBCiwcg01ByIBzROgwNJ8iLlAEsgyAQqsLKMy2Qd1KbDkB2qpe7Nn1060eKM+SpQvCpWawZYlAlHh0fh24W+oUqWayvzJrJB6ljrjQ9kiIHtXiqVfv35d1RMTKSRC9vq1ayrT6PTp06pO1MeLF2cQf1GRkeoYoNwUKFlqHTt1ylQMZmtCfNikCFBgmVS4OFljIECBZQxR4BxIQBsEKLC0EUeuggR0QYACSxcUjbsPXQosWemD+/fx65YtKFmlMOq1roY8eTNmAhk3DcPO7uKR6ziy44I6Zle5alXDTsbMRk+Ij8c369bhqzVrUNjDA/YODqr2l2SAybFCHx8fzPv4Y3X0Mn2TullDBg2Cl6enKgiflZsjzQytWSyXAssswsxF6pIABZYuabIvEjBvAhRY5h1/rp4E0hOgwNL+ftC1wJIjQr/v2oUHD+/ijTFtkc/aSvsQdbBCyQD6duGvyJtijY6dO8PVgMfCdLAck+tCjgJevHABmzdtwpUrVxAcGKiO6Endr1caNVKF3EVsPd2k7pcUeJcbHtu1b6+KmLOZHwEKLPOLOVf8ggQosF4QIF8nARJII0CBxc1AAiSQSoACS/t7QdcCS4idOnECBw8cQMPXaqBC7VLah6iDFfpeeYBtXx5ApSpV0Kpt2yzdYqeDYdkFCZCADghQYOkAIrswLwIUWOYVb66WBPRJgAJLn3TZNwmYFgEKLNOKV05mqw+BFRQUhO1btyImPhLd3m0JG/v8OZma2bwTFxOPnd/8BX/fEHTt3h2eXl5ms3YulAS0QIACSwtR5BpylQAFVq7i5mAkoGkCFFiaDi8XRwLZIkCBlS1cJvmwPgSWHL06evgwDv35J2o2roA6LaogTx5Wc3/WBhFWl0/ewl+/noZP6XJoLdlXT90gaJIbi5MmATMiQIFlRsHmUnVDgAJLNxzZCwmQAECBxV1AAiSQSoACS/t7QR8CS6hJLawfN25ETHwUmnatC68y/64fpH26z19hsH8YDmw6gcehcejZ500UKFDg+S/xCRIgAaMiQIFlVOHgZEyBAAWWKUSJcyQB0yBAgWUaceIsSSA3CFBg5QZlw46hL4Elq5Lb275ZuxZeZQqjSZe6sHdigev00Y6PS8Dx3Rdw7tBVtG3fAeUrVjTsZuDoJEACOSJAgZUjbHzJnAlQYJlz9Ll2EtAtAQos3fJkbyRgygQosEw5elmbuz4FlszgyKFDOHbkMCq+VAq1m1aCtU2+rE1M408lJ/9zdHDraZQrXwGvNmmC/DY2Gl81l0cC2iRAgaXNuHJVeiRAgaVHuOyaBMyMAAWWmQWcyyWB/yBAgaX97aFvgRUbE4P9e/fi5o1rqNqwDKo3Ko+8lnm1D/Y/VpiUlIzrZ31x6NczKOheGE2aN4ebu7tZM+HiScCUCVBgmXL0OHeDEKDAyj3s8XGJCHkUhtCACESFR0NujklKSIIU4WQjAS0QuHH5Ds4dv4SWnRvD3oHHPbQQU64BsMhjAct8lrCxtYaDsx1cCjnCuaAjC0s/Z3NQYGn/q0ffAksIhgQH48/9+3HXzxcVXyqNmq+WN9tMrIT4RFw+cQvH9pyHUwEXNG3RAkWKFoWFBYvca/+rjSvUKgEKLK1GluvSGwEKLL2hTes4IjgKV07fhu+VB4iOjIXULUhMSERyUjIkDZyNBEiABEjAeAnIz4Zys1fevHmUyMqX3wr2jrYoU80bpSp5wsY+v/FO3oAzo8AyIPxcGjo3BJb8ki8sNBR7du3CPT9flK5cDPXaVFNfg+bU5JeeZ/+8jAtHriO/tR06dOqEgoUKUV6Z0ybgWjVJgAJLk2HlovRJgAJLf3RjomJx9uAVnPvrKhITkpDP2hKepQuhWLkiKOTphgIudrCytuJv8fUXAvZMAiRAAi9MQI7syA+PYYEReOgbhDuX7+Ph7UCkIAUFnO1Qp3kV+FQrDkszP9r0NGgKrBfeekbfQW4IrFQICQkJ2LZ5M25ev45CXq5o1KkW3Iu6mIXAiY6KwR+bTuLmRT8U9fRE59dfR/78FOdG/wXCCZJAFghQYGUBEh8hgfQEKLB0vx9EVvldf4gTey4iPDgSTgULoFzNkihVyQu2DvyGQ/fE2SMJkAAJ5C6BcMmsPXVL/UApWbaepQujbovKcCnspDK12AAKLO3vgtwUWEJTsrEOHzyI8+fOISVPEqo1LIuSFb3g4GSLPBr7upMM/ejIGNy78QjHf7+A+OgklC1XDvUbNoS9vb32NxdXSAJmQoACy0wCzWXqjgAFlu5YSk+x0XEqvfv84Wuwc7BB+VolUaa6N2zsrHU7EHsjARIgARIwKAH5YVpqGl45dVsdE7e0zIM6zSujVOVisMpnadC5GcPgFFjGEAX9ziG3BZasJjExEb63b+Pc2bO4e+cOXDwKwKdqcRQtWVDVpzP1Iu/y90p4UCTu3wrArYt+uHcjAB5FiqBSlSooU64crK35/aR+dzV7J4HcJUCBlbu8OZoGCFBg6S6IMY/jcHzPeVw6dhPFfAqjVtNKcPd04W/jdYeYPZEACZCA0RGQwsr3bz7CkR1nERsdj1pNK6pfXlhambfEosAyuq2q8wkZQmDJIkTyREREKJF14dw5BAQ+grObg/qeS7Ihi5RwN7kaWfI9pL9vEO5d98eje8FKjjvYOypxVbJUKbi4uprFcUmdb1J2SAJGToACy8gDxOkZHwEKLN3ERH6AOfH7RZw/dBVePh5o3KUObKWwLy+G0Q1g9kICJEACRkxAFZoOjMTvPxxBRMhjvNqpFkpW8jLrHzgpsIx4w+poaoYSWKnTT05ORnR0NO7fu4fTJ0/i4YP7yGuZR91S6OhqDw9vd7gUcoKzu4Mq4SB1Ry2t8hr061LKTCTEJUCEVVhQJMICpLZeIEIehSM2Jh4JsYlwdnVF9Zo1UbJkSdg7OCBv3rw6ihi7IQESMDYCFFjGFhHOx+gJUGC9eIjkB5fr53zxx+aTKFjUBe37N2Zh9hfHyh5IgARIwOQIBNwLURIrIS4Rnd9pCgdn861VQ4Flcts32xM2tMB6esJBgYG4dOECbt24gfCICIjgSpE/KSlpf7K9SD28YKGuNrVAHgsLJdPy5MkDO3t7FPf2RqXKleFRtKhBJZselswuSYAEMiFAgcWtQQLZJECBlU1gz3hcbqbavfEwpOBmi571VQ0GNhIgARIgAfMjoH6hcdYXf/16GgU9XdGyVwOzrYdFgaX9/W9sAiuVuKojFRaGgIAAhIeGIjw8HLGxsZCbDJMSE5XMMkizsIBl3rywtLJStawKODrC0dERbu7u6oggM60MEhUOSgIGJUCBZVD8HNwUCVBgvXjUpO7J38dvon6b6ihbw1tzN+G8OCH2QAIkQALmQ0Cyrw5vP6PqIb7apTYq1C5lPotPt1IKLO2H3VgFlvbJc4UkQAJaIUCBpZVIch25RoAC68VQS62TH5bsUHUWGnepq2ossJEACZAACZg3ASnAvGnlHnUbbYeBTZ7URDSzRoGl/YBTYGk/xlwhCZCAfglQYOmXL3vXIAEKrBcL6uHtZ3Hx6HU07FBT3TrFRgIkQAIkYLwEoqNicGDHYRzYfgi3r91FVOTjbE/WOr81Cnq4oX7T2mjesRGKFi/8rz7khNLh387g4rHraPRabZSrWSLb45j6CxRYph7B58+fAuv5jPgECZAACfwXAQos7g8SyCYBCqxsAkv3eGJ8EtbN24J8+a3Q+Z3mzL7KOUqDvrly3jrcvXk/bQ558lrA1s4GJcoUQ+2G1VCsZFHks85nkDkmxCfg961/4uDu42jfozlealyThV0NEgkOauoEEhIScen0VcyfuAx+tx7AzsEW+fJZwSJP9q+Klfo5SYlJiH4cAzt7W7z57uto83pT2DvYZcAUHhyFbxdug09VbzTpVhd58+YxdYzZmj8FVrZwmeTDFFgmGTZOmgRIwIgIUGAZUTA4FdMgQIGV8zjdvxWAmOSkBQAAIABJREFUrav3oUx1bzTt9lLOO+KbBiXQv91IXDp9BQ6ODnBxd4JIo5DAMMREx8K9sCsGj38TLTs1Rj5rq1yfZ2xMHD5fsB4bP/8FIz8ajK792mfrhsukpGSEBoWpLJNCHm6wsbPJtTXID/nBASGIjY6DW2EX5LfR7RGq2OhYBAWEIr+NNVzcnFh7Ltcia3oDxccnYPcvB/Dx5M9QqIg7mnZoiIYt6qJYKU8lq7Pb5O+IoEchOPbHaeze/AeuX7qFjr1bof/IN2Bjm3Gf/7R8t+q+Wfd6cHJzyO5QJv08BZZJhy9Lk6fAyhImPkQCJEACmRKgwOLmIIFsEqDAyiawdI+f/fMKDm0/g6bd6qJcTR4fzDlJw74pAuvvs9fwaqv66DHoNYg0euj3CL+s34Er56+jat2KmLpkDIoW+/cxIX3PXLI8zp+8jCvnb6Bm/SrwqVgiWxlYYcHh+GrRd7hy8QbendQPlWtX0PeU0/qPi43D0ulr4H8/EIPG9kaZSrotZH3m8AWsWbQRtV6uim792sHuqeyXXFsoBzJ6AiKa5k9YpiTq6JnvqK9pXdz2JZL27q37WPPJBhzcfQyDx/VBj4GvZeBxdNc5XDvji8Zd6sDLJ/f/DjFkcCiwDEk/d8amwModzhyFBEhAuwQosLQbW65MTwQosHIO9sCm47h49AZ6vN8abkWcc94R3zQoARFYl89eR6c322Ds7KFpczm89wRG9ZkKByd7LP1uNspVKZ32ucjwKPj7PQLyWMDTu8i/si5SH5Q6OBYWUFd2i0ySrA2vkkVV1pC0xIREBAeGqSwpG1trFCzi/sy+Uvt5GlRqlpP0YW2dT9XlURkl/5yKeugXgMmDZ+PSmatY+PU0vNy8rprP0y0xMQkP7/ojMiIK7oXdVObZs1r6eYhcC3wUjMeR0fAoVhi2T2WeyMff6TQOjx4EYs7qyahRr4rq8lnjP2ssOZ4l78bHJcDZxRFuhVzSsqxkHrt/2Y8Ph81H29ebYcTUgXB0LvDMvkWkCYf4+Hi4ujnDtZBLpvst/foiwqIQ8CBQxaSAk716Jzk5GeGhkQh+FAKrfFYoVNQ9LZbP6lQyf+7ffoik5CQU9iyojpil3t7+LA7JSclqjwQHhsDB0R5Fi3tkS1ga9AvJSAePCI3E4o++wB87DmPJd7NRoXoZnc/0/p2HGP3mNERHx2DFj3PhWaJI2hg3L/hh309HVR0sydY1p0aBpf1oU2BpP8ZcIQmQgH4JUGDply971yABCqycB3X7uj9x86IfBn3UDdY2hqmRlPPZ881UApkJrHt3HqL7K4OUQFj1y3xUrFFOZWdt3bAL65b/gLDgCOWJRHAMm9IPr7aujzx5ntS4CQoIweKpn+OPnUcw/6upOH/iEn5YvRUJCQlYtXmhkmE3L9/Bxx+sxMVTV5QYkb48ihXCmFlDUeeV6qofGW/Npxvw/ReblaTp/GbbtCOENy7fwZKPvsCZoxeVIJP381paYs1vn6BUOW+cO34JHwydh8CHQUhOTlHCJU8eC5SuUBIfLRsLrxJF1HtSF2jJ9NUq20yeE7nWrntz9H2vB5xcCqRtlB+/2obVC79FmYolMWXRKCyctBwnDp6FyC/r/PkwZvZQtO7SRD1//OAZjHlzGkTgIAWwtLJUY4sY+2zTfCXaMmvC4ue1v2HdMmEcLq+rGDRoWhvTV4xT9ciGdZ2g1id1jaSukPQvrdfQrhg8to/695TkFGz4fBM2rNwEkRip/VSrWwkjpvaHT4X/ZU0+jopWRzV/Wbcd4+a+CxGUX326EbGx8Zi6ZDSatm+IX9Zvx5Zvd+HWNV+IaBLeBVwKYOjEt9C6a9O02MvYsoZ9vx7CZ3PWKgkmY8vaO7/VFj+s3oLExER8uGg06jWplYYhOCAUn3ywEiJOZV0iuGq/XA2jZryTQYjwKzd7BETezhq1CJVqlMXEhe/pTQjK1+iyWV/hvakD1FHf1BZwLwRyjPCVjjVR6SWf7E3exJ+mwDLxAGZh+hRYWYDER0iABEjgPwhQYHF7kEA2CVBgZRNYuse3fLEPd689xLB5b2SrLlHOR+Sb+iCQmcDa+fM+TH13AQoXLYiP109D6fIlVC2qFbPXqlpZZSuVQlTEYyV+XAq6YMon76NqnYrqB+RA/2AsnPyZuums+kuVVQaUZBCJ6Jm1ahKKl/bEgLYjcfOqL0qX84ZXySIIDY5AUlKiqqNTs0FVtVQRWKvmrcOGVZswavpgdOvfUe01kVJzxy/F4b0nlawqUbaYygx6dD8Q81ZPgXcZL1w5dx0fT/kMVy/dQtz/9+PhWRC29rYoXtoLI6YOUP997eLNJ5LLPxg+FUvCxc0Rl89dV/89eOyb6Dm4kxJf0mTtMpciXoVU5pnMwcn1Sc0wOXLp6e2B6SvGo2L1sjh/8m/MHr0YD+76qyyzQkULqswy4fbR8nFwdc88Y/GvPccw/u0ZcHByQMVqZWFtY437dx/Cp3wJJZekFtm04Qtx+vB5laElmUpuBZ9kZ3Xo1Qo9BnREzONYfPrhSmzZuEtlZklBfslMu+/7ECImpTC/9FW9biVVxFuyxZbP/go/r/0VFaqVwbWLt5Rwym9rjREfDlC3zb3VcrhiXLCImxrP7/YD3Pj7NoqX8sTEBSPUsTQlr5KSsffXv/DpBysRGfFYfV7e8b8XgAd+/mpuUkBcODRsXle9I9lm7/WcgqsXbsDbpxiKFCuEO9fv4u6tB2jStgFGzxwCZzcnfWx/zff5584j+GjEx5iwYLi6MVBf7d6dB+jWYCDadW+GyZ+MTBsmNDAC3y74Vd1UW/Xlsvoa3ij7pcAyyrDodFIUWDrFyc5IgATMkAAFlhkGnUt+MQIUWDnnt3nVXvjd8MfwBb1y3gnfNDiBVIH1Wu/WSuxIts6VCzdUdtN9X3+07NIY700diJjHMRjYcYzKUJKC6vWa1ERyUorKshG503dEd/R7v4fKEEovsES4dHu7Azr0bKkEjtxaJuKlU91+SpZMWviekkeSDSWZPyKMUgtBZyawJOtq9uhFCA4Mxc+Hv4Szm6N6X44iFnBySMtIErE0afAc/J12hLCO4i2STdrsMYux46e96D6gI95+/w3Y2OXHkf0nMW/cUlXwffmPc+Fa8IlsShVYUtze28cLvd7pgpdb1EVIYCgGdRwDC1hgyKS+6Nq3nXo+wxHCLyajRv3KGcbOLPAip3ZvPqBqCb0z/i0lrBLiExEZHqkkjsxd1rrrlwOYmnqE8MOBcHR5UiBbPi9r+njKSiTEJWD0rCFo1aWJ6sf/fgDmT1iuspxadW2i4urs6phBYFnls0Tb11uodRT2dId1fmv17m8//I7SFUoo4ZjXMi/CQsLRv+0oFQOpq9S+Rws1vsR+5shPVYHvjr1aqTFs7W0gGVYiyL5d+bN6P73AWrvke6yav05lmY2aMUQJLNkjI3t9iPCwSCVH671aK+1oqMG/aExoAlK8fdrwBVjx8zxI9p2+mojcl7074JWW9bDgqw/ThgkPicK6OVuUwKrWsJy+hjfKfimwjDIsOp0UBZZOcbIzEiABMyRAgWWGQeeSX4wABVbO+VFg5ZydMb355BbCqyozqXzV0ggPEYF1HeEhEahcqwKGTuqr/vnNip+wfNaXaNbhFYyf967K/JGzYaePXsDYvh+pzKPZn09SH08vsNr1aI4xM4cqOZTaHvg9QpeX3la38/UZ2g1tuzeHnf2/b0PLTGCdPXZRySfJ6hk6qR9adWkMJxfHf2GVz08a9KQG1sfrntTASm1yi1+bar3g7OqESQtHoEb9JzWqHj0IwoJJy3Foz3F8tWMxyld9cuwpVWBJptOMFeNRr3GttJpU/Vq/h5tX7qD/qDfw1vDu6vnoqGgMlhpY9wMxd80U1Kj3RGA9r814/xNs/3EvajeshkHj+qBC1TLPvGFw96YD+GDYPFUD671pT2pgSYuLjce88Uux46d9qF6vEhZvmJmWRSaflyObw7pNUOJq3pcfomzlUhkEVuO2DfDBp6NUltTzmmSK/bn7qBKar/fvoB6/IP13Ha+yzD5e9xFKliue1o0Ixf5tRyI2Ni5NYMXHxaNrgwGICn+s9lqXfwSgSLqlM9Zg46pfMGrmO+jyZlslvtiyRyA1k/LL3xahYg39ZkDV9WitsvU+/WZ62iQpsM5i8eLFcHHJvPZc9iLKp42JAAWWMUWDcyEBEjBFAhRYphg1ztmgBCiwco6fAivn7IzpTRFYIjVSm30BO3h4FUSrzk3RpP3LKOThpsTBhP4zsH/7YTg6O6i6V6lZTCKC7t/1V0fFJMtDxEh6gTX/yw/QqHX9DEuWAugTBs7CwV1HVcaUHCmUbJ0WHRshX/7/1VPLTGCFh0bg0w9XQbJL5GY1OULYpltTtHjt1Sdi7Z/2XwJLjg/2af6uOtb4pBj5E8Emcwt4GKSyweZ8MRlN2r2sPp4qsOSI25rfPlW1p1Lbu69PxLkTf+Pt93ui33s91IdzKrBEJr7bfRIS4uKV4JPjlG8M7qyOSqZvmQksYT9j5Cc4duC0yoiTLK70TTLGJJNOjjdKcX65xTD9EcKxc4aia9//1TBK/25wQIjqV26ek4wqybIK8A9SAkuy2KTt2vSkuLwIvg8WjUrLYJPPCde+rUaoo6GpGVj3/v8oYu9mwyAiS/ZV+vjJGDKmMJWaZKnF/43p68fY57Jn8x+YOnwBlv0wJ8sSNSdrEnHaqORraNS6Huat+SCtCwosCqyc7CdTeYcCy1QixXmSAAkYKwEKLGONDOdltAQosHIeGgqsnLMzpjdFYP199hpadW6MkdMHQwRWajH29PMU2SPSRz4nWUhPNylMvubXT9UxwfQC65P1H6FBsydH9zLKkFBVPH3/b4eUvJBWq2E1TJw/XN0+Jy0zgSWfCw0Ox/KZX6psJSkaLhk71V6qhOnLxikhJe2/BNaB7Ycxvv8MJeJkPalCLv0cx80ZpsSatFSBVaZiKXy+dWGGtehSYMk6jh44rQSd3637am0i2QaNe1PVt0ot2J6ZwJIaV7NGfYrTRy5g7Kyh6Pp2RhkVFhKBkb0+UDF/cjNjHURHxaTVwJJ6VnKcNH2TOa1f/hPWLvlO1bCS+Ui8Q4JCERUZnUFgSdF4ufWuWcdXMHb2sAyF8J8lsM4eu4QRPSerOmV58+ZVNbmebt36tVfZaOqGSbZsETi4+ximv7dQFcOXYvv6arev3cUbTYag4xstMWH+iLRhKLAosPS154yhXwosY4gC50ACJGDKBCiwTDl6nLtBCFBg5Rz75s/3wu+6P96d30vdGMZmmgQyK+L+9Gre7/UBju4/pYTOmFlDMhxLe/rZrAgseUcKnMuRsy3f7MDh/ScRGRaFLm+1xZCJfdURtv8SWKljXr14A5u/2Ym/dh9FoH8IXmn5Eub/U4Mng8ASWdPif0cIL5z8GwPaj1bF6KUOV7l/jgpmFsUXElirpQbWkyOKWW2hwWFK7kntKZFNUjhdbjps1Kqe6uK/MrCkBtXRA6dU1tKQCRkzsKRm1cD2o1U9rKXfz0bN+lUyZGA9S2Bt27gLM0ctUpl5cuSzZefGSnROfmcO9m47mEFg7dnyJ6a8Mwe1GlRVWVZSvD+1iZAb9NoYdcwxNQPr9jVf9Gv9vqqzJYXl5Ygqm+4ISEH+2WMWobBnQcxaOVEvxzBFssoNnd989rM6XizHWlNbeHAk1s3dyhpYPEKou01tRD1RYBlRMDgVEiABkyRAgWWSYeOkDUmAAivn9Ld9eQB3Lt/HkNnd07JCct4b3zQUgawKLLkJcPG0L1CpRjklfEqVz3ikLf38syqwUt9JSkrGxpWbsHTmGlX7STI45Fa/rAgs6UMyuDat247VH3+rpNj+G5tURpXUn5o4cJaqgTVr1cQMcuRxVDQ61+2HpKQkddNem9ebwdLSMtMwZF9gxeCdzuMgt7PJMcpaL1fLUYilmPn7b3wA3xv3MGTiW+gzrJvqR46GTRkyFy06vapuaEy9pU9YzJuwDNt/2KtuhVzy/Szk++cmRXlP6oeN6DEZrgVdMG/NFJSplLEG1rMEljx/8q+zaNejhRIUkiklTdiKZHt/+iD0GPCa+piwHt59EqysrDB9+TjUfbWG+nhQQIgq4i4ZWnIkVT4nNckkxn2aDcPDe49U5pfUNGOmVY62yjNfkn2+cu7XKlNx8sL31bFgXTc59vrBkLnq+K9IUbnBMrUF+4fhu0+3o2GHWqjSoIyuhzbq/ljE3ajDo5PJUWDpBCM7IQESMGMCFFhmHHwuPWcEKLByxk3e2r3xMK6duYO3JnaEg7NdzjvimwYlkFWBJfWIBrQfpWoSiTQZMKqXyuqQFhkWift+j1CqbHGVmfU8gSUy5vK566jTqDpc3JzU8b/vv9iMT6d+joYtX8LY2UNRqIh7pgLL9+Y93Lx8B9XqVoSLu7OSVpu/2YHP5n6tbjnccvJrJbCkjpUUmJdbCyWzS45RpR7Bk3mLkNv4+SaUqVQag8f2RoN/irzLrX++N/zg5OYEt6duIczqEUK5rXBcv+k4+dc5vDvlbVUjKv3YmQV964Zd8C5TDOWrlFYsw4LD8U6XcXh495HqR250lCb9SjF2nwolVTZTqXTF0qU22IJJK1Sm06gZg1VGjPQlt0rOGbtEyag23ZphxNT+qvh9+hpYzxJYw0VgHTyDBk3rYMKCEeqWyIO7j2LF7LXqtsBBY/vgreGvq/WFBIVhwcTl2PfrXyq7Teqfyc2Gkml3+ew1JbJs7Wwxc+UE1G9SS61FxJbMt2ARN7z17utqblL0PzkpWWWKJSenoIhXoWceXTXoF4+JDC5fa3I5QFSEFMrvh2YdGmZpLz5veZJ5dfnsdayc97USl1M+GZlWMy713Xs3HuHXtQfwSsdaqFC71PO61NTnKbA0Fc5nLoYCS/sx5gpJgAT0S4ACS7982bsGCVBg5TyoR3aew+n9l9BhQBN4+RTOeUd806AEsiqwZJJSN2ruuCVKeEjGj2cJD5WNI0f1HF0KqJpKTi4FniuwDv1+XBX6FnniUawQkhIScfXiTcVBZEjXfu1h+f+F4zPLwJK6PlIjKik5CUWLeahn5f2I0Ei8N3UAegzqpPoSMSaS6ocvt6q6TZJtJLclSlF0OdomQkduHJTC5FI8XKSZfDwoMAQhAaEYM2so5FY+adnNwBKpJnWj5Id7hwL2qFizHFzdndTxS1v7zG/4699uFB7cfQi3Qq4oWNgVUtPq7u37EHH24aJRaZlvcqOfZEbJGrxKFkEJn2Jo3O5ltOz0qhJXi6d9jp+//k0d9fMqUURJpwd+/gh4GIwSpb0wfv5wVKldQYm+5wmsH7/choWTV6hjfqnZNeGhkUoWisAq6u2BTr3boPfQLupmylNHzmPhpBWQukjCXcaQ7Lb2PVuoI5EiPuRmxtr/ZKXJfBdN/Ry/fLNdZV9JfS1P7yKqzlnAw0C81qs1eg3pwiLuOfybQkTgycPnMWnALCUB6zWuqWJRroqP2h/ZbRIvuQRgz+YD2PHzfsilCiLGJINOvhbTtwtHruPE7xfwauc6KFnRM7tDmfTzFFgmHb4sTZ4CK0uY+BAJkAAJZEqAAoubgwSySYACK5vA0j1+7fQd/P7jEdRuVhm1m1bKeUd806AERvb6EFcv3FDHw4ZO6vufc5EfhOUI2upPNuD637fUjX1S1N3W3kbdOjdi6gAlNeSmu+WzvsJfe46pujtSnD19u3X1rhJHt676quwpKaFmY2+LvsNfR7sezWGd31o9Hhcbh3VLf8BPa39VPyB36NlSFfmWYvJfLPwWF09dRnx8gnrW0bkAuvZthy592ylpktqkaPmCictw7I8zSmhVqFYWkmVUpFgh9Ujgw2BVu+f3rX8oYSZNfgj3LFFU1XaqVLOs+tgv63eoIuY+5Utg4bppGdYzaeBsXDh1WUmWHgOfHKWTJkXLJUvp8L4TipUUl/9s03w4OjlkylmOQcpNfiJvZL558ligXGUflX1VtkrptPekvz93HcWq+euUMBRJJLcO9nqni3omJTkF36/Zov6I2JMmsapWpyIGT3gLpdMdAZUi7l8t2oitG3epQv6tujTJMD+Zh6xDssMSExNhY2uDTn1ao1335uoYo8SxdPkS+OzneWlZUiI192z5A7eu+cLV3UUdF5S4SC012UdLNs5E+Wr/O1Im7CWLTrKxJItLRJjIFhFmfd7thmbtX1GZXGw5JyC3hc4atUjVVEuIS1DHZyW22W3q4oM8Fiqrr0ixwhg4tjdeaVnvX/JK+t3z3WEEPQhDk651UajY/44WZndMU3yeAssUo5a9OVNgZY8XnyYBEiCBpwlQYHFPkEA2CVBgZRNYusfDg6Pw3aLtKOTpgvb9G+ulOHDOZ8c39UlABIRkxoSFRsLewVbVU5IMn+w0ESwR4VFKdokwKljEPYN4ykpf4WGRCAkIUVlgkrGkaic940IB+SE9yD8EUg/ItaCzyjp5+tbByPBIPHogIghwdXdGAWeHZ97GmJV5pX8mMTEJQY+CIUcK3Qu5ZinjRaRe4KMQxDyOUfOQ+TzrlkQZR7KnRGCl3gwo9aXSNxFDkiWVGJ8IZzdHdeQyJ00YhgaFIywkXLEu4GivWMsxTYmhxC9tD4gTeSoOEu9t3+1WmXNSoP/r3UvVup5usmbJEhN5KVl+8ufprJ6czJ/vPCEg++H04fPqlsqHd/0RHR2bbTRSU032UuVaFVDnleoZal6l70yO4n67YBtcPZzRrHs92Ng9EdPm0iiwtB9pCiztx5grJAES0C8BCiz98mXvGiRAgZXzoMoPpFvX7IcU6W395ivwKO6W8874JgmQgCYIyPHAv89cw92b9+BTsaQSZgkJCbh64Sa+XvK9yv5p2akxpi0bk6mU0wQILgI3zt9VtRJrNq6AOs2rmN1ttRRY2v8ioMDSfoy5QhIgAf0SoMDSL1/2rkECFFgvFtQ7lx9g+7o/UKVBWdRvXY1Fll8MJ98mAZMnIPWRvl76vToKKMf/pN5XclISAvyDEeQfrArmz/hsHLxKFDX5tXIBmRNITEjCL6t+R0RIFNq/3RgFPV3MDhcFlvZDToGl/RhzhSRAAvolQIGlX77sXYMEKLBeLKhyO9imFbshR0Uad62LwsWYhfViRPk2CZg2gaSkZFw6dUUVa5c6acGBIUCKhao51rBlPbTu3BjO7k6mvUjO/rkErpy8hf2/nEDpSl5o1qOeWWbbUWA9d5uY/AMUWCYfQi6ABEjAwAQosAwcAA5vegQosF48Zr5XH2Dn+r9QvlZJ1G1ZBdY2/yug/eK9swcSIAESIAFTIhAWFIk9Gw8jLDASr7/XEo6umV9aYErryu5cKbCyS8z0nqfAMr2YccYkQALGRYACy7jiwdmYAAEKrBcPUlxsAo7uOIvr5++iXssqqFDXx+xqnbw4RfZAAiRAAqZPIOZxLI7tOo/r5+7ipZZVULn+/26aNP3VZW8FFFjZ42WKT1NgmWLUOGcSIAFjIkCBZUzR4FxMggAFlm7CJIXc/9xyEuFBkajXujrKVPemxNINWvZCAiRAAiZBQOpendx3CZeOXkfJyl54uV0NWOWzNIm562OSFFj6oGpcfVJgGVc8OBsSIAHTI0CBZXox44wNTIACSzcBkBsJH/oGYd9PRxEbHY/aTSuhcj0fFnXXDV72QgIkQAJGTSApIQmHtp/B1dO34Vm6MOq3rQ5HF3ujnrO+J0eBpW/Chu+fAsvwMeAMSIAETJsABZZpx4+zNwABCizdQg96GIrNq/ZCfhNf8SUf1GlaCda2rImlW8rsjQRIgASMh0Bk6GP8/sNR3L/1CMV8CqsLPRyc7IxnggaaCQWWgcDn4rAUWLkIm0ORAAlokgAFlibDykXpkwAFlu7pyg8z+34+Bn/fILh5OKNm4wpwL+oCGztrZmTpHjd7JAESIIFcJyC/pHgcEYO7Vx/gzJ9XEBcTjxIViqJB2+qwsc+f6/MxxgEpsIwxKrqdEwWWbnkaqrfExEQkJCQAKSmwypcPlpbPPvqcnJyM+Ph4yD+tra2RN2/e5045KSlJvSN9WllZPff5px9ISUlBQnw8EhITVR8ybmYtbX5JSbC0slLjWVhYZHtMvkACuUmAAis3aXMsTRCgwNJPGGOiYnHp+E3cOH8XoYERKFqiILx8CsPVwwn2TrawscuPfNaWSmjxf676iQF7JQESIAFdEJAfoJISkxEXG4+YyFjILykC7ofA9+pDhAVGqF9QlKtRAmVreiNPnjy6GFITfVBgaSKM/7kICizTjrGIq3NnzuDSpUsIDg6G/F3n4uyM2nXromKlShkW9+jRIxw7cgR3bt9WQqpQoUKoWbs2yleokPZ9rLx/5coVXLpwQX08f/78OHH8OB4+fIiC7u6ws7dXH2vVps2/wPneuaOe9fHxQcXKlZWsioqMxKlTp3Dl778RHh6OAo6OqFq1KqpWrw5bW9u0PkRc3fX1xelTp/Dg/n3ExMaigIMDypUvj5fq1/9P6WXaEeTstUCAAksLUeQacpUABZb+cCclJkGKu9+95o87l+9Djhfmt7WGvaOt+g29Elh5KLD0FwH2TAIkQAIvTiA5JQXJiUmQG2fllxORYY+REJeoal15lysCT5/CcHS15y8jnkJNgfXie8/Ye6DAMvYI/ff8dvz2Gz5btgz37t2Di4uLElgisvr174/3Ro1Ke1kE1JyZM3HqxIknWVcWFogID0fVatXw3siRqFGrlnpW3v9i1SosW7wYTZs1Q0REBM6cPg3JwhIhFhQYiKioKPy8dSs8PDwyTG7BnDnYuHEjRo0Zg+49e6q/Tz9bvhxbf/lFvePg4ICgoCAULlwYg4cORZt27dIyum7dvImlixfj0MGDsLGxgY2tLUJDQlCjZk3MmjdPrY2NBIyVAAWWsUaG8zJaAhRY+g+NiKyYqDiEh0Thwe0APLobjNA7wzPLAAANtklEQVSAcERHxSIxPhHJySn6nwRHIAESIAESyBEB+UVDPhsr2BewhUshR3h4u8OjhDvsHGyQ3zYfj4ZnQpUCK0fbzaReosAyqXBlmGxcbCzeGTgQp06exFv9+qFrt25IsbBQkkkkUGoGlkipDydPxm/btqFho0YYOHiwyn5auWIF9uzahY6dOmHcxInqY0pgrVyJZUuWqEyr/DY2eLt/f5SvWFFlQS3+5BM13qixY9H37bfT5hMbE4PWzZvD0dERU2fMQPUaNXD40CGMHDEC3t7eGDZ8OIp7e6sMKxFpkqH10YwZKFa8uDrOuGXTJsycPh2169TB+IkTkdfSEpGRkYiLj0fFf8Y23Uhx5lonQIGl9QhzfTonQIGlc6TskARIgARIgATMngAFlva3AAWW6cbY/+FDDB00CDdu3MDchQvRqnXrZx6BPn36NEYMGaIyr5atXInKVaqoRYsgavzyyyhRsiSmTp+OSpUrZxBYDgUKYOlnn6FGjRppkERsfbl6NUqWKoUN33+PfPmeXHL00w8/YMa0aWjTti2mTJ2qjhp2aNMGAY8e4d333kPvN99Uzz2OisIHkyZh3969WLpihRJqcXFx+Gr1aqxYtgx9+vZVGVxZqc1lupHjzLVGgAJLaxHlevROgAJL74g5AAmQAAmQAAmYHQEKLO2HnALLdGMsdazGvP8+DuzfD48iRVQWVt2XXoJXsWJpYklW992GDfhkwQLY2tlh1ty5sP5HOsnnxo0erZ79cPp01G/QIIPA6tm7tzpemL5W1d+XLmHQ228jT968mDNvHho0bKgEVM9u3RAQEIDRY8eiU5cu6hijyDE5+idSSupeSYtPSMCmn37C7p078eG0aejcrZv6+M7t2zHzo49UxlWPnj3RsnVrlZ0lGV2sM2u6e9RcZk6BZS6R5jp1RoACS2co2REJkAAJkAAJkMA/BCiwtL8VKLBMO8bnzp7F0k8/xZkzZ5R8Ku3jg2bNm+O1zp1RsFAhtTg59rdu7dontxQ+ozk5O+PDjz5S76U/QjhoyBB13DD9rYFSC0uOLZ4+eVLVuZKjhMeOHsWwwYPV2EuWL0eRokUh8+rTs+d/wpXMrP4DB6psK8nUkjlu3bwZYWFhcHNzQ6PGjdHhtddUxlhmtyqadvQ4e60QoMDSSiS5jlwjQIGVa6g5EAmQAAmQAAmYDQEKLO2HmgLL9GMst/8dPXwYO3fswIXz55WEavTqq5gxZw7s7OxU9tU369fD2dkZY8ePh8VTN61aWVmhQsWKqrj68wSW0Nq1cyfGjhyp6lzJ0cM1n3+OX7dtQ++33sKYceNUxpTUuurbuzdcXV3RrXt3lPLx+RfoUqVKoVTp0mkZViHBwepGxd27d+OP/fsRExMDnzJlMGf+fPUcGwkYKwEKLGONDOdltAQosIw2NJwYCZAACZAACZgsAQoskw1dlidOgZVlVEb9YGJiIsLDw/HzDz+oGlUioj5ZsgQNXn4ZG775Bos+/ljdArj2m2/UEcPMWlYElhwZbNuihTruJ4Xj9+/di1u3buHnLVuUcJIWGBiIZo0aqSOAY8aPV5lUWWky/uPHjyFHFefNno0b169j+PvvY8CgQVl5nc+QgEEIUGAZBDsHNWUCFFimHD3OnQRIgARIgASMkwAFlnHGRZezosDSJc3c7Utu74uNjVU1rFKP2Pn7+6vMp6CgIEyfORNt2rXD9WvXMKh/f0RERKBX794YNmJE2rFAEUYiv+SmVjnKlxWBJav8dOFCfLVmDezt7VUNrGrVq2PN119nADCgb18cP3YMTZs1w9gJE1SdrtR6VjKm/HvqmFLPCykpyGdtrT4u61q1YgXWfPGFyuwaN2FC7sLlaCSQDQIUWNmAxUdJQAhQYHEfkAAJkAAJkAAJ6JoABZauiRpffxRYxheTrM7I19cXK5cvR5kyZVCuQgVYWVri0F9/YeOGDSrbauXq1ZBjetLkhr+vv/wS1vnz47VOnVSx9/w2NogID4ccQXypfn2UK18+ywLr0sWLEEEl2VIioaT2ldwomL5duHAB40aNQmBAAF5t0gRt27dHgQIFEBMdrW5OLFuunJqHCDAp7C7zqFuvnjrq+PDBA6xdswZ3/fwwc84cNG/RIqtY+BwJ5DoBCqxcR84BTZ0ABZapR5DzJwESIAESIAHjI0CBZXwx0fWMKLB0TTT3+vPz88O0Dz7AqRMnkD9/fvUnKioKxb290atPH1XIXTKrpEk9qfVr16paVX537z553sYGUZGR8PTywoTJk5VMkgys1atWYenixRg8dKg6upe+iHvq6sJCQzFp/Hj8dfAgypQti2+///5fz0mG2L69e/HtunW4eOEC5L/lSGF0dLTKGHt/9Gh07toVkn31zbp1+PKLL9S/Ozo54XFUlLr9sE379qqQvLzHRgLGSoACy1gjw3kZLQEKLKMNDSdGAiRAAiRAAiZLgALLZEOX5YlTYGUZldE9KLLnzu3buH/vHuTooNwyKLf3lSxVSt0I+PTNfXGxsbh58yZu3bypbv2zypcPbu7u8PT0hHeJEiprS9o9Pz9IdpeXl5eSW6kSLD0AuY1QxpZxpVC7ZFOlHg9M/5wcFZT5ScaV/DMxIQGubm4o7OGhCrPLuyLNJEtL6mhJ5pXcQiiZWiLipKaWyKtn9W10AeGEzJYABZbZhp4LzykBCqyckuN7JEACJEACJEACmRGgwNL+3qDAMv0YiwCS7CapISU3DD5LOKVfpTwrf0QKybO5IYfUHJOSkAKoMTObY+rc8sjc8uY1/eBwBWZBgALLLMLMReqSAAWWLmmyLxIgARIgARIgASFAgaX9fUCBpf0Yc4UkQAL6JUCBpV++7F2DBCiwNBhULokESIAESIAEDEyAAsvAAciF4SmwcgEyhyABEtA0AQosTYeXi9MHAQosfVBlnyRAAiRAAiRg3gQosLQffwos7ceYKyQBEtAvAQos/fJl7xokQIGlwaBySSRAAiRAAiRgYAIUWAYOQC4MT4GVC5A5BAmQgKYJUGBpOrxcnD4IUGDpgyr7JAESIAESIAHzJkCBpf34U2BpP8ZcIQmQgH4JUGDply971yABCiwNBpVLIgESIAESIAEDE6DAMnAAcmF4CqxcgMwhSIAENE2AAkvT4eXi9EGAAksfVNknCZAACZAACZg3AQos7cefAkv7MeYKSYAE9EuAAku/fNm7BglQYGkwqFwSCZAACZAACRiYAAWWgQOQC8NTYOUCZA5BAiSgaQIUWJoOLxenDwIUWPqgyj5JgARIgARIwLwJUGBpP/4UWNqPMVdIAiSgXwIUWPrly941SIACS4NB5ZJIgARIgARIwMAEKLAMHIBcGJ4CKxcgcwgSIAFNE6DA0nR4uTh9EKDA0gdV9kkCJEACJEAC5k2AAkv78afA0n6MuUISIAH9EqDA0i9f9q5BAhRYGgwql0QCJEACJEACBiZAgWXgAOTC8BRYuQCZQ5AACWiaAAWWpsPLxemDAAWWPqiyTxIgARIgARIwbwIUWNqPPwWW9mPMFZIACeiXAAWWfvmydw0SoMDSYFC5JBIgARIgARIwMAEKLAMHIBeGp8DKBcgcggRIQNMEKLA0HV4uTh8EKLD0QZV9kgAJkAAJkIB5E6DA0n78KbC0H2OukARIQL8EKLD0y5e9a5AABZYGg8olkQAJkAAJkICBCVBgGTgAuTA8BVYuQOYQJEACmiZAgaXp8HJx+iBAgaUPquyTBEiABEiABMybAAWW9uNPgaX9GHOFJEAC+iVAgaVfvuxdgwQosDQYVC6JBEiABEiABAxMgALLwAHIheEpsHIBMocgARLQNAEKLE2Hl4vTBwEKLH1QZZ8kQAIkQAIkYN4EKLC0H38KLO3HmCskARLQLwEKLP3yZe8aJECBpcGgckkkQAIkQAIkYGACFFgGDkAuDE+BlQuQOQQJkICmCVBgaTq8XJw+CFBg6YMq+yQBEiABEiAB8yZAgaX9+FNgaT/GXCEJkIB+CVBg6Zcve9cgAQosDQaVSyIBEiABEiABAxOgwDJwAHJheAqsXIDMIUiABDRNgAJL0+Hl4vRBgAJLH1TZJwmQAAmQAAmYNwEKLO3HnwJL+zHmCkmABPRLgAJLv3zZuwYJUGBpMKhcEgmQAAmQAAkYmAAFloEDkAvDU2DlAmQOQQIkoGkCFFiaDi8Xpw8CFFj6oMo+SYAESIAESMC8CVBgaT/+FFjajzFXSAIkoF8CFFj65cveNUiAAkuDQeWSSIAESIAESMDABCiwDByAXBieAisXIHMIEiABTROgwNJ0eLk4fRCQbz5s7POjeLki+uiefZIACZAACZAACZghgZCHYQi4H4LFixfDxcXFDAlof8nyPaSDgwOKlyih/cVyhSRAAiSgBwL3/PwQFhqK9evX/6t3i5SUlBQ9jMkuScCkCcg3H2wkQAIkQAIkQAIkoA8CFFj6oGocffJ7SOOIA2dBAiRg+gQosEw/hlwBCZAACZAACZAACZAACZAACZAACZAACZgdAWZgmV3IuWASIAESIAESIAESIAESIAESIAESIAESMC0CFFimFS/OlgRIgARIgARIgARIgARIgARIgARIgATMjgAFltmFnAsmARIgARIgARIgARIgARIgARIgARIgAdMiQIFlWvHibEmABEiABEiABEiABEiABEiABEiABEjA7Aj8Hx0eVakJnYmkAAAAAElFTkSuQmCC;" vertex="1" parent="1">
          <mxGeometry x="41" y="40" width="759.74" height="390" as="geometry" />
        </mxCell>
        <mxCell id="0TxaiJhhkCyc-LvePMhZ-3" value="" style="endArrow=openThin;html=1;rounded=0;endFill=0;endSize=9;" edge="1" parent="1">
          <mxGeometry width="50" height="50" relative="1" as="geometry">
            <mxPoint x="590" y="404" as="sourcePoint" />
            <mxPoint x="640" y="404" as="targetPoint" />
          </mxGeometry>
        </mxCell>
      </root>
    </mxGraphModel>
  </diagram>
</mxfile>
